<svg width="511" height="189" viewBox="0 0 511 189" fill="none" xmlns="http://www.w3.org/2000/svg">
<path d="M44 134.4C36.2133 134.4 29.7067 132.853 24.48 129.76C19.2533 126.56 15.3067 122.187 12.64 116.64C9.97333 111.093 8.64 104.64 8.64 97.28V38.56C8.64 30.9867 9.86667 24.3733 12.32 18.72C14.88 12.96 18.7733 8.47999 24 5.27999C29.2267 2.07999 35.8933 0.479996 44 0.479996C52.1067 0.479996 58.72 2.07999 63.84 5.27999C69.0667 8.47999 72.9067 12.96 75.36 18.72C77.92 24.3733 79.2 30.9867 79.2 38.56V97.28C79.2 104.533 77.8667 110.987 75.2 116.64C72.5333 122.187 68.5867 126.56 63.36 129.76C58.1333 132.853 51.68 134.4 44 134.4ZM44 110.56C46.56 110.56 48.3733 109.76 49.44 108.16C50.6133 106.453 51.3067 104.533 51.52 102.4C51.84 100.16 52 98.24 52 96.64V39.2C52 37.3867 51.8933 35.36 51.68 33.12C51.4667 30.7733 50.7733 28.7467 49.6 27.04C48.5333 25.2267 46.6667 24.32 44 24.32C41.3333 24.32 39.4133 25.2267 38.24 27.04C37.1733 28.7467 36.5333 30.7733 36.32 33.12C36.1067 35.36 36 37.3867 36 39.2V96.64C36 98.24 36.16 100.16 36.48 102.4C36.8 104.533 37.4933 106.453 38.56 108.16C39.7333 109.76 41.5467 110.56 44 110.56ZM109.249 132V28.8C108.075 29.44 106.742 30.08 105.249 30.72C103.755 31.36 102.155 32.0533 100.449 32.8C98.8488 33.44 97.2488 34.08 95.6488 34.72C94.1554 35.36 92.7688 36 91.4888 36.64V16.8C92.6621 16.16 94.3154 15.3067 96.4488 14.24C98.5821 13.0667 100.875 11.7867 103.329 10.4C105.782 9.01332 108.075 7.62666 110.209 6.24C112.342 4.74666 113.942 3.46666 115.009 2.39999H135.969V132H109.249Z" fill="black" fill-opacity="0.2"/>
<path d="M185.324 36.36C183.356 36.36 181.832 35.952 180.752 35.136C179.696 34.32 178.964 33.228 178.556 31.86C178.148 30.468 177.944 28.932 177.944 27.252V15.66C177.944 13.86 178.148 12.276 178.556 10.908C178.988 9.54 179.744 8.472 180.824 7.704C181.904 6.936 183.404 6.552 185.324 6.552C187.076 6.552 188.444 6.888 189.428 7.56C190.436 8.232 191.156 9.192 191.588 10.44C192.02 11.664 192.236 13.128 192.236 14.832V16.596H189.644V14.904C189.644 13.632 189.536 12.54 189.32 11.628C189.128 10.716 188.72 10.008 188.096 9.504C187.472 9 186.56 8.748 185.36 8.748C184.04 8.748 183.044 9.024 182.372 9.576C181.724 10.104 181.28 10.86 181.04 11.844C180.824 12.828 180.716 13.968 180.716 15.264V27.684C180.716 29.124 180.848 30.324 181.112 31.284C181.4 32.244 181.88 32.964 182.552 33.444C183.224 33.924 184.16 34.164 185.36 34.164C186.584 34.164 187.496 33.9 188.096 33.372C188.72 32.844 189.128 32.112 189.32 31.176C189.536 30.216 189.644 29.1 189.644 27.828V25.92H192.236V27.648C192.236 29.352 192.032 30.864 191.624 32.184C191.24 33.48 190.544 34.5 189.536 35.244C188.552 35.988 187.148 36.36 185.324 36.36ZM196.485 36V6.84H199.257V19.764H208.437V6.84H211.173V36H208.437V21.816H199.257V36H196.485ZM223.191 36.36C221.247 36.36 219.723 35.988 218.619 35.244C217.539 34.476 216.771 33.42 216.315 32.076C215.883 30.708 215.667 29.148 215.667 27.396V15.3C215.667 13.524 215.895 11.988 216.351 10.692C216.831 9.372 217.611 8.352 218.691 7.632C219.795 6.912 221.295 6.552 223.191 6.552C225.063 6.552 226.539 6.912 227.619 7.632C228.723 8.352 229.503 9.372 229.959 10.692C230.415 11.988 230.643 13.524 230.643 15.3V27.432C230.643 29.184 230.415 30.732 229.959 32.076C229.527 33.396 228.771 34.44 227.691 35.208C226.611 35.976 225.111 36.36 223.191 36.36ZM223.191 34.164C224.463 34.164 225.435 33.912 226.107 33.408C226.779 32.88 227.235 32.16 227.475 31.248C227.739 30.312 227.871 29.232 227.871 28.008V14.796C227.871 13.572 227.739 12.504 227.475 11.592C227.235 10.68 226.779 9.984 226.107 9.504C225.435 9 224.463 8.748 223.191 8.748C221.895 8.748 220.899 9 220.203 9.504C219.531 9.984 219.063 10.68 218.799 11.592C218.559 12.504 218.439 13.572 218.439 14.796V28.008C218.439 29.232 218.559 30.312 218.799 31.248C219.063 32.16 219.531 32.88 220.203 33.408C220.899 33.912 221.895 34.164 223.191 34.164ZM242.105 36.36C240.161 36.36 238.637 35.988 237.533 35.244C236.453 34.476 235.685 33.42 235.229 32.076C234.797 30.708 234.581 29.148 234.581 27.396V15.3C234.581 13.524 234.809 11.988 235.265 10.692C235.745 9.372 236.525 8.352 237.605 7.632C238.709 6.912 240.209 6.552 242.105 6.552C243.977 6.552 245.453 6.912 246.533 7.632C247.637 8.352 248.417 9.372 248.873 10.692C249.329 11.988 249.557 13.524 249.557 15.3V27.432C249.557 29.184 249.329 30.732 248.873 32.076C248.441 33.396 247.685 34.44 246.605 35.208C245.525 35.976 244.025 36.36 242.105 36.36ZM242.105 34.164C243.377 34.164 244.349 33.912 245.021 33.408C245.693 32.88 246.149 32.16 246.389 31.248C246.653 30.312 246.785 29.232 246.785 28.008V14.796C246.785 13.572 246.653 12.504 246.389 11.592C246.149 10.68 245.693 9.984 245.021 9.504C244.349 9 243.377 8.748 242.105 8.748C240.809 8.748 239.813 9 239.117 9.504C238.445 9.984 237.977 10.68 237.713 11.592C237.473 12.504 237.353 13.572 237.353 14.796V28.008C237.353 29.232 237.473 30.312 237.713 31.248C237.977 32.16 238.445 32.88 239.117 33.408C239.813 33.912 240.809 34.164 242.105 34.164ZM260.299 36.36C258.715 36.36 257.395 36.036 256.339 35.388C255.307 34.716 254.527 33.792 253.999 32.616C253.471 31.416 253.147 30.024 253.027 28.44L255.439 27.72C255.559 28.92 255.775 30.012 256.087 30.996C256.399 31.956 256.891 32.724 257.563 33.3C258.235 33.852 259.159 34.128 260.335 34.128C261.631 34.128 262.639 33.792 263.359 33.12C264.079 32.448 264.439 31.38 264.439 29.916C264.439 28.62 264.115 27.504 263.467 26.568C262.843 25.632 261.979 24.648 260.875 23.616L255.727 18.684C254.815 17.796 254.143 16.884 253.711 15.948C253.279 14.988 253.063 13.944 253.063 12.816C253.063 10.8 253.663 9.252 254.863 8.172C256.063 7.092 257.659 6.552 259.651 6.552C260.683 6.552 261.607 6.684 262.423 6.948C263.263 7.212 263.971 7.644 264.547 8.244C265.147 8.82 265.615 9.576 265.951 10.512C266.287 11.448 266.515 12.588 266.635 13.932L264.295 14.544C264.199 13.32 263.995 12.276 263.683 11.412C263.395 10.524 262.927 9.852 262.279 9.396C261.655 8.94 260.779 8.712 259.651 8.712C258.451 8.712 257.467 9.024 256.699 9.648C255.931 10.272 255.547 11.244 255.547 12.564C255.547 13.356 255.691 14.076 255.979 14.724C256.291 15.372 256.831 16.068 257.599 16.812L262.747 21.672C263.899 22.752 264.895 23.952 265.735 25.272C266.575 26.592 266.995 28.08 266.995 29.736C266.995 31.2 266.707 32.424 266.131 33.408C265.579 34.392 264.799 35.136 263.791 35.64C262.783 36.12 261.619 36.36 260.299 36.36ZM270.629 36V6.84H281.177V8.964H273.401V19.908H279.737V21.924H273.401V33.948H281.249V36H270.629ZM297.001 36V26.316L290.413 6.84H293.077L298.333 23.04L303.373 6.84H306.073L299.665 26.316V36H297.001ZM316.144 36.36C314.2 36.36 312.676 35.988 311.572 35.244C310.492 34.476 309.724 33.42 309.268 32.076C308.836 30.708 308.62 29.148 308.62 27.396V15.3C308.62 13.524 308.848 11.988 309.304 10.692C309.784 9.372 310.564 8.352 311.644 7.632C312.748 6.912 314.248 6.552 316.144 6.552C318.016 6.552 319.492 6.912 320.572 7.632C321.676 8.352 322.456 9.372 322.912 10.692C323.368 11.988 323.596 13.524 323.596 15.3V27.432C323.596 29.184 323.368 30.732 322.912 32.076C322.48 33.396 321.724 34.44 320.644 35.208C319.564 35.976 318.064 36.36 316.144 36.36ZM316.144 34.164C317.416 34.164 318.388 33.912 319.06 33.408C319.732 32.88 320.188 32.16 320.428 31.248C320.692 30.312 320.824 29.232 320.824 28.008V14.796C320.824 13.572 320.692 12.504 320.428 11.592C320.188 10.68 319.732 9.984 319.06 9.504C318.388 9 317.416 8.748 316.144 8.748C314.848 8.748 313.852 9 313.156 9.504C312.484 9.984 312.016 10.68 311.752 11.592C311.512 12.504 311.392 13.572 311.392 14.796V28.008C311.392 29.232 311.512 30.312 311.752 31.248C312.016 32.16 312.484 32.88 313.156 33.408C313.852 33.912 314.848 34.164 316.144 34.164ZM335.274 36.36C333.306 36.36 331.77 36.012 330.666 35.316C329.586 34.596 328.842 33.612 328.434 32.364C328.026 31.092 327.822 29.652 327.822 28.044V6.84H330.486V28.116C330.486 29.244 330.606 30.276 330.846 31.212C331.11 32.124 331.59 32.844 332.286 33.372C332.982 33.9 333.978 34.164 335.274 34.164C336.522 34.164 337.494 33.9 338.19 33.372C338.886 32.82 339.366 32.088 339.63 31.176C339.918 30.264 340.062 29.244 340.062 28.116V6.84H342.69V28.044C342.69 29.652 342.474 31.092 342.042 32.364C341.61 33.612 340.854 34.596 339.774 35.316C338.694 36.012 337.194 36.36 335.274 36.36ZM347.482 36V6.84H354.07C355.894 6.84 357.322 7.14 358.354 7.74C359.41 8.316 360.166 9.168 360.622 10.296C361.078 11.4 361.306 12.72 361.306 14.256C361.306 15.336 361.186 16.356 360.946 17.316C360.706 18.276 360.298 19.092 359.722 19.764C359.146 20.436 358.33 20.88 357.274 21.096L361.738 36H359.074L354.79 21.672H350.218V36H347.482ZM350.218 19.656H353.926C355.15 19.656 356.098 19.452 356.77 19.044C357.442 18.636 357.922 18.036 358.21 17.244C358.498 16.452 358.642 15.456 358.642 14.256C358.642 12.456 358.33 11.112 357.706 10.224C357.082 9.336 355.846 8.892 353.998 8.892H350.218V19.656ZM380.019 36.36C378.051 36.36 376.527 35.952 375.447 35.136C374.391 34.32 373.659 33.228 373.251 31.86C372.843 30.468 372.639 28.932 372.639 27.252V15.66C372.639 13.86 372.843 12.276 373.251 10.908C373.683 9.54 374.439 8.472 375.519 7.704C376.599 6.936 378.099 6.552 380.019 6.552C381.771 6.552 383.139 6.888 384.123 7.56C385.131 8.232 385.851 9.192 386.283 10.44C386.715 11.664 386.931 13.128 386.931 14.832V16.596H384.339V14.904C384.339 13.632 384.231 12.54 384.015 11.628C383.823 10.716 383.415 10.008 382.791 9.504C382.167 9 381.255 8.748 380.055 8.748C378.735 8.748 377.739 9.024 377.067 9.576C376.419 10.104 375.975 10.86 375.735 11.844C375.519 12.828 375.411 13.968 375.411 15.264V27.684C375.411 29.124 375.543 30.324 375.807 31.284C376.095 32.244 376.575 32.964 377.247 33.444C377.919 33.924 378.855 34.164 380.055 34.164C381.279 34.164 382.191 33.9 382.791 33.372C383.415 32.844 383.823 32.112 384.015 31.176C384.231 30.216 384.339 29.1 384.339 27.828V25.92H386.931V27.648C386.931 29.352 386.727 30.864 386.319 32.184C385.935 33.48 385.239 34.5 384.231 35.244C383.247 35.988 381.843 36.36 380.019 36.36ZM398.128 36.36C396.184 36.36 394.66 35.988 393.556 35.244C392.476 34.476 391.708 33.42 391.252 32.076C390.82 30.708 390.604 29.148 390.604 27.396V15.3C390.604 13.524 390.832 11.988 391.288 10.692C391.768 9.372 392.548 8.352 393.628 7.632C394.732 6.912 396.232 6.552 398.128 6.552C400 6.552 401.476 6.912 402.556 7.632C403.66 8.352 404.44 9.372 404.896 10.692C405.352 11.988 405.58 13.524 405.58 15.3V27.432C405.58 29.184 405.352 30.732 404.896 32.076C404.464 33.396 403.708 34.44 402.628 35.208C401.548 35.976 400.048 36.36 398.128 36.36ZM398.128 34.164C399.4 34.164 400.372 33.912 401.044 33.408C401.716 32.88 402.172 32.16 402.412 31.248C402.676 30.312 402.808 29.232 402.808 28.008V14.796C402.808 13.572 402.676 12.504 402.412 11.592C402.172 10.68 401.716 9.984 401.044 9.504C400.372 9 399.4 8.748 398.128 8.748C396.832 8.748 395.836 9 395.14 9.504C394.468 9.984 394 10.68 393.736 11.592C393.496 12.504 393.376 13.572 393.376 14.796V28.008C393.376 29.232 393.496 30.312 393.736 31.248C394 32.16 394.468 32.88 395.14 33.408C395.836 33.912 396.832 34.164 398.128 34.164ZM417.258 36.36C415.29 36.36 413.754 36.012 412.65 35.316C411.57 34.596 410.826 33.612 410.418 32.364C410.01 31.092 409.806 29.652 409.806 28.044V6.84H412.47V28.116C412.47 29.244 412.59 30.276 412.83 31.212C413.094 32.124 413.574 32.844 414.27 33.372C414.966 33.9 415.962 34.164 417.258 34.164C418.506 34.164 419.478 33.9 420.174 33.372C420.87 32.82 421.35 32.088 421.614 31.176C421.902 30.264 422.046 29.244 422.046 28.116V6.84H424.674V28.044C424.674 29.652 424.458 31.092 424.026 32.364C423.594 33.612 422.838 34.596 421.758 35.316C420.678 36.012 419.178 36.36 417.258 36.36ZM429.466 36V6.84H436.054C437.878 6.84 439.306 7.14 440.338 7.74C441.394 8.316 442.15 9.168 442.606 10.296C443.062 11.4 443.29 12.72 443.29 14.256C443.29 15.336 443.17 16.356 442.93 17.316C442.69 18.276 442.282 19.092 441.706 19.764C441.13 20.436 440.314 20.88 439.258 21.096L443.722 36H441.058L436.774 21.672H432.202V36H429.466ZM432.202 19.656H435.91C437.134 19.656 438.082 19.452 438.754 19.044C439.426 18.636 439.906 18.036 440.194 17.244C440.482 16.452 440.626 15.456 440.626 14.256C440.626 12.456 440.314 11.112 439.69 10.224C439.066 9.336 437.83 8.892 435.982 8.892H432.202V19.656ZM454.08 36.36C452.496 36.36 451.176 36.036 450.12 35.388C449.088 34.716 448.308 33.792 447.78 32.616C447.252 31.416 446.928 30.024 446.808 28.44L449.22 27.72C449.34 28.92 449.556 30.012 449.868 30.996C450.18 31.956 450.672 32.724 451.344 33.3C452.016 33.852 452.94 34.128 454.116 34.128C455.412 34.128 456.42 33.792 457.14 33.12C457.86 32.448 458.22 31.38 458.22 29.916C458.22 28.62 457.896 27.504 457.248 26.568C456.624 25.632 455.76 24.648 454.656 23.616L449.508 18.684C448.596 17.796 447.924 16.884 447.492 15.948C447.06 14.988 446.844 13.944 446.844 12.816C446.844 10.8 447.444 9.252 448.644 8.172C449.844 7.092 451.44 6.552 453.432 6.552C454.464 6.552 455.388 6.684 456.204 6.948C457.044 7.212 457.752 7.644 458.328 8.244C458.928 8.82 459.396 9.576 459.732 10.512C460.068 11.448 460.296 12.588 460.416 13.932L458.076 14.544C457.98 13.32 457.776 12.276 457.464 11.412C457.176 10.524 456.708 9.852 456.06 9.396C455.436 8.94 454.56 8.712 453.432 8.712C452.232 8.712 451.248 9.024 450.48 9.648C449.712 10.272 449.328 11.244 449.328 12.564C449.328 13.356 449.472 14.076 449.76 14.724C450.072 15.372 450.612 16.068 451.38 16.812L456.528 21.672C457.68 22.752 458.676 23.952 459.516 25.272C460.356 26.592 460.776 28.08 460.776 29.736C460.776 31.2 460.488 32.424 459.912 33.408C459.36 34.392 458.58 35.136 457.572 35.64C456.564 36.12 455.4 36.36 454.08 36.36ZM464.411 36V6.84H474.959V8.964H467.183V19.908H473.519V21.924H467.183V33.948H475.031V36H464.411Z" fill="black" fill-opacity="0.1"/>
<path d="M181.576 83.324C179.512 83.324 177.904 82.892 176.752 82.028C175.624 81.164 174.832 80 174.376 78.536C173.944 77.072 173.728 75.44 173.728 73.64V63.344C173.728 61.376 173.944 59.66 174.376 58.196C174.832 56.732 175.624 55.604 176.752 54.812C177.904 53.996 179.512 53.588 181.576 53.588C183.4 53.588 184.84 53.924 185.896 54.596C186.976 55.268 187.744 56.228 188.2 57.476C188.68 58.724 188.92 60.224 188.92 61.976V64.28H185.068V62.228C185.068 61.148 185.008 60.2 184.888 59.384C184.792 58.544 184.504 57.896 184.024 57.44C183.544 56.984 182.74 56.756 181.612 56.756C180.46 56.756 179.62 57.008 179.092 57.512C178.564 57.992 178.216 58.688 178.048 59.6C177.904 60.488 177.832 61.532 177.832 62.732V74.288C177.832 75.752 177.952 76.916 178.192 77.78C178.432 78.62 178.828 79.22 179.38 79.58C179.932 79.94 180.676 80.12 181.612 80.12C182.716 80.12 183.508 79.88 183.988 79.4C184.468 78.896 184.768 78.212 184.888 77.348C185.008 76.484 185.068 75.476 185.068 74.324V72.164H188.92V74.324C188.92 76.1 188.704 77.672 188.272 79.04C187.84 80.384 187.096 81.44 186.04 82.208C184.984 82.952 183.496 83.324 181.576 83.324ZM192.795 83V53.84H196.863V66.44H204.351V53.84H208.419V83H204.351V69.356H196.863V83H192.795ZM220.427 83.324C218.459 83.324 216.887 82.94 215.711 82.172C214.535 81.404 213.695 80.312 213.191 78.896C212.687 77.456 212.435 75.776 212.435 73.856V62.804C212.435 60.884 212.687 59.24 213.191 57.872C213.719 56.48 214.559 55.424 215.711 54.704C216.887 53.96 218.459 53.588 220.427 53.588C222.395 53.588 223.955 53.96 225.107 54.704C226.259 55.448 227.087 56.504 227.591 57.872C228.119 59.24 228.383 60.884 228.383 62.804V73.892C228.383 75.788 228.119 77.444 227.591 78.86C227.087 80.276 226.259 81.38 225.107 82.172C223.955 82.94 222.395 83.324 220.427 83.324ZM220.427 80.12C221.507 80.12 222.323 79.904 222.875 79.472C223.427 79.016 223.799 78.392 223.991 77.6C224.183 76.784 224.279 75.836 224.279 74.756V61.976C224.279 60.896 224.183 59.972 223.991 59.204C223.799 58.412 223.427 57.812 222.875 57.404C222.323 56.972 221.507 56.756 220.427 56.756C219.347 56.756 218.519 56.972 217.943 57.404C217.391 57.812 217.019 58.412 216.827 59.204C216.635 59.972 216.539 60.896 216.539 61.976V74.756C216.539 75.836 216.635 76.784 216.827 77.6C217.019 78.392 217.391 79.016 217.943 79.472C218.519 79.904 219.347 80.12 220.427 80.12ZM239.833 83.324C237.865 83.324 236.293 82.94 235.117 82.172C233.941 81.404 233.101 80.312 232.597 78.896C232.093 77.456 231.841 75.776 231.841 73.856V62.804C231.841 60.884 232.093 59.24 232.597 57.872C233.125 56.48 233.965 55.424 235.117 54.704C236.293 53.96 237.865 53.588 239.833 53.588C241.801 53.588 243.361 53.96 244.513 54.704C245.665 55.448 246.493 56.504 246.997 57.872C247.525 59.24 247.789 60.884 247.789 62.804V73.892C247.789 75.788 247.525 77.444 246.997 78.86C246.493 80.276 245.665 81.38 244.513 82.172C243.361 82.94 241.801 83.324 239.833 83.324ZM239.833 80.12C240.913 80.12 241.729 79.904 242.281 79.472C242.833 79.016 243.205 78.392 243.397 77.6C243.589 76.784 243.685 75.836 243.685 74.756V61.976C243.685 60.896 243.589 59.972 243.397 59.204C243.205 58.412 242.833 57.812 242.281 57.404C241.729 56.972 240.913 56.756 239.833 56.756C238.753 56.756 237.925 56.972 237.349 57.404C236.797 57.812 236.425 58.412 236.233 59.204C236.041 59.972 235.945 60.896 235.945 61.976V74.756C235.945 75.836 236.041 76.784 236.233 77.6C236.425 78.392 236.797 79.016 237.349 79.472C237.925 79.904 238.753 80.12 239.833 80.12ZM258.664 83.324C256.984 83.324 255.58 82.964 254.452 82.244C253.348 81.524 252.508 80.528 251.932 79.256C251.356 77.984 251.02 76.508 250.924 74.828L254.524 73.856C254.596 74.888 254.752 75.884 254.992 76.844C255.256 77.804 255.676 78.596 256.252 79.22C256.828 79.82 257.632 80.12 258.664 80.12C259.72 80.12 260.512 79.832 261.04 79.256C261.592 78.656 261.868 77.804 261.868 76.7C261.868 75.38 261.568 74.324 260.968 73.532C260.368 72.716 259.612 71.9 258.7 71.084L253.804 66.764C252.844 65.924 252.136 65.012 251.68 64.028C251.224 63.02 250.996 61.784 250.996 60.32C250.996 58.184 251.608 56.528 252.832 55.352C254.056 54.176 255.724 53.588 257.836 53.588C258.988 53.588 259.996 53.744 260.86 54.056C261.748 54.344 262.48 54.8 263.056 55.424C263.656 56.048 264.124 56.84 264.46 57.8C264.82 58.736 265.06 59.84 265.18 61.112L261.724 62.048C261.652 61.088 261.508 60.212 261.292 59.42C261.076 58.604 260.692 57.956 260.14 57.476C259.612 56.972 258.844 56.72 257.836 56.72C256.828 56.72 256.036 56.996 255.46 57.548C254.908 58.076 254.632 58.868 254.632 59.924C254.632 60.812 254.776 61.544 255.064 62.12C255.376 62.696 255.868 63.284 256.54 63.884L261.472 68.204C262.576 69.164 263.548 70.316 264.388 71.66C265.228 72.98 265.648 74.552 265.648 76.376C265.648 77.816 265.348 79.064 264.748 80.12C264.148 81.152 263.32 81.944 262.264 82.496C261.232 83.048 260.032 83.324 258.664 83.324ZM268.803 83V53.84H280.107V56.864H272.871V66.512H278.739V69.392H272.871V80.084H280.179V83H268.803ZM296.154 83V72.704L289.854 53.84H293.634L298.098 67.916L302.49 53.84H306.306L300.042 72.704V83H296.154ZM316.474 83.324C314.506 83.324 312.934 82.94 311.758 82.172C310.582 81.404 309.742 80.312 309.238 78.896C308.734 77.456 308.482 75.776 308.482 73.856V62.804C308.482 60.884 308.734 59.24 309.238 57.872C309.766 56.48 310.606 55.424 311.758 54.704C312.934 53.96 314.506 53.588 316.474 53.588C318.442 53.588 320.002 53.96 321.154 54.704C322.306 55.448 323.134 56.504 323.638 57.872C324.166 59.24 324.43 60.884 324.43 62.804V73.892C324.43 75.788 324.166 77.444 323.638 78.86C323.134 80.276 322.306 81.38 321.154 82.172C320.002 82.94 318.442 83.324 316.474 83.324ZM316.474 80.12C317.554 80.12 318.37 79.904 318.922 79.472C319.474 79.016 319.846 78.392 320.038 77.6C320.23 76.784 320.326 75.836 320.326 74.756V61.976C320.326 60.896 320.23 59.972 320.038 59.204C319.846 58.412 319.474 57.812 318.922 57.404C318.37 56.972 317.554 56.756 316.474 56.756C315.394 56.756 314.566 56.972 313.99 57.404C313.438 57.812 313.066 58.412 312.874 59.204C312.682 59.972 312.586 60.896 312.586 61.976V74.756C312.586 75.836 312.682 76.784 312.874 77.6C313.066 78.392 313.438 79.016 313.99 79.472C314.566 79.904 315.394 80.12 316.474 80.12ZM335.952 83.324C333.84 83.324 332.22 82.904 331.092 82.064C329.964 81.224 329.196 80.048 328.788 78.536C328.38 77 328.176 75.212 328.176 73.172V53.84H332.064V73.352C332.064 74.6 332.148 75.74 332.316 76.772C332.484 77.804 332.844 78.62 333.396 79.22C333.972 79.82 334.824 80.12 335.952 80.12C337.104 80.12 337.956 79.82 338.508 79.22C339.06 78.62 339.42 77.804 339.588 76.772C339.756 75.74 339.84 74.6 339.84 73.352V53.84H343.692V73.172C343.692 75.212 343.488 77 343.08 78.536C342.672 80.048 341.904 81.224 340.776 82.064C339.672 82.904 338.064 83.324 335.952 83.324ZM347.975 83V53.84H353.843C355.787 53.84 357.395 54.104 358.667 54.632C359.939 55.136 360.875 55.964 361.475 57.116C362.099 58.244 362.411 59.732 362.411 61.58C362.411 62.708 362.291 63.74 362.051 64.676C361.811 65.588 361.427 66.368 360.899 67.016C360.371 67.64 359.675 68.096 358.811 68.384L362.951 83H359.027L355.211 69.32H352.043V83H347.975ZM352.043 66.404H353.591C354.743 66.404 355.679 66.26 356.399 65.972C357.119 65.684 357.647 65.192 357.983 64.496C358.319 63.8 358.487 62.828 358.487 61.58C358.487 59.876 358.175 58.652 357.551 57.908C356.927 57.14 355.691 56.756 353.843 56.756H352.043V66.404ZM382.178 83.324C380.114 83.324 378.506 82.892 377.354 82.028C376.226 81.164 375.434 80 374.978 78.536C374.546 77.072 374.33 75.44 374.33 73.64V63.344C374.33 61.376 374.546 59.66 374.978 58.196C375.434 56.732 376.226 55.604 377.354 54.812C378.506 53.996 380.114 53.588 382.178 53.588C384.002 53.588 385.442 53.924 386.498 54.596C387.578 55.268 388.346 56.228 388.802 57.476C389.282 58.724 389.522 60.224 389.522 61.976V64.28H385.67V62.228C385.67 61.148 385.61 60.2 385.49 59.384C385.394 58.544 385.106 57.896 384.626 57.44C384.146 56.984 383.342 56.756 382.214 56.756C381.062 56.756 380.222 57.008 379.694 57.512C379.166 57.992 378.818 58.688 378.65 59.6C378.506 60.488 378.434 61.532 378.434 62.732V74.288C378.434 75.752 378.554 76.916 378.794 77.78C379.034 78.62 379.43 79.22 379.982 79.58C380.534 79.94 381.278 80.12 382.214 80.12C383.318 80.12 384.11 79.88 384.59 79.4C385.07 78.896 385.37 78.212 385.49 77.348C385.61 76.484 385.67 75.476 385.67 74.324V72.164H389.522V74.324C389.522 76.1 389.306 77.672 388.874 79.04C388.442 80.384 387.698 81.44 386.642 82.208C385.586 82.952 384.098 83.324 382.178 83.324ZM400.849 83.324C398.881 83.324 397.309 82.94 396.133 82.172C394.957 81.404 394.117 80.312 393.613 78.896C393.109 77.456 392.857 75.776 392.857 73.856V62.804C392.857 60.884 393.109 59.24 393.613 57.872C394.141 56.48 394.981 55.424 396.133 54.704C397.309 53.96 398.881 53.588 400.849 53.588C402.817 53.588 404.377 53.96 405.529 54.704C406.681 55.448 407.509 56.504 408.013 57.872C408.541 59.24 408.805 60.884 408.805 62.804V73.892C408.805 75.788 408.541 77.444 408.013 78.86C407.509 80.276 406.681 81.38 405.529 82.172C404.377 82.94 402.817 83.324 400.849 83.324ZM400.849 80.12C401.929 80.12 402.745 79.904 403.297 79.472C403.849 79.016 404.221 78.392 404.413 77.6C404.605 76.784 404.701 75.836 404.701 74.756V61.976C404.701 60.896 404.605 59.972 404.413 59.204C404.221 58.412 403.849 57.812 403.297 57.404C402.745 56.972 401.929 56.756 400.849 56.756C399.769 56.756 398.941 56.972 398.365 57.404C397.813 57.812 397.441 58.412 397.249 59.204C397.057 59.972 396.961 60.896 396.961 61.976V74.756C396.961 75.836 397.057 76.784 397.249 77.6C397.441 78.392 397.813 79.016 398.365 79.472C398.941 79.904 399.769 80.12 400.849 80.12ZM420.327 83.324C418.215 83.324 416.595 82.904 415.467 82.064C414.339 81.224 413.571 80.048 413.163 78.536C412.755 77 412.551 75.212 412.551 73.172V53.84H416.439V73.352C416.439 74.6 416.523 75.74 416.691 76.772C416.859 77.804 417.219 78.62 417.771 79.22C418.347 79.82 419.199 80.12 420.327 80.12C421.479 80.12 422.331 79.82 422.883 79.22C423.435 78.62 423.795 77.804 423.963 76.772C424.131 75.74 424.215 74.6 424.215 73.352V53.84H428.067V73.172C428.067 75.212 427.863 77 427.455 78.536C427.047 80.048 426.279 81.224 425.151 82.064C424.047 82.904 422.439 83.324 420.327 83.324ZM432.35 83V53.84H438.218C440.162 53.84 441.77 54.104 443.042 54.632C444.314 55.136 445.25 55.964 445.85 57.116C446.474 58.244 446.786 59.732 446.786 61.58C446.786 62.708 446.666 63.74 446.426 64.676C446.186 65.588 445.802 66.368 445.274 67.016C444.746 67.64 444.05 68.096 443.186 68.384L447.326 83H443.402L439.586 69.32H436.418V83H432.35ZM436.418 66.404H437.966C439.118 66.404 440.054 66.26 440.774 65.972C441.494 65.684 442.022 65.192 442.358 64.496C442.694 63.8 442.862 62.828 442.862 61.58C442.862 59.876 442.55 58.652 441.926 57.908C441.302 57.14 440.066 56.756 438.218 56.756H436.418V66.404ZM457.894 83.324C456.214 83.324 454.81 82.964 453.682 82.244C452.578 81.524 451.738 80.528 451.162 79.256C450.586 77.984 450.25 76.508 450.154 74.828L453.754 73.856C453.826 74.888 453.982 75.884 454.222 76.844C454.486 77.804 454.906 78.596 455.482 79.22C456.058 79.82 456.862 80.12 457.894 80.12C458.95 80.12 459.742 79.832 460.27 79.256C460.822 78.656 461.098 77.804 461.098 76.7C461.098 75.38 460.798 74.324 460.198 73.532C459.598 72.716 458.842 71.9 457.93 71.084L453.034 66.764C452.074 65.924 451.366 65.012 450.91 64.028C450.454 63.02 450.226 61.784 450.226 60.32C450.226 58.184 450.838 56.528 452.062 55.352C453.286 54.176 454.954 53.588 457.066 53.588C458.218 53.588 459.226 53.744 460.09 54.056C460.978 54.344 461.71 54.8 462.286 55.424C462.886 56.048 463.354 56.84 463.69 57.8C464.05 58.736 464.29 59.84 464.41 61.112L460.954 62.048C460.882 61.088 460.738 60.212 460.522 59.42C460.306 58.604 459.922 57.956 459.37 57.476C458.842 56.972 458.074 56.72 457.066 56.72C456.058 56.72 455.266 56.996 454.69 57.548C454.138 58.076 453.862 58.868 453.862 59.924C453.862 60.812 454.006 61.544 454.294 62.12C454.606 62.696 455.098 63.284 455.77 63.884L460.702 68.204C461.806 69.164 462.778 70.316 463.618 71.66C464.458 72.98 464.878 74.552 464.878 76.376C464.878 77.816 464.578 79.064 463.978 80.12C463.378 81.152 462.55 81.944 461.494 82.496C460.462 83.048 459.262 83.324 457.894 83.324ZM468.034 83V53.84H479.338V56.864H472.102V66.512H477.97V69.392H472.102V80.084H479.41V83H468.034Z" fill="black" fill-opacity="0.2"/>
<path d="M181.576 130.324C179.512 130.324 177.904 129.892 176.752 129.028C175.624 128.164 174.832 127 174.376 125.536C173.944 124.072 173.728 122.44 173.728 120.64V110.344C173.728 108.376 173.944 106.66 174.376 105.196C174.832 103.732 175.624 102.604 176.752 101.812C177.904 100.996 179.512 100.588 181.576 100.588C183.4 100.588 184.84 100.924 185.896 101.596C186.976 102.268 187.744 103.228 188.2 104.476C188.68 105.724 188.92 107.224 188.92 108.976V111.28H185.068V109.228C185.068 108.148 185.008 107.2 184.888 106.384C184.792 105.544 184.504 104.896 184.024 104.44C183.544 103.984 182.74 103.756 181.612 103.756C180.46 103.756 179.62 104.008 179.092 104.512C178.564 104.992 178.216 105.688 178.048 106.6C177.904 107.488 177.832 108.532 177.832 109.732V121.288C177.832 122.752 177.952 123.916 178.192 124.78C178.432 125.62 178.828 126.22 179.38 126.58C179.932 126.94 180.676 127.12 181.612 127.12C182.716 127.12 183.508 126.88 183.988 126.4C184.468 125.896 184.768 125.212 184.888 124.348C185.008 123.484 185.068 122.476 185.068 121.324V119.164H188.92V121.324C188.92 123.1 188.704 124.672 188.272 126.04C187.84 127.384 187.096 128.44 186.04 129.208C184.984 129.952 183.496 130.324 181.576 130.324ZM192.795 130V100.84H196.863V113.44H204.351V100.84H208.419V130H204.351V116.356H196.863V130H192.795ZM220.427 130.324C218.459 130.324 216.887 129.94 215.711 129.172C214.535 128.404 213.695 127.312 213.191 125.896C212.687 124.456 212.435 122.776 212.435 120.856V109.804C212.435 107.884 212.687 106.24 213.191 104.872C213.719 103.48 214.559 102.424 215.711 101.704C216.887 100.96 218.459 100.588 220.427 100.588C222.395 100.588 223.955 100.96 225.107 101.704C226.259 102.448 227.087 103.504 227.591 104.872C228.119 106.24 228.383 107.884 228.383 109.804V120.892C228.383 122.788 228.119 124.444 227.591 125.86C227.087 127.276 226.259 128.38 225.107 129.172C223.955 129.94 222.395 130.324 220.427 130.324ZM220.427 127.12C221.507 127.12 222.323 126.904 222.875 126.472C223.427 126.016 223.799 125.392 223.991 124.6C224.183 123.784 224.279 122.836 224.279 121.756V108.976C224.279 107.896 224.183 106.972 223.991 106.204C223.799 105.412 223.427 104.812 222.875 104.404C222.323 103.972 221.507 103.756 220.427 103.756C219.347 103.756 218.519 103.972 217.943 104.404C217.391 104.812 217.019 105.412 216.827 106.204C216.635 106.972 216.539 107.896 216.539 108.976V121.756C216.539 122.836 216.635 123.784 216.827 124.6C217.019 125.392 217.391 126.016 217.943 126.472C218.519 126.904 219.347 127.12 220.427 127.12ZM239.833 130.324C237.865 130.324 236.293 129.94 235.117 129.172C233.941 128.404 233.101 127.312 232.597 125.896C232.093 124.456 231.841 122.776 231.841 120.856V109.804C231.841 107.884 232.093 106.24 232.597 104.872C233.125 103.48 233.965 102.424 235.117 101.704C236.293 100.96 237.865 100.588 239.833 100.588C241.801 100.588 243.361 100.96 244.513 101.704C245.665 102.448 246.493 103.504 246.997 104.872C247.525 106.24 247.789 107.884 247.789 109.804V120.892C247.789 122.788 247.525 124.444 246.997 125.86C246.493 127.276 245.665 128.38 244.513 129.172C243.361 129.94 241.801 130.324 239.833 130.324ZM239.833 127.12C240.913 127.12 241.729 126.904 242.281 126.472C242.833 126.016 243.205 125.392 243.397 124.6C243.589 123.784 243.685 122.836 243.685 121.756V108.976C243.685 107.896 243.589 106.972 243.397 106.204C243.205 105.412 242.833 104.812 242.281 104.404C241.729 103.972 240.913 103.756 239.833 103.756C238.753 103.756 237.925 103.972 237.349 104.404C236.797 104.812 236.425 105.412 236.233 106.204C236.041 106.972 235.945 107.896 235.945 108.976V121.756C235.945 122.836 236.041 123.784 236.233 124.6C236.425 125.392 236.797 126.016 237.349 126.472C237.925 126.904 238.753 127.12 239.833 127.12ZM258.664 130.324C256.984 130.324 255.58 129.964 254.452 129.244C253.348 128.524 252.508 127.528 251.932 126.256C251.356 124.984 251.02 123.508 250.924 121.828L254.524 120.856C254.596 121.888 254.752 122.884 254.992 123.844C255.256 124.804 255.676 125.596 256.252 126.22C256.828 126.82 257.632 127.12 258.664 127.12C259.72 127.12 260.512 126.832 261.04 126.256C261.592 125.656 261.868 124.804 261.868 123.7C261.868 122.38 261.568 121.324 260.968 120.532C260.368 119.716 259.612 118.9 258.7 118.084L253.804 113.764C252.844 112.924 252.136 112.012 251.68 111.028C251.224 110.02 250.996 108.784 250.996 107.32C250.996 105.184 251.608 103.528 252.832 102.352C254.056 101.176 255.724 100.588 257.836 100.588C258.988 100.588 259.996 100.744 260.86 101.056C261.748 101.344 262.48 101.8 263.056 102.424C263.656 103.048 264.124 103.84 264.46 104.8C264.82 105.736 265.06 106.84 265.18 108.112L261.724 109.048C261.652 108.088 261.508 107.212 261.292 106.42C261.076 105.604 260.692 104.956 260.14 104.476C259.612 103.972 258.844 103.72 257.836 103.72C256.828 103.72 256.036 103.996 255.46 104.548C254.908 105.076 254.632 105.868 254.632 106.924C254.632 107.812 254.776 108.544 255.064 109.12C255.376 109.696 255.868 110.284 256.54 110.884L261.472 115.204C262.576 116.164 263.548 117.316 264.388 118.66C265.228 119.98 265.648 121.552 265.648 123.376C265.648 124.816 265.348 126.064 264.748 127.12C264.148 128.152 263.32 128.944 262.264 129.496C261.232 130.048 260.032 130.324 258.664 130.324ZM268.803 130V100.84H280.107V103.864H272.871V113.512H278.739V116.392H272.871V127.084H280.179V130H268.803ZM296.154 130V119.704L289.854 100.84H293.634L298.098 114.916L302.49 100.84H306.306L300.042 119.704V130H296.154ZM316.474 130.324C314.506 130.324 312.934 129.94 311.758 129.172C310.582 128.404 309.742 127.312 309.238 125.896C308.734 124.456 308.482 122.776 308.482 120.856V109.804C308.482 107.884 308.734 106.24 309.238 104.872C309.766 103.48 310.606 102.424 311.758 101.704C312.934 100.96 314.506 100.588 316.474 100.588C318.442 100.588 320.002 100.96 321.154 101.704C322.306 102.448 323.134 103.504 323.638 104.872C324.166 106.24 324.43 107.884 324.43 109.804V120.892C324.43 122.788 324.166 124.444 323.638 125.86C323.134 127.276 322.306 128.38 321.154 129.172C320.002 129.94 318.442 130.324 316.474 130.324ZM316.474 127.12C317.554 127.12 318.37 126.904 318.922 126.472C319.474 126.016 319.846 125.392 320.038 124.6C320.23 123.784 320.326 122.836 320.326 121.756V108.976C320.326 107.896 320.23 106.972 320.038 106.204C319.846 105.412 319.474 104.812 318.922 104.404C318.37 103.972 317.554 103.756 316.474 103.756C315.394 103.756 314.566 103.972 313.99 104.404C313.438 104.812 313.066 105.412 312.874 106.204C312.682 106.972 312.586 107.896 312.586 108.976V121.756C312.586 122.836 312.682 123.784 312.874 124.6C313.066 125.392 313.438 126.016 313.99 126.472C314.566 126.904 315.394 127.12 316.474 127.12ZM335.952 130.324C333.84 130.324 332.22 129.904 331.092 129.064C329.964 128.224 329.196 127.048 328.788 125.536C328.38 124 328.176 122.212 328.176 120.172V100.84H332.064V120.352C332.064 121.6 332.148 122.74 332.316 123.772C332.484 124.804 332.844 125.62 333.396 126.22C333.972 126.82 334.824 127.12 335.952 127.12C337.104 127.12 337.956 126.82 338.508 126.22C339.06 125.62 339.42 124.804 339.588 123.772C339.756 122.74 339.84 121.6 339.84 120.352V100.84H343.692V120.172C343.692 122.212 343.488 124 343.08 125.536C342.672 127.048 341.904 128.224 340.776 129.064C339.672 129.904 338.064 130.324 335.952 130.324ZM347.975 130V100.84H353.843C355.787 100.84 357.395 101.104 358.667 101.632C359.939 102.136 360.875 102.964 361.475 104.116C362.099 105.244 362.411 106.732 362.411 108.58C362.411 109.708 362.291 110.74 362.051 111.676C361.811 112.588 361.427 113.368 360.899 114.016C360.371 114.64 359.675 115.096 358.811 115.384L362.951 130H359.027L355.211 116.32H352.043V130H347.975ZM352.043 113.404H353.591C354.743 113.404 355.679 113.26 356.399 112.972C357.119 112.684 357.647 112.192 357.983 111.496C358.319 110.8 358.487 109.828 358.487 108.58C358.487 106.876 358.175 105.652 357.551 104.908C356.927 104.14 355.691 103.756 353.843 103.756H352.043V113.404ZM382.178 130.324C380.114 130.324 378.506 129.892 377.354 129.028C376.226 128.164 375.434 127 374.978 125.536C374.546 124.072 374.33 122.44 374.33 120.64V110.344C374.33 108.376 374.546 106.66 374.978 105.196C375.434 103.732 376.226 102.604 377.354 101.812C378.506 100.996 380.114 100.588 382.178 100.588C384.002 100.588 385.442 100.924 386.498 101.596C387.578 102.268 388.346 103.228 388.802 104.476C389.282 105.724 389.522 107.224 389.522 108.976V111.28H385.67V109.228C385.67 108.148 385.61 107.2 385.49 106.384C385.394 105.544 385.106 104.896 384.626 104.44C384.146 103.984 383.342 103.756 382.214 103.756C381.062 103.756 380.222 104.008 379.694 104.512C379.166 104.992 378.818 105.688 378.65 106.6C378.506 107.488 378.434 108.532 378.434 109.732V121.288C378.434 122.752 378.554 123.916 378.794 124.78C379.034 125.62 379.43 126.22 379.982 126.58C380.534 126.94 381.278 127.12 382.214 127.12C383.318 127.12 384.11 126.88 384.59 126.4C385.07 125.896 385.37 125.212 385.49 124.348C385.61 123.484 385.67 122.476 385.67 121.324V119.164H389.522V121.324C389.522 123.1 389.306 124.672 388.874 126.04C388.442 127.384 387.698 128.44 386.642 129.208C385.586 129.952 384.098 130.324 382.178 130.324ZM400.849 130.324C398.881 130.324 397.309 129.94 396.133 129.172C394.957 128.404 394.117 127.312 393.613 125.896C393.109 124.456 392.857 122.776 392.857 120.856V109.804C392.857 107.884 393.109 106.24 393.613 104.872C394.141 103.48 394.981 102.424 396.133 101.704C397.309 100.96 398.881 100.588 400.849 100.588C402.817 100.588 404.377 100.96 405.529 101.704C406.681 102.448 407.509 103.504 408.013 104.872C408.541 106.24 408.805 107.884 408.805 109.804V120.892C408.805 122.788 408.541 124.444 408.013 125.86C407.509 127.276 406.681 128.38 405.529 129.172C404.377 129.94 402.817 130.324 400.849 130.324ZM400.849 127.12C401.929 127.12 402.745 126.904 403.297 126.472C403.849 126.016 404.221 125.392 404.413 124.6C404.605 123.784 404.701 122.836 404.701 121.756V108.976C404.701 107.896 404.605 106.972 404.413 106.204C404.221 105.412 403.849 104.812 403.297 104.404C402.745 103.972 401.929 103.756 400.849 103.756C399.769 103.756 398.941 103.972 398.365 104.404C397.813 104.812 397.441 105.412 397.249 106.204C397.057 106.972 396.961 107.896 396.961 108.976V121.756C396.961 122.836 397.057 123.784 397.249 124.6C397.441 125.392 397.813 126.016 398.365 126.472C398.941 126.904 399.769 127.12 400.849 127.12ZM420.327 130.324C418.215 130.324 416.595 129.904 415.467 129.064C414.339 128.224 413.571 127.048 413.163 125.536C412.755 124 412.551 122.212 412.551 120.172V100.84H416.439V120.352C416.439 121.6 416.523 122.74 416.691 123.772C416.859 124.804 417.219 125.62 417.771 126.22C418.347 126.82 419.199 127.12 420.327 127.12C421.479 127.12 422.331 126.82 422.883 126.22C423.435 125.62 423.795 124.804 423.963 123.772C424.131 122.74 424.215 121.6 424.215 120.352V100.84H428.067V120.172C428.067 122.212 427.863 124 427.455 125.536C427.047 127.048 426.279 128.224 425.151 129.064C424.047 129.904 422.439 130.324 420.327 130.324ZM432.35 130V100.84H438.218C440.162 100.84 441.77 101.104 443.042 101.632C444.314 102.136 445.25 102.964 445.85 104.116C446.474 105.244 446.786 106.732 446.786 108.58C446.786 109.708 446.666 110.74 446.426 111.676C446.186 112.588 445.802 113.368 445.274 114.016C444.746 114.64 444.05 115.096 443.186 115.384L447.326 130H443.402L439.586 116.32H436.418V130H432.35ZM436.418 113.404H437.966C439.118 113.404 440.054 113.26 440.774 112.972C441.494 112.684 442.022 112.192 442.358 111.496C442.694 110.8 442.862 109.828 442.862 108.58C442.862 106.876 442.55 105.652 441.926 104.908C441.302 104.14 440.066 103.756 438.218 103.756H436.418V113.404ZM457.894 130.324C456.214 130.324 454.81 129.964 453.682 129.244C452.578 128.524 451.738 127.528 451.162 126.256C450.586 124.984 450.25 123.508 450.154 121.828L453.754 120.856C453.826 121.888 453.982 122.884 454.222 123.844C454.486 124.804 454.906 125.596 455.482 126.22C456.058 126.82 456.862 127.12 457.894 127.12C458.95 127.12 459.742 126.832 460.27 126.256C460.822 125.656 461.098 124.804 461.098 123.7C461.098 122.38 460.798 121.324 460.198 120.532C459.598 119.716 458.842 118.9 457.93 118.084L453.034 113.764C452.074 112.924 451.366 112.012 450.91 111.028C450.454 110.02 450.226 108.784 450.226 107.32C450.226 105.184 450.838 103.528 452.062 102.352C453.286 101.176 454.954 100.588 457.066 100.588C458.218 100.588 459.226 100.744 460.09 101.056C460.978 101.344 461.71 101.8 462.286 102.424C462.886 103.048 463.354 103.84 463.69 104.8C464.05 105.736 464.29 106.84 464.41 108.112L460.954 109.048C460.882 108.088 460.738 107.212 460.522 106.42C460.306 105.604 459.922 104.956 459.37 104.476C458.842 103.972 458.074 103.72 457.066 103.72C456.058 103.72 455.266 103.996 454.69 104.548C454.138 105.076 453.862 105.868 453.862 106.924C453.862 107.812 454.006 108.544 454.294 109.12C454.606 109.696 455.098 110.284 455.77 110.884L460.702 115.204C461.806 116.164 462.778 117.316 463.618 118.66C464.458 119.98 464.878 121.552 464.878 123.376C464.878 124.816 464.578 126.064 463.978 127.12C463.378 128.152 462.55 128.944 461.494 129.496C460.462 130.048 459.262 130.324 457.894 130.324ZM468.034 130V100.84H479.338V103.864H472.102V113.512H477.97V116.392H472.102V127.084H479.41V130H468.034Z" fill="black" fill-opacity="0.7"/>
<path d="M19.68 175.08C19.68 176.293 19.2333 177.28 18.34 178.04C17.4467 178.787 16.26 179.16 14.78 179.16C13.1933 179.16 11.9 178.88 10.9 178.32V175.22C12.1133 176.1 13.4067 176.54 14.78 176.54C15.2467 176.54 15.6333 176.42 15.94 176.18C16.2467 175.927 16.4 175.6 16.4 175.2C16.4 175.067 16.38 174.94 16.34 174.82C16.3 174.7 16.2267 174.587 16.12 174.48C16.0133 174.373 15.9067 174.287 15.8 174.22C15.7067 174.14 15.56 174.053 15.36 173.96C15.1733 173.853 15.0133 173.767 14.88 173.7C14.7467 173.633 14.5467 173.54 14.28 173.42C14.0267 173.3 13.82 173.207 13.66 173.14C12.7933 172.74 12.0933 172.247 11.56 171.66C11.04 171.073 10.78 170.293 10.78 169.32C10.78 168.16 11.2067 167.227 12.06 166.52C12.9133 165.8 14.0933 165.44 15.6 165.44C16.9467 165.44 18.1067 165.667 19.08 166.12V169C18 168.373 16.88 168.06 15.72 168.06C15.2 168.06 14.8 168.167 14.52 168.38C14.2533 168.593 14.12 168.867 14.12 169.2C14.12 169.533 14.2867 169.833 14.62 170.1C14.9533 170.353 15.4533 170.627 16.12 170.92C16.5333 171.107 16.8733 171.273 17.14 171.42C17.42 171.553 17.7333 171.747 18.08 172C18.44 172.24 18.72 172.5 18.92 172.78C19.1333 173.047 19.3133 173.38 19.46 173.78C19.6067 174.18 19.68 174.613 19.68 175.08ZM24.4934 179H21.5734V168.86H24.4934V179ZM24.2334 164.72C24.5668 165.053 24.7334 165.453 24.7334 165.92C24.7334 166.387 24.5668 166.787 24.2334 167.12C23.9001 167.453 23.5001 167.62 23.0334 167.62C22.5668 167.62 22.1668 167.453 21.8334 167.12C21.5001 166.787 21.3334 166.387 21.3334 165.92C21.3334 165.453 21.5001 165.053 21.8334 164.72C22.1668 164.387 22.5668 164.22 23.0334 164.22C23.5001 164.22 23.9001 164.387 24.2334 164.72ZM41.8808 179H38.9608V172.98C38.9608 172.407 38.8474 171.953 38.6208 171.62C38.3941 171.287 38.0674 171.12 37.6408 171.12C37.1874 171.12 36.7808 171.307 36.4208 171.68C36.0741 172.04 35.9008 172.693 35.9008 173.64V179H32.9808V172.98C32.9808 172.407 32.8674 171.953 32.6408 171.62C32.4141 171.287 32.0874 171.12 31.6608 171.12C31.2074 171.12 30.8008 171.307 30.4408 171.68C30.0941 172.04 29.9208 172.693 29.9208 173.64V179H27.0008V168.86H29.9208V170.44C30.4808 169.32 31.4341 168.76 32.7808 168.76C34.2074 168.76 35.1541 169.4 35.6208 170.68C35.8474 170.08 36.2274 169.613 36.7608 169.28C37.2941 168.933 37.9208 168.76 38.6408 168.76C39.6408 168.76 40.4274 169.08 41.0008 169.72C41.5874 170.347 41.8808 171.273 41.8808 172.5V179ZM47.1083 182.74H44.1883V168.86H47.1083V170.42C47.8149 169.3 48.8349 168.74 50.1683 168.74C51.4749 168.74 52.5216 169.207 53.3083 170.14C54.1083 171.06 54.5083 172.313 54.5083 173.9C54.5083 175.407 54.1216 176.653 53.3483 177.64C52.5883 178.627 51.5283 179.12 50.1683 179.12C48.7949 179.12 47.7749 178.58 47.1083 177.5V182.74ZM47.1083 173.82C47.1083 174.687 47.3216 175.38 47.7483 175.9C48.1749 176.42 48.7216 176.68 49.3883 176.68C50.0283 176.68 50.5483 176.44 50.9483 175.96C51.3483 175.467 51.5483 174.8 51.5483 173.96C51.5483 173.04 51.3416 172.347 50.9283 171.88C50.5283 171.4 50.0149 171.16 49.3883 171.16C48.7749 171.16 48.2416 171.393 47.7883 171.86C47.3349 172.327 47.1083 172.98 47.1083 173.82ZM59.4348 179H56.5148V164.86H59.4348V179ZM67.6222 178.7C66.5689 181.54 64.9622 182.96 62.8022 182.96C62.3889 182.96 62.0155 182.927 61.6822 182.86V180.54C61.8955 180.593 62.1222 180.62 62.3622 180.62C63.4689 180.62 64.2689 180.027 64.7622 178.84L60.8422 168.86H64.0222L65.1222 172.02C65.4022 172.833 65.6289 173.533 65.8022 174.12C65.9889 174.707 66.1022 175.093 66.1422 175.28L66.2022 175.56C66.3489 175.027 66.7089 173.847 67.2822 172.02L68.2822 168.86H71.2822L67.6222 178.7ZM86.0667 175.08C86.0667 176.293 85.6201 177.28 84.7267 178.04C83.8334 178.787 82.6467 179.16 81.1667 179.16C79.5801 179.16 78.2867 178.88 77.2867 178.32V175.22C78.5001 176.1 79.7934 176.54 81.1667 176.54C81.6334 176.54 82.0201 176.42 82.3267 176.18C82.6334 175.927 82.7867 175.6 82.7867 175.2C82.7867 175.067 82.7667 174.94 82.7267 174.82C82.6867 174.7 82.6134 174.587 82.5067 174.48C82.4001 174.373 82.2934 174.287 82.1867 174.22C82.0934 174.14 81.9467 174.053 81.7467 173.96C81.5601 173.853 81.4001 173.767 81.2667 173.7C81.1334 173.633 80.9334 173.54 80.6667 173.42C80.4134 173.3 80.2067 173.207 80.0467 173.14C79.1801 172.74 78.4801 172.247 77.9467 171.66C77.4267 171.073 77.1667 170.293 77.1667 169.32C77.1667 168.16 77.5934 167.227 78.4467 166.52C79.3001 165.8 80.4801 165.44 81.9867 165.44C83.3334 165.44 84.4934 165.667 85.4667 166.12V169C84.3867 168.373 83.2667 168.06 82.1067 168.06C81.5867 168.06 81.1867 168.167 80.9067 168.38C80.6401 168.593 80.5067 168.867 80.5067 169.2C80.5067 169.533 80.6734 169.833 81.0067 170.1C81.3401 170.353 81.8401 170.627 82.5067 170.92C82.9201 171.107 83.2601 171.273 83.5267 171.42C83.8067 171.553 84.1201 171.747 84.4667 172C84.8267 172.24 85.1067 172.5 85.3067 172.78C85.5201 173.047 85.7001 173.38 85.8467 173.78C85.9934 174.18 86.0667 174.613 86.0667 175.08ZM95.8202 178.42C95.1268 178.873 94.0668 179.1 92.6402 179.1C90.9735 179.1 89.6735 178.62 88.7402 177.66C87.8202 176.687 87.3602 175.44 87.3602 173.92C87.3602 172.307 87.8068 171.047 88.7002 170.14C89.6068 169.22 90.7202 168.76 92.0402 168.76C93.4002 168.76 94.4735 169.16 95.2602 169.96C96.0468 170.747 96.4402 171.927 96.4402 173.5C96.4402 173.807 96.3868 174.333 96.2802 175.08H90.3202C90.5202 175.64 90.8668 176.073 91.3602 176.38C91.8535 176.687 92.4468 176.84 93.1402 176.84C94.1668 176.84 95.0602 176.553 95.8202 175.98V178.42ZM92.1602 170.98C91.6935 170.98 91.2802 171.153 90.9202 171.5C90.5602 171.833 90.3202 172.333 90.2002 173H93.7202V172.76C93.6268 171.573 93.1068 170.98 92.1602 170.98ZM101.544 179H98.6242V164.86H101.544V179ZM112.012 178.42C111.318 178.873 110.258 179.1 108.832 179.1C107.165 179.1 105.865 178.62 104.932 177.66C104.012 176.687 103.552 175.44 103.552 173.92C103.552 172.307 103.998 171.047 104.892 170.14C105.798 169.22 106.912 168.76 108.232 168.76C109.592 168.76 110.665 169.16 111.452 169.96C112.238 170.747 112.632 171.927 112.632 173.5C112.632 173.807 112.578 174.333 112.472 175.08H106.512C106.712 175.64 107.058 176.073 107.552 176.38C108.045 176.687 108.638 176.84 109.332 176.84C110.358 176.84 111.252 176.553 112.012 175.98V178.42ZM108.352 170.98C107.885 170.98 107.472 171.153 107.112 171.5C106.752 171.833 106.512 172.333 106.392 173H109.912V172.76C109.818 171.573 109.298 170.98 108.352 170.98ZM122.296 178.52C121.509 178.947 120.562 179.16 119.456 179.16C117.936 179.16 116.682 178.68 115.696 177.72C114.709 176.747 114.216 175.493 114.216 173.96C114.242 172.44 114.736 171.187 115.696 170.2C116.656 169.2 117.969 168.7 119.636 168.7C120.662 168.7 121.549 168.893 122.296 169.28V171.78C121.589 171.34 120.802 171.12 119.936 171.12C119.122 171.12 118.462 171.367 117.956 171.86C117.449 172.34 117.189 173.04 117.176 173.96C117.229 174.853 117.496 175.547 117.976 176.04C118.456 176.533 119.089 176.78 119.876 176.78C120.716 176.78 121.522 176.547 122.296 176.08V178.52ZM130.011 178.78C129.517 178.993 128.851 179.1 128.011 179.1C125.704 179.1 124.551 177.947 124.551 175.64V171H123.091V168.86H124.551V166.46H127.471V168.86H129.831V171H127.471V175.66C127.471 176.02 127.571 176.293 127.771 176.48C127.984 176.667 128.257 176.76 128.591 176.76C129.124 176.76 129.597 176.627 130.011 176.36V178.78ZM142.485 178.7C141.432 181.54 139.825 182.96 137.665 182.96C137.252 182.96 136.879 182.927 136.545 182.86V180.54C136.759 180.593 136.985 180.62 137.225 180.62C138.332 180.62 139.132 180.027 139.625 178.84L135.705 168.86H138.885L139.985 172.02C140.265 172.833 140.492 173.533 140.665 174.12C140.852 174.707 140.965 175.093 141.005 175.28L141.065 175.56C141.212 175.027 141.572 173.847 142.145 172.02L143.145 168.86H146.145L142.485 178.7ZM156.89 173.88C156.89 175.413 156.45 176.68 155.57 177.68C154.703 178.667 153.49 179.16 151.93 179.16C150.343 179.16 149.117 178.687 148.25 177.74C147.383 176.78 146.95 175.553 146.95 174.06C146.95 172.5 147.403 171.22 148.31 170.22C149.217 169.207 150.423 168.7 151.93 168.7C153.503 168.7 154.723 169.187 155.59 170.16C156.457 171.133 156.89 172.373 156.89 173.88ZM150.47 171.82C150.15 172.367 149.99 173.073 149.99 173.94C149.99 174.807 150.15 175.52 150.47 176.08C150.803 176.627 151.297 176.9 151.95 176.9C152.59 176.9 153.063 176.633 153.37 176.1C153.69 175.553 153.85 174.847 153.85 173.98C153.85 171.993 153.203 171 151.91 171C151.27 171 150.79 171.273 150.47 171.82ZM167.998 179H165.078V177.38C164.544 178.513 163.518 179.08 161.998 179.08C160.958 179.08 160.144 178.793 159.558 178.22C158.984 177.633 158.698 176.773 158.698 175.64V168.86H161.618V174.98C161.618 176.167 162.138 176.76 163.178 176.76C164.444 176.76 165.078 175.913 165.078 174.22V168.86H167.998V179ZM173.299 179H170.379L170.399 168.86H173.299V170.74C173.486 170.153 173.793 169.687 174.219 169.34C174.659 168.98 175.166 168.8 175.739 168.8C176.059 168.8 176.313 168.827 176.499 168.88V171.64C176.179 171.493 175.813 171.42 175.399 171.42C174.773 171.42 174.266 171.653 173.879 172.12C173.493 172.573 173.299 173.18 173.299 173.94V179ZM197.682 179H194.762V172.98C194.762 172.407 194.648 171.953 194.422 171.62C194.195 171.287 193.868 171.12 193.442 171.12C192.988 171.12 192.582 171.307 192.222 171.68C191.875 172.04 191.702 172.693 191.702 173.64V179H188.782V172.98C188.782 172.407 188.668 171.953 188.442 171.62C188.215 171.287 187.888 171.12 187.462 171.12C187.008 171.12 186.602 171.307 186.242 171.68C185.895 172.04 185.722 172.693 185.722 173.64V179H182.802V168.86H185.722V170.44C186.282 169.32 187.235 168.76 188.582 168.76C190.008 168.76 190.955 169.4 191.422 170.68C191.648 170.08 192.028 169.613 192.562 169.28C193.095 168.933 193.722 168.76 194.442 168.76C195.442 168.76 196.228 169.08 196.802 169.72C197.388 170.347 197.682 171.273 197.682 172.5V179ZM209.429 173.88C209.429 175.413 208.989 176.68 208.109 177.68C207.242 178.667 206.029 179.16 204.469 179.16C202.882 179.16 201.656 178.687 200.789 177.74C199.922 176.78 199.489 175.553 199.489 174.06C199.489 172.5 199.942 171.22 200.849 170.22C201.756 169.207 202.962 168.7 204.469 168.7C206.042 168.7 207.262 169.187 208.129 170.16C208.996 171.133 209.429 172.373 209.429 173.88ZM203.009 171.82C202.689 172.367 202.529 173.073 202.529 173.94C202.529 174.807 202.689 175.52 203.009 176.08C203.342 176.627 203.836 176.9 204.489 176.9C205.129 176.9 205.602 176.633 205.909 176.1C206.229 175.553 206.389 174.847 206.389 173.98C206.389 171.993 205.742 171 204.449 171C203.809 171 203.329 171.273 203.009 171.82ZM218.257 175.94C218.257 176.94 217.897 177.713 217.177 178.26C216.457 178.807 215.503 179.08 214.317 179.08C213.09 179.08 212.063 178.873 211.237 178.46V175.86C212.157 176.5 213.13 176.82 214.157 176.82C214.89 176.82 215.257 176.587 215.257 176.12C215.257 176 215.223 175.887 215.157 175.78C215.09 175.673 214.977 175.573 214.817 175.48C214.657 175.387 214.51 175.313 214.377 175.26C214.243 175.193 214.05 175.107 213.797 175C213.543 174.893 213.35 174.807 213.217 174.74C211.87 174.1 211.197 173.14 211.197 171.86C211.197 170.873 211.57 170.107 212.317 169.56C213.077 169.013 214.017 168.74 215.137 168.74C216.177 168.74 217.043 168.88 217.737 169.16V171.66C217.03 171.247 216.203 171.04 215.257 171.04C214.91 171.04 214.643 171.113 214.457 171.26C214.27 171.393 214.177 171.567 214.177 171.78C214.177 171.9 214.21 172.013 214.277 172.12C214.343 172.227 214.45 172.327 214.597 172.42C214.757 172.513 214.903 172.6 215.037 172.68C215.183 172.747 215.377 172.833 215.617 172.94C215.87 173.047 216.07 173.14 216.217 173.22C216.83 173.54 217.323 173.913 217.697 174.34C218.07 174.753 218.257 175.287 218.257 175.94ZM225.968 178.78C225.474 178.993 224.808 179.1 223.968 179.1C221.661 179.1 220.508 177.947 220.508 175.64V171H219.048V168.86H220.508V166.46H223.428V168.86H225.788V171H223.428V175.66C223.428 176.02 223.528 176.293 223.728 176.48C223.941 176.667 224.214 176.76 224.548 176.76C225.081 176.76 225.554 176.627 225.968 176.36V178.78ZM240.343 178.52C239.556 178.947 238.609 179.16 237.503 179.16C235.983 179.16 234.729 178.68 233.743 177.72C232.756 176.747 232.263 175.493 232.263 173.96C232.289 172.44 232.783 171.187 233.743 170.2C234.703 169.2 236.016 168.7 237.683 168.7C238.709 168.7 239.596 168.893 240.343 169.28V171.78C239.636 171.34 238.849 171.12 237.983 171.12C237.169 171.12 236.509 171.367 236.003 171.86C235.496 172.34 235.236 173.04 235.223 173.96C235.276 174.853 235.543 175.547 236.023 176.04C236.503 176.533 237.136 176.78 237.923 176.78C238.763 176.78 239.569 176.547 240.343 176.08V178.52ZM245.038 179H242.118L242.138 168.86H245.038V170.74C245.224 170.153 245.531 169.687 245.958 169.34C246.398 168.98 246.904 168.8 247.478 168.8C247.798 168.8 248.051 168.827 248.238 168.88V171.64C247.918 171.493 247.551 171.42 247.138 171.42C246.511 171.42 246.004 171.653 245.618 172.12C245.231 172.573 245.038 173.18 245.038 173.94V179ZM253.26 177C253.673 177 253.993 176.873 254.22 176.62C254.447 176.367 254.56 176.02 254.56 175.58V174.84H253.62C253.127 174.84 252.747 174.947 252.48 175.16C252.213 175.373 252.08 175.647 252.08 175.98C252.08 176.66 252.473 177 253.26 177ZM254.7 177.76C254.273 178.627 253.433 179.06 252.18 179.06C251.193 179.06 250.42 178.78 249.86 178.22C249.313 177.66 249.04 176.96 249.04 176.12C249.04 175.147 249.393 174.393 250.1 173.86C250.82 173.313 251.88 173.04 253.28 173.04H254.56V172.34C254.56 171.487 253.993 171.06 252.86 171.06C251.767 171.06 250.753 171.367 249.82 171.98V169.36C250.62 168.907 251.773 168.68 253.28 168.68C254.72 168.68 255.793 168.993 256.5 169.62C257.207 170.233 257.56 171.193 257.56 172.5V179H254.7V177.76ZM265.492 179H262.492L258.752 168.86H261.812L263.132 173.18C263.332 173.847 263.506 174.48 263.652 175.08C263.799 175.667 263.892 176.093 263.932 176.36L264.012 176.74C264.132 175.873 264.432 174.687 264.912 173.18L266.272 168.86H269.272L265.492 179ZM273.595 179H270.675V168.86H273.595V179ZM273.335 164.72C273.668 165.053 273.835 165.453 273.835 165.92C273.835 166.387 273.668 166.787 273.335 167.12C273.002 167.453 272.602 167.62 272.135 167.62C271.668 167.62 271.268 167.453 270.935 167.12C270.602 166.787 270.435 166.387 270.435 165.92C270.435 165.453 270.602 165.053 270.935 164.72C271.268 164.387 271.668 164.22 272.135 164.22C272.602 164.22 273.002 164.387 273.335 164.72ZM285.402 179H282.482V172.96C282.482 172.36 282.342 171.907 282.062 171.6C281.782 171.28 281.389 171.12 280.882 171.12C280.349 171.12 279.902 171.333 279.542 171.76C279.196 172.173 279.022 172.8 279.022 173.64V179H276.102V168.86H279.022V170.58C279.276 170.02 279.662 169.58 280.182 169.26C280.716 168.927 281.349 168.76 282.082 168.76C283.122 168.76 283.936 169.073 284.522 169.7C285.109 170.313 285.402 171.22 285.402 172.42V179ZM297.104 178.02C297.104 179.647 296.617 180.867 295.644 181.68C294.671 182.507 293.451 182.92 291.984 182.92C290.557 182.92 289.311 182.667 288.244 182.16V179.18C289.177 179.927 290.324 180.3 291.684 180.3C292.564 180.3 293.204 180.113 293.604 179.74C294.004 179.367 294.204 178.78 294.204 177.98V177.3C293.617 178.207 292.684 178.66 291.404 178.66C290.284 178.66 289.317 178.247 288.504 177.42C287.704 176.593 287.304 175.367 287.304 173.74C287.304 172.3 287.691 171.113 288.464 170.18C289.251 169.233 290.277 168.76 291.544 168.76C292.744 168.76 293.631 169.24 294.204 170.2V168.86H297.104V178.02ZM290.344 173.76C290.344 174.6 290.504 175.24 290.824 175.68C291.144 176.12 291.604 176.34 292.204 176.34C292.831 176.34 293.317 176.107 293.664 175.64C294.024 175.16 294.204 174.587 294.204 173.92C294.204 172.107 293.544 171.2 292.224 171.2C291.637 171.2 291.177 171.427 290.844 171.88C290.511 172.333 290.344 172.96 290.344 173.76ZM311.983 178.52C311.196 178.947 310.25 179.16 309.143 179.16C307.623 179.16 306.37 178.68 305.383 177.72C304.396 176.747 303.903 175.493 303.903 173.96C303.93 172.44 304.423 171.187 305.383 170.2C306.343 169.2 307.656 168.7 309.323 168.7C310.35 168.7 311.236 168.893 311.983 169.28V171.78C311.276 171.34 310.49 171.12 309.623 171.12C308.81 171.12 308.15 171.367 307.643 171.86C307.136 172.34 306.876 173.04 306.863 173.96C306.916 174.853 307.183 175.547 307.663 176.04C308.143 176.533 308.776 176.78 309.563 176.78C310.403 176.78 311.21 176.547 311.983 176.08V178.52ZM323.218 173.88C323.218 175.413 322.778 176.68 321.898 177.68C321.031 178.667 319.818 179.16 318.258 179.16C316.671 179.16 315.445 178.687 314.578 177.74C313.711 176.78 313.278 175.553 313.278 174.06C313.278 172.5 313.731 171.22 314.638 170.22C315.545 169.207 316.751 168.7 318.258 168.7C319.831 168.7 321.051 169.187 321.918 170.16C322.785 171.133 323.218 172.373 323.218 173.88ZM316.798 171.82C316.478 172.367 316.318 173.073 316.318 173.94C316.318 174.807 316.478 175.52 316.798 176.08C317.131 176.627 317.625 176.9 318.278 176.9C318.918 176.9 319.391 176.633 319.698 176.1C320.018 175.553 320.178 174.847 320.178 173.98C320.178 171.993 319.531 171 318.238 171C317.598 171 317.118 171.273 316.798 171.82ZM334.326 179H331.406V177.38C330.872 178.513 329.846 179.08 328.326 179.08C327.286 179.08 326.472 178.793 325.886 178.22C325.312 177.633 325.026 176.773 325.026 175.64V168.86H327.946V174.98C327.946 176.167 328.466 176.76 329.506 176.76C330.772 176.76 331.406 175.913 331.406 174.22V168.86H334.326V179ZM339.627 179H336.707L336.727 168.86H339.627V170.74C339.814 170.153 340.121 169.687 340.547 169.34C340.987 168.98 341.494 168.8 342.067 168.8C342.387 168.8 342.641 168.827 342.827 168.88V171.64C342.507 171.493 342.141 171.42 341.727 171.42C341.101 171.42 340.594 171.653 340.207 172.12C339.821 172.573 339.627 173.18 339.627 173.94V179ZM351.05 175.94C351.05 176.94 350.69 177.713 349.97 178.26C349.25 178.807 348.296 179.08 347.11 179.08C345.883 179.08 344.856 178.873 344.03 178.46V175.86C344.95 176.5 345.923 176.82 346.95 176.82C347.683 176.82 348.05 176.587 348.05 176.12C348.05 176 348.016 175.887 347.95 175.78C347.883 175.673 347.77 175.573 347.61 175.48C347.45 175.387 347.303 175.313 347.17 175.26C347.036 175.193 346.843 175.107 346.59 175C346.336 174.893 346.143 174.807 346.01 174.74C344.663 174.1 343.99 173.14 343.99 171.86C343.99 170.873 344.363 170.107 345.11 169.56C345.87 169.013 346.81 168.74 347.93 168.74C348.97 168.74 349.836 168.88 350.53 169.16V171.66C349.823 171.247 348.996 171.04 348.05 171.04C347.703 171.04 347.436 171.113 347.25 171.26C347.063 171.393 346.97 171.567 346.97 171.78C346.97 171.9 347.003 172.013 347.07 172.12C347.136 172.227 347.243 172.327 347.39 172.42C347.55 172.513 347.696 172.6 347.83 172.68C347.976 172.747 348.17 172.833 348.41 172.94C348.663 173.047 348.863 173.14 349.01 173.22C349.623 173.54 350.116 173.913 350.49 174.34C350.863 174.753 351.05 175.287 351.05 175.94ZM360.801 178.42C360.107 178.873 359.047 179.1 357.621 179.1C355.954 179.1 354.654 178.62 353.721 177.66C352.801 176.687 352.341 175.44 352.341 173.92C352.341 172.307 352.787 171.047 353.681 170.14C354.587 169.22 355.701 168.76 357.021 168.76C358.381 168.76 359.454 169.16 360.241 169.96C361.027 170.747 361.421 171.927 361.421 173.5C361.421 173.807 361.367 174.333 361.261 175.08H355.301C355.501 175.64 355.847 176.073 356.341 176.38C356.834 176.687 357.427 176.84 358.121 176.84C359.147 176.84 360.041 176.553 360.801 175.98V178.42ZM357.141 170.98C356.674 170.98 356.261 171.153 355.901 171.5C355.541 171.833 355.301 172.333 355.181 173H358.701V172.76C358.607 171.573 358.087 170.98 357.141 170.98ZM374.025 171H372.125V179H369.225V171H367.905V168.86H369.225V168.48C369.225 167.253 369.565 166.3 370.245 165.62C370.938 164.94 371.891 164.6 373.105 164.6C373.731 164.6 374.238 164.667 374.625 164.8V167.16C374.251 167.013 373.905 166.94 373.585 166.94C373.091 166.94 372.725 167.053 372.485 167.28C372.245 167.507 372.125 167.907 372.125 168.48V168.86H374.025V171ZM378.319 179H375.399L375.419 168.86H378.319V170.74C378.505 170.153 378.812 169.687 379.239 169.34C379.679 168.98 380.185 168.8 380.759 168.8C381.079 168.8 381.332 168.827 381.519 168.88V171.64C381.199 171.493 380.832 171.42 380.419 171.42C379.792 171.42 379.285 171.653 378.899 172.12C378.512 172.573 378.319 173.18 378.319 173.94V179ZM392.261 173.88C392.261 175.413 391.821 176.68 390.941 177.68C390.074 178.667 388.861 179.16 387.301 179.16C385.714 179.16 384.488 178.687 383.621 177.74C382.754 176.78 382.321 175.553 382.321 174.06C382.321 172.5 382.774 171.22 383.681 170.22C384.588 169.207 385.794 168.7 387.301 168.7C388.874 168.7 390.094 169.187 390.961 170.16C391.828 171.133 392.261 172.373 392.261 173.88ZM385.841 171.82C385.521 172.367 385.361 173.073 385.361 173.94C385.361 174.807 385.521 175.52 385.841 176.08C386.174 176.627 386.668 176.9 387.321 176.9C387.961 176.9 388.434 176.633 388.741 176.1C389.061 175.553 389.221 174.847 389.221 173.98C389.221 171.993 388.574 171 387.281 171C386.641 171 386.161 171.273 385.841 171.82ZM409.049 179H406.129V172.98C406.129 172.407 406.015 171.953 405.789 171.62C405.562 171.287 405.235 171.12 404.809 171.12C404.355 171.12 403.949 171.307 403.589 171.68C403.242 172.04 403.069 172.693 403.069 173.64V179H400.149V172.98C400.149 172.407 400.035 171.953 399.809 171.62C399.582 171.287 399.255 171.12 398.829 171.12C398.375 171.12 397.969 171.307 397.609 171.68C397.262 172.04 397.089 172.693 397.089 173.64V179H394.169V168.86H397.089V170.44C397.649 169.32 398.602 168.76 399.949 168.76C401.375 168.76 402.322 169.4 402.789 170.68C403.015 170.08 403.395 169.613 403.929 169.28C404.462 168.933 405.089 168.76 405.809 168.76C406.809 168.76 407.595 169.08 408.169 169.72C408.755 170.347 409.049 171.273 409.049 172.5V179ZM419.276 179H416.356V164.86H419.276V170.42C419.97 169.3 420.976 168.74 422.296 168.74C423.563 168.74 424.61 169.2 425.436 170.12C426.263 171.04 426.676 172.3 426.676 173.9C426.676 175.327 426.276 176.553 425.476 177.58C424.69 178.607 423.636 179.12 422.316 179.12C420.97 179.12 419.956 178.553 419.276 177.42V179ZM419.276 173.82C419.276 174.687 419.483 175.38 419.896 175.9C420.31 176.42 420.85 176.68 421.516 176.68C422.13 176.68 422.65 176.433 423.076 175.94C423.503 175.433 423.716 174.773 423.716 173.96C423.716 173.08 423.503 172.393 423.076 171.9C422.663 171.407 422.15 171.16 421.536 171.16C420.923 171.16 420.39 171.393 419.936 171.86C419.496 172.327 419.276 172.98 419.276 173.82ZM436.543 178.42C435.849 178.873 434.789 179.1 433.363 179.1C431.696 179.1 430.396 178.62 429.463 177.66C428.543 176.687 428.083 175.44 428.083 173.92C428.083 172.307 428.529 171.047 429.423 170.14C430.329 169.22 431.443 168.76 432.763 168.76C434.123 168.76 435.196 169.16 435.983 169.96C436.769 170.747 437.163 171.927 437.163 173.5C437.163 173.807 437.109 174.333 437.003 175.08H431.043C431.243 175.64 431.589 176.073 432.083 176.38C432.576 176.687 433.169 176.84 433.863 176.84C434.889 176.84 435.783 176.553 436.543 175.98V178.42ZM432.883 170.98C432.416 170.98 432.003 171.153 431.643 171.5C431.283 171.833 431.043 172.333 430.923 173H434.443V172.76C434.349 171.573 433.829 170.98 432.883 170.98ZM442.267 179H439.347V164.86H442.267V179ZM454.214 173.88C454.214 175.413 453.774 176.68 452.894 177.68C452.028 178.667 450.814 179.16 449.254 179.16C447.668 179.16 446.441 178.687 445.574 177.74C444.708 176.78 444.274 175.553 444.274 174.06C444.274 172.5 444.728 171.22 445.634 170.22C446.541 169.207 447.748 168.7 449.254 168.7C450.828 168.7 452.048 169.187 452.914 170.16C453.781 171.133 454.214 172.373 454.214 173.88ZM447.794 171.82C447.474 172.367 447.314 173.073 447.314 173.94C447.314 174.807 447.474 175.52 447.794 176.08C448.128 176.627 448.621 176.9 449.274 176.9C449.914 176.9 450.388 176.633 450.694 176.1C451.014 175.553 451.174 174.847 451.174 173.98C451.174 171.993 450.528 171 449.234 171C448.594 171 448.114 171.273 447.794 171.82ZM461.282 179H458.282L455.022 168.86H458.042L458.922 172.2C459.135 173.04 459.315 173.8 459.462 174.48C459.609 175.147 459.695 175.607 459.722 175.86L459.782 176.24C459.875 175.44 460.202 174.093 460.762 172.2L461.742 168.86H464.262L465.222 172.2C465.462 173.053 465.662 173.82 465.822 174.5C465.982 175.167 466.082 175.627 466.122 175.88L466.182 176.24C466.275 175.453 466.589 174.107 467.122 172.2L468.062 168.86H470.942L467.702 179H464.702L463.822 175.68C463.635 174.96 463.469 174.287 463.322 173.66C463.189 173.033 463.102 172.587 463.062 172.32L463.002 171.92C462.869 172.813 462.589 174.067 462.162 175.68L461.282 179Z" fill="black"/>
</svg>
