<svg width="511" height="189" viewBox="0 0 511 189" fill="none" xmlns="http://www.w3.org/2000/svg">
<path d="M44 134.4C36.2133 134.4 29.7067 132.853 24.48 129.76C19.2533 126.56 15.3067 122.187 12.64 116.64C9.97333 111.093 8.64 104.64 8.64 97.28V38.56C8.64 30.9867 9.86667 24.3733 12.32 18.72C14.88 12.96 18.7733 8.47999 24 5.27999C29.2267 2.07999 35.8933 0.479996 44 0.479996C52.1067 0.479996 58.72 2.07999 63.84 5.27999C69.0667 8.47999 72.9067 12.96 75.36 18.72C77.92 24.3733 79.2 30.9867 79.2 38.56V97.28C79.2 104.533 77.8667 110.987 75.2 116.64C72.5333 122.187 68.5867 126.56 63.36 129.76C58.1333 132.853 51.68 134.4 44 134.4ZM44 110.56C46.56 110.56 48.3733 109.76 49.44 108.16C50.6133 106.453 51.3067 104.533 51.52 102.4C51.84 100.16 52 98.24 52 96.64V39.2C52 37.3867 51.8933 35.36 51.68 33.12C51.4667 30.7733 50.7733 28.7467 49.6 27.04C48.5333 25.2267 46.6667 24.32 44 24.32C41.3333 24.32 39.4133 25.2267 38.24 27.04C37.1733 28.7467 36.5333 30.7733 36.32 33.12C36.1067 35.36 36 37.3867 36 39.2V96.64C36 98.24 36.16 100.16 36.48 102.4C36.8 104.533 37.4933 106.453 38.56 108.16C39.7333 109.76 41.5467 110.56 44 110.56ZM94.5288 132V113.12L125.569 65.44C127.915 61.92 130.102 58.5067 132.129 55.2C134.262 51.8933 135.969 48.5333 137.249 45.12C138.635 41.7067 139.329 38.1333 139.329 34.4C139.329 30.6667 138.582 27.8933 137.089 26.08C135.595 24.2667 133.569 23.36 131.009 23.36C128.129 23.36 125.889 24.16 124.289 25.76C122.689 27.36 121.569 29.4933 120.929 32.16C120.395 34.8267 120.129 37.8133 120.129 41.12V47.52H94.2088V40.64C94.2088 32.96 95.4354 26.1333 97.8888 20.16C100.342 14.08 104.235 9.33333 109.569 5.91999C114.902 2.39999 121.889 0.639994 130.529 0.639994C142.155 0.639994 150.902 3.67999 156.769 9.75999C162.742 15.7333 165.729 24.1067 165.729 34.88C165.729 40.1067 164.875 44.96 163.169 49.44C161.569 53.92 159.382 58.2933 156.609 62.56C153.942 66.72 151.062 71.0933 147.969 75.68L124.289 111.04H162.209V132H94.5288Z" fill="black" fill-opacity="0.2"/>
<path d="M195.324 36.36C193.356 36.36 191.832 35.952 190.752 35.136C189.696 34.32 188.964 33.228 188.556 31.86C188.148 30.468 187.944 28.932 187.944 27.252V15.66C187.944 13.86 188.148 12.276 188.556 10.908C188.988 9.54 189.744 8.472 190.824 7.704C191.904 6.936 193.404 6.552 195.324 6.552C197.076 6.552 198.444 6.888 199.428 7.56C200.436 8.232 201.156 9.192 201.588 10.44C202.02 11.664 202.236 13.128 202.236 14.832V16.596H199.644V14.904C199.644 13.632 199.536 12.54 199.32 11.628C199.128 10.716 198.72 10.008 198.096 9.504C197.472 9 196.56 8.748 195.36 8.748C194.04 8.748 193.044 9.024 192.372 9.576C191.724 10.104 191.28 10.86 191.04 11.844C190.824 12.828 190.716 13.968 190.716 15.264V27.684C190.716 29.124 190.848 30.324 191.112 31.284C191.4 32.244 191.88 32.964 192.552 33.444C193.224 33.924 194.16 34.164 195.36 34.164C196.584 34.164 197.496 33.9 198.096 33.372C198.72 32.844 199.128 32.112 199.32 31.176C199.536 30.216 199.644 29.1 199.644 27.828V25.92H202.236V27.648C202.236 29.352 202.032 30.864 201.624 32.184C201.24 33.48 200.544 34.5 199.536 35.244C198.552 35.988 197.148 36.36 195.324 36.36ZM217.033 36.36C215.089 36.36 213.565 35.988 212.461 35.244C211.381 34.476 210.613 33.42 210.157 32.076C209.725 30.708 209.509 29.148 209.509 27.396V15.3C209.509 13.524 209.737 11.988 210.193 10.692C210.673 9.372 211.453 8.352 212.533 7.632C213.637 6.912 215.137 6.552 217.033 6.552C218.905 6.552 220.381 6.912 221.461 7.632C222.565 8.352 223.345 9.372 223.801 10.692C224.257 11.988 224.485 13.524 224.485 15.3V27.432C224.485 29.184 224.257 30.732 223.801 32.076C223.369 33.396 222.613 34.44 221.533 35.208C220.453 35.976 218.953 36.36 217.033 36.36ZM217.033 34.164C218.305 34.164 219.277 33.912 219.949 33.408C220.621 32.88 221.077 32.16 221.317 31.248C221.581 30.312 221.713 29.232 221.713 28.008V14.796C221.713 13.572 221.581 12.504 221.317 11.592C221.077 10.68 220.621 9.984 219.949 9.504C219.277 9 218.305 8.748 217.033 8.748C215.737 8.748 214.741 9 214.045 9.504C213.373 9.984 212.905 10.68 212.641 11.592C212.401 12.504 212.281 13.572 212.281 14.796V28.008C212.281 29.232 212.401 30.312 212.641 31.248C212.905 32.16 213.373 32.88 214.045 33.408C214.741 33.912 215.737 34.164 217.033 34.164ZM232.635 36V6.84H234.615L243.903 29.484V6.84H246.279V36H244.335L235.011 13.104V36H232.635ZM254.938 36V6.84H256.918L266.206 29.484V6.84H268.582V36H266.638L257.314 13.104V36H254.938ZM277.205 36V6.84H287.753V8.964H279.977V19.908H286.313V21.924H279.977V33.948H287.825V36H277.205ZM301.953 36.36C299.985 36.36 298.461 35.952 297.381 35.136C296.325 34.32 295.593 33.228 295.185 31.86C294.777 30.468 294.573 28.932 294.573 27.252V15.66C294.573 13.86 294.777 12.276 295.185 10.908C295.617 9.54 296.373 8.472 297.453 7.704C298.533 6.936 300.033 6.552 301.953 6.552C303.705 6.552 305.073 6.888 306.057 7.56C307.065 8.232 307.785 9.192 308.217 10.44C308.649 11.664 308.865 13.128 308.865 14.832V16.596H306.273V14.904C306.273 13.632 306.165 12.54 305.949 11.628C305.757 10.716 305.349 10.008 304.725 9.504C304.101 9 303.189 8.748 301.989 8.748C300.669 8.748 299.673 9.024 299.001 9.576C298.353 10.104 297.909 10.86 297.669 11.844C297.453 12.828 297.345 13.968 297.345 15.264V27.684C297.345 29.124 297.477 30.324 297.741 31.284C298.029 32.244 298.509 32.964 299.181 33.444C299.853 33.924 300.789 34.164 301.989 34.164C303.213 34.164 304.125 33.9 304.725 33.372C305.349 32.844 305.757 32.112 305.949 31.176C306.165 30.216 306.273 29.1 306.273 27.828V25.92H308.865V27.648C308.865 29.352 308.661 30.864 308.253 32.184C307.869 33.48 307.173 34.5 306.165 35.244C305.181 35.988 303.777 36.36 301.953 36.36ZM320.35 36V8.964H314.842V6.84H328.45V8.964H323.086V36H320.35ZM349.84 36L344.908 6.84H347.248L351.1 30.528L355.492 7.272H357.76L362.26 30.564L365.824 6.84H368.128L363.412 36H361.288L356.644 11.952L352.072 36H349.84ZM375.61 36V6.84H378.346V36H375.61ZM390.719 36V8.964H385.211V6.84H398.819V8.964H393.455V36H390.719ZM405.589 36V6.84H408.361V19.764H417.541V6.84H420.277V36H417.541V21.816H408.361V36H405.589ZM447.058 36.36C445.09 36.36 443.554 36.012 442.45 35.316C441.37 34.596 440.626 33.612 440.218 32.364C439.81 31.092 439.606 29.652 439.606 28.044V6.84H442.27V28.116C442.27 29.244 442.39 30.276 442.63 31.212C442.894 32.124 443.374 32.844 444.07 33.372C444.766 33.9 445.762 34.164 447.058 34.164C448.306 34.164 449.278 33.9 449.974 33.372C450.67 32.82 451.15 32.088 451.414 31.176C451.702 30.264 451.846 29.244 451.846 28.116V6.84H454.474V28.044C454.474 29.652 454.258 31.092 453.826 32.364C453.394 33.612 452.638 34.596 451.558 35.316C450.478 36.012 448.978 36.36 447.058 36.36ZM469.058 36.36C467.474 36.36 466.154 36.036 465.098 35.388C464.066 34.716 463.286 33.792 462.758 32.616C462.23 31.416 461.906 30.024 461.786 28.44L464.198 27.72C464.318 28.92 464.534 30.012 464.846 30.996C465.158 31.956 465.65 32.724 466.322 33.3C466.994 33.852 467.918 34.128 469.094 34.128C470.39 34.128 471.398 33.792 472.118 33.12C472.838 32.448 473.198 31.38 473.198 29.916C473.198 28.62 472.874 27.504 472.226 26.568C471.602 25.632 470.738 24.648 469.634 23.616L464.486 18.684C463.574 17.796 462.902 16.884 462.47 15.948C462.038 14.988 461.822 13.944 461.822 12.816C461.822 10.8 462.422 9.252 463.622 8.172C464.822 7.092 466.418 6.552 468.41 6.552C469.442 6.552 470.366 6.684 471.182 6.948C472.022 7.212 472.73 7.644 473.306 8.244C473.906 8.82 474.374 9.576 474.71 10.512C475.046 11.448 475.274 12.588 475.394 13.932L473.054 14.544C472.958 13.32 472.754 12.276 472.442 11.412C472.154 10.524 471.686 9.852 471.038 9.396C470.414 8.94 469.538 8.712 468.41 8.712C467.21 8.712 466.226 9.024 465.458 9.648C464.69 10.272 464.306 11.244 464.306 12.564C464.306 13.356 464.45 14.076 464.738 14.724C465.05 15.372 465.59 16.068 466.358 16.812L471.506 21.672C472.658 22.752 473.654 23.952 474.494 25.272C475.334 26.592 475.754 28.08 475.754 29.736C475.754 31.2 475.466 32.424 474.89 33.408C474.338 34.392 473.558 35.136 472.55 35.64C471.542 36.12 470.378 36.36 469.058 36.36Z" fill="black" fill-opacity="0.1"/>
<path d="M191.576 83.324C189.512 83.324 187.904 82.892 186.752 82.028C185.624 81.164 184.832 80 184.376 78.536C183.944 77.072 183.728 75.44 183.728 73.64V63.344C183.728 61.376 183.944 59.66 184.376 58.196C184.832 56.732 185.624 55.604 186.752 54.812C187.904 53.996 189.512 53.588 191.576 53.588C193.4 53.588 194.84 53.924 195.896 54.596C196.976 55.268 197.744 56.228 198.2 57.476C198.68 58.724 198.92 60.224 198.92 61.976V64.28H195.068V62.228C195.068 61.148 195.008 60.2 194.888 59.384C194.792 58.544 194.504 57.896 194.024 57.44C193.544 56.984 192.74 56.756 191.612 56.756C190.46 56.756 189.62 57.008 189.092 57.512C188.564 57.992 188.216 58.688 188.048 59.6C187.904 60.488 187.832 61.532 187.832 62.732V74.288C187.832 75.752 187.952 76.916 188.192 77.78C188.432 78.62 188.828 79.22 189.38 79.58C189.932 79.94 190.676 80.12 191.612 80.12C192.716 80.12 193.508 79.88 193.988 79.4C194.468 78.896 194.768 78.212 194.888 77.348C195.008 76.484 195.068 75.476 195.068 74.324V72.164H198.92V74.324C198.92 76.1 198.704 77.672 198.272 79.04C197.84 80.384 197.096 81.44 196.04 82.208C194.984 82.952 193.496 83.324 191.576 83.324ZM213.847 83.324C211.879 83.324 210.307 82.94 209.131 82.172C207.955 81.404 207.115 80.312 206.611 78.896C206.107 77.456 205.855 75.776 205.855 73.856V62.804C205.855 60.884 206.107 59.24 206.611 57.872C207.139 56.48 207.979 55.424 209.131 54.704C210.307 53.96 211.879 53.588 213.847 53.588C215.815 53.588 217.375 53.96 218.527 54.704C219.679 55.448 220.507 56.504 221.011 57.872C221.539 59.24 221.803 60.884 221.803 62.804V73.892C221.803 75.788 221.539 77.444 221.011 78.86C220.507 80.276 219.679 81.38 218.527 82.172C217.375 82.94 215.815 83.324 213.847 83.324ZM213.847 80.12C214.927 80.12 215.743 79.904 216.295 79.472C216.847 79.016 217.219 78.392 217.411 77.6C217.603 76.784 217.699 75.836 217.699 74.756V61.976C217.699 60.896 217.603 59.972 217.411 59.204C217.219 58.412 216.847 57.812 216.295 57.404C215.743 56.972 214.927 56.756 213.847 56.756C212.767 56.756 211.939 56.972 211.363 57.404C210.811 57.812 210.439 58.412 210.247 59.204C210.055 59.972 209.959 60.896 209.959 61.976V74.756C209.959 75.836 210.055 76.784 210.247 77.6C210.439 78.392 210.811 79.016 211.363 79.472C211.939 79.904 212.767 80.12 213.847 80.12ZM229.402 83V53.84H232.174L240.454 73.208V53.84H243.838V83H241.246L232.858 63.092V83H229.402ZM252.021 83V53.84H254.793L263.073 73.208V53.84H266.457V83H263.865L255.477 63.092V83H252.021ZM274.641 83V53.84H285.945V56.864H278.709V66.512H284.577V69.392H278.709V80.084H286.017V83H274.641ZM300.209 83.324C298.145 83.324 296.537 82.892 295.385 82.028C294.257 81.164 293.465 80 293.009 78.536C292.577 77.072 292.361 75.44 292.361 73.64V63.344C292.361 61.376 292.577 59.66 293.009 58.196C293.465 56.732 294.257 55.604 295.385 54.812C296.537 53.996 298.145 53.588 300.209 53.588C302.033 53.588 303.473 53.924 304.529 54.596C305.609 55.268 306.377 56.228 306.833 57.476C307.313 58.724 307.553 60.224 307.553 61.976V64.28H303.701V62.228C303.701 61.148 303.641 60.2 303.521 59.384C303.425 58.544 303.137 57.896 302.657 57.44C302.177 56.984 301.373 56.756 300.245 56.756C299.093 56.756 298.253 57.008 297.725 57.512C297.197 57.992 296.849 58.688 296.681 59.6C296.537 60.488 296.465 61.532 296.465 62.732V74.288C296.465 75.752 296.585 76.916 296.825 77.78C297.065 78.62 297.461 79.22 298.013 79.58C298.565 79.94 299.309 80.12 300.245 80.12C301.349 80.12 302.141 79.88 302.621 79.4C303.101 78.896 303.401 78.212 303.521 77.348C303.641 76.484 303.701 75.476 303.701 74.324V72.164H307.553V74.324C307.553 76.1 307.337 77.672 306.905 79.04C306.473 80.384 305.729 81.44 304.673 82.208C303.617 82.952 302.129 83.324 300.209 83.324ZM318.232 83V56.864H313.3V53.84H327.088V56.864H322.3V83H318.232ZM349.106 83L344.354 53.84H347.738L350.87 74.792L354.794 53.948H357.674L361.634 74.9L364.694 53.84H368.006L363.326 83H360.374L356.306 61.4L352.202 83H349.106ZM375.368 83V53.84H379.364V83H375.368ZM390.886 83V56.864H385.954V53.84H399.742V56.864H394.954V83H390.886ZM406.153 83V53.84H410.221V66.44H417.709V53.84H421.777V83H417.709V69.356H410.221V83H406.153ZM449.283 83.324C447.171 83.324 445.551 82.904 444.423 82.064C443.295 81.224 442.527 80.048 442.119 78.536C441.711 77 441.507 75.212 441.507 73.172V53.84H445.395V73.352C445.395 74.6 445.479 75.74 445.647 76.772C445.815 77.804 446.175 78.62 446.727 79.22C447.303 79.82 448.155 80.12 449.283 80.12C450.435 80.12 451.287 79.82 451.839 79.22C452.391 78.62 452.751 77.804 452.919 76.772C453.087 75.74 453.171 74.6 453.171 73.352V53.84H457.023V73.172C457.023 75.212 456.819 77 456.411 78.536C456.003 80.048 455.235 81.224 454.107 82.064C453.003 82.904 451.395 83.324 449.283 83.324ZM471.782 83.324C470.102 83.324 468.698 82.964 467.57 82.244C466.466 81.524 465.626 80.528 465.05 79.256C464.474 77.984 464.138 76.508 464.042 74.828L467.642 73.856C467.714 74.888 467.87 75.884 468.11 76.844C468.374 77.804 468.794 78.596 469.37 79.22C469.946 79.82 470.75 80.12 471.782 80.12C472.838 80.12 473.63 79.832 474.158 79.256C474.71 78.656 474.986 77.804 474.986 76.7C474.986 75.38 474.686 74.324 474.086 73.532C473.486 72.716 472.73 71.9 471.818 71.084L466.922 66.764C465.962 65.924 465.254 65.012 464.798 64.028C464.342 63.02 464.114 61.784 464.114 60.32C464.114 58.184 464.726 56.528 465.95 55.352C467.174 54.176 468.842 53.588 470.954 53.588C472.106 53.588 473.114 53.744 473.978 54.056C474.866 54.344 475.598 54.8 476.174 55.424C476.774 56.048 477.242 56.84 477.578 57.8C477.938 58.736 478.178 59.84 478.298 61.112L474.842 62.048C474.77 61.088 474.626 60.212 474.41 59.42C474.194 58.604 473.81 57.956 473.258 57.476C472.73 56.972 471.962 56.72 470.954 56.72C469.946 56.72 469.154 56.996 468.578 57.548C468.026 58.076 467.75 58.868 467.75 59.924C467.75 60.812 467.894 61.544 468.182 62.12C468.494 62.696 468.986 63.284 469.658 63.884L474.59 68.204C475.694 69.164 476.666 70.316 477.506 71.66C478.346 72.98 478.766 74.552 478.766 76.376C478.766 77.816 478.466 79.064 477.866 80.12C477.266 81.152 476.438 81.944 475.382 82.496C474.35 83.048 473.15 83.324 471.782 83.324Z" fill="black" fill-opacity="0.2"/>
<path d="M191.576 130.324C189.512 130.324 187.904 129.892 186.752 129.028C185.624 128.164 184.832 127 184.376 125.536C183.944 124.072 183.728 122.44 183.728 120.64V110.344C183.728 108.376 183.944 106.66 184.376 105.196C184.832 103.732 185.624 102.604 186.752 101.812C187.904 100.996 189.512 100.588 191.576 100.588C193.4 100.588 194.84 100.924 195.896 101.596C196.976 102.268 197.744 103.228 198.2 104.476C198.68 105.724 198.92 107.224 198.92 108.976V111.28H195.068V109.228C195.068 108.148 195.008 107.2 194.888 106.384C194.792 105.544 194.504 104.896 194.024 104.44C193.544 103.984 192.74 103.756 191.612 103.756C190.46 103.756 189.62 104.008 189.092 104.512C188.564 104.992 188.216 105.688 188.048 106.6C187.904 107.488 187.832 108.532 187.832 109.732V121.288C187.832 122.752 187.952 123.916 188.192 124.78C188.432 125.62 188.828 126.22 189.38 126.58C189.932 126.94 190.676 127.12 191.612 127.12C192.716 127.12 193.508 126.88 193.988 126.4C194.468 125.896 194.768 125.212 194.888 124.348C195.008 123.484 195.068 122.476 195.068 121.324V119.164H198.92V121.324C198.92 123.1 198.704 124.672 198.272 126.04C197.84 127.384 197.096 128.44 196.04 129.208C194.984 129.952 193.496 130.324 191.576 130.324ZM213.847 130.324C211.879 130.324 210.307 129.94 209.131 129.172C207.955 128.404 207.115 127.312 206.611 125.896C206.107 124.456 205.855 122.776 205.855 120.856V109.804C205.855 107.884 206.107 106.24 206.611 104.872C207.139 103.48 207.979 102.424 209.131 101.704C210.307 100.96 211.879 100.588 213.847 100.588C215.815 100.588 217.375 100.96 218.527 101.704C219.679 102.448 220.507 103.504 221.011 104.872C221.539 106.24 221.803 107.884 221.803 109.804V120.892C221.803 122.788 221.539 124.444 221.011 125.86C220.507 127.276 219.679 128.38 218.527 129.172C217.375 129.94 215.815 130.324 213.847 130.324ZM213.847 127.12C214.927 127.12 215.743 126.904 216.295 126.472C216.847 126.016 217.219 125.392 217.411 124.6C217.603 123.784 217.699 122.836 217.699 121.756V108.976C217.699 107.896 217.603 106.972 217.411 106.204C217.219 105.412 216.847 104.812 216.295 104.404C215.743 103.972 214.927 103.756 213.847 103.756C212.767 103.756 211.939 103.972 211.363 104.404C210.811 104.812 210.439 105.412 210.247 106.204C210.055 106.972 209.959 107.896 209.959 108.976V121.756C209.959 122.836 210.055 123.784 210.247 124.6C210.439 125.392 210.811 126.016 211.363 126.472C211.939 126.904 212.767 127.12 213.847 127.12ZM229.402 130V100.84H232.174L240.454 120.208V100.84H243.838V130H241.246L232.858 110.092V130H229.402ZM252.021 130V100.84H254.793L263.073 120.208V100.84H266.457V130H263.865L255.477 110.092V130H252.021ZM274.641 130V100.84H285.945V103.864H278.709V113.512H284.577V116.392H278.709V127.084H286.017V130H274.641ZM300.209 130.324C298.145 130.324 296.537 129.892 295.385 129.028C294.257 128.164 293.465 127 293.009 125.536C292.577 124.072 292.361 122.44 292.361 120.64V110.344C292.361 108.376 292.577 106.66 293.009 105.196C293.465 103.732 294.257 102.604 295.385 101.812C296.537 100.996 298.145 100.588 300.209 100.588C302.033 100.588 303.473 100.924 304.529 101.596C305.609 102.268 306.377 103.228 306.833 104.476C307.313 105.724 307.553 107.224 307.553 108.976V111.28H303.701V109.228C303.701 108.148 303.641 107.2 303.521 106.384C303.425 105.544 303.137 104.896 302.657 104.44C302.177 103.984 301.373 103.756 300.245 103.756C299.093 103.756 298.253 104.008 297.725 104.512C297.197 104.992 296.849 105.688 296.681 106.6C296.537 107.488 296.465 108.532 296.465 109.732V121.288C296.465 122.752 296.585 123.916 296.825 124.78C297.065 125.62 297.461 126.22 298.013 126.58C298.565 126.94 299.309 127.12 300.245 127.12C301.349 127.12 302.141 126.88 302.621 126.4C303.101 125.896 303.401 125.212 303.521 124.348C303.641 123.484 303.701 122.476 303.701 121.324V119.164H307.553V121.324C307.553 123.1 307.337 124.672 306.905 126.04C306.473 127.384 305.729 128.44 304.673 129.208C303.617 129.952 302.129 130.324 300.209 130.324ZM318.232 130V103.864H313.3V100.84H327.088V103.864H322.3V130H318.232ZM349.106 130L344.354 100.84H347.738L350.87 121.792L354.794 100.948H357.674L361.634 121.9L364.694 100.84H368.006L363.326 130H360.374L356.306 108.4L352.202 130H349.106ZM375.368 130V100.84H379.364V130H375.368ZM390.886 130V103.864H385.954V100.84H399.742V103.864H394.954V130H390.886ZM406.153 130V100.84H410.221V113.44H417.709V100.84H421.777V130H417.709V116.356H410.221V130H406.153ZM449.283 130.324C447.171 130.324 445.551 129.904 444.423 129.064C443.295 128.224 442.527 127.048 442.119 125.536C441.711 124 441.507 122.212 441.507 120.172V100.84H445.395V120.352C445.395 121.6 445.479 122.74 445.647 123.772C445.815 124.804 446.175 125.62 446.727 126.22C447.303 126.82 448.155 127.12 449.283 127.12C450.435 127.12 451.287 126.82 451.839 126.22C452.391 125.62 452.751 124.804 452.919 123.772C453.087 122.74 453.171 121.6 453.171 120.352V100.84H457.023V120.172C457.023 122.212 456.819 124 456.411 125.536C456.003 127.048 455.235 128.224 454.107 129.064C453.003 129.904 451.395 130.324 449.283 130.324ZM471.782 130.324C470.102 130.324 468.698 129.964 467.57 129.244C466.466 128.524 465.626 127.528 465.05 126.256C464.474 124.984 464.138 123.508 464.042 121.828L467.642 120.856C467.714 121.888 467.87 122.884 468.11 123.844C468.374 124.804 468.794 125.596 469.37 126.22C469.946 126.82 470.75 127.12 471.782 127.12C472.838 127.12 473.63 126.832 474.158 126.256C474.71 125.656 474.986 124.804 474.986 123.7C474.986 122.38 474.686 121.324 474.086 120.532C473.486 119.716 472.73 118.9 471.818 118.084L466.922 113.764C465.962 112.924 465.254 112.012 464.798 111.028C464.342 110.02 464.114 108.784 464.114 107.32C464.114 105.184 464.726 103.528 465.95 102.352C467.174 101.176 468.842 100.588 470.954 100.588C472.106 100.588 473.114 100.744 473.978 101.056C474.866 101.344 475.598 101.8 476.174 102.424C476.774 103.048 477.242 103.84 477.578 104.8C477.938 105.736 478.178 106.84 478.298 108.112L474.842 109.048C474.77 108.088 474.626 107.212 474.41 106.42C474.194 105.604 473.81 104.956 473.258 104.476C472.73 103.972 471.962 103.72 470.954 103.72C469.946 103.72 469.154 103.996 468.578 104.548C468.026 105.076 467.75 105.868 467.75 106.924C467.75 107.812 467.894 108.544 468.182 109.12C468.494 109.696 468.986 110.284 469.658 110.884L474.59 115.204C475.694 116.164 476.666 117.316 477.506 118.66C478.346 119.98 478.766 121.552 478.766 123.376C478.766 124.816 478.466 126.064 477.866 127.12C477.266 128.152 476.438 128.944 475.382 129.496C474.35 130.048 473.15 130.324 471.782 130.324Z" fill="black" fill-opacity="0.7"/>
<path d="M14.08 179H11L12.16 165.52H15.54L17.42 170.4C17.74 171.213 18.0133 171.96 18.24 172.64C18.4667 173.32 18.6133 173.8 18.68 174.08L18.78 174.48C18.9933 173.6 19.46 172.24 20.18 170.4L22.08 165.52H25.46L26.86 179H23.78L23.28 173.78L23.02 169.84C22.6733 170.84 22.1933 172.153 21.58 173.78L19.68 178.86H17.86L15.98 173.78C15.6733 172.953 15.4133 172.213 15.2 171.56C14.9867 170.907 14.8467 170.453 14.78 170.2L14.68 169.84C14.68 170.787 14.62 172.1 14.5 173.78L14.08 179ZM32.7716 177C33.1849 177 33.5049 176.873 33.7316 176.62C33.9582 176.367 34.0716 176.02 34.0716 175.58V174.84H33.1316C32.6382 174.84 32.2582 174.947 31.9916 175.16C31.7249 175.373 31.5916 175.647 31.5916 175.98C31.5916 176.66 31.9849 177 32.7716 177ZM34.2116 177.76C33.7849 178.627 32.9449 179.06 31.6916 179.06C30.7049 179.06 29.9316 178.78 29.3716 178.22C28.8249 177.66 28.5516 176.96 28.5516 176.12C28.5516 175.147 28.9049 174.393 29.6116 173.86C30.3316 173.313 31.3916 173.04 32.7916 173.04H34.0716V172.34C34.0716 171.487 33.5049 171.06 32.3716 171.06C31.2782 171.06 30.2649 171.367 29.3316 171.98V169.36C30.1316 168.907 31.2849 168.68 32.7916 168.68C34.2316 168.68 35.3049 168.993 36.0116 169.62C36.7182 170.233 37.0716 171.193 37.0716 172.5V179H34.2116V177.76ZM42.2841 179H39.3641V165.2H42.2841V173.4L45.4841 168.86H48.8441L45.3241 173.72L48.9041 179H45.5241L42.2841 174.02V179ZM58.2811 178.42C57.5878 178.873 56.5278 179.1 55.1011 179.1C53.4344 179.1 52.1344 178.62 51.2011 177.66C50.2811 176.687 49.8211 175.44 49.8211 173.92C49.8211 172.307 50.2678 171.047 51.1611 170.14C52.0678 169.22 53.1811 168.76 54.5011 168.76C55.8611 168.76 56.9344 169.16 57.7211 169.96C58.5078 170.747 58.9011 171.927 58.9011 173.5C58.9011 173.807 58.8478 174.333 58.7411 175.08H52.7811C52.9811 175.64 53.3278 176.073 53.8211 176.38C54.3144 176.687 54.9078 176.84 55.6011 176.84C56.6278 176.84 57.5211 176.553 58.2811 175.98V178.42ZM54.6211 170.98C54.1544 170.98 53.7411 171.153 53.3811 171.5C53.0211 171.833 52.7811 172.333 52.6611 173H56.1811V172.76C56.0878 171.573 55.5678 170.98 54.6211 170.98ZM69.7052 177C70.1185 177 70.4385 176.873 70.6652 176.62C70.8918 176.367 71.0052 176.02 71.0052 175.58V174.84H70.0652C69.5718 174.84 69.1918 174.947 68.9252 175.16C68.6585 175.373 68.5252 175.647 68.5252 175.98C68.5252 176.66 68.9185 177 69.7052 177ZM71.1452 177.76C70.7185 178.627 69.8785 179.06 68.6252 179.06C67.6385 179.06 66.8652 178.78 66.3052 178.22C65.7585 177.66 65.4852 176.96 65.4852 176.12C65.4852 175.147 65.8385 174.393 66.5452 173.86C67.2652 173.313 68.3252 173.04 69.7252 173.04H71.0052V172.34C71.0052 171.487 70.4385 171.06 69.3052 171.06C68.2118 171.06 67.1985 171.367 66.2652 171.98V169.36C67.0652 168.907 68.2185 168.68 69.7252 168.68C71.1652 168.68 72.2385 168.993 72.9452 169.62C73.6518 170.233 74.0052 171.193 74.0052 172.5V179H71.1452V177.76ZM88.8777 178.52C88.091 178.947 87.1443 179.16 86.0377 179.16C84.5177 179.16 83.2643 178.68 82.2777 177.72C81.291 176.747 80.7977 175.493 80.7977 173.96C80.8243 172.44 81.3177 171.187 82.2777 170.2C83.2377 169.2 84.551 168.7 86.2177 168.7C87.2443 168.7 88.131 168.893 88.8777 169.28V171.78C88.171 171.34 87.3843 171.12 86.5177 171.12C85.7043 171.12 85.0443 171.367 84.5377 171.86C84.031 172.34 83.771 173.04 83.7577 173.96C83.811 174.853 84.0777 175.547 84.5577 176.04C85.0377 176.533 85.671 176.78 86.4577 176.78C87.2977 176.78 88.1043 176.547 88.8777 176.08V178.52ZM94.3927 177C94.806 177 95.126 176.873 95.3527 176.62C95.5793 176.367 95.6927 176.02 95.6927 175.58V174.84H94.7527C94.2593 174.84 93.8793 174.947 93.6127 175.16C93.346 175.373 93.2127 175.647 93.2127 175.98C93.2127 176.66 93.606 177 94.3927 177ZM95.8327 177.76C95.406 178.627 94.566 179.06 93.3127 179.06C92.326 179.06 91.5527 178.78 90.9927 178.22C90.446 177.66 90.1727 176.96 90.1727 176.12C90.1727 175.147 90.526 174.393 91.2327 173.86C91.9527 173.313 93.0127 173.04 94.4127 173.04H95.6927V172.34C95.6927 171.487 95.126 171.06 93.9927 171.06C92.8993 171.06 91.886 171.367 90.9527 171.98V169.36C91.7527 168.907 92.906 168.68 94.4127 168.68C95.8527 168.68 96.926 168.993 97.6327 169.62C98.3393 170.233 98.6927 171.193 98.6927 172.5V179H95.8327V177.76ZM104.005 179H101.085V164.86H104.005V179ZM109.533 179H106.613V164.86H109.533V179ZM126.48 173.88C126.48 175.413 126.04 176.68 125.16 177.68C124.293 178.667 123.08 179.16 121.52 179.16C119.933 179.16 118.707 178.687 117.84 177.74C116.973 176.78 116.54 175.553 116.54 174.06C116.54 172.5 116.993 171.22 117.9 170.22C118.807 169.207 120.013 168.7 121.52 168.7C123.093 168.7 124.313 169.187 125.18 170.16C126.047 171.133 126.48 172.373 126.48 173.88ZM120.06 171.82C119.74 172.367 119.58 173.073 119.58 173.94C119.58 174.807 119.74 175.52 120.06 176.08C120.393 176.627 120.887 176.9 121.54 176.9C122.18 176.9 122.653 176.633 122.96 176.1C123.28 175.553 123.44 174.847 123.44 173.98C123.44 171.993 122.793 171 121.5 171C120.86 171 120.38 171.273 120.06 171.82ZM131.288 179H128.368L128.388 168.86H131.288V170.74C131.474 170.153 131.781 169.687 132.208 169.34C132.648 168.98 133.154 168.8 133.728 168.8C134.048 168.8 134.301 168.827 134.488 168.88V171.64C134.168 171.493 133.801 171.42 133.388 171.42C132.761 171.42 132.254 171.653 131.868 172.12C131.481 172.573 131.288 173.18 131.288 173.94V179ZM143.25 173.96C143.25 174.773 143.463 175.433 143.89 175.94C144.317 176.433 144.837 176.68 145.45 176.68C146.117 176.68 146.657 176.42 147.07 175.9C147.483 175.38 147.69 174.687 147.69 173.82C147.69 172.98 147.463 172.327 147.01 171.86C146.57 171.393 146.043 171.16 145.43 171.16C144.817 171.16 144.297 171.407 143.87 171.9C143.457 172.393 143.25 173.08 143.25 173.96ZM150.61 179H147.69V177.42C147.01 178.553 145.997 179.12 144.65 179.12C143.33 179.12 142.27 178.607 141.47 177.58C140.683 176.553 140.29 175.327 140.29 173.9C140.29 172.3 140.703 171.04 141.53 170.12C142.357 169.2 143.403 168.74 144.67 168.74C145.99 168.74 146.997 169.3 147.69 170.42V164.86H150.61V179ZM155.916 179H152.996L153.016 168.86H155.916V170.74C156.103 170.153 156.41 169.687 156.836 169.34C157.276 168.98 157.783 168.8 158.356 168.8C158.676 168.8 158.93 168.827 159.116 168.88V171.64C158.796 171.493 158.43 171.42 158.016 171.42C157.39 171.42 156.883 171.653 156.496 172.12C156.11 172.573 155.916 173.18 155.916 173.94V179ZM169.859 173.88C169.859 175.413 169.419 176.68 168.539 177.68C167.672 178.667 166.459 179.16 164.899 179.16C163.312 179.16 162.085 178.687 161.219 177.74C160.352 176.78 159.919 175.553 159.919 174.06C159.919 172.5 160.372 171.22 161.279 170.22C162.185 169.207 163.392 168.7 164.899 168.7C166.472 168.7 167.692 169.187 168.559 170.16C169.425 171.133 169.859 172.373 169.859 173.88ZM163.439 171.82C163.119 172.367 162.959 173.073 162.959 173.94C162.959 174.807 163.119 175.52 163.439 176.08C163.772 176.627 164.265 176.9 164.919 176.9C165.559 176.9 166.032 176.633 166.339 176.1C166.659 175.553 166.819 174.847 166.819 173.98C166.819 171.993 166.172 171 164.879 171C164.239 171 163.759 171.273 163.439 171.82ZM174.686 182.74H171.766V168.86H174.686V170.42C175.393 169.3 176.413 168.74 177.746 168.74C179.053 168.74 180.1 169.207 180.886 170.14C181.686 171.06 182.086 172.313 182.086 173.9C182.086 175.407 181.7 176.653 180.926 177.64C180.166 178.627 179.106 179.12 177.746 179.12C176.373 179.12 175.353 178.58 174.686 177.5V182.74ZM174.686 173.82C174.686 174.687 174.9 175.38 175.326 175.9C175.753 176.42 176.3 176.68 176.966 176.68C177.606 176.68 178.126 176.44 178.526 175.96C178.926 175.467 179.126 174.8 179.126 173.96C179.126 173.04 178.92 172.347 178.506 171.88C178.106 171.4 177.593 171.16 176.966 171.16C176.353 171.16 175.82 171.393 175.366 171.86C174.913 172.327 174.686 172.98 174.686 173.82ZM192.713 177C193.126 177 193.446 176.873 193.673 176.62C193.9 176.367 194.013 176.02 194.013 175.58V174.84H193.073C192.58 174.84 192.2 174.947 191.933 175.16C191.666 175.373 191.533 175.647 191.533 175.98C191.533 176.66 191.926 177 192.713 177ZM194.153 177.76C193.726 178.627 192.886 179.06 191.633 179.06C190.646 179.06 189.873 178.78 189.313 178.22C188.766 177.66 188.493 176.96 188.493 176.12C188.493 175.147 188.846 174.393 189.553 173.86C190.273 173.313 191.333 173.04 192.733 173.04H194.013V172.34C194.013 171.487 193.446 171.06 192.313 171.06C191.22 171.06 190.206 171.367 189.273 171.98V169.36C190.073 168.907 191.226 168.68 192.733 168.68C194.173 168.68 195.246 168.993 195.953 169.62C196.66 170.233 197.013 171.193 197.013 172.5V179H194.153V177.76ZM219.185 179H216.265V172.98C216.265 172.407 216.152 171.953 215.925 171.62C215.699 171.287 215.372 171.12 214.945 171.12C214.492 171.12 214.085 171.307 213.725 171.68C213.379 172.04 213.205 172.693 213.205 173.64V179H210.285V172.98C210.285 172.407 210.172 171.953 209.945 171.62C209.719 171.287 209.392 171.12 208.965 171.12C208.512 171.12 208.105 171.307 207.745 171.68C207.399 172.04 207.225 172.693 207.225 173.64V179H204.305V168.86H207.225V170.44C207.785 169.32 208.739 168.76 210.085 168.76C211.512 168.76 212.459 169.4 212.925 170.68C213.152 170.08 213.532 169.613 214.065 169.28C214.599 168.933 215.225 168.76 215.945 168.76C216.945 168.76 217.732 169.08 218.305 169.72C218.892 170.347 219.185 171.273 219.185 172.5V179ZM229.453 178.42C228.76 178.873 227.7 179.1 226.273 179.1C224.606 179.1 223.306 178.62 222.373 177.66C221.453 176.687 220.993 175.44 220.993 173.92C220.993 172.307 221.44 171.047 222.333 170.14C223.24 169.22 224.353 168.76 225.673 168.76C227.033 168.76 228.106 169.16 228.893 169.96C229.68 170.747 230.073 171.927 230.073 173.5C230.073 173.807 230.02 174.333 229.913 175.08H223.953C224.153 175.64 224.5 176.073 224.993 176.38C225.486 176.687 226.08 176.84 226.773 176.84C227.8 176.84 228.693 176.553 229.453 175.98V178.42ZM225.793 170.98C225.326 170.98 224.913 171.153 224.553 171.5C224.193 171.833 223.953 172.333 223.833 173H227.353V172.76C227.26 171.573 226.74 170.98 225.793 170.98ZM239.077 175.94C239.077 176.94 238.717 177.713 237.997 178.26C237.277 178.807 236.324 179.08 235.137 179.08C233.91 179.08 232.884 178.873 232.057 178.46V175.86C232.977 176.5 233.95 176.82 234.977 176.82C235.71 176.82 236.077 176.587 236.077 176.12C236.077 176 236.044 175.887 235.977 175.78C235.91 175.673 235.797 175.573 235.637 175.48C235.477 175.387 235.33 175.313 235.197 175.26C235.064 175.193 234.87 175.107 234.617 175C234.364 174.893 234.17 174.807 234.037 174.74C232.69 174.1 232.017 173.14 232.017 171.86C232.017 170.873 232.39 170.107 233.137 169.56C233.897 169.013 234.837 168.74 235.957 168.74C236.997 168.74 237.864 168.88 238.557 169.16V171.66C237.85 171.247 237.024 171.04 236.077 171.04C235.73 171.04 235.464 171.113 235.277 171.26C235.09 171.393 234.997 171.567 234.997 171.78C234.997 171.9 235.03 172.013 235.097 172.12C235.164 172.227 235.27 172.327 235.417 172.42C235.577 172.513 235.724 172.6 235.857 172.68C236.004 172.747 236.197 172.833 236.437 172.94C236.69 173.047 236.89 173.14 237.037 173.22C237.65 173.54 238.144 173.913 238.517 174.34C238.89 174.753 239.077 175.287 239.077 175.94ZM247.788 175.94C247.788 176.94 247.428 177.713 246.708 178.26C245.988 178.807 245.035 179.08 243.848 179.08C242.621 179.08 241.595 178.873 240.768 178.46V175.86C241.688 176.5 242.661 176.82 243.688 176.82C244.421 176.82 244.788 176.587 244.788 176.12C244.788 176 244.755 175.887 244.688 175.78C244.621 175.673 244.508 175.573 244.348 175.48C244.188 175.387 244.041 175.313 243.908 175.26C243.775 175.193 243.581 175.107 243.328 175C243.075 174.893 242.881 174.807 242.748 174.74C241.401 174.1 240.728 173.14 240.728 171.86C240.728 170.873 241.101 170.107 241.848 169.56C242.608 169.013 243.548 168.74 244.668 168.74C245.708 168.74 246.575 168.88 247.268 169.16V171.66C246.561 171.247 245.735 171.04 244.788 171.04C244.441 171.04 244.175 171.113 243.988 171.26C243.801 171.393 243.708 171.567 243.708 171.78C243.708 171.9 243.741 172.013 243.808 172.12C243.875 172.227 243.981 172.327 244.128 172.42C244.288 172.513 244.435 172.6 244.568 172.68C244.715 172.747 244.908 172.833 245.148 172.94C245.401 173.047 245.601 173.14 245.748 173.22C246.361 173.54 246.855 173.913 247.228 174.34C247.601 174.753 247.788 175.287 247.788 175.94ZM253.299 177C253.712 177 254.032 176.873 254.259 176.62C254.486 176.367 254.599 176.02 254.599 175.58V174.84H253.659C253.166 174.84 252.786 174.947 252.519 175.16C252.252 175.373 252.119 175.647 252.119 175.98C252.119 176.66 252.512 177 253.299 177ZM254.739 177.76C254.312 178.627 253.472 179.06 252.219 179.06C251.232 179.06 250.459 178.78 249.899 178.22C249.352 177.66 249.079 176.96 249.079 176.12C249.079 175.147 249.432 174.393 250.139 173.86C250.859 173.313 251.919 173.04 253.319 173.04H254.599V172.34C254.599 171.487 254.032 171.06 252.899 171.06C251.806 171.06 250.792 171.367 249.859 171.98V169.36C250.659 168.907 251.812 168.68 253.319 168.68C254.759 168.68 255.832 168.993 256.539 169.62C257.246 170.233 257.599 171.193 257.599 172.5V179H254.739V177.76ZM269.291 178.02C269.291 179.647 268.805 180.867 267.831 181.68C266.858 182.507 265.638 182.92 264.171 182.92C262.745 182.92 261.498 182.667 260.431 182.16V179.18C261.365 179.927 262.511 180.3 263.871 180.3C264.751 180.3 265.391 180.113 265.791 179.74C266.191 179.367 266.391 178.78 266.391 177.98V177.3C265.805 178.207 264.871 178.66 263.591 178.66C262.471 178.66 261.505 178.247 260.691 177.42C259.891 176.593 259.491 175.367 259.491 173.74C259.491 172.3 259.878 171.113 260.651 170.18C261.438 169.233 262.465 168.76 263.731 168.76C264.931 168.76 265.818 169.24 266.391 170.2V168.86H269.291V178.02ZM262.531 173.76C262.531 174.6 262.691 175.24 263.011 175.68C263.331 176.12 263.791 176.34 264.391 176.34C265.018 176.34 265.505 176.107 265.851 175.64C266.211 175.16 266.391 174.587 266.391 173.92C266.391 172.107 265.731 171.2 264.411 171.2C263.825 171.2 263.365 171.427 263.031 171.88C262.698 172.333 262.531 172.96 262.531 173.76ZM279.551 178.42C278.857 178.873 277.797 179.1 276.371 179.1C274.704 179.1 273.404 178.62 272.471 177.66C271.551 176.687 271.091 175.44 271.091 173.92C271.091 172.307 271.537 171.047 272.431 170.14C273.337 169.22 274.451 168.76 275.771 168.76C277.131 168.76 278.204 169.16 278.991 169.96C279.777 170.747 280.171 171.927 280.171 173.5C280.171 173.807 280.117 174.333 280.011 175.08H274.051C274.251 175.64 274.597 176.073 275.091 176.38C275.584 176.687 276.177 176.84 276.871 176.84C277.897 176.84 278.791 176.553 279.551 175.98V178.42ZM275.891 170.98C275.424 170.98 275.011 171.153 274.651 171.5C274.291 171.833 274.051 172.333 273.931 173H277.451V172.76C277.357 171.573 276.837 170.98 275.891 170.98ZM290.975 177C291.388 177 291.708 176.873 291.935 176.62C292.161 176.367 292.275 176.02 292.275 175.58V174.84H291.335C290.841 174.84 290.461 174.947 290.195 175.16C289.928 175.373 289.795 175.647 289.795 175.98C289.795 176.66 290.188 177 290.975 177ZM292.415 177.76C291.988 178.627 291.148 179.06 289.895 179.06C288.908 179.06 288.135 178.78 287.575 178.22C287.028 177.66 286.755 176.96 286.755 176.12C286.755 175.147 287.108 174.393 287.815 173.86C288.535 173.313 289.595 173.04 290.995 173.04H292.275V172.34C292.275 171.487 291.708 171.06 290.575 171.06C289.481 171.06 288.468 171.367 287.535 171.98V169.36C288.335 168.907 289.488 168.68 290.995 168.68C292.435 168.68 293.508 168.993 294.215 169.62C294.921 170.233 295.275 171.193 295.275 172.5V179H292.415V177.76ZM306.867 179H303.947V172.96C303.947 172.36 303.807 171.907 303.527 171.6C303.247 171.28 302.854 171.12 302.347 171.12C301.814 171.12 301.367 171.333 301.007 171.76C300.661 172.173 300.487 172.8 300.487 173.64V179H297.567V168.86H300.487V170.58C300.741 170.02 301.127 169.58 301.647 169.26C302.181 168.927 302.814 168.76 303.547 168.76C304.587 168.76 305.401 169.073 305.987 169.7C306.574 170.313 306.867 171.22 306.867 172.42V179ZM311.629 173.96C311.629 174.773 311.842 175.433 312.269 175.94C312.695 176.433 313.215 176.68 313.829 176.68C314.495 176.68 315.035 176.42 315.449 175.9C315.862 175.38 316.069 174.687 316.069 173.82C316.069 172.98 315.842 172.327 315.389 171.86C314.949 171.393 314.422 171.16 313.809 171.16C313.195 171.16 312.675 171.407 312.249 171.9C311.835 172.393 311.629 173.08 311.629 173.96ZM318.989 179H316.069V177.42C315.389 178.553 314.375 179.12 313.029 179.12C311.709 179.12 310.649 178.607 309.849 177.58C309.062 176.553 308.669 175.327 308.669 173.9C308.669 172.3 309.082 171.04 309.909 170.12C310.735 169.2 311.782 168.74 313.049 168.74C314.369 168.74 315.375 169.3 316.069 170.42V164.86H318.989V179ZM335.795 178.02C335.795 179.647 335.309 180.867 334.335 181.68C333.362 182.507 332.142 182.92 330.675 182.92C329.249 182.92 328.002 182.667 326.935 182.16V179.18C327.869 179.927 329.015 180.3 330.375 180.3C331.255 180.3 331.895 180.113 332.295 179.74C332.695 179.367 332.895 178.78 332.895 177.98V177.3C332.309 178.207 331.375 178.66 330.095 178.66C328.975 178.66 328.009 178.247 327.195 177.42C326.395 176.593 325.995 175.367 325.995 173.74C325.995 172.3 326.382 171.113 327.155 170.18C327.942 169.233 328.969 168.76 330.235 168.76C331.435 168.76 332.322 169.24 332.895 170.2V168.86H335.795V178.02ZM329.035 173.76C329.035 174.6 329.195 175.24 329.515 175.68C329.835 176.12 330.295 176.34 330.895 176.34C331.522 176.34 332.009 176.107 332.355 175.64C332.715 175.16 332.895 174.587 332.895 173.92C332.895 172.107 332.235 171.2 330.915 171.2C330.329 171.2 329.869 171.427 329.535 171.88C329.202 172.333 329.035 172.96 329.035 173.76ZM346.055 178.42C345.361 178.873 344.301 179.1 342.875 179.1C341.208 179.1 339.908 178.62 338.975 177.66C338.055 176.687 337.595 175.44 337.595 173.92C337.595 172.307 338.041 171.047 338.935 170.14C339.841 169.22 340.955 168.76 342.275 168.76C343.635 168.76 344.708 169.16 345.495 169.96C346.281 170.747 346.675 171.927 346.675 173.5C346.675 173.807 346.621 174.333 346.515 175.08H340.555C340.755 175.64 341.101 176.073 341.595 176.38C342.088 176.687 342.681 176.84 343.375 176.84C344.401 176.84 345.295 176.553 346.055 175.98V178.42ZM342.395 170.98C341.928 170.98 341.515 171.153 341.155 171.5C340.795 171.833 340.555 172.333 340.435 173H343.955V172.76C343.861 171.573 343.341 170.98 342.395 170.98ZM354.679 178.78C354.185 178.993 353.519 179.1 352.679 179.1C350.372 179.1 349.219 177.947 349.219 175.64V171H347.759V168.86H349.219V166.46H352.139V168.86H354.499V171H352.139V175.66C352.139 176.02 352.239 176.293 352.439 176.48C352.652 176.667 352.925 176.76 353.259 176.76C353.792 176.76 354.265 176.627 354.679 176.36V178.78ZM366.993 171H365.093V179H362.193V171H360.873V168.86H362.193V168.48C362.193 167.253 362.533 166.3 363.213 165.62C363.907 164.94 364.86 164.6 366.073 164.6C366.7 164.6 367.207 164.667 367.593 164.8V167.16C367.22 167.013 366.873 166.94 366.553 166.94C366.06 166.94 365.693 167.053 365.453 167.28C365.213 167.507 365.093 167.907 365.093 168.48V168.86H366.993V171ZM371.288 179H368.368L368.388 168.86H371.288V170.74C371.474 170.153 371.781 169.687 372.208 169.34C372.648 168.98 373.154 168.8 373.728 168.8C374.048 168.8 374.301 168.827 374.488 168.88V171.64C374.168 171.493 373.801 171.42 373.388 171.42C372.761 171.42 372.254 171.653 371.868 172.12C371.481 172.573 371.288 173.18 371.288 173.94V179ZM383.75 178.42C383.057 178.873 381.997 179.1 380.57 179.1C378.903 179.1 377.603 178.62 376.67 177.66C375.75 176.687 375.29 175.44 375.29 173.92C375.29 172.307 375.737 171.047 376.63 170.14C377.537 169.22 378.65 168.76 379.97 168.76C381.33 168.76 382.403 169.16 383.19 169.96C383.977 170.747 384.37 171.927 384.37 173.5C384.37 173.807 384.317 174.333 384.21 175.08H378.25C378.45 175.64 378.797 176.073 379.29 176.38C379.783 176.687 380.377 176.84 381.07 176.84C382.097 176.84 382.99 176.553 383.75 175.98V178.42ZM380.09 170.98C379.623 170.98 379.21 171.153 378.85 171.5C378.49 171.833 378.25 172.333 378.13 173H381.65V172.76C381.557 171.573 381.037 170.98 380.09 170.98ZM394.414 178.42C393.721 178.873 392.661 179.1 391.234 179.1C389.567 179.1 388.267 178.62 387.334 177.66C386.414 176.687 385.954 175.44 385.954 173.92C385.954 172.307 386.401 171.047 387.294 170.14C388.201 169.22 389.314 168.76 390.634 168.76C391.994 168.76 393.067 169.16 393.854 169.96C394.641 170.747 395.034 171.927 395.034 173.5C395.034 173.807 394.981 174.333 394.874 175.08H388.914C389.114 175.64 389.461 176.073 389.954 176.38C390.447 176.687 391.041 176.84 391.734 176.84C392.761 176.84 393.654 176.553 394.414 175.98V178.42ZM390.754 170.98C390.287 170.98 389.874 171.153 389.514 171.5C389.154 171.833 388.914 172.333 388.794 173H392.314V172.76C392.221 171.573 391.701 170.98 390.754 170.98ZM409.698 178.52C408.911 178.947 407.965 179.16 406.858 179.16C405.338 179.16 404.085 178.68 403.098 177.72C402.111 176.747 401.618 175.493 401.618 173.96C401.645 172.44 402.138 171.187 403.098 170.2C404.058 169.2 405.371 168.7 407.038 168.7C408.065 168.7 408.951 168.893 409.698 169.28V171.78C408.991 171.34 408.205 171.12 407.338 171.12C406.525 171.12 405.865 171.367 405.358 171.86C404.851 172.34 404.591 173.04 404.578 173.96C404.631 174.853 404.898 175.547 405.378 176.04C405.858 176.533 406.491 176.78 407.278 176.78C408.118 176.78 408.925 176.547 409.698 176.08V178.52ZM420.933 173.88C420.933 175.413 420.493 176.68 419.613 177.68C418.746 178.667 417.533 179.16 415.973 179.16C414.386 179.16 413.16 178.687 412.293 177.74C411.426 176.78 410.993 175.553 410.993 174.06C410.993 172.5 411.446 171.22 412.353 170.22C413.26 169.207 414.466 168.7 415.973 168.7C417.546 168.7 418.766 169.187 419.633 170.16C420.5 171.133 420.933 172.373 420.933 173.88ZM414.513 171.82C414.193 172.367 414.033 173.073 414.033 173.94C414.033 174.807 414.193 175.52 414.513 176.08C414.846 176.627 415.34 176.9 415.993 176.9C416.633 176.9 417.106 176.633 417.413 176.1C417.733 175.553 417.893 174.847 417.893 173.98C417.893 171.993 417.246 171 415.953 171C415.313 171 414.833 171.273 414.513 171.82ZM432.141 179H429.221V172.96C429.221 172.36 429.081 171.907 428.801 171.6C428.521 171.28 428.127 171.12 427.621 171.12C427.087 171.12 426.641 171.333 426.281 171.76C425.934 172.173 425.761 172.8 425.761 173.64V179H422.841V168.86H425.761V170.58C426.014 170.02 426.401 169.58 426.921 169.26C427.454 168.927 428.087 168.76 428.821 168.76C429.861 168.76 430.674 169.073 431.261 169.7C431.847 170.313 432.141 171.22 432.141 172.42V179ZM441.362 175.94C441.362 176.94 441.002 177.713 440.282 178.26C439.562 178.807 438.609 179.08 437.422 179.08C436.196 179.08 435.169 178.873 434.342 178.46V175.86C435.262 176.5 436.236 176.82 437.262 176.82C437.996 176.82 438.362 176.587 438.362 176.12C438.362 176 438.329 175.887 438.262 175.78C438.196 175.673 438.082 175.573 437.922 175.48C437.762 175.387 437.616 175.313 437.482 175.26C437.349 175.193 437.156 175.107 436.902 175C436.649 174.893 436.456 174.807 436.322 174.74C434.976 174.1 434.302 173.14 434.302 171.86C434.302 170.873 434.676 170.107 435.422 169.56C436.182 169.013 437.122 168.74 438.242 168.74C439.282 168.74 440.149 168.88 440.842 169.16V171.66C440.136 171.247 439.309 171.04 438.362 171.04C438.016 171.04 437.749 171.113 437.562 171.26C437.376 171.393 437.282 171.567 437.282 171.78C437.282 171.9 437.316 172.013 437.382 172.12C437.449 172.227 437.556 172.327 437.702 172.42C437.862 172.513 438.009 172.6 438.142 172.68C438.289 172.747 438.482 172.833 438.722 172.94C438.976 173.047 439.176 173.14 439.322 173.22C439.936 173.54 440.429 173.913 440.802 174.34C441.176 174.753 441.362 175.287 441.362 175.94ZM452.353 179H449.433V177.38C448.9 178.513 447.873 179.08 446.353 179.08C445.313 179.08 444.5 178.793 443.913 178.22C443.34 177.633 443.053 176.773 443.053 175.64V168.86H445.973V174.98C445.973 176.167 446.493 176.76 447.533 176.76C448.8 176.76 449.433 175.913 449.433 174.22V168.86H452.353V179ZM457.775 179H454.855V164.86H457.775V179ZM466.202 178.78C465.709 178.993 465.042 179.1 464.202 179.1C461.895 179.1 460.742 177.947 460.742 175.64V171H459.282V168.86H460.742V166.46H463.662V168.86H466.022V171H463.662V175.66C463.662 176.02 463.762 176.293 463.962 176.48C464.175 176.667 464.449 176.76 464.782 176.76C465.315 176.76 465.789 176.627 466.202 176.36V178.78ZM471.717 177C472.13 177 472.45 176.873 472.677 176.62C472.904 176.367 473.017 176.02 473.017 175.58V174.84H472.077C471.584 174.84 471.204 174.947 470.937 175.16C470.67 175.373 470.537 175.647 470.537 175.98C470.537 176.66 470.93 177 471.717 177ZM473.157 177.76C472.73 178.627 471.89 179.06 470.637 179.06C469.65 179.06 468.877 178.78 468.317 178.22C467.77 177.66 467.497 176.96 467.497 176.12C467.497 175.147 467.85 174.393 468.557 173.86C469.277 173.313 470.337 173.04 471.737 173.04H473.017V172.34C473.017 171.487 472.45 171.06 471.317 171.06C470.224 171.06 469.21 171.367 468.277 171.98V169.36C469.077 168.907 470.23 168.68 471.737 168.68C473.177 168.68 474.25 168.993 474.957 169.62C475.664 170.233 476.017 171.193 476.017 172.5V179H473.157V177.76ZM487.609 179H484.689V172.96C484.689 172.36 484.549 171.907 484.269 171.6C483.989 171.28 483.596 171.12 483.089 171.12C482.556 171.12 482.109 171.333 481.749 171.76C481.403 172.173 481.229 172.8 481.229 173.64V179H478.309V168.86H481.229V170.58C481.483 170.02 481.869 169.58 482.389 169.26C482.923 168.927 483.556 168.76 484.289 168.76C485.329 168.76 486.143 169.073 486.729 169.7C487.316 170.313 487.609 171.22 487.609 172.42V179ZM497.491 178.52C496.704 178.947 495.758 179.16 494.651 179.16C493.131 179.16 491.878 178.68 490.891 177.72C489.904 176.747 489.411 175.493 489.411 173.96C489.438 172.44 489.931 171.187 490.891 170.2C491.851 169.2 493.164 168.7 494.831 168.7C495.858 168.7 496.744 168.893 497.491 169.28V171.78C496.784 171.34 495.998 171.12 495.131 171.12C494.318 171.12 493.658 171.367 493.151 171.86C492.644 172.34 492.384 173.04 492.371 173.96C492.424 174.853 492.691 175.547 493.171 176.04C493.651 176.533 494.284 176.78 495.071 176.78C495.911 176.78 496.718 176.547 497.491 176.08V178.52ZM504.966 178.7C503.913 181.54 502.306 182.96 500.146 182.96C499.733 182.96 499.359 182.927 499.026 182.86V180.54C499.239 180.593 499.466 180.62 499.706 180.62C500.813 180.62 501.613 180.027 502.106 178.84L498.186 168.86H501.366L502.466 172.02C502.746 172.833 502.973 173.533 503.146 174.12C503.333 174.707 503.446 175.093 503.486 175.28L503.546 175.56C503.693 175.027 504.053 173.847 504.626 172.02L505.626 168.86H508.626L504.966 178.7Z" fill="black"/>
</svg>
