<svg width="511" height="189" viewBox="0 0 511 189" fill="none" xmlns="http://www.w3.org/2000/svg">
<path d="M44 134.4C36.2133 134.4 29.7067 132.853 24.48 129.76C19.2533 126.56 15.3067 122.187 12.64 116.64C9.97333 111.093 8.64 104.64 8.64 97.28V38.56C8.64 30.9867 9.86667 24.3733 12.32 18.72C14.88 12.96 18.7733 8.47999 24 5.27999C29.2267 2.07999 35.8933 0.479996 44 0.479996C52.1067 0.479996 58.72 2.07999 63.84 5.27999C69.0667 8.47999 72.9067 12.96 75.36 18.72C77.92 24.3733 79.2 30.9867 79.2 38.56V97.28C79.2 104.533 77.8667 110.987 75.2 116.64C72.5333 122.187 68.5867 126.56 63.36 129.76C58.1333 132.853 51.68 134.4 44 134.4ZM44 110.56C46.56 110.56 48.3733 109.76 49.44 108.16C50.6133 106.453 51.3067 104.533 51.52 102.4C51.84 100.16 52 98.24 52 96.64V39.2C52 37.3867 51.8933 35.36 51.68 33.12C51.4667 30.7733 50.7733 28.7467 49.6 27.04C48.5333 25.2267 46.6667 24.32 44 24.32C41.3333 24.32 39.4133 25.2267 38.24 27.04C37.1733 28.7467 36.5333 30.7733 36.32 33.12C36.1067 35.36 36 37.3867 36 39.2V96.64C36 98.24 36.16 100.16 36.48 102.4C36.8 104.533 37.4933 106.453 38.56 108.16C39.7333 109.76 41.5467 110.56 44 110.56ZM129.729 134.4C120.662 134.4 113.515 132.693 108.289 129.28C103.169 125.867 99.4888 121.12 97.2488 115.04C95.1154 108.853 94.0488 101.76 94.0488 93.76V89.12H120.769C120.769 89.2267 120.769 89.8133 120.769 90.88C120.769 91.9467 120.769 92.9067 120.769 93.76C120.769 98.0267 121.035 101.493 121.569 104.16C122.102 106.827 123.062 108.8 124.449 110.08C125.835 111.253 127.755 111.84 130.209 111.84C132.662 111.84 134.475 111.2 135.649 109.92C136.929 108.64 137.782 106.72 138.209 104.16C138.635 101.6 138.849 98.4 138.849 94.56C138.849 88.16 137.942 83.3067 136.129 80C134.422 76.5867 130.795 74.8267 125.249 74.72C125.142 74.72 124.555 74.72 123.489 74.72C122.422 74.72 121.355 74.72 120.289 74.72V56.32C121.035 56.32 121.782 56.32 122.529 56.32C123.275 56.32 123.969 56.32 124.609 56.32C130.262 56.32 134.049 54.7733 135.969 51.68C137.889 48.5867 138.849 43.7867 138.849 37.28C138.849 32.2667 138.155 28.4267 136.769 25.76C135.489 23.0933 133.035 21.76 129.409 21.76C125.889 21.76 123.542 23.2533 122.369 26.24C121.302 29.2267 120.769 33.0667 120.769 37.76C120.769 38.8267 120.769 39.9467 120.769 41.12C120.769 42.1867 120.769 43.3067 120.769 44.48H94.0488V36.64C94.0488 28.8533 95.4354 22.2933 98.2088 16.96C101.089 11.52 105.142 7.41333 110.369 4.63999C115.702 1.86666 122.049 0.479996 129.409 0.479996C136.875 0.479996 143.275 1.81333 148.609 4.47999C153.942 7.14666 158.049 11.0933 160.929 16.32C163.809 21.44 165.249 27.84 165.249 35.52C165.249 43.0933 163.702 49.44 160.609 54.56C157.515 59.68 153.782 62.8267 149.409 64C152.395 65.0667 155.062 66.7733 157.409 69.12C159.862 71.4667 161.782 74.6667 163.169 78.72C164.555 82.6667 165.249 87.7333 165.249 93.92C165.249 101.813 164.075 108.8 161.729 114.88C159.489 120.96 155.755 125.76 150.529 129.28C145.302 132.693 138.369 134.4 129.729 134.4Z" fill="black" fill-opacity="0.2"/>
<path d="M186.972 36L193.128 6.84H196.008L202.2 36H199.5L198.06 28.188H191.112L189.636 36H186.972ZM191.508 26.208H197.7L194.604 10.476L191.508 26.208ZM212.445 36.36C210.477 36.36 208.953 35.952 207.873 35.136C206.817 34.32 206.085 33.228 205.677 31.86C205.269 30.468 205.065 28.932 205.065 27.252V15.66C205.065 13.86 205.269 12.276 205.677 10.908C206.109 9.54 206.865 8.472 207.945 7.704C209.025 6.936 210.525 6.552 212.445 6.552C214.197 6.552 215.565 6.888 216.549 7.56C217.557 8.232 218.277 9.192 218.709 10.44C219.141 11.664 219.357 13.128 219.357 14.832V16.596H216.765V14.904C216.765 13.632 216.657 12.54 216.441 11.628C216.249 10.716 215.841 10.008 215.217 9.504C214.593 9 213.681 8.748 212.481 8.748C211.161 8.748 210.165 9.024 209.493 9.576C208.845 10.104 208.401 10.86 208.161 11.844C207.945 12.828 207.837 13.968 207.837 15.264V27.684C207.837 29.124 207.969 30.324 208.233 31.284C208.521 32.244 209.001 32.964 209.673 33.444C210.345 33.924 211.281 34.164 212.481 34.164C213.705 34.164 214.617 33.9 215.217 33.372C215.841 32.844 216.249 32.112 216.441 31.176C216.657 30.216 216.765 29.1 216.765 27.828V25.92H219.357V27.648C219.357 29.352 219.153 30.864 218.745 32.184C218.361 33.48 217.665 34.5 216.657 35.244C215.673 35.988 214.269 36.36 212.445 36.36ZM236.602 41.724C236.074 41.436 235.522 41.016 234.946 40.464C234.37 39.912 233.782 39.264 233.182 38.52C232.606 37.8 232.054 37.068 231.526 36.324C231.382 36.348 231.226 36.36 231.058 36.36C230.914 36.36 230.758 36.36 230.59 36.36C228.67 36.36 227.158 35.988 226.054 35.244C224.974 34.476 224.194 33.42 223.714 32.076C223.258 30.708 223.03 29.148 223.03 27.396V15.3C223.03 13.524 223.27 11.988 223.75 10.692C224.23 9.372 225.022 8.352 226.126 7.632C227.23 6.912 228.718 6.552 230.59 6.552C232.486 6.552 233.986 6.912 235.09 7.632C236.194 8.352 236.986 9.372 237.466 10.692C237.946 11.988 238.186 13.524 238.186 15.3V27.432C238.186 28.824 238.042 30.096 237.754 31.248C237.466 32.376 236.986 33.348 236.314 34.164C235.666 34.956 234.766 35.532 233.614 35.892C233.926 36.276 234.274 36.696 234.658 37.152C235.066 37.632 235.474 38.076 235.882 38.484C236.314 38.892 236.674 39.204 236.962 39.42L236.602 41.724ZM230.59 34.164C231.886 34.164 232.882 33.912 233.578 33.408C234.274 32.88 234.754 32.16 235.018 31.248C235.282 30.312 235.414 29.232 235.414 28.008V14.796C235.414 13.572 235.282 12.504 235.018 11.592C234.754 10.68 234.274 9.984 233.578 9.504C232.906 9 231.91 8.748 230.59 8.748C229.318 8.748 228.334 9 227.638 9.504C226.966 9.984 226.486 10.68 226.198 11.592C225.934 12.504 225.802 13.572 225.802 14.796V28.008C225.802 29.232 225.934 30.312 226.198 31.248C226.486 32.16 226.966 32.88 227.638 33.408C228.334 33.912 229.318 34.164 230.59 34.164ZM249.86 36.36C247.892 36.36 246.356 36.012 245.252 35.316C244.172 34.596 243.428 33.612 243.02 32.364C242.612 31.092 242.408 29.652 242.408 28.044V6.84H245.072V28.116C245.072 29.244 245.192 30.276 245.432 31.212C245.696 32.124 246.176 32.844 246.872 33.372C247.568 33.9 248.564 34.164 249.86 34.164C251.108 34.164 252.08 33.9 252.776 33.372C253.472 32.82 253.952 32.088 254.216 31.176C254.504 30.264 254.648 29.244 254.648 28.116V6.84H257.276V28.044C257.276 29.652 257.06 31.092 256.628 32.364C256.196 33.612 255.44 34.596 254.36 35.316C253.28 36.012 251.78 36.36 249.86 36.36ZM262.14 36V6.84H264.876V36H262.14ZM270.048 36V6.84H276.636C278.46 6.84 279.888 7.14 280.92 7.74C281.976 8.316 282.732 9.168 283.188 10.296C283.644 11.4 283.872 12.72 283.872 14.256C283.872 15.336 283.752 16.356 283.512 17.316C283.272 18.276 282.864 19.092 282.288 19.764C281.712 20.436 280.896 20.88 279.84 21.096L284.304 36H281.64L277.356 21.672H272.784V36H270.048ZM272.784 19.656H276.492C277.716 19.656 278.664 19.452 279.336 19.044C280.008 18.636 280.488 18.036 280.776 17.244C281.064 16.452 281.208 15.456 281.208 14.256C281.208 12.456 280.896 11.112 280.272 10.224C279.648 9.336 278.412 8.892 276.564 8.892H272.784V19.656ZM288.434 36V6.84H298.982V8.964H291.206V19.908H297.542V21.924H291.206V33.948H299.054V36H288.434ZM310.161 36V6.84H316.497C318.537 6.84 320.121 7.2 321.249 7.92C322.401 8.616 323.217 9.612 323.697 10.908C324.177 12.204 324.417 13.704 324.417 15.408V27C324.417 28.8 324.177 30.384 323.697 31.752C323.217 33.096 322.425 34.14 321.321 34.884C320.217 35.628 318.693 36 316.749 36H310.161ZM312.897 33.948H316.569C318.105 33.948 319.233 33.636 319.953 33.012C320.673 32.364 321.129 31.488 321.321 30.384C321.513 29.256 321.609 27.984 321.609 26.568V15.696C321.609 14.232 321.477 13.008 321.213 12.024C320.973 11.016 320.481 10.26 319.737 9.756C319.017 9.228 317.925 8.964 316.461 8.964H312.897V33.948ZM328.899 36V6.84H339.447V8.964H331.671V19.908H338.007V21.924H331.671V33.948H339.519V36H328.899ZM349.471 36.36C347.887 36.36 346.567 36.036 345.511 35.388C344.479 34.716 343.699 33.792 343.171 32.616C342.643 31.416 342.319 30.024 342.199 28.44L344.611 27.72C344.731 28.92 344.947 30.012 345.259 30.996C345.571 31.956 346.063 32.724 346.735 33.3C347.407 33.852 348.331 34.128 349.507 34.128C350.803 34.128 351.811 33.792 352.531 33.12C353.251 32.448 353.611 31.38 353.611 29.916C353.611 28.62 353.287 27.504 352.639 26.568C352.015 25.632 351.151 24.648 350.047 23.616L344.899 18.684C343.987 17.796 343.315 16.884 342.883 15.948C342.451 14.988 342.235 13.944 342.235 12.816C342.235 10.8 342.835 9.252 344.035 8.172C345.235 7.092 346.831 6.552 348.823 6.552C349.855 6.552 350.779 6.684 351.595 6.948C352.435 7.212 353.143 7.644 353.719 8.244C354.319 8.82 354.787 9.576 355.123 10.512C355.459 11.448 355.687 12.588 355.807 13.932L353.467 14.544C353.371 13.32 353.167 12.276 352.855 11.412C352.567 10.524 352.099 9.852 351.451 9.396C350.827 8.94 349.951 8.712 348.823 8.712C347.623 8.712 346.639 9.024 345.871 9.648C345.103 10.272 344.719 11.244 344.719 12.564C344.719 13.356 344.863 14.076 345.151 14.724C345.463 15.372 346.003 16.068 346.771 16.812L351.919 21.672C353.071 22.752 354.067 23.952 354.907 25.272C355.747 26.592 356.167 28.08 356.167 29.736C356.167 31.2 355.879 32.424 355.303 33.408C354.751 34.392 353.971 35.136 352.963 35.64C351.955 36.12 350.791 36.36 349.471 36.36ZM359.909 36V6.84H362.645V36H359.909ZM367.818 36V6.84H374.406C376.23 6.84 377.658 7.14 378.69 7.74C379.746 8.316 380.502 9.168 380.958 10.296C381.414 11.4 381.642 12.72 381.642 14.256C381.642 15.336 381.522 16.356 381.282 17.316C381.042 18.276 380.634 19.092 380.058 19.764C379.482 20.436 378.666 20.88 377.61 21.096L382.074 36H379.41L375.126 21.672H370.554V36H367.818ZM370.554 19.656H374.262C375.486 19.656 376.434 19.452 377.106 19.044C377.778 18.636 378.258 18.036 378.546 17.244C378.834 16.452 378.978 15.456 378.978 14.256C378.978 12.456 378.666 11.112 378.042 10.224C377.418 9.336 376.182 8.892 374.334 8.892H370.554V19.656ZM386.204 36V6.84H396.752V8.964H388.976V19.908H395.312V21.924H388.976V33.948H396.824V36H386.204ZM414.123 36.36C412.539 36.36 411.219 36.036 410.163 35.388C409.131 34.716 408.351 33.792 407.823 32.616C407.295 31.416 406.971 30.024 406.851 28.44L409.263 27.72C409.383 28.92 409.599 30.012 409.911 30.996C410.223 31.956 410.715 32.724 411.387 33.3C412.059 33.852 412.983 34.128 414.159 34.128C415.455 34.128 416.463 33.792 417.183 33.12C417.903 32.448 418.263 31.38 418.263 29.916C418.263 28.62 417.939 27.504 417.291 26.568C416.667 25.632 415.803 24.648 414.699 23.616L409.551 18.684C408.639 17.796 407.967 16.884 407.535 15.948C407.103 14.988 406.887 13.944 406.887 12.816C406.887 10.8 407.487 9.252 408.687 8.172C409.887 7.092 411.483 6.552 413.475 6.552C414.507 6.552 415.431 6.684 416.247 6.948C417.087 7.212 417.795 7.644 418.371 8.244C418.971 8.82 419.439 9.576 419.775 10.512C420.111 11.448 420.339 12.588 420.459 13.932L418.119 14.544C418.023 13.32 417.819 12.276 417.507 11.412C417.219 10.524 416.751 9.852 416.103 9.396C415.479 8.94 414.603 8.712 413.475 8.712C412.275 8.712 411.291 9.024 410.523 9.648C409.755 10.272 409.371 11.244 409.371 12.564C409.371 13.356 409.515 14.076 409.803 14.724C410.115 15.372 410.655 16.068 411.423 16.812L416.571 21.672C417.723 22.752 418.719 23.952 419.559 25.272C420.399 26.592 420.819 28.08 420.819 29.736C420.819 31.2 420.531 32.424 419.955 33.408C419.403 34.392 418.623 35.136 417.615 35.64C416.607 36.12 415.443 36.36 414.123 36.36ZM424.454 36V6.84H427.226V22.248L435.002 6.84H437.63L431.654 19.368L438.926 36H436.226L429.818 21.42L427.226 26.172V36H424.454ZM441.577 36V6.84H444.313V36H441.577ZM449.486 36V6.84H452.222V33.948H460.502V36H449.486ZM463.232 36V6.84H465.968V33.948H474.248V36H463.232ZM483.17 36.36C481.586 36.36 480.266 36.036 479.21 35.388C478.178 34.716 477.398 33.792 476.87 32.616C476.342 31.416 476.018 30.024 475.898 28.44L478.31 27.72C478.43 28.92 478.646 30.012 478.958 30.996C479.27 31.956 479.762 32.724 480.434 33.3C481.106 33.852 482.03 34.128 483.206 34.128C484.502 34.128 485.51 33.792 486.23 33.12C486.95 32.448 487.31 31.38 487.31 29.916C487.31 28.62 486.986 27.504 486.338 26.568C485.714 25.632 484.85 24.648 483.746 23.616L478.598 18.684C477.686 17.796 477.014 16.884 476.582 15.948C476.15 14.988 475.934 13.944 475.934 12.816C475.934 10.8 476.534 9.252 477.734 8.172C478.934 7.092 480.53 6.552 482.522 6.552C483.554 6.552 484.478 6.684 485.294 6.948C486.134 7.212 486.842 7.644 487.418 8.244C488.018 8.82 488.486 9.576 488.822 10.512C489.158 11.448 489.386 12.588 489.506 13.932L487.166 14.544C487.07 13.32 486.866 12.276 486.554 11.412C486.266 10.524 485.798 9.852 485.15 9.396C484.526 8.94 483.65 8.712 482.522 8.712C481.322 8.712 480.338 9.024 479.57 9.648C478.802 10.272 478.418 11.244 478.418 12.564C478.418 13.356 478.562 14.076 478.85 14.724C479.162 15.372 479.702 16.068 480.47 16.812L485.618 21.672C486.77 22.752 487.766 23.952 488.606 25.272C489.446 26.592 489.866 28.08 489.866 29.736C489.866 31.2 489.578 32.424 489.002 33.408C488.45 34.392 487.67 35.136 486.662 35.64C485.654 36.12 484.49 36.36 483.17 36.36Z" fill="black" fill-opacity="0.1"/>
<path d="M182.684 83L188.876 53.84H192.8L199.028 83H195.176L193.844 75.656H187.904L186.5 83H182.684ZM188.444 72.74H193.304L190.856 59.6L188.444 72.74ZM209.154 83.324C207.09 83.324 205.482 82.892 204.33 82.028C203.202 81.164 202.41 80 201.954 78.536C201.522 77.072 201.306 75.44 201.306 73.64V63.344C201.306 61.376 201.522 59.66 201.954 58.196C202.41 56.732 203.202 55.604 204.33 54.812C205.482 53.996 207.09 53.588 209.154 53.588C210.978 53.588 212.418 53.924 213.474 54.596C214.554 55.268 215.322 56.228 215.778 57.476C216.258 58.724 216.498 60.224 216.498 61.976V64.28H212.646V62.228C212.646 61.148 212.586 60.2 212.466 59.384C212.37 58.544 212.082 57.896 211.602 57.44C211.122 56.984 210.318 56.756 209.19 56.756C208.038 56.756 207.198 57.008 206.67 57.512C206.142 57.992 205.794 58.688 205.626 59.6C205.482 60.488 205.41 61.532 205.41 62.732V74.288C205.41 75.752 205.53 76.916 205.77 77.78C206.01 78.62 206.406 79.22 206.958 79.58C207.51 79.94 208.254 80.12 209.19 80.12C210.294 80.12 211.086 79.88 211.566 79.4C212.046 78.896 212.346 78.212 212.466 77.348C212.586 76.484 212.646 75.476 212.646 74.324V72.164H216.498V74.324C216.498 76.1 216.282 77.672 215.85 79.04C215.418 80.384 214.674 81.44 213.618 82.208C212.562 82.952 211.074 83.324 209.154 83.324ZM233.765 88.904C233.117 88.568 232.469 88.088 231.821 87.464C231.197 86.84 230.597 86.156 230.021 85.412C229.469 84.668 228.965 83.96 228.509 83.288C228.413 83.312 228.305 83.324 228.185 83.324C228.065 83.324 227.945 83.324 227.825 83.324C225.857 83.324 224.285 82.94 223.109 82.172C221.933 81.404 221.093 80.312 220.589 78.896C220.085 77.456 219.833 75.776 219.833 73.856V62.804C219.833 60.884 220.085 59.24 220.589 57.872C221.117 56.48 221.957 55.424 223.109 54.704C224.285 53.96 225.857 53.588 227.825 53.588C229.793 53.588 231.353 53.96 232.505 54.704C233.681 55.448 234.521 56.504 235.025 57.872C235.553 59.24 235.817 60.884 235.817 62.804V73.892C235.817 75.308 235.673 76.604 235.385 77.78C235.097 78.932 234.641 79.928 234.017 80.768C233.393 81.584 232.565 82.208 231.533 82.64C231.821 83 232.133 83.372 232.469 83.756C232.805 84.164 233.141 84.536 233.477 84.872C233.813 85.208 234.125 85.484 234.413 85.7L233.765 88.904ZM227.825 80.12C228.929 80.12 229.757 79.904 230.309 79.472C230.861 79.016 231.233 78.392 231.425 77.6C231.617 76.784 231.713 75.836 231.713 74.756V61.976C231.713 60.896 231.617 59.972 231.425 59.204C231.233 58.412 230.861 57.812 230.309 57.404C229.757 56.972 228.929 56.756 227.825 56.756C226.745 56.756 225.917 56.972 225.341 57.404C224.789 57.812 224.417 58.412 224.225 59.204C224.033 59.972 223.937 60.896 223.937 61.976V74.756C223.937 75.836 224.033 76.784 224.225 77.6C224.417 78.392 224.789 79.016 225.341 79.472C225.917 79.904 226.745 80.12 227.825 80.12ZM247.374 83.324C245.262 83.324 243.642 82.904 242.514 82.064C241.386 81.224 240.618 80.048 240.21 78.536C239.802 77 239.598 75.212 239.598 73.172V53.84H243.486V73.352C243.486 74.6 243.57 75.74 243.738 76.772C243.906 77.804 244.266 78.62 244.818 79.22C245.394 79.82 246.246 80.12 247.374 80.12C248.526 80.12 249.378 79.82 249.93 79.22C250.482 78.62 250.842 77.804 251.01 76.772C251.178 75.74 251.262 74.6 251.262 73.352V53.84H255.114V73.172C255.114 75.212 254.91 77 254.502 78.536C254.094 80.048 253.326 81.224 252.198 82.064C251.094 82.904 249.486 83.324 247.374 83.324ZM259.613 83V53.84H263.609V83H259.613ZM268.327 83V53.84H274.195C276.139 53.84 277.747 54.104 279.019 54.632C280.291 55.136 281.227 55.964 281.827 57.116C282.451 58.244 282.763 59.732 282.763 61.58C282.763 62.708 282.643 63.74 282.403 64.676C282.163 65.588 281.779 66.368 281.251 67.016C280.723 67.64 280.027 68.096 279.163 68.384L283.303 83H279.379L275.563 69.32H272.395V83H268.327ZM272.395 66.404H273.943C275.095 66.404 276.031 66.26 276.751 65.972C277.471 65.684 277.999 65.192 278.335 64.496C278.671 63.8 278.839 62.828 278.839 61.58C278.839 59.876 278.527 58.652 277.903 57.908C277.279 57.14 276.043 56.756 274.195 56.756H272.395V66.404ZM286.995 83V53.84H298.299V56.864H291.063V66.512H296.931V69.392H291.063V80.084H298.371V83H286.995ZM309.881 83V53.84H316.217C318.377 53.84 320.081 54.176 321.329 54.848C322.601 55.496 323.501 56.48 324.029 57.8C324.581 59.12 324.857 60.764 324.857 62.732V73.46C324.857 75.524 324.581 77.264 324.029 78.68C323.501 80.096 322.625 81.176 321.401 81.92C320.201 82.64 318.581 83 316.541 83H309.881ZM313.949 80.084H316.253C317.741 80.084 318.797 79.796 319.421 79.22C320.045 78.644 320.417 77.804 320.537 76.7C320.681 75.596 320.753 74.264 320.753 72.704V63.236C320.753 61.724 320.657 60.5 320.465 59.564C320.273 58.628 319.853 57.944 319.205 57.512C318.557 57.08 317.537 56.864 316.145 56.864H313.949V80.084ZM328.866 83V53.84H340.17V56.864H332.934V66.512H338.802V69.392H332.934V80.084H340.242V83H328.866ZM350.402 83.324C348.722 83.324 347.318 82.964 346.19 82.244C345.086 81.524 344.246 80.528 343.67 79.256C343.094 77.984 342.758 76.508 342.662 74.828L346.262 73.856C346.334 74.888 346.49 75.884 346.73 76.844C346.994 77.804 347.414 78.596 347.99 79.22C348.566 79.82 349.37 80.12 350.402 80.12C351.458 80.12 352.25 79.832 352.778 79.256C353.33 78.656 353.606 77.804 353.606 76.7C353.606 75.38 353.306 74.324 352.706 73.532C352.106 72.716 351.35 71.9 350.438 71.084L345.542 66.764C344.582 65.924 343.874 65.012 343.418 64.028C342.962 63.02 342.734 61.784 342.734 60.32C342.734 58.184 343.346 56.528 344.57 55.352C345.794 54.176 347.462 53.588 349.574 53.588C350.726 53.588 351.734 53.744 352.598 54.056C353.486 54.344 354.218 54.8 354.794 55.424C355.394 56.048 355.862 56.84 356.198 57.8C356.558 58.736 356.798 59.84 356.918 61.112L353.462 62.048C353.39 61.088 353.246 60.212 353.03 59.42C352.814 58.604 352.43 57.956 351.878 57.476C351.35 56.972 350.582 56.72 349.574 56.72C348.566 56.72 347.774 56.996 347.198 57.548C346.646 58.076 346.37 58.868 346.37 59.924C346.37 60.812 346.514 61.544 346.802 62.12C347.114 62.696 347.606 63.284 348.278 63.884L353.21 68.204C354.314 69.164 355.286 70.316 356.126 71.66C356.966 72.98 357.386 74.552 357.386 76.376C357.386 77.816 357.086 79.064 356.486 80.12C355.886 81.152 355.058 81.944 354.002 82.496C352.97 83.048 351.77 83.324 350.402 83.324ZM360.757 83V53.84H364.753V83H360.757ZM369.471 83V53.84H375.339C377.283 53.84 378.891 54.104 380.163 54.632C381.435 55.136 382.371 55.964 382.971 57.116C383.595 58.244 383.907 59.732 383.907 61.58C383.907 62.708 383.787 63.74 383.547 64.676C383.307 65.588 382.923 66.368 382.395 67.016C381.867 67.64 381.171 68.096 380.307 68.384L384.447 83H380.523L376.707 69.32H373.539V83H369.471ZM373.539 66.404H375.087C376.239 66.404 377.175 66.26 377.895 65.972C378.615 65.684 379.143 65.192 379.479 64.496C379.815 63.8 379.983 62.828 379.983 61.58C379.983 59.876 379.671 58.652 379.047 57.908C378.423 57.14 377.187 56.756 375.339 56.756H373.539V66.404ZM388.139 83V53.84H399.443V56.864H392.207V66.512H398.075V69.392H392.207V80.084H399.515V83H388.139ZM417.902 83.324C416.222 83.324 414.818 82.964 413.69 82.244C412.586 81.524 411.746 80.528 411.17 79.256C410.594 77.984 410.258 76.508 410.162 74.828L413.762 73.856C413.834 74.888 413.99 75.884 414.23 76.844C414.494 77.804 414.914 78.596 415.49 79.22C416.066 79.82 416.87 80.12 417.902 80.12C418.958 80.12 419.75 79.832 420.278 79.256C420.83 78.656 421.106 77.804 421.106 76.7C421.106 75.38 420.806 74.324 420.206 73.532C419.606 72.716 418.85 71.9 417.938 71.084L413.042 66.764C412.082 65.924 411.374 65.012 410.918 64.028C410.462 63.02 410.234 61.784 410.234 60.32C410.234 58.184 410.846 56.528 412.07 55.352C413.294 54.176 414.962 53.588 417.074 53.588C418.226 53.588 419.234 53.744 420.098 54.056C420.986 54.344 421.718 54.8 422.294 55.424C422.894 56.048 423.362 56.84 423.698 57.8C424.058 58.736 424.298 59.84 424.418 61.112L420.962 62.048C420.89 61.088 420.746 60.212 420.53 59.42C420.314 58.604 419.93 57.956 419.378 57.476C418.85 56.972 418.082 56.72 417.074 56.72C416.066 56.72 415.274 56.996 414.698 57.548C414.146 58.076 413.87 58.868 413.87 59.924C413.87 60.812 414.014 61.544 414.302 62.12C414.614 62.696 415.106 63.284 415.778 63.884L420.71 68.204C421.814 69.164 422.786 70.316 423.626 71.66C424.466 72.98 424.886 74.552 424.886 76.376C424.886 77.816 424.586 79.064 423.986 80.12C423.386 81.152 422.558 81.944 421.502 82.496C420.47 83.048 419.27 83.324 417.902 83.324ZM428.041 83V53.84H432.109V67.592L438.805 53.84H442.585L436.825 66.692L443.521 83H439.561L433.981 69.32L432.109 72.704V83H428.041ZM446.082 83V53.84H450.078V83H446.082ZM454.795 83V53.84H458.863V80.084H466.315V83H454.795ZM469.104 83V53.84H473.172V80.084H480.624V83H469.104ZM490.289 83.324C488.609 83.324 487.205 82.964 486.077 82.244C484.973 81.524 484.133 80.528 483.557 79.256C482.981 77.984 482.645 76.508 482.549 74.828L486.149 73.856C486.221 74.888 486.377 75.884 486.617 76.844C486.881 77.804 487.301 78.596 487.877 79.22C488.453 79.82 489.257 80.12 490.289 80.12C491.345 80.12 492.137 79.832 492.665 79.256C493.217 78.656 493.493 77.804 493.493 76.7C493.493 75.38 493.193 74.324 492.593 73.532C491.993 72.716 491.237 71.9 490.325 71.084L485.429 66.764C484.469 65.924 483.761 65.012 483.305 64.028C482.849 63.02 482.621 61.784 482.621 60.32C482.621 58.184 483.233 56.528 484.457 55.352C485.681 54.176 487.349 53.588 489.461 53.588C490.613 53.588 491.621 53.744 492.485 54.056C493.373 54.344 494.105 54.8 494.681 55.424C495.281 56.048 495.749 56.84 496.085 57.8C496.445 58.736 496.685 59.84 496.805 61.112L493.349 62.048C493.277 61.088 493.133 60.212 492.917 59.42C492.701 58.604 492.317 57.956 491.765 57.476C491.237 56.972 490.469 56.72 489.461 56.72C488.453 56.72 487.661 56.996 487.085 57.548C486.533 58.076 486.257 58.868 486.257 59.924C486.257 60.812 486.401 61.544 486.689 62.12C487.001 62.696 487.493 63.284 488.165 63.884L493.097 68.204C494.201 69.164 495.173 70.316 496.013 71.66C496.853 72.98 497.273 74.552 497.273 76.376C497.273 77.816 496.973 79.064 496.373 80.12C495.773 81.152 494.945 81.944 493.889 82.496C492.857 83.048 491.657 83.324 490.289 83.324Z" fill="black" fill-opacity="0.2"/>
<path d="M182.684 130L188.876 100.84H192.8L199.028 130H195.176L193.844 122.656H187.904L186.5 130H182.684ZM188.444 119.74H193.304L190.856 106.6L188.444 119.74ZM209.154 130.324C207.09 130.324 205.482 129.892 204.33 129.028C203.202 128.164 202.41 127 201.954 125.536C201.522 124.072 201.306 122.44 201.306 120.64V110.344C201.306 108.376 201.522 106.66 201.954 105.196C202.41 103.732 203.202 102.604 204.33 101.812C205.482 100.996 207.09 100.588 209.154 100.588C210.978 100.588 212.418 100.924 213.474 101.596C214.554 102.268 215.322 103.228 215.778 104.476C216.258 105.724 216.498 107.224 216.498 108.976V111.28H212.646V109.228C212.646 108.148 212.586 107.2 212.466 106.384C212.37 105.544 212.082 104.896 211.602 104.44C211.122 103.984 210.318 103.756 209.19 103.756C208.038 103.756 207.198 104.008 206.67 104.512C206.142 104.992 205.794 105.688 205.626 106.6C205.482 107.488 205.41 108.532 205.41 109.732V121.288C205.41 122.752 205.53 123.916 205.77 124.78C206.01 125.62 206.406 126.22 206.958 126.58C207.51 126.94 208.254 127.12 209.19 127.12C210.294 127.12 211.086 126.88 211.566 126.4C212.046 125.896 212.346 125.212 212.466 124.348C212.586 123.484 212.646 122.476 212.646 121.324V119.164H216.498V121.324C216.498 123.1 216.282 124.672 215.85 126.04C215.418 127.384 214.674 128.44 213.618 129.208C212.562 129.952 211.074 130.324 209.154 130.324ZM233.765 135.904C233.117 135.568 232.469 135.088 231.821 134.464C231.197 133.84 230.597 133.156 230.021 132.412C229.469 131.668 228.965 130.96 228.509 130.288C228.413 130.312 228.305 130.324 228.185 130.324C228.065 130.324 227.945 130.324 227.825 130.324C225.857 130.324 224.285 129.94 223.109 129.172C221.933 128.404 221.093 127.312 220.589 125.896C220.085 124.456 219.833 122.776 219.833 120.856V109.804C219.833 107.884 220.085 106.24 220.589 104.872C221.117 103.48 221.957 102.424 223.109 101.704C224.285 100.96 225.857 100.588 227.825 100.588C229.793 100.588 231.353 100.96 232.505 101.704C233.681 102.448 234.521 103.504 235.025 104.872C235.553 106.24 235.817 107.884 235.817 109.804V120.892C235.817 122.308 235.673 123.604 235.385 124.78C235.097 125.932 234.641 126.928 234.017 127.768C233.393 128.584 232.565 129.208 231.533 129.64C231.821 130 232.133 130.372 232.469 130.756C232.805 131.164 233.141 131.536 233.477 131.872C233.813 132.208 234.125 132.484 234.413 132.7L233.765 135.904ZM227.825 127.12C228.929 127.12 229.757 126.904 230.309 126.472C230.861 126.016 231.233 125.392 231.425 124.6C231.617 123.784 231.713 122.836 231.713 121.756V108.976C231.713 107.896 231.617 106.972 231.425 106.204C231.233 105.412 230.861 104.812 230.309 104.404C229.757 103.972 228.929 103.756 227.825 103.756C226.745 103.756 225.917 103.972 225.341 104.404C224.789 104.812 224.417 105.412 224.225 106.204C224.033 106.972 223.937 107.896 223.937 108.976V121.756C223.937 122.836 224.033 123.784 224.225 124.6C224.417 125.392 224.789 126.016 225.341 126.472C225.917 126.904 226.745 127.12 227.825 127.12ZM247.374 130.324C245.262 130.324 243.642 129.904 242.514 129.064C241.386 128.224 240.618 127.048 240.21 125.536C239.802 124 239.598 122.212 239.598 120.172V100.84H243.486V120.352C243.486 121.6 243.57 122.74 243.738 123.772C243.906 124.804 244.266 125.62 244.818 126.22C245.394 126.82 246.246 127.12 247.374 127.12C248.526 127.12 249.378 126.82 249.93 126.22C250.482 125.62 250.842 124.804 251.01 123.772C251.178 122.74 251.262 121.6 251.262 120.352V100.84H255.114V120.172C255.114 122.212 254.91 124 254.502 125.536C254.094 127.048 253.326 128.224 252.198 129.064C251.094 129.904 249.486 130.324 247.374 130.324ZM259.613 130V100.84H263.609V130H259.613ZM268.327 130V100.84H274.195C276.139 100.84 277.747 101.104 279.019 101.632C280.291 102.136 281.227 102.964 281.827 104.116C282.451 105.244 282.763 106.732 282.763 108.58C282.763 109.708 282.643 110.74 282.403 111.676C282.163 112.588 281.779 113.368 281.251 114.016C280.723 114.64 280.027 115.096 279.163 115.384L283.303 130H279.379L275.563 116.32H272.395V130H268.327ZM272.395 113.404H273.943C275.095 113.404 276.031 113.26 276.751 112.972C277.471 112.684 277.999 112.192 278.335 111.496C278.671 110.8 278.839 109.828 278.839 108.58C278.839 106.876 278.527 105.652 277.903 104.908C277.279 104.14 276.043 103.756 274.195 103.756H272.395V113.404ZM286.995 130V100.84H298.299V103.864H291.063V113.512H296.931V116.392H291.063V127.084H298.371V130H286.995ZM309.881 130V100.84H316.217C318.377 100.84 320.081 101.176 321.329 101.848C322.601 102.496 323.501 103.48 324.029 104.8C324.581 106.12 324.857 107.764 324.857 109.732V120.46C324.857 122.524 324.581 124.264 324.029 125.68C323.501 127.096 322.625 128.176 321.401 128.92C320.201 129.64 318.581 130 316.541 130H309.881ZM313.949 127.084H316.253C317.741 127.084 318.797 126.796 319.421 126.22C320.045 125.644 320.417 124.804 320.537 123.7C320.681 122.596 320.753 121.264 320.753 119.704V110.236C320.753 108.724 320.657 107.5 320.465 106.564C320.273 105.628 319.853 104.944 319.205 104.512C318.557 104.08 317.537 103.864 316.145 103.864H313.949V127.084ZM328.866 130V100.84H340.17V103.864H332.934V113.512H338.802V116.392H332.934V127.084H340.242V130H328.866ZM350.402 130.324C348.722 130.324 347.318 129.964 346.19 129.244C345.086 128.524 344.246 127.528 343.67 126.256C343.094 124.984 342.758 123.508 342.662 121.828L346.262 120.856C346.334 121.888 346.49 122.884 346.73 123.844C346.994 124.804 347.414 125.596 347.99 126.22C348.566 126.82 349.37 127.12 350.402 127.12C351.458 127.12 352.25 126.832 352.778 126.256C353.33 125.656 353.606 124.804 353.606 123.7C353.606 122.38 353.306 121.324 352.706 120.532C352.106 119.716 351.35 118.9 350.438 118.084L345.542 113.764C344.582 112.924 343.874 112.012 343.418 111.028C342.962 110.02 342.734 108.784 342.734 107.32C342.734 105.184 343.346 103.528 344.57 102.352C345.794 101.176 347.462 100.588 349.574 100.588C350.726 100.588 351.734 100.744 352.598 101.056C353.486 101.344 354.218 101.8 354.794 102.424C355.394 103.048 355.862 103.84 356.198 104.8C356.558 105.736 356.798 106.84 356.918 108.112L353.462 109.048C353.39 108.088 353.246 107.212 353.03 106.42C352.814 105.604 352.43 104.956 351.878 104.476C351.35 103.972 350.582 103.72 349.574 103.72C348.566 103.72 347.774 103.996 347.198 104.548C346.646 105.076 346.37 105.868 346.37 106.924C346.37 107.812 346.514 108.544 346.802 109.12C347.114 109.696 347.606 110.284 348.278 110.884L353.21 115.204C354.314 116.164 355.286 117.316 356.126 118.66C356.966 119.98 357.386 121.552 357.386 123.376C357.386 124.816 357.086 126.064 356.486 127.12C355.886 128.152 355.058 128.944 354.002 129.496C352.97 130.048 351.77 130.324 350.402 130.324ZM360.757 130V100.84H364.753V130H360.757ZM369.471 130V100.84H375.339C377.283 100.84 378.891 101.104 380.163 101.632C381.435 102.136 382.371 102.964 382.971 104.116C383.595 105.244 383.907 106.732 383.907 108.58C383.907 109.708 383.787 110.74 383.547 111.676C383.307 112.588 382.923 113.368 382.395 114.016C381.867 114.64 381.171 115.096 380.307 115.384L384.447 130H380.523L376.707 116.32H373.539V130H369.471ZM373.539 113.404H375.087C376.239 113.404 377.175 113.26 377.895 112.972C378.615 112.684 379.143 112.192 379.479 111.496C379.815 110.8 379.983 109.828 379.983 108.58C379.983 106.876 379.671 105.652 379.047 104.908C378.423 104.14 377.187 103.756 375.339 103.756H373.539V113.404ZM388.139 130V100.84H399.443V103.864H392.207V113.512H398.075V116.392H392.207V127.084H399.515V130H388.139ZM417.902 130.324C416.222 130.324 414.818 129.964 413.69 129.244C412.586 128.524 411.746 127.528 411.17 126.256C410.594 124.984 410.258 123.508 410.162 121.828L413.762 120.856C413.834 121.888 413.99 122.884 414.23 123.844C414.494 124.804 414.914 125.596 415.49 126.22C416.066 126.82 416.87 127.12 417.902 127.12C418.958 127.12 419.75 126.832 420.278 126.256C420.83 125.656 421.106 124.804 421.106 123.7C421.106 122.38 420.806 121.324 420.206 120.532C419.606 119.716 418.85 118.9 417.938 118.084L413.042 113.764C412.082 112.924 411.374 112.012 410.918 111.028C410.462 110.02 410.234 108.784 410.234 107.32C410.234 105.184 410.846 103.528 412.07 102.352C413.294 101.176 414.962 100.588 417.074 100.588C418.226 100.588 419.234 100.744 420.098 101.056C420.986 101.344 421.718 101.8 422.294 102.424C422.894 103.048 423.362 103.84 423.698 104.8C424.058 105.736 424.298 106.84 424.418 108.112L420.962 109.048C420.89 108.088 420.746 107.212 420.53 106.42C420.314 105.604 419.93 104.956 419.378 104.476C418.85 103.972 418.082 103.72 417.074 103.72C416.066 103.72 415.274 103.996 414.698 104.548C414.146 105.076 413.87 105.868 413.87 106.924C413.87 107.812 414.014 108.544 414.302 109.12C414.614 109.696 415.106 110.284 415.778 110.884L420.71 115.204C421.814 116.164 422.786 117.316 423.626 118.66C424.466 119.98 424.886 121.552 424.886 123.376C424.886 124.816 424.586 126.064 423.986 127.12C423.386 128.152 422.558 128.944 421.502 129.496C420.47 130.048 419.27 130.324 417.902 130.324ZM428.041 130V100.84H432.109V114.592L438.805 100.84H442.585L436.825 113.692L443.521 130H439.561L433.981 116.32L432.109 119.704V130H428.041ZM446.082 130V100.84H450.078V130H446.082ZM454.795 130V100.84H458.863V127.084H466.315V130H454.795ZM469.104 130V100.84H473.172V127.084H480.624V130H469.104ZM490.289 130.324C488.609 130.324 487.205 129.964 486.077 129.244C484.973 128.524 484.133 127.528 483.557 126.256C482.981 124.984 482.645 123.508 482.549 121.828L486.149 120.856C486.221 121.888 486.377 122.884 486.617 123.844C486.881 124.804 487.301 125.596 487.877 126.22C488.453 126.82 489.257 127.12 490.289 127.12C491.345 127.12 492.137 126.832 492.665 126.256C493.217 125.656 493.493 124.804 493.493 123.7C493.493 122.38 493.193 121.324 492.593 120.532C491.993 119.716 491.237 118.9 490.325 118.084L485.429 113.764C484.469 112.924 483.761 112.012 483.305 111.028C482.849 110.02 482.621 108.784 482.621 107.32C482.621 105.184 483.233 103.528 484.457 102.352C485.681 101.176 487.349 100.588 489.461 100.588C490.613 100.588 491.621 100.744 492.485 101.056C493.373 101.344 494.105 101.8 494.681 102.424C495.281 103.048 495.749 103.84 496.085 104.8C496.445 105.736 496.685 106.84 496.805 108.112L493.349 109.048C493.277 108.088 493.133 107.212 492.917 106.42C492.701 105.604 492.317 104.956 491.765 104.476C491.237 103.972 490.469 103.72 489.461 103.72C488.453 103.72 487.661 103.996 487.085 104.548C486.533 105.076 486.257 105.868 486.257 106.924C486.257 107.812 486.401 108.544 486.689 109.12C487.001 109.696 487.493 110.284 488.165 110.884L493.097 115.204C494.201 116.164 495.173 117.316 496.013 118.66C496.853 119.98 497.273 121.552 497.273 123.376C497.273 124.816 496.973 126.064 496.373 127.12C495.773 128.152 494.945 128.944 493.889 129.496C492.857 130.048 491.657 130.324 490.289 130.324Z" fill="black" fill-opacity="0.7"/>
<path d="M15.38 173.28L15.24 173.76H18.48L18.34 173.28C17.9533 171.973 17.6333 170.86 17.38 169.94C17.14 169.02 16.9933 168.427 16.94 168.16L16.86 167.76C16.7533 168.493 16.26 170.333 15.38 173.28ZM13.68 179H10.46L14.96 165.52H18.84L23.34 179H20.04L19.22 176.24H14.5L13.68 179ZM27.4686 173.96C27.4686 174.773 27.6819 175.433 28.1086 175.94C28.5353 176.433 29.0553 176.68 29.6686 176.68C30.3353 176.68 30.8753 176.42 31.2886 175.9C31.7019 175.38 31.9086 174.687 31.9086 173.82C31.9086 172.98 31.6819 172.327 31.2286 171.86C30.7886 171.393 30.2619 171.16 29.6486 171.16C29.0353 171.16 28.5153 171.407 28.0886 171.9C27.6753 172.393 27.4686 173.08 27.4686 173.96ZM34.8286 179H31.9086V177.42C31.2286 178.553 30.2153 179.12 28.8686 179.12C27.5486 179.12 26.4886 178.607 25.6886 177.58C24.9019 176.553 24.5086 175.327 24.5086 173.9C24.5086 172.3 24.9219 171.04 25.7486 170.12C26.5753 169.2 27.6219 168.74 28.8886 168.74C30.2086 168.74 31.2153 169.3 31.9086 170.42V164.86H34.8286V179ZM42.8752 179H39.8752L36.1352 168.86H39.1952L40.5152 173.18C40.7152 173.847 40.8885 174.48 41.0352 175.08C41.1818 175.667 41.2752 176.093 41.3152 176.36L41.3952 176.74C41.5152 175.873 41.8152 174.687 42.2952 173.18L43.6552 168.86H46.6552L42.8752 179ZM51.6778 177C52.0911 177 52.4111 176.873 52.6378 176.62C52.8645 176.367 52.9778 176.02 52.9778 175.58V174.84H52.0378C51.5445 174.84 51.1645 174.947 50.8978 175.16C50.6311 175.373 50.4978 175.647 50.4978 175.98C50.4978 176.66 50.8911 177 51.6778 177ZM53.1178 177.76C52.6911 178.627 51.8511 179.06 50.5978 179.06C49.6111 179.06 48.8378 178.78 48.2778 178.22C47.7311 177.66 47.4578 176.96 47.4578 176.12C47.4578 175.147 47.8111 174.393 48.5178 173.86C49.2378 173.313 50.2978 173.04 51.6978 173.04H52.9778V172.34C52.9778 171.487 52.4111 171.06 51.2778 171.06C50.1845 171.06 49.1711 171.367 48.2378 171.98V169.36C49.0378 168.907 50.1911 168.68 51.6978 168.68C53.1378 168.68 54.2111 168.993 54.9178 169.62C55.6245 170.233 55.9778 171.193 55.9778 172.5V179H53.1178V177.76ZM67.5703 179H64.6503V172.96C64.6503 172.36 64.5103 171.907 64.2303 171.6C63.9503 171.28 63.557 171.12 63.0503 171.12C62.517 171.12 62.0703 171.333 61.7103 171.76C61.3636 172.173 61.1903 172.8 61.1903 173.64V179H58.2703V168.86H61.1903V170.58C61.4436 170.02 61.8303 169.58 62.3503 169.26C62.8836 168.927 63.517 168.76 64.2503 168.76C65.2903 168.76 66.1036 169.073 66.6903 169.7C67.277 170.313 67.5703 171.22 67.5703 172.42V179ZM77.4519 178.52C76.6652 178.947 75.7185 179.16 74.6119 179.16C73.0919 179.16 71.8385 178.68 70.8519 177.72C69.8652 176.747 69.3719 175.493 69.3719 173.96C69.3985 172.44 69.8919 171.187 70.8519 170.2C71.8119 169.2 73.1252 168.7 74.7919 168.7C75.8185 168.7 76.7052 168.893 77.4519 169.28V171.78C76.7452 171.34 75.9585 171.12 75.0919 171.12C74.2785 171.12 73.6185 171.367 73.1119 171.86C72.6052 172.34 72.3452 173.04 72.3319 173.96C72.3852 174.853 72.6519 175.547 73.1319 176.04C73.6119 176.533 74.2452 176.78 75.0319 176.78C75.8719 176.78 76.6785 176.547 77.4519 176.08V178.52ZM87.2069 178.42C86.5135 178.873 85.4535 179.1 84.0269 179.1C82.3602 179.1 81.0602 178.62 80.1269 177.66C79.2069 176.687 78.7469 175.44 78.7469 173.92C78.7469 172.307 79.1935 171.047 80.0869 170.14C80.9935 169.22 82.1069 168.76 83.4269 168.76C84.7869 168.76 85.8602 169.16 86.6469 169.96C87.4335 170.747 87.8269 171.927 87.8269 173.5C87.8269 173.807 87.7735 174.333 87.6669 175.08H81.7069C81.9069 175.64 82.2535 176.073 82.7469 176.38C83.2402 176.687 83.8335 176.84 84.5269 176.84C85.5535 176.84 86.4469 176.553 87.2069 175.98V178.42ZM83.5469 170.98C83.0802 170.98 82.6669 171.153 82.3069 171.5C81.9469 171.833 81.7069 172.333 81.5869 173H85.1069V172.76C85.0135 171.573 84.4935 170.98 83.5469 170.98ZM104.211 179H101.291V172.96C101.291 172.36 101.151 171.907 100.871 171.6C100.591 171.28 100.198 171.12 99.6909 171.12C99.1576 171.12 98.7109 171.333 98.3509 171.76C98.0043 172.173 97.8309 172.8 97.8309 173.64V179H94.9109V168.86H97.8309V170.58C98.0843 170.02 98.4709 169.58 98.9909 169.26C99.5243 168.927 100.158 168.76 100.891 168.76C101.931 168.76 102.744 169.073 103.331 169.7C103.918 170.313 104.211 171.22 104.211 172.42V179ZM114.473 178.42C113.779 178.873 112.719 179.1 111.293 179.1C109.626 179.1 108.326 178.62 107.393 177.66C106.473 176.687 106.013 175.44 106.013 173.92C106.013 172.307 106.459 171.047 107.353 170.14C108.259 169.22 109.373 168.76 110.693 168.76C112.053 168.76 113.126 169.16 113.913 169.96C114.699 170.747 115.093 171.927 115.093 173.5C115.093 173.807 115.039 174.333 114.933 175.08H108.973C109.173 175.64 109.519 176.073 110.013 176.38C110.506 176.687 111.099 176.84 111.793 176.84C112.819 176.84 113.713 176.553 114.473 175.98V178.42ZM110.813 170.98C110.346 170.98 109.933 171.153 109.573 171.5C109.213 171.833 108.973 172.333 108.853 173H112.373V172.76C112.279 171.573 111.759 170.98 110.813 170.98ZM122.337 179H119.337L116.077 168.86H119.097L119.977 172.2C120.19 173.04 120.37 173.8 120.517 174.48C120.663 175.147 120.75 175.607 120.777 175.86L120.837 176.24C120.93 175.44 121.257 174.093 121.817 172.2L122.797 168.86H125.317L126.277 172.2C126.517 173.053 126.717 173.82 126.877 174.5C127.037 175.167 127.137 175.627 127.177 175.88L127.237 176.24C127.33 175.453 127.643 174.107 128.177 172.2L129.117 168.86H131.997L128.757 179H125.757L124.877 175.68C124.69 174.96 124.523 174.287 124.377 173.66C124.243 173.033 124.157 172.587 124.117 172.32L124.057 171.92C123.923 172.813 123.643 174.067 123.217 175.68L122.337 179ZM142.01 177C142.423 177 142.743 176.873 142.97 176.62C143.197 176.367 143.31 176.02 143.31 175.58V174.84H142.37C141.877 174.84 141.497 174.947 141.23 175.16C140.963 175.373 140.83 175.647 140.83 175.98C140.83 176.66 141.223 177 142.01 177ZM143.45 177.76C143.023 178.627 142.183 179.06 140.93 179.06C139.943 179.06 139.17 178.78 138.61 178.22C138.063 177.66 137.79 176.96 137.79 176.12C137.79 175.147 138.143 174.393 138.85 173.86C139.57 173.313 140.63 173.04 142.03 173.04H143.31V172.34C143.31 171.487 142.743 171.06 141.61 171.06C140.517 171.06 139.503 171.367 138.57 171.98V169.36C139.37 168.907 140.523 168.68 142.03 168.68C143.47 168.68 144.543 168.993 145.25 169.62C145.957 170.233 146.31 171.193 146.31 172.5V179H143.45V177.76ZM157.902 179H154.982V172.96C154.982 172.36 154.842 171.907 154.562 171.6C154.282 171.28 153.889 171.12 153.382 171.12C152.849 171.12 152.402 171.333 152.042 171.76C151.696 172.173 151.522 172.8 151.522 173.64V179H148.602V168.86H151.522V170.58C151.776 170.02 152.162 169.58 152.682 169.26C153.216 168.927 153.849 168.76 154.582 168.76C155.622 168.76 156.436 169.073 157.022 169.7C157.609 170.313 157.902 171.22 157.902 172.42V179ZM162.664 173.96C162.664 174.773 162.877 175.433 163.304 175.94C163.731 176.433 164.251 176.68 164.864 176.68C165.531 176.68 166.071 176.42 166.484 175.9C166.897 175.38 167.104 174.687 167.104 173.82C167.104 172.98 166.877 172.327 166.424 171.86C165.984 171.393 165.457 171.16 164.844 171.16C164.231 171.16 163.711 171.407 163.284 171.9C162.871 172.393 162.664 173.08 162.664 173.96ZM170.024 179H167.104V177.42C166.424 178.553 165.411 179.12 164.064 179.12C162.744 179.12 161.684 178.607 160.884 177.58C160.097 176.553 159.704 175.327 159.704 173.9C159.704 172.3 160.117 171.04 160.944 170.12C161.771 169.2 162.817 168.74 164.084 168.74C165.404 168.74 166.411 169.3 167.104 170.42V164.86H170.024V179ZM186.73 179H183.81V173C183.81 172.413 183.664 171.953 183.37 171.62C183.077 171.287 182.697 171.12 182.23 171.12C182.03 171.12 181.837 171.153 181.65 171.22C181.477 171.273 181.284 171.38 181.07 171.54C180.857 171.687 180.684 171.947 180.55 172.32C180.417 172.68 180.35 173.12 180.35 173.64V179H177.43V164.86H180.35V170.58C180.87 169.367 181.884 168.76 183.39 168.76C184.377 168.76 185.177 169.073 185.79 169.7C186.417 170.327 186.73 171.273 186.73 172.54V179ZM192.052 179H189.132V168.86H192.052V179ZM191.792 164.72C192.125 165.053 192.292 165.453 192.292 165.92C192.292 166.387 192.125 166.787 191.792 167.12C191.459 167.453 191.059 167.62 190.592 167.62C190.125 167.62 189.725 167.453 189.392 167.12C189.059 166.787 188.892 166.387 188.892 165.92C188.892 165.453 189.059 165.053 189.392 164.72C189.725 164.387 190.125 164.22 190.592 164.22C191.059 164.22 191.459 164.387 191.792 164.72ZM203.959 178.02C203.959 179.647 203.473 180.867 202.499 181.68C201.526 182.507 200.306 182.92 198.839 182.92C197.413 182.92 196.166 182.667 195.099 182.16V179.18C196.033 179.927 197.179 180.3 198.539 180.3C199.419 180.3 200.059 180.113 200.459 179.74C200.859 179.367 201.059 178.78 201.059 177.98V177.3C200.473 178.207 199.539 178.66 198.259 178.66C197.139 178.66 196.173 178.247 195.359 177.42C194.559 176.593 194.159 175.367 194.159 173.74C194.159 172.3 194.546 171.113 195.319 170.18C196.106 169.233 197.133 168.76 198.399 168.76C199.599 168.76 200.486 169.24 201.059 170.2V168.86H203.959V178.02ZM197.199 173.76C197.199 174.6 197.359 175.24 197.679 175.68C197.999 176.12 198.459 176.34 199.059 176.34C199.686 176.34 200.173 176.107 200.519 175.64C200.879 175.16 201.059 174.587 201.059 173.92C201.059 172.107 200.399 171.2 199.079 171.2C198.493 171.2 198.033 171.427 197.699 171.88C197.366 172.333 197.199 172.96 197.199 173.76ZM215.559 179H212.639V173C212.639 172.413 212.492 171.953 212.199 171.62C211.905 171.287 211.525 171.12 211.059 171.12C210.859 171.12 210.665 171.153 210.479 171.22C210.305 171.273 210.112 171.38 209.899 171.54C209.685 171.687 209.512 171.947 209.379 172.32C209.245 172.68 209.179 173.12 209.179 173.64V179H206.259V164.86H209.179V170.58C209.699 169.367 210.712 168.76 212.219 168.76C213.205 168.76 214.005 169.073 214.619 169.7C215.245 170.327 215.559 171.273 215.559 172.54V179ZM222.9 174.96H217.56V172.56H222.9V174.96ZM228.029 179H225.109V164.86H228.029V179ZM238.496 178.42C237.803 178.873 236.743 179.1 235.316 179.1C233.649 179.1 232.349 178.62 231.416 177.66C230.496 176.687 230.036 175.44 230.036 173.92C230.036 172.307 230.483 171.047 231.376 170.14C232.283 169.22 233.396 168.76 234.716 168.76C236.076 168.76 237.149 169.16 237.936 169.96C238.723 170.747 239.116 171.927 239.116 173.5C239.116 173.807 239.063 174.333 238.956 175.08H232.996C233.196 175.64 233.543 176.073 234.036 176.38C234.529 176.687 235.123 176.84 235.816 176.84C236.843 176.84 237.736 176.553 238.496 175.98V178.42ZM234.836 170.98C234.369 170.98 233.956 171.153 233.596 171.5C233.236 171.833 232.996 172.333 232.876 173H236.396V172.76C236.303 171.573 235.783 170.98 234.836 170.98ZM246.84 179H243.84L240.1 168.86H243.16L244.48 173.18C244.68 173.847 244.853 174.48 245 175.08C245.147 175.667 245.24 176.093 245.28 176.36L245.36 176.74C245.48 175.873 245.78 174.687 246.26 173.18L247.62 168.86H250.62L246.84 179ZM259.883 178.42C259.189 178.873 258.129 179.1 256.703 179.1C255.036 179.1 253.736 178.62 252.803 177.66C251.883 176.687 251.423 175.44 251.423 173.92C251.423 172.307 251.869 171.047 252.763 170.14C253.669 169.22 254.783 168.76 256.103 168.76C257.463 168.76 258.536 169.16 259.323 169.96C260.109 170.747 260.503 171.927 260.503 173.5C260.503 173.807 260.449 174.333 260.343 175.08H254.383C254.583 175.64 254.929 176.073 255.423 176.38C255.916 176.687 256.509 176.84 257.203 176.84C258.229 176.84 259.123 176.553 259.883 175.98V178.42ZM256.223 170.98C255.756 170.98 255.343 171.153 254.983 171.5C254.623 171.833 254.383 172.333 254.263 173H257.783V172.76C257.689 171.573 257.169 170.98 256.223 170.98ZM265.607 179H262.687V164.86H265.607V179ZM276.834 177C277.247 177 277.567 176.873 277.794 176.62C278.021 176.367 278.134 176.02 278.134 175.58V174.84H277.194C276.701 174.84 276.321 174.947 276.054 175.16C275.787 175.373 275.654 175.647 275.654 175.98C275.654 176.66 276.047 177 276.834 177ZM278.274 177.76C277.847 178.627 277.007 179.06 275.754 179.06C274.767 179.06 273.994 178.78 273.434 178.22C272.887 177.66 272.614 176.96 272.614 176.12C272.614 175.147 272.967 174.393 273.674 173.86C274.394 173.313 275.454 173.04 276.854 173.04H278.134V172.34C278.134 171.487 277.567 171.06 276.434 171.06C275.341 171.06 274.327 171.367 273.394 171.98V169.36C274.194 168.907 275.347 168.68 276.854 168.68C278.294 168.68 279.367 168.993 280.074 169.62C280.781 170.233 281.134 171.193 281.134 172.5V179H278.274V177.76ZM286.347 179H283.427V164.86H286.347V170.42C287.04 169.3 288.047 168.74 289.367 168.74C290.633 168.74 291.68 169.2 292.507 170.12C293.333 171.04 293.747 172.3 293.747 173.9C293.747 175.327 293.347 176.553 292.547 177.58C291.76 178.607 290.707 179.12 289.387 179.12C288.04 179.12 287.027 178.553 286.347 177.42V179ZM286.347 173.82C286.347 174.687 286.553 175.38 286.967 175.9C287.38 176.42 287.92 176.68 288.587 176.68C289.2 176.68 289.72 176.433 290.147 175.94C290.573 175.433 290.787 174.773 290.787 173.96C290.787 173.08 290.573 172.393 290.147 171.9C289.733 171.407 289.22 171.16 288.607 171.16C287.993 171.16 287.46 171.393 287.007 171.86C286.567 172.327 286.347 172.98 286.347 173.82ZM298.673 179H295.753V168.86H298.673V179ZM298.413 164.72C298.746 165.053 298.913 165.453 298.913 165.92C298.913 166.387 298.746 166.787 298.413 167.12C298.08 167.453 297.68 167.62 297.213 167.62C296.746 167.62 296.346 167.453 296.013 167.12C295.68 166.787 295.513 166.387 295.513 165.92C295.513 165.453 295.68 165.053 296.013 164.72C296.346 164.387 296.746 164.22 297.213 164.22C297.68 164.22 298.08 164.387 298.413 164.72ZM304.2 179H301.28V164.86H304.2V179ZM309.728 179H306.808V168.86H309.728V179ZM309.468 164.72C309.801 165.053 309.968 165.453 309.968 165.92C309.968 166.387 309.801 166.787 309.468 167.12C309.134 167.453 308.734 167.62 308.268 167.62C307.801 167.62 307.401 167.453 307.068 167.12C306.734 166.787 306.568 166.387 306.568 165.92C306.568 165.453 306.734 165.053 307.068 164.72C307.401 164.387 307.801 164.22 308.268 164.22C308.734 164.22 309.134 164.387 309.468 164.72ZM318.155 178.78C317.662 178.993 316.995 179.1 316.155 179.1C313.848 179.1 312.695 177.947 312.695 175.64V171H311.235V168.86H312.695V166.46H315.615V168.86H317.975V171H315.615V175.66C315.615 176.02 315.715 176.293 315.915 176.48C316.128 176.667 316.402 176.76 316.735 176.76C317.268 176.76 317.742 176.627 318.155 176.36V178.78ZM322.97 179H320.05V168.86H322.97V179ZM322.71 164.72C323.043 165.053 323.21 165.453 323.21 165.92C323.21 166.387 323.043 166.787 322.71 167.12C322.377 167.453 321.977 167.62 321.51 167.62C321.043 167.62 320.643 167.453 320.31 167.12C319.977 166.787 319.81 166.387 319.81 165.92C319.81 165.453 319.977 165.053 320.31 164.72C320.643 164.387 321.043 164.22 321.51 164.22C321.977 164.22 322.377 164.387 322.71 164.72ZM333.437 178.42C332.744 178.873 331.684 179.1 330.257 179.1C328.591 179.1 327.291 178.62 326.357 177.66C325.437 176.687 324.977 175.44 324.977 173.92C324.977 172.307 325.424 171.047 326.317 170.14C327.224 169.22 328.337 168.76 329.657 168.76C331.017 168.76 332.091 169.16 332.877 169.96C333.664 170.747 334.057 171.927 334.057 173.5C334.057 173.807 334.004 174.333 333.897 175.08H327.937C328.137 175.64 328.484 176.073 328.977 176.38C329.471 176.687 330.064 176.84 330.757 176.84C331.784 176.84 332.677 176.553 333.437 175.98V178.42ZM329.777 170.98C329.311 170.98 328.897 171.153 328.537 171.5C328.177 171.833 327.937 172.333 327.817 173H331.337V172.76C331.244 171.573 330.724 170.98 329.777 170.98ZM343.061 175.94C343.061 176.94 342.701 177.713 341.981 178.26C341.261 178.807 340.308 179.08 339.121 179.08C337.895 179.08 336.868 178.873 336.041 178.46V175.86C336.961 176.5 337.935 176.82 338.961 176.82C339.695 176.82 340.061 176.587 340.061 176.12C340.061 176 340.028 175.887 339.961 175.78C339.895 175.673 339.781 175.573 339.621 175.48C339.461 175.387 339.315 175.313 339.181 175.26C339.048 175.193 338.855 175.107 338.601 175C338.348 174.893 338.155 174.807 338.021 174.74C336.675 174.1 336.001 173.14 336.001 171.86C336.001 170.873 336.375 170.107 337.121 169.56C337.881 169.013 338.821 168.74 339.941 168.74C340.981 168.74 341.848 168.88 342.541 169.16V171.66C341.835 171.247 341.008 171.04 340.061 171.04C339.715 171.04 339.448 171.113 339.261 171.26C339.075 171.393 338.981 171.567 338.981 171.78C338.981 171.9 339.015 172.013 339.081 172.12C339.148 172.227 339.255 172.327 339.401 172.42C339.561 172.513 339.708 172.6 339.841 172.68C339.988 172.747 340.181 172.833 340.421 172.94C340.675 173.047 340.875 173.14 341.021 173.22C341.635 173.54 342.128 173.913 342.501 174.34C342.875 174.753 343.061 175.287 343.061 175.94ZM355.372 171H353.472V179H350.572V171H349.252V168.86H350.572V168.48C350.572 167.253 350.912 166.3 351.592 165.62C352.286 164.94 353.239 164.6 354.452 164.6C355.079 164.6 355.586 164.667 355.972 164.8V167.16C355.599 167.013 355.252 166.94 354.932 166.94C354.439 166.94 354.072 167.053 353.832 167.28C353.592 167.507 353.472 167.907 353.472 168.48V168.86H355.372V171ZM359.666 179H356.746L356.766 168.86H359.666V170.74C359.853 170.153 360.16 169.687 360.586 169.34C361.026 168.98 361.533 168.8 362.106 168.8C362.426 168.8 362.68 168.827 362.866 168.88V171.64C362.546 171.493 362.18 171.42 361.766 171.42C361.14 171.42 360.633 171.653 360.246 172.12C359.86 172.573 359.666 173.18 359.666 173.94V179ZM373.609 173.88C373.609 175.413 373.169 176.68 372.289 177.68C371.422 178.667 370.209 179.16 368.649 179.16C367.062 179.16 365.835 178.687 364.969 177.74C364.102 176.78 363.669 175.553 363.669 174.06C363.669 172.5 364.122 171.22 365.029 170.22C365.935 169.207 367.142 168.7 368.649 168.7C370.222 168.7 371.442 169.187 372.309 170.16C373.175 171.133 373.609 172.373 373.609 173.88ZM367.189 171.82C366.869 172.367 366.709 173.073 366.709 173.94C366.709 174.807 366.869 175.52 367.189 176.08C367.522 176.627 368.015 176.9 368.669 176.9C369.309 176.9 369.782 176.633 370.089 176.1C370.409 175.553 370.569 174.847 370.569 173.98C370.569 171.993 369.922 171 368.629 171C367.989 171 367.509 171.273 367.189 171.82ZM390.396 179H387.476V172.98C387.476 172.407 387.363 171.953 387.136 171.62C386.91 171.287 386.583 171.12 386.156 171.12C385.703 171.12 385.296 171.307 384.936 171.68C384.59 172.04 384.416 172.693 384.416 173.64V179H381.496V172.98C381.496 172.407 381.383 171.953 381.156 171.62C380.93 171.287 380.603 171.12 380.176 171.12C379.723 171.12 379.316 171.307 378.956 171.68C378.61 172.04 378.436 172.693 378.436 173.64V179H375.516V168.86H378.436V170.44C378.996 169.32 379.95 168.76 381.296 168.76C382.723 168.76 383.67 169.4 384.136 170.68C384.363 170.08 384.743 169.613 385.276 169.28C385.81 168.933 386.436 168.76 387.156 168.76C388.156 168.76 388.943 169.08 389.516 169.72C390.103 170.347 390.396 171.273 390.396 172.5V179ZM403.224 171H401.324V179H398.424V171H397.104V168.86H398.424V168.48C398.424 167.253 398.764 166.3 399.444 165.62C400.137 164.94 401.091 164.6 402.304 164.6C402.931 164.6 403.437 164.667 403.824 164.8V167.16C403.451 167.013 403.104 166.94 402.784 166.94C402.291 166.94 401.924 167.053 401.684 167.28C401.444 167.507 401.324 167.907 401.324 168.48V168.86H403.224V171ZM407.638 179H404.718V168.86H407.638V179ZM407.378 164.72C407.711 165.053 407.878 165.453 407.878 165.92C407.878 166.387 407.711 166.787 407.378 167.12C407.045 167.453 406.645 167.62 406.178 167.62C405.711 167.62 405.311 167.453 404.978 167.12C404.645 166.787 404.478 166.387 404.478 165.92C404.478 165.453 404.645 165.053 404.978 164.72C405.311 164.387 405.711 164.22 406.178 164.22C406.645 164.22 407.045 164.387 407.378 164.72ZM418.105 178.42C417.412 178.873 416.352 179.1 414.925 179.1C413.259 179.1 411.959 178.62 411.025 177.66C410.105 176.687 409.645 175.44 409.645 173.92C409.645 172.307 410.092 171.047 410.985 170.14C411.892 169.22 413.005 168.76 414.325 168.76C415.685 168.76 416.759 169.16 417.545 169.96C418.332 170.747 418.725 171.927 418.725 173.5C418.725 173.807 418.672 174.333 418.565 175.08H412.605C412.805 175.64 413.152 176.073 413.645 176.38C414.139 176.687 414.732 176.84 415.425 176.84C416.452 176.84 417.345 176.553 418.105 175.98V178.42ZM414.445 170.98C413.979 170.98 413.565 171.153 413.205 171.5C412.845 171.833 412.605 172.333 412.485 173H416.005V172.76C415.912 171.573 415.392 170.98 414.445 170.98ZM423.829 179H420.909V164.86H423.829V179ZM428.797 173.96C428.797 174.773 429.01 175.433 429.437 175.94C429.863 176.433 430.383 176.68 430.997 176.68C431.663 176.68 432.203 176.42 432.617 175.9C433.03 175.38 433.237 174.687 433.237 173.82C433.237 172.98 433.01 172.327 432.557 171.86C432.117 171.393 431.59 171.16 430.977 171.16C430.363 171.16 429.843 171.407 429.417 171.9C429.003 172.393 428.797 173.08 428.797 173.96ZM436.157 179H433.237V177.42C432.557 178.553 431.543 179.12 430.197 179.12C428.877 179.12 427.817 178.607 427.017 177.58C426.23 176.553 425.837 175.327 425.837 173.9C425.837 172.3 426.25 171.04 427.077 170.12C427.903 169.2 428.95 168.74 430.217 168.74C431.537 168.74 432.543 169.3 433.237 170.42V164.86H436.157V179ZM451.523 178.42C450.83 178.873 449.77 179.1 448.343 179.1C446.677 179.1 445.377 178.62 444.443 177.66C443.523 176.687 443.063 175.44 443.063 173.92C443.063 172.307 443.51 171.047 444.403 170.14C445.31 169.22 446.423 168.76 447.743 168.76C449.103 168.76 450.177 169.16 450.963 169.96C451.75 170.747 452.143 171.927 452.143 173.5C452.143 173.807 452.09 174.333 451.983 175.08H446.023C446.223 175.64 446.57 176.073 447.063 176.38C447.557 176.687 448.15 176.84 448.843 176.84C449.87 176.84 450.763 176.553 451.523 175.98V178.42ZM447.863 170.98C447.397 170.98 446.983 171.153 446.623 171.5C446.263 171.833 446.023 172.333 445.903 173H449.423V172.76C449.33 171.573 448.81 170.98 447.863 170.98ZM456.507 179H453.347L456.967 173.92L453.567 168.86H456.807L458.447 171.88L460.267 168.86H463.467L459.827 173.94L463.207 179H460.027L458.327 175.96L456.507 179ZM467.675 182.74H464.755V168.86H467.675V170.42C468.381 169.3 469.401 168.74 470.735 168.74C472.041 168.74 473.088 169.207 473.875 170.14C474.675 171.06 475.075 172.313 475.075 173.9C475.075 175.407 474.688 176.653 473.915 177.64C473.155 178.627 472.095 179.12 470.735 179.12C469.361 179.12 468.341 178.58 467.675 177.5V182.74ZM467.675 173.82C467.675 174.687 467.888 175.38 468.315 175.9C468.741 176.42 469.288 176.68 469.955 176.68C470.595 176.68 471.115 176.44 471.515 175.96C471.915 175.467 472.115 174.8 472.115 173.96C472.115 173.04 471.908 172.347 471.495 171.88C471.095 171.4 470.581 171.16 469.955 171.16C469.341 171.16 468.808 171.393 468.355 171.86C467.901 172.327 467.675 172.98 467.675 173.82ZM484.941 178.42C484.248 178.873 483.188 179.1 481.761 179.1C480.095 179.1 478.795 178.62 477.861 177.66C476.941 176.687 476.481 175.44 476.481 173.92C476.481 172.307 476.928 171.047 477.821 170.14C478.728 169.22 479.841 168.76 481.161 168.76C482.521 168.76 483.595 169.16 484.381 169.96C485.168 170.747 485.561 171.927 485.561 173.5C485.561 173.807 485.508 174.333 485.401 175.08H479.441C479.641 175.64 479.988 176.073 480.481 176.38C480.975 176.687 481.568 176.84 482.261 176.84C483.288 176.84 484.181 176.553 484.941 175.98V178.42ZM481.281 170.98C480.815 170.98 480.401 171.153 480.041 171.5C479.681 171.833 479.441 172.333 479.321 173H482.841V172.76C482.748 171.573 482.228 170.98 481.281 170.98ZM490.545 179H487.625L487.645 168.86H490.545V170.74C490.732 170.153 491.039 169.687 491.465 169.34C491.905 168.98 492.412 168.8 492.985 168.8C493.305 168.8 493.559 168.827 493.745 168.88V171.64C493.425 171.493 493.059 171.42 492.645 171.42C492.019 171.42 491.512 171.653 491.125 172.12C490.739 172.573 490.545 173.18 490.545 173.94V179ZM500.968 178.78C500.474 178.993 499.808 179.1 498.968 179.1C496.661 179.1 495.508 177.947 495.508 175.64V171H494.048V168.86H495.508V166.46H498.428V168.86H500.788V171H498.428V175.66C498.428 176.02 498.528 176.293 498.728 176.48C498.941 176.667 499.214 176.76 499.548 176.76C500.081 176.76 500.554 176.627 500.968 176.36V178.78ZM509.683 175.94C509.683 176.94 509.323 177.713 508.603 178.26C507.883 178.807 506.929 179.08 505.743 179.08C504.516 179.08 503.489 178.873 502.663 178.46V175.86C503.583 176.5 504.556 176.82 505.583 176.82C506.316 176.82 506.683 176.587 506.683 176.12C506.683 176 506.649 175.887 506.583 175.78C506.516 175.673 506.403 175.573 506.243 175.48C506.083 175.387 505.936 175.313 505.803 175.26C505.669 175.193 505.476 175.107 505.223 175C504.969 174.893 504.776 174.807 504.643 174.74C503.296 174.1 502.623 173.14 502.623 171.86C502.623 170.873 502.996 170.107 503.743 169.56C504.503 169.013 505.443 168.74 506.562 168.74C507.603 168.74 508.469 168.88 509.163 169.16V171.66C508.456 171.247 507.629 171.04 506.683 171.04C506.336 171.04 506.069 171.113 505.883 171.26C505.696 171.393 505.603 171.567 505.603 171.78C505.603 171.9 505.636 172.013 505.703 172.12C505.769 172.227 505.876 172.327 506.023 172.42C506.183 172.513 506.329 172.6 506.463 172.68C506.609 172.747 506.803 172.833 507.043 172.94C507.296 173.047 507.496 173.14 507.643 173.22C508.256 173.54 508.749 173.913 509.123 174.34C509.496 174.753 509.683 175.287 509.683 175.94Z" fill="black"/>
</svg>
