<svg width="511" height="189" viewBox="0 0 511 189" fill="none" xmlns="http://www.w3.org/2000/svg">
<path d="M44 134.4C36.2133 134.4 29.7067 132.853 24.48 129.76C19.2533 126.56 15.3067 122.187 12.64 116.64C9.97333 111.093 8.64 104.64 8.64 97.28V38.56C8.64 30.9867 9.86667 24.3733 12.32 18.72C14.88 12.96 18.7733 8.47999 24 5.27999C29.2267 2.07999 35.8933 0.479996 44 0.479996C52.1067 0.479996 58.72 2.07999 63.84 5.27999C69.0667 8.47999 72.9067 12.96 75.36 18.72C77.92 24.3733 79.2 30.9867 79.2 38.56V97.28C79.2 104.533 77.8667 110.987 75.2 116.64C72.5333 122.187 68.5867 126.56 63.36 129.76C58.1333 132.853 51.68 134.4 44 134.4ZM44 110.56C46.56 110.56 48.3733 109.76 49.44 108.16C50.6133 106.453 51.3067 104.533 51.52 102.4C51.84 100.16 52 98.24 52 96.64V39.2C52 37.3867 51.8933 35.36 51.68 33.12C51.4667 30.7733 50.7733 28.7467 49.6 27.04C48.5333 25.2267 46.6667 24.32 44 24.32C41.3333 24.32 39.4133 25.2267 38.24 27.04C37.1733 28.7467 36.5333 30.7733 36.32 33.12C36.1067 35.36 36 37.3867 36 39.2V96.64C36 98.24 36.16 100.16 36.48 102.4C36.8 104.533 37.4933 106.453 38.56 108.16C39.7333 109.76 41.5467 110.56 44 110.56ZM131.809 132V102.88H91.9688V83.2L125.729 2.39999H156.769V83.04H168.769V102.88H156.769V132H131.809ZM112.289 83.04H131.809V29.12L112.289 83.04Z" fill="black" fill-opacity="0.2"/>
<path d="M195.144 36.396C193.296 36.396 191.844 36.012 190.788 35.244C189.756 34.476 189.024 33.396 188.592 32.004C188.16 30.588 187.944 28.956 187.944 27.108V15.732C187.944 13.86 188.148 12.24 188.556 10.872C188.988 9.504 189.732 8.448 190.788 7.704C191.868 6.936 193.38 6.552 195.324 6.552C197.076 6.552 198.456 6.876 199.464 7.524C200.496 8.172 201.24 9.12 201.696 10.368C202.152 11.616 202.38 13.14 202.38 14.94V15.948H199.788V14.94C199.788 13.548 199.656 12.396 199.392 11.484C199.152 10.572 198.72 9.888 198.096 9.432C197.472 8.976 196.56 8.748 195.36 8.748C194.016 8.748 193.008 9.036 192.336 9.612C191.664 10.188 191.22 10.98 191.004 11.988C190.812 12.996 190.716 14.148 190.716 15.444V27.432C190.716 28.848 190.836 30.06 191.076 31.068C191.34 32.052 191.808 32.82 192.48 33.372C193.176 33.9 194.148 34.164 195.396 34.164C196.62 34.164 197.556 33.9 198.204 33.372C198.852 32.82 199.308 32.04 199.572 31.032C199.836 30.024 199.968 28.8 199.968 27.36V23.94H195.648V21.888H202.488V36H200.724L200.4 32.688C200.04 33.792 199.44 34.692 198.6 35.388C197.784 36.06 196.632 36.396 195.144 36.396ZM217.988 36V6.84H228.536V8.964H220.76V19.908H227.096V21.924H220.76V33.948H228.608V36H217.988ZM246.768 36V8.964H241.26V6.84H254.868V8.964H249.504V36H246.768ZM293.79 36.36C291.822 36.36 290.298 35.952 289.218 35.136C288.162 34.32 287.43 33.228 287.022 31.86C286.614 30.468 286.41 28.932 286.41 27.252V15.66C286.41 13.86 286.614 12.276 287.022 10.908C287.454 9.54 288.21 8.472 289.29 7.704C290.37 6.936 291.87 6.552 293.79 6.552C295.542 6.552 296.91 6.888 297.894 7.56C298.902 8.232 299.622 9.192 300.054 10.44C300.486 11.664 300.702 13.128 300.702 14.832V16.596H298.11V14.904C298.11 13.632 298.002 12.54 297.786 11.628C297.594 10.716 297.186 10.008 296.562 9.504C295.938 9 295.026 8.748 293.826 8.748C292.506 8.748 291.51 9.024 290.838 9.576C290.19 10.104 289.746 10.86 289.506 11.844C289.29 12.828 289.182 13.968 289.182 15.264V27.684C289.182 29.124 289.314 30.324 289.578 31.284C289.866 32.244 290.346 32.964 291.018 33.444C291.69 33.924 292.626 34.164 293.826 34.164C295.05 34.164 295.962 33.9 296.562 33.372C297.186 32.844 297.594 32.112 297.786 31.176C298.002 30.216 298.11 29.1 298.11 27.828V25.92H300.702V27.648C300.702 29.352 300.498 30.864 300.09 32.184C299.706 33.48 299.01 34.5 298.002 35.244C297.018 35.988 295.614 36.36 293.79 36.36ZM315.75 36V6.84H326.298V8.964H318.522V19.908H324.858V21.924H318.522V33.948H326.37V36H315.75ZM340.93 36V6.84H347.518C349.342 6.84 350.77 7.14 351.802 7.74C352.858 8.316 353.614 9.168 354.07 10.296C354.526 11.4 354.754 12.72 354.754 14.256C354.754 15.336 354.634 16.356 354.394 17.316C354.154 18.276 353.746 19.092 353.17 19.764C352.594 20.436 351.778 20.88 350.722 21.096L355.186 36H352.522L348.238 21.672H343.666V36H340.93ZM343.666 19.656H347.374C348.598 19.656 349.546 19.452 350.218 19.044C350.89 18.636 351.37 18.036 351.658 17.244C351.946 16.452 352.09 15.456 352.09 14.256C352.09 12.456 351.778 11.112 351.154 10.224C350.53 9.336 349.294 8.892 347.446 8.892H343.666V19.656ZM373.401 36V8.964H367.893V6.84H381.501V8.964H376.137V36H373.401ZM395.579 36V6.84H398.315V36H395.579ZM414.287 36V6.84H424.763V8.892H417.023V19.872H423.467V21.888H417.023V36H414.287ZM439.046 36V6.84H441.782V36H439.046ZM457.718 36V6.84H468.266V8.964H460.49V19.908H466.826V21.924H460.49V33.948H468.338V36H457.718ZM482.898 36V6.84H489.234C491.274 6.84 492.858 7.2 493.986 7.92C495.138 8.616 495.954 9.612 496.434 10.908C496.914 12.204 497.154 13.704 497.154 15.408V27C497.154 28.8 496.914 30.384 496.434 31.752C495.954 33.096 495.162 34.14 494.058 34.884C492.954 35.628 491.43 36 489.486 36H482.898ZM485.634 33.948H489.306C490.842 33.948 491.97 33.636 492.69 33.012C493.41 32.364 493.866 31.488 494.058 30.384C494.25 29.256 494.346 27.984 494.346 26.568V15.696C494.346 14.232 494.214 13.008 493.95 12.024C493.71 11.016 493.218 10.26 492.474 9.756C491.754 9.228 490.662 8.964 489.198 8.964H485.634V33.948Z" fill="black" fill-opacity="0.1"/>
<path d="M191.216 83.36C189.392 83.36 187.928 82.976 186.824 82.208C185.744 81.416 184.952 80.276 184.448 78.788C183.968 77.3 183.728 75.512 183.728 73.424V63.668C183.728 61.532 183.944 59.72 184.376 58.232C184.832 56.72 185.624 55.568 186.752 54.776C187.904 53.984 189.5 53.588 191.54 53.588C193.364 53.588 194.828 53.9 195.932 54.524C197.06 55.124 197.876 56.06 198.38 57.332C198.884 58.58 199.136 60.164 199.136 62.084V63.164H195.32V62.264C195.32 60.992 195.236 59.96 195.068 59.168C194.9 58.352 194.552 57.752 194.024 57.368C193.52 56.96 192.716 56.756 191.612 56.756C190.412 56.756 189.536 57.032 188.984 57.584C188.456 58.136 188.12 58.892 187.976 59.852C187.856 60.788 187.796 61.856 187.796 63.056V73.856C187.796 75.248 187.892 76.412 188.084 77.348C188.3 78.284 188.696 78.98 189.272 79.436C189.848 79.892 190.664 80.12 191.72 80.12C192.776 80.12 193.592 79.868 194.168 79.364C194.744 78.86 195.14 78.116 195.356 77.132C195.572 76.148 195.68 74.924 195.68 73.46V71.444H191.972V68.564H199.352V83H196.796L196.4 79.652C196.016 80.732 195.416 81.62 194.6 82.316C193.784 83.012 192.656 83.36 191.216 83.36ZM214.334 83V53.84H225.638V56.864H218.402V66.512H224.27V69.392H218.402V80.084H225.71V83H214.334ZM242.998 83V56.864H238.066V53.84H251.854V56.864H247.066V83H242.998ZM291.799 83.324C289.735 83.324 288.127 82.892 286.975 82.028C285.847 81.164 285.055 80 284.599 78.536C284.167 77.072 283.951 75.44 283.951 73.64V63.344C283.951 61.376 284.167 59.66 284.599 58.196C285.055 56.732 285.847 55.604 286.975 54.812C288.127 53.996 289.735 53.588 291.799 53.588C293.623 53.588 295.063 53.924 296.119 54.596C297.199 55.268 297.967 56.228 298.423 57.476C298.903 58.724 299.143 60.224 299.143 61.976V64.28H295.291V62.228C295.291 61.148 295.231 60.2 295.111 59.384C295.015 58.544 294.727 57.896 294.247 57.44C293.767 56.984 292.963 56.756 291.835 56.756C290.683 56.756 289.843 57.008 289.315 57.512C288.787 57.992 288.439 58.688 288.271 59.6C288.127 60.488 288.055 61.532 288.055 62.732V74.288C288.055 75.752 288.175 76.916 288.415 77.78C288.655 78.62 289.051 79.22 289.603 79.58C290.155 79.94 290.899 80.12 291.835 80.12C292.939 80.12 293.731 79.88 294.211 79.4C294.691 78.896 294.991 78.212 295.111 77.348C295.231 76.484 295.291 75.476 295.291 74.324V72.164H299.143V74.324C299.143 76.1 298.927 77.672 298.495 79.04C298.063 80.384 297.319 81.44 296.263 82.208C295.207 82.952 293.719 83.324 291.799 83.324ZM313.819 83V53.84H325.123V56.864H317.887V66.512H323.755V69.392H317.887V80.084H325.195V83H313.819ZM339.279 83V53.84H345.147C347.091 53.84 348.699 54.104 349.971 54.632C351.243 55.136 352.179 55.964 352.779 57.116C353.403 58.244 353.715 59.732 353.715 61.58C353.715 62.708 353.595 63.74 353.355 64.676C353.115 65.588 352.731 66.368 352.203 67.016C351.675 67.64 350.979 68.096 350.115 68.384L354.255 83H350.331L346.515 69.32H343.347V83H339.279ZM343.347 66.404H344.895C346.047 66.404 346.983 66.26 347.703 65.972C348.423 65.684 348.951 65.192 349.287 64.496C349.623 63.8 349.791 62.828 349.791 61.58C349.791 59.876 349.479 58.652 348.855 57.908C348.231 57.14 346.995 56.756 345.147 56.756H343.347V66.404ZM371.951 83V56.864H367.019V53.84H380.807V56.864H376.019V83H371.951ZM394.634 83V53.84H398.63V83H394.634ZM414.148 83V53.84H425.416V56.756H418.216V66.476H423.796V69.356H418.216V83H414.148ZM439.226 83V53.84H443.222V83H439.226ZM458.74 83V53.84H470.044V56.864H462.808V66.512H468.676V69.392H462.808V80.084H470.116V83H458.74ZM484.2 83V53.84H490.536C492.696 53.84 494.4 54.176 495.648 54.848C496.92 55.496 497.82 56.48 498.348 57.8C498.9 59.12 499.176 60.764 499.176 62.732V73.46C499.176 75.524 498.9 77.264 498.348 78.68C497.82 80.096 496.944 81.176 495.72 81.92C494.52 82.64 492.9 83 490.86 83H484.2ZM488.268 80.084H490.572C492.06 80.084 493.116 79.796 493.74 79.22C494.364 78.644 494.736 77.804 494.856 76.7C495 75.596 495.072 74.264 495.072 72.704V63.236C495.072 61.724 494.976 60.5 494.784 59.564C494.592 58.628 494.172 57.944 493.524 57.512C492.876 57.08 491.856 56.864 490.464 56.864H488.268V80.084Z" fill="black" fill-opacity="0.2"/>
<path d="M191.216 130.36C189.392 130.36 187.928 129.976 186.824 129.208C185.744 128.416 184.952 127.276 184.448 125.788C183.968 124.3 183.728 122.512 183.728 120.424V110.668C183.728 108.532 183.944 106.72 184.376 105.232C184.832 103.72 185.624 102.568 186.752 101.776C187.904 100.984 189.5 100.588 191.54 100.588C193.364 100.588 194.828 100.9 195.932 101.524C197.06 102.124 197.876 103.06 198.38 104.332C198.884 105.58 199.136 107.164 199.136 109.084V110.164H195.32V109.264C195.32 107.992 195.236 106.96 195.068 106.168C194.9 105.352 194.552 104.752 194.024 104.368C193.52 103.96 192.716 103.756 191.612 103.756C190.412 103.756 189.536 104.032 188.984 104.584C188.456 105.136 188.12 105.892 187.976 106.852C187.856 107.788 187.796 108.856 187.796 110.056V120.856C187.796 122.248 187.892 123.412 188.084 124.348C188.3 125.284 188.696 125.98 189.272 126.436C189.848 126.892 190.664 127.12 191.72 127.12C192.776 127.12 193.592 126.868 194.168 126.364C194.744 125.86 195.14 125.116 195.356 124.132C195.572 123.148 195.68 121.924 195.68 120.46V118.444H191.972V115.564H199.352V130H196.796L196.4 126.652C196.016 127.732 195.416 128.62 194.6 129.316C193.784 130.012 192.656 130.36 191.216 130.36ZM214.334 130V100.84H225.638V103.864H218.402V113.512H224.27V116.392H218.402V127.084H225.71V130H214.334ZM242.998 130V103.864H238.066V100.84H251.854V103.864H247.066V130H242.998ZM291.799 130.324C289.735 130.324 288.127 129.892 286.975 129.028C285.847 128.164 285.055 127 284.599 125.536C284.167 124.072 283.951 122.44 283.951 120.64V110.344C283.951 108.376 284.167 106.66 284.599 105.196C285.055 103.732 285.847 102.604 286.975 101.812C288.127 100.996 289.735 100.588 291.799 100.588C293.623 100.588 295.063 100.924 296.119 101.596C297.199 102.268 297.967 103.228 298.423 104.476C298.903 105.724 299.143 107.224 299.143 108.976V111.28H295.291V109.228C295.291 108.148 295.231 107.2 295.111 106.384C295.015 105.544 294.727 104.896 294.247 104.44C293.767 103.984 292.963 103.756 291.835 103.756C290.683 103.756 289.843 104.008 289.315 104.512C288.787 104.992 288.439 105.688 288.271 106.6C288.127 107.488 288.055 108.532 288.055 109.732V121.288C288.055 122.752 288.175 123.916 288.415 124.78C288.655 125.62 289.051 126.22 289.603 126.58C290.155 126.94 290.899 127.12 291.835 127.12C292.939 127.12 293.731 126.88 294.211 126.4C294.691 125.896 294.991 125.212 295.111 124.348C295.231 123.484 295.291 122.476 295.291 121.324V119.164H299.143V121.324C299.143 123.1 298.927 124.672 298.495 126.04C298.063 127.384 297.319 128.44 296.263 129.208C295.207 129.952 293.719 130.324 291.799 130.324ZM313.819 130V100.84H325.123V103.864H317.887V113.512H323.755V116.392H317.887V127.084H325.195V130H313.819ZM339.279 130V100.84H345.147C347.091 100.84 348.699 101.104 349.971 101.632C351.243 102.136 352.179 102.964 352.779 104.116C353.403 105.244 353.715 106.732 353.715 108.58C353.715 109.708 353.595 110.74 353.355 111.676C353.115 112.588 352.731 113.368 352.203 114.016C351.675 114.64 350.979 115.096 350.115 115.384L354.255 130H350.331L346.515 116.32H343.347V130H339.279ZM343.347 113.404H344.895C346.047 113.404 346.983 113.26 347.703 112.972C348.423 112.684 348.951 112.192 349.287 111.496C349.623 110.8 349.791 109.828 349.791 108.58C349.791 106.876 349.479 105.652 348.855 104.908C348.231 104.14 346.995 103.756 345.147 103.756H343.347V113.404ZM371.951 130V103.864H367.019V100.84H380.807V103.864H376.019V130H371.951ZM394.634 130V100.84H398.63V130H394.634ZM414.148 130V100.84H425.416V103.756H418.216V113.476H423.796V116.356H418.216V130H414.148ZM439.226 130V100.84H443.222V130H439.226ZM458.74 130V100.84H470.044V103.864H462.808V113.512H468.676V116.392H462.808V127.084H470.116V130H458.74ZM484.2 130V100.84H490.536C492.696 100.84 494.4 101.176 495.648 101.848C496.92 102.496 497.82 103.48 498.348 104.8C498.9 106.12 499.176 107.764 499.176 109.732V120.46C499.176 122.524 498.9 124.264 498.348 125.68C497.82 127.096 496.944 128.176 495.72 128.92C494.52 129.64 492.9 130 490.86 130H484.2ZM488.268 127.084H490.572C492.06 127.084 493.116 126.796 493.74 126.22C494.364 125.644 494.736 124.804 494.856 123.7C495 122.596 495.072 121.264 495.072 119.704V110.236C495.072 108.724 494.976 107.5 494.784 106.564C494.592 105.628 494.172 104.944 493.524 104.512C492.876 104.08 491.856 103.864 490.464 103.864H488.268V127.084Z" fill="black" fill-opacity="0.7"/>
<path d="M22.92 177.76C21.64 178.693 20.0267 179.16 18.08 179.16C15.92 179.16 14.1667 178.54 12.82 177.3C11.4733 176.06 10.8 174.373 10.8 172.24C10.8 170.133 11.5 168.447 12.9 167.18C14.3133 165.913 16.1 165.28 18.26 165.28C19.78 165.28 21.0933 165.56 22.2 166.12V169.2C20.92 168.467 19.6067 168.1 18.26 168.1C16.9933 168.1 15.9867 168.48 15.24 169.24C14.4933 169.987 14.12 170.987 14.12 172.24C14.12 173.507 14.4867 174.513 15.22 175.26C15.9533 176.007 16.9533 176.38 18.22 176.38C18.7933 176.38 19.36 176.293 19.92 176.12V173.58H17.74V170.96H22.92V177.76ZM33.2811 178.42C32.5878 178.873 31.5278 179.1 30.1011 179.1C28.4344 179.1 27.1344 178.62 26.2011 177.66C25.2811 176.687 24.8211 175.44 24.8211 173.92C24.8211 172.307 25.2678 171.047 26.1611 170.14C27.0678 169.22 28.1811 168.76 29.5011 168.76C30.8611 168.76 31.9344 169.16 32.7211 169.96C33.5078 170.747 33.9011 171.927 33.9011 173.5C33.9011 173.807 33.8478 174.333 33.7411 175.08H27.7811C27.9811 175.64 28.3278 176.073 28.8211 176.38C29.3144 176.687 29.9078 176.84 30.6011 176.84C31.6278 176.84 32.5211 176.553 33.2811 175.98V178.42ZM29.6211 170.98C29.1544 170.98 28.7411 171.153 28.3811 171.5C28.0211 171.833 27.7811 172.333 27.6611 173H31.1811V172.76C31.0878 171.573 30.5678 170.98 29.6211 170.98ZM41.9052 178.78C41.4118 178.993 40.7452 179.1 39.9052 179.1C37.5985 179.1 36.4452 177.947 36.4452 175.64V171H34.9852V168.86H36.4452V166.46H39.3652V168.86H41.7252V171H39.3652V175.66C39.3652 176.02 39.4652 176.293 39.6652 176.48C39.8785 176.667 40.1518 176.76 40.4852 176.76C41.0185 176.76 41.4918 176.627 41.9052 176.36V178.78ZM54.38 178.7C53.3267 181.54 51.72 182.96 49.56 182.96C49.1467 182.96 48.7733 182.927 48.44 182.86V180.54C48.6533 180.593 48.88 180.62 49.12 180.62C50.2267 180.62 51.0267 180.027 51.52 178.84L47.6 168.86H50.78L51.88 172.02C52.16 172.833 52.3867 173.533 52.56 174.12C52.7467 174.707 52.86 175.093 52.9 175.28L52.96 175.56C53.1067 175.027 53.4667 173.847 54.04 172.02L55.04 168.86H58.04L54.38 178.7ZM68.7845 173.88C68.7845 175.413 68.3445 176.68 67.4645 177.68C66.5979 178.667 65.3845 179.16 63.8245 179.16C62.2379 179.16 61.0112 178.687 60.1445 177.74C59.2779 176.78 58.8445 175.553 58.8445 174.06C58.8445 172.5 59.2979 171.22 60.2045 170.22C61.1112 169.207 62.3179 168.7 63.8245 168.7C65.3979 168.7 66.6179 169.187 67.4845 170.16C68.3512 171.133 68.7845 172.373 68.7845 173.88ZM62.3645 171.82C62.0445 172.367 61.8845 173.073 61.8845 173.94C61.8845 174.807 62.0445 175.52 62.3645 176.08C62.6979 176.627 63.1912 176.9 63.8445 176.9C64.4845 176.9 64.9579 176.633 65.2645 176.1C65.5845 175.553 65.7445 174.847 65.7445 173.98C65.7445 171.993 65.0979 171 63.8045 171C63.1645 171 62.6845 171.273 62.3645 171.82ZM79.8922 179H76.9722V177.38C76.4389 178.513 75.4122 179.08 73.8922 179.08C72.8522 179.08 72.0389 178.793 71.4522 178.22C70.8789 177.633 70.5922 176.773 70.5922 175.64V168.86H73.5122V174.98C73.5122 176.167 74.0322 176.76 75.0722 176.76C76.3389 176.76 76.9722 175.913 76.9722 174.22V168.86H79.8922V179ZM85.1938 179H82.2738L82.2938 168.86H85.1938V170.74C85.3804 170.153 85.6871 169.687 86.1138 169.34C86.5538 168.98 87.0604 168.8 87.6338 168.8C87.9538 168.8 88.2071 168.827 88.3938 168.88V171.64C88.0738 171.493 87.7071 171.42 87.2938 171.42C86.6671 171.42 86.1604 171.653 85.7738 172.12C85.3871 172.573 85.1938 173.18 85.1938 173.94V179ZM102.276 178.52C101.489 178.947 100.543 179.16 99.4361 179.16C97.9161 179.16 96.6628 178.68 95.6761 177.72C94.6894 176.747 94.1961 175.493 94.1961 173.96C94.2228 172.44 94.7161 171.187 95.6761 170.2C96.6361 169.2 97.9494 168.7 99.6161 168.7C100.643 168.7 101.529 168.893 102.276 169.28V171.78C101.569 171.34 100.783 171.12 99.9161 171.12C99.1028 171.12 98.4428 171.367 97.9361 171.86C97.4294 172.34 97.1694 173.04 97.1561 173.96C97.2094 174.853 97.4761 175.547 97.9561 176.04C98.4361 176.533 99.0694 176.78 99.8561 176.78C100.696 176.78 101.503 176.547 102.276 176.08V178.52ZM112.031 178.42C111.338 178.873 110.278 179.1 108.851 179.1C107.184 179.1 105.884 178.62 104.951 177.66C104.031 176.687 103.571 175.44 103.571 173.92C103.571 172.307 104.018 171.047 104.911 170.14C105.818 169.22 106.931 168.76 108.251 168.76C109.611 168.76 110.684 169.16 111.471 169.96C112.258 170.747 112.651 171.927 112.651 173.5C112.651 173.807 112.598 174.333 112.491 175.08H106.531C106.731 175.64 107.078 176.073 107.571 176.38C108.064 176.687 108.658 176.84 109.351 176.84C110.378 176.84 111.271 176.553 112.031 175.98V178.42ZM108.371 170.98C107.904 170.98 107.491 171.153 107.131 171.5C106.771 171.833 106.531 172.333 106.411 173H109.931V172.76C109.838 171.573 109.318 170.98 108.371 170.98ZM117.635 179H114.715L114.735 168.86H117.635V170.74C117.822 170.153 118.128 169.687 118.555 169.34C118.995 168.98 119.502 168.8 120.075 168.8C120.395 168.8 120.648 168.827 120.835 168.88V171.64C120.515 171.493 120.148 171.42 119.735 171.42C119.108 171.42 118.602 171.653 118.215 172.12C117.828 172.573 117.635 173.18 117.635 173.94V179ZM128.058 178.78C127.564 178.993 126.898 179.1 126.058 179.1C123.751 179.1 122.598 177.947 122.598 175.64V171H121.138V168.86H122.598V166.46H125.518V168.86H127.878V171H125.518V175.66C125.518 176.02 125.618 176.293 125.818 176.48C126.031 176.667 126.304 176.76 126.638 176.76C127.171 176.76 127.644 176.627 128.058 176.36V178.78ZM132.872 179H129.952V168.86H132.872V179ZM132.612 164.72C132.946 165.053 133.112 165.453 133.112 165.92C133.112 166.387 132.946 166.787 132.612 167.12C132.279 167.453 131.879 167.62 131.412 167.62C130.946 167.62 130.546 167.453 130.212 167.12C129.879 166.787 129.712 166.387 129.712 165.92C129.712 165.453 129.879 165.053 130.212 164.72C130.546 164.387 130.946 164.22 131.412 164.22C131.879 164.22 132.279 164.387 132.612 164.72ZM140.9 171H139V179H136.1V171H134.78V168.86H136.1V168.48C136.1 167.253 136.44 166.3 137.12 165.62C137.813 164.94 138.766 164.6 139.98 164.6C140.606 164.6 141.113 164.667 141.5 164.8V167.16C141.126 167.013 140.78 166.94 140.46 166.94C139.966 166.94 139.6 167.053 139.36 167.28C139.12 167.507 139 167.907 139 168.48V168.86H140.9V171ZM145.314 179H142.394V168.86H145.314V179ZM145.054 164.72C145.387 165.053 145.554 165.453 145.554 165.92C145.554 166.387 145.387 166.787 145.054 167.12C144.72 167.453 144.32 167.62 143.854 167.62C143.387 167.62 142.987 167.453 142.654 167.12C142.32 166.787 142.154 166.387 142.154 165.92C142.154 165.453 142.32 165.053 142.654 164.72C142.987 164.387 143.387 164.22 143.854 164.22C144.32 164.22 144.72 164.387 145.054 164.72ZM155.401 178.52C154.614 178.947 153.668 179.16 152.561 179.16C151.041 179.16 149.788 178.68 148.801 177.72C147.814 176.747 147.321 175.493 147.321 173.96C147.348 172.44 147.841 171.187 148.801 170.2C149.761 169.2 151.074 168.7 152.741 168.7C153.768 168.7 154.654 168.893 155.401 169.28V171.78C154.694 171.34 153.908 171.12 153.041 171.12C152.228 171.12 151.568 171.367 151.061 171.86C150.554 172.34 150.294 173.04 150.281 173.96C150.334 174.853 150.601 175.547 151.081 176.04C151.561 176.533 152.194 176.78 152.981 176.78C153.821 176.78 154.628 176.547 155.401 176.08V178.52ZM160.916 177C161.329 177 161.649 176.873 161.876 176.62C162.103 176.367 162.216 176.02 162.216 175.58V174.84H161.276C160.783 174.84 160.403 174.947 160.136 175.16C159.869 175.373 159.736 175.647 159.736 175.98C159.736 176.66 160.129 177 160.916 177ZM162.356 177.76C161.929 178.627 161.089 179.06 159.836 179.06C158.849 179.06 158.076 178.78 157.516 178.22C156.969 177.66 156.696 176.96 156.696 176.12C156.696 175.147 157.049 174.393 157.756 173.86C158.476 173.313 159.536 173.04 160.936 173.04H162.216V172.34C162.216 171.487 161.649 171.06 160.516 171.06C159.423 171.06 158.409 171.367 157.476 171.98V169.36C158.276 168.907 159.429 168.68 160.936 168.68C162.376 168.68 163.449 168.993 164.156 169.62C164.863 170.233 165.216 171.193 165.216 172.5V179H162.356V177.76ZM173.429 178.78C172.935 178.993 172.269 179.1 171.429 179.1C169.122 179.1 167.969 177.947 167.969 175.64V171H166.509V168.86H167.969V166.46H170.889V168.86H173.249V171H170.889V175.66C170.889 176.02 170.989 176.293 171.189 176.48C171.402 176.667 171.675 176.76 172.009 176.76C172.542 176.76 173.015 176.627 173.429 176.36V178.78ZM183.183 178.42C182.49 178.873 181.43 179.1 180.003 179.1C178.337 179.1 177.037 178.62 176.103 177.66C175.183 176.687 174.723 175.44 174.723 173.92C174.723 172.307 175.17 171.047 176.063 170.14C176.97 169.22 178.083 168.76 179.403 168.76C180.763 168.76 181.837 169.16 182.623 169.96C183.41 170.747 183.803 171.927 183.803 173.5C183.803 173.807 183.75 174.333 183.643 175.08H177.683C177.883 175.64 178.23 176.073 178.723 176.38C179.217 176.687 179.81 176.84 180.503 176.84C181.53 176.84 182.423 176.553 183.183 175.98V178.42ZM179.523 170.98C179.057 170.98 178.643 171.153 178.283 171.5C177.923 171.833 177.683 172.333 177.563 173H181.083V172.76C180.99 171.573 180.47 170.98 179.523 170.98ZM194.608 177C195.021 177 195.341 176.873 195.567 176.62C195.794 176.367 195.908 176.02 195.908 175.58V174.84H194.967C194.474 174.84 194.094 174.947 193.828 175.16C193.561 175.373 193.428 175.647 193.428 175.98C193.428 176.66 193.821 177 194.608 177ZM196.048 177.76C195.621 178.627 194.781 179.06 193.528 179.06C192.541 179.06 191.768 178.78 191.208 178.22C190.661 177.66 190.388 176.96 190.388 176.12C190.388 175.147 190.741 174.393 191.448 173.86C192.168 173.313 193.228 173.04 194.628 173.04H195.908V172.34C195.908 171.487 195.341 171.06 194.208 171.06C193.114 171.06 192.101 171.367 191.168 171.98V169.36C191.968 168.907 193.121 168.68 194.628 168.68C196.068 168.68 197.141 168.993 197.848 169.62C198.554 170.233 198.908 171.193 198.908 172.5V179H196.048V177.76ZM210.5 179H207.58V172.96C207.58 172.36 207.44 171.907 207.16 171.6C206.88 171.28 206.487 171.12 205.98 171.12C205.447 171.12 205 171.333 204.64 171.76C204.293 172.173 204.12 172.8 204.12 173.64V179H201.2V168.86H204.12V170.58C204.373 170.02 204.76 169.58 205.28 169.26C205.813 168.927 206.447 168.76 207.18 168.76C208.22 168.76 209.033 169.073 209.62 169.7C210.207 170.313 210.5 171.22 210.5 172.42V179ZM215.262 173.96C215.262 174.773 215.475 175.433 215.902 175.94C216.328 176.433 216.848 176.68 217.462 176.68C218.128 176.68 218.668 176.42 219.082 175.9C219.495 175.38 219.702 174.687 219.702 173.82C219.702 172.98 219.475 172.327 219.022 171.86C218.582 171.393 218.055 171.16 217.442 171.16C216.828 171.16 216.308 171.407 215.882 171.9C215.468 172.393 215.262 173.08 215.262 173.96ZM222.622 179H219.702V177.42C219.022 178.553 218.008 179.12 216.662 179.12C215.342 179.12 214.282 178.607 213.482 177.58C212.695 176.553 212.302 175.327 212.302 173.9C212.302 172.3 212.715 171.04 213.542 170.12C214.368 169.2 215.415 168.74 216.682 168.74C218.002 168.74 219.008 169.3 219.702 170.42V164.86H222.622V179ZM236.948 175.94C236.948 176.94 236.588 177.713 235.868 178.26C235.148 178.807 234.195 179.08 233.008 179.08C231.781 179.08 230.755 178.873 229.928 178.46V175.86C230.848 176.5 231.821 176.82 232.848 176.82C233.581 176.82 233.948 176.587 233.948 176.12C233.948 176 233.915 175.887 233.848 175.78C233.781 175.673 233.668 175.573 233.508 175.48C233.348 175.387 233.201 175.313 233.068 175.26C232.935 175.193 232.741 175.107 232.488 175C232.235 174.893 232.041 174.807 231.908 174.74C230.561 174.1 229.888 173.14 229.888 171.86C229.888 170.873 230.261 170.107 231.008 169.56C231.768 169.013 232.708 168.74 233.828 168.74C234.868 168.74 235.735 168.88 236.428 169.16V171.66C235.721 171.247 234.895 171.04 233.948 171.04C233.601 171.04 233.335 171.113 233.148 171.26C232.961 171.393 232.868 171.567 232.868 171.78C232.868 171.9 232.901 172.013 232.968 172.12C233.035 172.227 233.141 172.327 233.288 172.42C233.448 172.513 233.595 172.6 233.728 172.68C233.875 172.747 234.068 172.833 234.308 172.94C234.561 173.047 234.761 173.14 234.908 173.22C235.521 173.54 236.015 173.913 236.388 174.34C236.761 174.753 236.948 175.287 236.948 175.94ZM244.659 178.78C244.166 178.993 243.499 179.1 242.659 179.1C240.352 179.1 239.199 177.947 239.199 175.64V171H237.739V168.86H239.199V166.46H242.119V168.86H244.479V171H242.119V175.66C242.119 176.02 242.219 176.293 242.419 176.48C242.632 176.667 242.906 176.76 243.239 176.76C243.772 176.76 244.246 176.627 244.659 176.36V178.78ZM250.174 177C250.587 177 250.907 176.873 251.134 176.62C251.361 176.367 251.474 176.02 251.474 175.58V174.84H250.534C250.041 174.84 249.661 174.947 249.394 175.16C249.127 175.373 248.994 175.647 248.994 175.98C248.994 176.66 249.387 177 250.174 177ZM251.614 177.76C251.187 178.627 250.347 179.06 249.094 179.06C248.107 179.06 247.334 178.78 246.774 178.22C246.227 177.66 245.954 176.96 245.954 176.12C245.954 175.147 246.307 174.393 247.014 173.86C247.734 173.313 248.794 173.04 250.194 173.04H251.474V172.34C251.474 171.487 250.907 171.06 249.774 171.06C248.681 171.06 247.667 171.367 246.734 171.98V169.36C247.534 168.907 248.687 168.68 250.194 168.68C251.634 168.68 252.707 168.993 253.414 169.62C254.121 170.233 254.474 171.193 254.474 172.5V179H251.614V177.76ZM259.666 179H256.746L256.766 168.86H259.666V170.74C259.853 170.153 260.16 169.687 260.586 169.34C261.026 168.98 261.533 168.8 262.106 168.8C262.426 168.8 262.68 168.827 262.866 168.88V171.64C262.546 171.493 262.18 171.42 261.766 171.42C261.14 171.42 260.633 171.653 260.246 172.12C259.86 172.573 259.666 173.18 259.666 173.94V179ZM270.089 178.78C269.595 178.993 268.929 179.1 268.089 179.1C265.782 179.1 264.629 177.947 264.629 175.64V171H263.169V168.86H264.629V166.46H267.549V168.86H269.909V171H267.549V175.66C267.549 176.02 267.649 176.293 267.849 176.48C268.062 176.667 268.335 176.76 268.669 176.76C269.202 176.76 269.675 176.627 270.089 176.36V178.78ZM284.844 178.42C284.15 178.873 283.09 179.1 281.664 179.1C279.997 179.1 278.697 178.62 277.764 177.66C276.844 176.687 276.384 175.44 276.384 173.92C276.384 172.307 276.83 171.047 277.724 170.14C278.63 169.22 279.744 168.76 281.064 168.76C282.424 168.76 283.497 169.16 284.284 169.96C285.07 170.747 285.464 171.927 285.464 173.5C285.464 173.807 285.41 174.333 285.304 175.08H279.344C279.544 175.64 279.89 176.073 280.384 176.38C280.877 176.687 281.47 176.84 282.164 176.84C283.19 176.84 284.084 176.553 284.844 175.98V178.42ZM281.184 170.98C280.717 170.98 280.304 171.153 279.944 171.5C279.584 171.833 279.344 172.333 279.224 173H282.744V172.76C282.65 171.573 282.13 170.98 281.184 170.98ZM291.268 177C291.681 177 292.001 176.873 292.228 176.62C292.454 176.367 292.568 176.02 292.568 175.58V174.84H291.628C291.134 174.84 290.754 174.947 290.488 175.16C290.221 175.373 290.088 175.647 290.088 175.98C290.088 176.66 290.481 177 291.268 177ZM292.708 177.76C292.281 178.627 291.441 179.06 290.188 179.06C289.201 179.06 288.428 178.78 287.868 178.22C287.321 177.66 287.048 176.96 287.048 176.12C287.048 175.147 287.401 174.393 288.108 173.86C288.828 173.313 289.888 173.04 291.288 173.04H292.568V172.34C292.568 171.487 292.001 171.06 290.868 171.06C289.774 171.06 288.761 171.367 287.828 171.98V169.36C288.628 168.907 289.781 168.68 291.288 168.68C292.728 168.68 293.801 168.993 294.508 169.62C295.214 170.233 295.568 171.193 295.568 172.5V179H292.708V177.76ZM300.76 179H297.84L297.86 168.86H300.76V170.74C300.947 170.153 301.253 169.687 301.68 169.34C302.12 168.98 302.627 168.8 303.2 168.8C303.52 168.8 303.773 168.827 303.96 168.88V171.64C303.64 171.493 303.273 171.42 302.86 171.42C302.233 171.42 301.727 171.653 301.34 172.12C300.953 172.573 300.76 173.18 300.76 173.94V179ZM314.563 179H311.643V172.96C311.643 172.36 311.503 171.907 311.223 171.6C310.943 171.28 310.549 171.12 310.043 171.12C309.509 171.12 309.063 171.333 308.703 171.76C308.356 172.173 308.183 172.8 308.183 173.64V179H305.263V168.86H308.183V170.58C308.436 170.02 308.823 169.58 309.342 169.26C309.876 168.927 310.509 168.76 311.243 168.76C312.283 168.76 313.096 169.073 313.683 169.7C314.269 170.313 314.563 171.22 314.563 172.42V179ZM319.884 179H316.964V168.86H319.884V179ZM319.624 164.72C319.957 165.053 320.124 165.453 320.124 165.92C320.124 166.387 319.957 166.787 319.624 167.12C319.291 167.453 318.891 167.62 318.424 167.62C317.957 167.62 317.557 167.453 317.224 167.12C316.891 166.787 316.724 166.387 316.724 165.92C316.724 165.453 316.891 165.053 317.224 164.72C317.557 164.387 317.957 164.22 318.424 164.22C318.891 164.22 319.291 164.387 319.624 164.72ZM331.691 179H328.771V172.96C328.771 172.36 328.631 171.907 328.351 171.6C328.071 171.28 327.678 171.12 327.171 171.12C326.638 171.12 326.191 171.333 325.831 171.76C325.485 172.173 325.311 172.8 325.311 173.64V179H322.391V168.86H325.311V170.58C325.565 170.02 325.951 169.58 326.471 169.26C327.005 168.927 327.638 168.76 328.371 168.76C329.411 168.76 330.225 169.073 330.811 169.7C331.398 170.313 331.691 171.22 331.691 172.42V179ZM343.393 178.02C343.393 179.647 342.906 180.867 341.933 181.68C340.96 182.507 339.74 182.92 338.273 182.92C336.846 182.92 335.6 182.667 334.533 182.16V179.18C335.466 179.927 336.613 180.3 337.973 180.3C338.853 180.3 339.493 180.113 339.893 179.74C340.293 179.367 340.493 178.78 340.493 177.98V177.3C339.906 178.207 338.973 178.66 337.693 178.66C336.573 178.66 335.606 178.247 334.793 177.42C333.993 176.593 333.593 175.367 333.593 173.74C333.593 172.3 333.98 171.113 334.753 170.18C335.54 169.233 336.566 168.76 337.833 168.76C339.033 168.76 339.92 169.24 340.493 170.2V168.86H343.393V178.02ZM336.633 173.76C336.633 174.6 336.793 175.24 337.113 175.68C337.433 176.12 337.893 176.34 338.493 176.34C339.12 176.34 339.606 176.107 339.953 175.64C340.313 175.16 340.493 174.587 340.493 173.92C340.493 172.107 339.833 171.2 338.513 171.2C337.926 171.2 337.466 171.427 337.133 171.88C336.8 172.333 336.633 172.96 336.633 173.76ZM360.132 173.88C360.132 175.413 359.692 176.68 358.812 177.68C357.946 178.667 356.732 179.16 355.172 179.16C353.586 179.16 352.359 178.687 351.492 177.74C350.626 176.78 350.192 175.553 350.192 174.06C350.192 172.5 350.646 171.22 351.552 170.22C352.459 169.207 353.666 168.7 355.172 168.7C356.746 168.7 357.966 169.187 358.832 170.16C359.699 171.133 360.132 172.373 360.132 173.88ZM353.712 171.82C353.392 172.367 353.232 173.073 353.232 173.94C353.232 174.807 353.392 175.52 353.712 176.08C354.046 176.627 354.539 176.9 355.192 176.9C355.832 176.9 356.306 176.633 356.612 176.1C356.932 175.553 357.092 174.847 357.092 173.98C357.092 171.993 356.446 171 355.152 171C354.512 171 354.032 171.273 353.712 171.82ZM371.34 179H368.42V172.96C368.42 172.36 368.28 171.907 368 171.6C367.72 171.28 367.327 171.12 366.82 171.12C366.287 171.12 365.84 171.333 365.48 171.76C365.133 172.173 364.96 172.8 364.96 173.64V179H362.04V168.86H364.96V170.58C365.213 170.02 365.6 169.58 366.12 169.26C366.653 168.927 367.287 168.76 368.02 168.76C369.06 168.76 369.873 169.073 370.46 169.7C371.047 170.313 371.34 171.22 371.34 172.42V179ZM376.661 179H373.741V164.86H376.661V179ZM382.189 179H379.269V168.86H382.189V179ZM381.929 164.72C382.262 165.053 382.429 165.453 382.429 165.92C382.429 166.387 382.262 166.787 381.929 167.12C381.595 167.453 381.195 167.62 380.729 167.62C380.262 167.62 379.862 167.453 379.529 167.12C379.195 166.787 379.029 166.387 379.029 165.92C379.029 165.453 379.195 165.053 379.529 164.72C379.862 164.387 380.262 164.22 380.729 164.22C381.195 164.22 381.595 164.387 381.929 164.72ZM393.996 179H391.076V172.96C391.076 172.36 390.936 171.907 390.656 171.6C390.376 171.28 389.983 171.12 389.476 171.12C388.943 171.12 388.496 171.333 388.136 171.76C387.789 172.173 387.616 172.8 387.616 173.64V179H384.696V168.86H387.616V170.58C387.869 170.02 388.256 169.58 388.776 169.26C389.309 168.927 389.943 168.76 390.676 168.76C391.716 168.76 392.529 169.073 393.116 169.7C393.703 170.313 393.996 171.22 393.996 172.42V179ZM404.258 178.42C403.564 178.873 402.504 179.1 401.078 179.1C399.411 179.1 398.111 178.62 397.178 177.66C396.258 176.687 395.798 175.44 395.798 173.92C395.798 172.307 396.244 171.047 397.138 170.14C398.044 169.22 399.158 168.76 400.478 168.76C401.838 168.76 402.911 169.16 403.698 169.96C404.484 170.747 404.878 171.927 404.878 173.5C404.878 173.807 404.824 174.333 404.718 175.08H398.758C398.958 175.64 399.304 176.073 399.798 176.38C400.291 176.687 400.884 176.84 401.578 176.84C402.604 176.84 403.498 176.553 404.258 175.98V178.42ZM400.598 170.98C400.131 170.98 399.718 171.153 399.358 171.5C398.998 171.833 398.758 172.333 398.638 173H402.158V172.76C402.064 171.573 401.544 170.98 400.598 170.98ZM417.122 179H414.122L410.862 168.86H413.882L414.762 172.2C414.975 173.04 415.155 173.8 415.302 174.48C415.448 175.147 415.535 175.607 415.562 175.86L415.622 176.24C415.715 175.44 416.042 174.093 416.602 172.2L417.582 168.86H420.102L421.062 172.2C421.302 173.053 421.502 173.82 421.662 174.5C421.822 175.167 421.922 175.627 421.962 175.88L422.022 176.24C422.115 175.453 422.428 174.107 422.962 172.2L423.902 168.86H426.782L423.542 179H420.542L419.662 175.68C419.475 174.96 419.308 174.287 419.162 173.66C419.028 173.033 418.942 172.587 418.902 172.32L418.842 171.92C418.708 172.813 418.428 174.067 418.002 175.68L417.122 179ZM431.095 179H428.175V168.86H431.095V179ZM430.835 164.72C431.168 165.053 431.335 165.453 431.335 165.92C431.335 166.387 431.168 166.787 430.835 167.12C430.502 167.453 430.102 167.62 429.635 167.62C429.168 167.62 428.768 167.453 428.435 167.12C428.102 166.787 427.935 166.387 427.935 165.92C427.935 165.453 428.102 165.053 428.435 164.72C428.768 164.387 429.168 164.22 429.635 164.22C430.102 164.22 430.502 164.387 430.835 164.72ZM439.522 178.78C439.029 178.993 438.362 179.1 437.522 179.1C435.216 179.1 434.062 177.947 434.062 175.64V171H432.602V168.86H434.062V166.46H436.982V168.86H439.342V171H436.982V175.66C436.982 176.02 437.082 176.293 437.282 176.48C437.496 176.667 437.769 176.76 438.102 176.76C438.636 176.76 439.109 176.627 439.522 176.36V178.78ZM450.617 179H447.697V173C447.697 172.413 447.551 171.953 447.257 171.62C446.964 171.287 446.584 171.12 446.117 171.12C445.917 171.12 445.724 171.153 445.537 171.22C445.364 171.273 445.171 171.38 444.957 171.54C444.744 171.687 444.571 171.947 444.437 172.32C444.304 172.68 444.237 173.12 444.237 173.64V179H441.317V164.86H444.237V170.58C444.757 169.367 445.771 168.76 447.277 168.76C448.264 168.76 449.064 169.073 449.677 169.7C450.304 170.327 450.617 171.273 450.617 172.54V179ZM465.879 178.42C465.185 178.873 464.125 179.1 462.699 179.1C461.032 179.1 459.732 178.62 458.799 177.66C457.879 176.687 457.419 175.44 457.419 173.92C457.419 172.307 457.865 171.047 458.759 170.14C459.665 169.22 460.779 168.76 462.099 168.76C463.459 168.76 464.532 169.16 465.319 169.96C466.105 170.747 466.499 171.927 466.499 173.5C466.499 173.807 466.445 174.333 466.339 175.08H460.379C460.579 175.64 460.925 176.073 461.419 176.38C461.912 176.687 462.505 176.84 463.199 176.84C464.225 176.84 465.119 176.553 465.879 175.98V178.42ZM462.219 170.98C461.752 170.98 461.339 171.153 460.979 171.5C460.619 171.833 460.379 172.333 460.259 173H463.779V172.76C463.685 171.573 463.165 170.98 462.219 170.98ZM472.303 177C472.716 177 473.036 176.873 473.263 176.62C473.489 176.367 473.603 176.02 473.603 175.58V174.84H472.663C472.169 174.84 471.789 174.947 471.523 175.16C471.256 175.373 471.123 175.647 471.123 175.98C471.123 176.66 471.516 177 472.303 177ZM473.743 177.76C473.316 178.627 472.476 179.06 471.223 179.06C470.236 179.06 469.463 178.78 468.903 178.22C468.356 177.66 468.083 176.96 468.083 176.12C468.083 175.147 468.436 174.393 469.143 173.86C469.863 173.313 470.923 173.04 472.323 173.04H473.603V172.34C473.603 171.487 473.036 171.06 471.903 171.06C470.809 171.06 469.796 171.367 468.863 171.98V169.36C469.663 168.907 470.816 168.68 472.323 168.68C473.763 168.68 474.836 168.993 475.543 169.62C476.249 170.233 476.603 171.193 476.603 172.5V179H473.743V177.76ZM485.815 175.94C485.815 176.94 485.455 177.713 484.735 178.26C484.015 178.807 483.062 179.08 481.875 179.08C480.649 179.08 479.622 178.873 478.795 178.46V175.86C479.715 176.5 480.689 176.82 481.715 176.82C482.449 176.82 482.815 176.587 482.815 176.12C482.815 176 482.782 175.887 482.715 175.78C482.649 175.673 482.535 175.573 482.375 175.48C482.215 175.387 482.069 175.313 481.935 175.26C481.802 175.193 481.609 175.107 481.355 175C481.102 174.893 480.909 174.807 480.775 174.74C479.429 174.1 478.755 173.14 478.755 171.86C478.755 170.873 479.129 170.107 479.875 169.56C480.635 169.013 481.575 168.74 482.695 168.74C483.735 168.74 484.602 168.88 485.295 169.16V171.66C484.589 171.247 483.762 171.04 482.815 171.04C482.469 171.04 482.202 171.113 482.015 171.26C481.829 171.393 481.735 171.567 481.735 171.78C481.735 171.9 481.769 172.013 481.835 172.12C481.902 172.227 482.009 172.327 482.155 172.42C482.315 172.513 482.462 172.6 482.595 172.68C482.742 172.747 482.935 172.833 483.175 172.94C483.429 173.047 483.629 173.14 483.775 173.22C484.389 173.54 484.882 173.913 485.255 174.34C485.629 174.753 485.815 175.287 485.815 175.94ZM495.566 178.42C494.873 178.873 493.813 179.1 492.386 179.1C490.72 179.1 489.42 178.62 488.486 177.66C487.566 176.687 487.106 175.44 487.106 173.92C487.106 172.307 487.553 171.047 488.446 170.14C489.353 169.22 490.466 168.76 491.786 168.76C493.146 168.76 494.22 169.16 495.006 169.96C495.793 170.747 496.186 171.927 496.186 173.5C496.186 173.807 496.133 174.333 496.026 175.08H490.066C490.266 175.64 490.613 176.073 491.106 176.38C491.6 176.687 492.193 176.84 492.886 176.84C493.913 176.84 494.806 176.553 495.566 175.98V178.42ZM491.906 170.98C491.44 170.98 491.026 171.153 490.666 171.5C490.306 171.833 490.066 172.333 489.946 173H493.466V172.76C493.373 171.573 492.853 170.98 491.906 170.98Z" fill="black"/>
</svg>
