<svg width="834" height="861" viewBox="0 0 834 861" fill="none" xmlns="http://www.w3.org/2000/svg">
<path opacity="0.9" d="M557.77 480.647C557.341 480.076 546.952 476.725 534.587 473.146C522.222 469.566 511.849 466.542 511.486 466.407C511.084 466.258 515.801 451.567 521.97 433.706C528.124 415.884 533.777 398.793 534.546 395.735C535.849 390.494 536.034 390.242 537.933 391.542C539.5 392.627 540.102 392.484 540.715 390.833C541.178 389.585 540.75 388.145 539.717 387.349C538.619 386.484 538.19 384.676 538.63 382.504C540.951 370.816 553.378 327.936 571.341 269.89C578.521 246.587 578.931 243.259 574.424 243.556C572.369 243.664 517.917 228.729 480.329 217.715C467.44 213.941 456.117 210.885 455.017 210.889C453.916 210.893 448.472 214.827 442.916 219.681C430.086 230.812 421.75 237.108 416.352 239.685C412.223 241.679 412.038 241.931 409.849 249.683C408.588 254.07 405.388 264.423 402.664 272.755C390.676 309.387 372.682 374.062 367.374 399.479C366.114 405.468 364.66 412.348 364.091 414.747L363.086 419.183L345.416 414.597C327.786 410.026 327.746 410.011 326.363 407.071C324.642 403.318 322.694 402.641 318.756 404.615C312.776 407.525 287.066 423.129 286.281 424.258C285.866 424.882 287.881 432.041 290.749 440.112C293.602 448.223 300.323 473.065 305.622 495.319C310.897 517.518 318.675 547.286 322.876 561.393C327.051 575.444 332.898 595.977 335.795 606.807C344.538 639.406 348.259 645.549 355.201 639.057C357.165 637.221 359.92 636.09 363.065 635.883C365.733 635.728 371.378 634.708 375.761 633.632C381.555 632.21 383.882 632.111 384.373 633.255C384.753 634.083 386.25 635.234 387.618 635.742C389.913 636.593 390.193 636.331 390.65 633.248C391.102 630.302 392.298 629.051 399.217 624.474C412.153 615.9 449.112 588.121 460.887 578.109C467.586 572.397 472.564 568.977 473.986 569.093C475.68 569.217 476.046 568.849 475.464 567.58C474.603 565.703 478.243 562.062 497.233 545.934C503.581 540.55 513.901 531.372 520.002 525.667C526.103 519.962 532.317 514.94 533.647 514.563C535.429 514.08 536.235 513.142 536.564 511.02C537.036 507.898 552.713 487.243 555.638 485.901C557.529 485 558.8 481.945 557.77 480.647V480.647ZM541.872 491.282C539.216 494.739 536.974 497.571 536.809 497.647C536.643 497.723 531.932 492.769 526.297 486.603L516.061 475.432L520.326 476.281C526.843 477.6 547.092 483.876 546.868 484.48C546.749 484.802 544.528 487.825 541.872 491.282ZM531.568 503.625C530.885 503.738 530.341 503.353 530.218 502.575C530.105 501.892 530.712 501.613 531.517 501.912C533.369 502.599 533.386 503.292 531.568 503.625V503.625ZM522.637 506.22C516.182 502.634 489.477 482.652 466.139 463.964C444.322 446.482 442.634 444.985 419.227 422.654L404.378 408.49L405.336 403.808C405.885 401.218 406.611 399.014 407.012 398.797C407.398 398.619 411.82 402.87 416.779 408.145C434.328 426.883 460.832 449.63 494.394 474.584C507.953 484.697 514.329 490.223 520.742 497.502C529.536 507.497 530.185 510.439 522.637 506.22V506.22ZM515.231 520.875C504.171 531.06 484.675 547.687 484.072 547.463C483.79 547.358 476.811 539.136 468.494 529.09C460.176 519.043 444.828 501.533 434.264 490.012C423.715 478.451 415.739 469.584 416.48 470.179C417.22 470.774 423.341 476.251 430.091 482.373C449.96 500.415 481.562 525.466 487.672 528.007C492.428 530.001 493.146 530.038 494.145 528.21C495.433 525.849 494.256 524.084 482.147 510.433C477.854 505.588 474.639 501.785 474.921 501.89C475.203 501.994 479.35 505.136 484.076 508.813C493.238 515.967 503.474 521.459 506.31 520.725C511.01 519.538 504.832 510.514 482.195 485.491C476.05 478.724 471.817 473.718 472.824 474.458C473.832 475.199 482.262 481.486 491.603 488.524C500.96 495.521 512.009 503.513 516.29 506.292C520.531 509.056 523.903 511.818 523.679 512.422C523.4 513.051 519.589 516.904 515.231 520.875V520.875ZM517.491 486.267C514.483 484.006 510.198 480.126 507.877 477.617C487.149 455.226 435.798 408.972 416.951 395.706L409.253 390.286L411.142 384.208C412.996 378.347 413.11 378.161 415.056 379.707C421.687 384.915 482.284 445.132 499.658 463.851C502.674 467.077 505.19 470.666 505.208 471.726C505.223 472.922 505.999 473.668 507.1 473.664C508.758 473.639 524.454 489.72 523.309 490.211C523.089 490.313 520.484 488.568 517.491 486.267V486.267ZM490.906 510.156C479.101 501.609 449.341 475.913 429.933 457.493C419.914 447.96 408.534 437.281 404.567 433.656L397.357 427.043L399.926 420.119L402.494 413.195L410.875 421.342C415.52 425.858 425.961 435.365 434.233 442.693C456.363 462.169 484.81 491.774 500.111 511.143L504.866 517.212L501.501 516.284C499.629 515.773 494.845 512.991 490.906 510.156V510.156ZM475.17 555.656C472.655 557.745 470.475 559.547 470.35 559.638C470.21 559.769 457.579 546.29 442.228 529.649C426.902 513.064 401.349 486.273 385.438 470.158C358.319 442.649 347.848 431.619 351.637 434.491C373.113 450.793 410.773 482.351 436.182 505.333C454.326 521.727 480.826 549.052 480.199 550.743C479.934 551.332 477.701 553.526 475.17 555.656V555.656ZM505.891 464.332C505.73 464.272 498.558 456.94 490.024 448.095C481.49 439.25 469.562 427.086 463.566 421.152C457.57 415.218 452.874 410.224 453.094 410.122C454.088 409.667 504.68 455.868 506.772 459.117C507.586 460.381 506.857 464.69 505.891 464.332V464.332ZM508.84 452.557C508.558 452.452 504.702 447.908 500.2 442.391C495.739 436.888 477.072 416.224 458.705 396.358C440.337 376.492 425.827 360.301 426.37 360.319C430.074 360.457 480.867 405.13 500.402 425.429C510.878 436.323 513.17 439.28 512.786 441.427C512.196 445.238 509.484 452.796 508.84 452.557V452.557ZM467.712 508.237C446.626 491.255 432.455 478.716 405.343 453.041C385.235 434.041 382.037 430.564 385.146 431.443C387.178 432.014 390.606 432.278 392.681 431.994C396.418 431.549 396.645 431.679 410.248 444.511C437.284 470.02 448.434 481.072 466.599 500.497C476.658 511.281 484.377 520.099 483.659 520.061C482.965 520.078 475.82 514.772 467.712 508.237V508.237ZM500.03 412.606C484.956 391.763 464.295 366.97 444.108 345.467C438.388 339.407 434.088 334.331 434.474 334.154C435.689 333.597 486.225 376.617 518.242 405.486L522.633 409.451L520.818 416.196C519.811 419.898 518.187 425.387 517.177 428.355L515.352 433.769L500.03 412.606ZM456.022 572.457C451.843 575.945 448.074 578.576 447.55 578.382C442.317 576.441 344.066 477.982 346.329 476.944C347.985 476.184 413.63 534.519 436.883 557.388C448.522 568.85 450.643 570.416 451.524 568.041C452.166 566.31 393.532 505.493 357.296 470.342C345.007 458.41 334.345 447.401 333.636 445.856C332.33 443.082 332.33 443.082 335.16 444.956C340.928 448.79 380.774 481.617 396.991 495.922C415.083 511.839 439.25 534.59 456.573 551.962C466.655 562.068 467.251 562.93 465.472 564.514C464.395 565.443 460.201 568.97 456.022 572.457V572.457ZM520.788 399.241C511.628 388.011 476.318 347.525 462.101 331.901C453.283 322.218 446.174 314.222 446.233 314.061C446.771 312.612 493.767 350.609 514.814 369.546L530.336 383.503L529.156 387.919C528.546 390.303 527.115 394.901 526.09 397.91L524.205 403.485L520.788 399.241ZM531.569 376.724C531.408 376.664 524.391 369.161 515.841 359.99C507.371 350.848 491.263 334.522 480.144 323.756C457.84 302.155 445.771 289.755 446.559 289.36C447.552 288.904 465.861 302.017 481.397 314.329C497.846 327.393 514.722 341.897 526.465 353.077C530.52 356.963 534.45 360.07 535.239 360.042C536.666 360.022 536.544 360.846 532.695 373.936C532.193 375.536 531.69 376.769 531.569 376.724V376.724ZM535.634 357.99C524.056 343.894 514.077 332.773 488.415 305.164C471.249 286.751 457.481 271.522 457.757 271.395C458.089 271.243 476.161 284.497 498.054 300.908C519.947 317.32 538.928 331.46 540.323 332.389C542.409 333.804 542.658 334.859 541.812 338.621C539.026 350.822 536.416 358.967 535.634 357.99V357.99ZM543.337 329.203C542.732 328.612 536.046 322.193 528.452 314.888C520.898 307.597 502.796 291.585 488.425 279.338C465.189 259.635 453.946 249.327 454.379 248.16C454.469 247.918 461.262 251.95 469.431 257.087C493.556 272.174 516.92 289.681 536.728 307.516C548.741 318.339 548.503 317.747 545.565 326.778C544.764 329.183 544.073 329.934 543.337 329.203V329.203ZM549.23 313.071C549.069 313.011 542.851 306.811 535.347 299.264C527.843 291.718 512.661 277.338 501.468 267.141C490.261 256.984 481.412 248.617 481.703 248.45C482.476 248.096 508.044 267.932 529.212 285.31C539.71 293.922 548.988 301.257 549.793 301.555C550.598 301.854 551.626 301.182 552.014 300.136C552.627 298.485 548.472 294.746 525.452 276.313C510.489 264.305 488.851 247.576 477.489 239.193L456.807 223.964L457.664 220.664C458.146 218.873 458.698 217.384 458.859 217.444C459.035 217.463 469.821 220.732 482.745 224.657L506.279 231.831L522.114 246.178C536.75 259.438 559.405 282.681 556.945 281.906C556.367 281.737 550.075 277.342 543.006 272.201C505.672 245.07 469.377 223.04 468.048 226.623C467.883 227.066 473.681 230.819 481.013 235.005C488.344 239.19 498.945 245.55 504.677 249.234C515.914 256.471 556.525 285.139 557.046 286.203C557.223 286.589 556.104 291.211 554.484 296.564C550.423 310.72 549.593 313.205 549.23 313.071V313.071ZM549.864 269.021C544.422 263.201 534.86 253.791 528.493 247.994C522.14 242.157 517.138 237.37 517.359 237.269C517.966 236.991 533.419 246.937 549.317 257.781C564.339 268.025 563.733 267.067 560.835 276.113L559.741 279.555L549.864 269.021ZM563.906 263.514C563.624 263.409 556.809 258.82 548.708 253.25C540.608 247.68 532.141 242.112 529.875 240.813C527.568 239.5 526.047 238.294 526.473 238.132C526.9 237.969 536.532 240.398 547.865 243.549C568.459 249.266 568.5 249.281 568.14 251.483C567.549 254.928 564.47 263.723 563.906 263.514V263.514ZM413.767 604.638C401.175 613.889 390.197 621.631 389.403 621.795C388.5 622.009 387.398 620.41 386.514 617.609C385.701 615.109 382.134 605.222 378.481 595.44C374.828 585.658 372.11 577.185 372.379 576.46C372.827 575.253 371.175 566.992 368.824 558.884C368.096 556.278 368.641 556.663 373.031 561.864C375.801 565.136 381.129 571.143 384.651 575.106C391.79 583.021 392.449 584.822 386.331 579.713C374.33 569.72 372.428 576.204 383.023 590.851C386.361 595.432 389.189 599.413 389.396 599.718C389.563 600.009 388.565 600.601 387.235 600.977C382.982 602.193 384.239 605.224 389.713 606.888C399.02 609.7 400.322 605.695 393.253 596.112C385.871 586.137 386.071 585.845 395.217 593.039C405.648 601.214 408.663 602.47 409.375 599.07C409.765 597.154 406.488 592.778 393.354 577.693C384.236 567.212 376.929 558.639 377.095 558.563C377.261 558.488 384.912 564.898 394.156 572.816C412.433 588.481 415.521 590.405 416.341 586.588C416.772 584.687 413.511 580.638 399.675 565.841C390.191 555.728 382.79 547.533 383.167 547.627C383.786 547.811 415.684 575.398 425.429 584.189C431.403 589.565 433.053 590.177 433.686 587.115C434.101 585.254 429.49 580.154 407.679 558.461C383.78 534.619 370.615 520.851 374.394 523.626C380.48 528.083 434.602 573.166 439.921 578.208L443.99 582.053L440.347 584.96C438.312 586.495 426.358 595.387 413.767 604.638V604.638ZM470.265 449.878C461.471 442.723 449.883 432.974 444.449 428.119C433.63 418.518 416.893 401.913 417.665 401.558C418.328 401.254 438.623 417.897 451.937 429.66C466.727 442.75 487.4 462.326 486.753 462.59C486.462 462.757 479.06 457.034 470.265 449.878V449.878ZM484.753 432.676C473.651 422.237 436.58 389.707 425.139 380.425L414.626 371.854L416.382 365.269C417.359 361.648 418.358 358.584 418.62 358.497C418.881 358.411 420.495 360.109 422.12 362.269C423.786 364.444 440.353 382.497 458.922 402.438C477.491 422.379 492.428 438.775 492.138 438.941C491.876 439.028 488.494 436.17 484.753 432.676V432.676ZM483.231 368.637C461.51 349.542 432.979 326.088 430.241 325.073C428.389 324.386 428.559 322.571 431.436 311.731L432.899 306.183L445.635 319.747C459.88 334.924 504.091 385.49 503.388 385.778C503.193 385.935 494.12 378.172 483.231 368.637V368.637ZM490.891 408.849C470.843 389.687 428.306 353.619 423.798 351.946C421.141 350.96 421.135 347.89 423.769 339.433C425.051 335.237 426.199 331.771 426.24 331.786C426.924 332.04 465.686 375.318 472.166 383.034C482.067 394.859 494.557 410.942 494.318 411.586C494.283 411.802 492.721 410.581 490.891 408.849V408.849ZM493.158 293.367C458.492 267.317 451.344 262.513 450.582 264.566C449.686 266.981 456.898 275.564 484.631 304.996C500.334 321.675 512.97 335.385 512.75 335.487C512.529 335.588 508.784 332.596 504.363 328.712C482.733 309.742 447.03 283.398 442.98 283.453C439.909 283.459 440.082 286.82 443.451 291.688C445.123 294.094 457.137 306.52 470.092 319.249C493.425 342.148 508.046 357.052 504.499 354.27C503.506 353.49 492.978 344.959 481.114 335.337C469.266 325.674 453.982 313.913 447.211 309.203C435.131 300.783 434.894 300.558 435.546 297.319C436.104 294.458 448.097 252.378 449.172 249.48C449.411 248.835 452.163 251.047 455.26 254.303C458.397 257.573 469.952 267.905 480.955 277.254C503.108 296.051 527.986 318.241 527.269 318.57C527.103 318.646 511.751 307.318 493.158 293.367V293.367ZM438.92 502.273C430.491 493.146 363.814 437.589 347.225 425.893C340.363 421.057 336.656 420.186 337.855 423.745C338.784 426.425 352.434 441.106 381.258 470.439C419.724 509.577 422.074 512.006 421.578 512.234C421.261 512.345 416.165 507.936 410.206 502.519C393.639 487.306 362.248 460.822 345.851 448.235C337.758 442.027 331.015 436.503 330.817 435.926C329.513 432.282 325.419 415.788 325.791 415.651C326.217 415.489 354.812 422.846 368.515 426.647C375.527 428.607 376.69 429.176 376.197 430.505C375.54 432.276 388.613 447.155 421.592 482.197C432.978 494.343 442.149 504.432 441.818 504.584C441.542 504.711 440.207 503.62 438.92 502.273ZM504.039 276.383C486.036 263.064 463.945 248.915 454.467 244.712L450.974 243.141L453.072 236.5C454.697 231.379 455.446 230.1 456.329 230.931C461.138 235.371 503.083 273.281 506.818 276.545C513.301 282.155 511.727 282.075 504.039 276.383ZM368.645 543.567C360.394 536.797 358.931 535.063 357.427 530.475L355.73 525.175L362.703 533.166C366.563 537.574 371.659 543.22 374.085 545.815C376.511 548.409 378.419 550.674 378.314 550.956C378.2 551.142 373.841 547.831 368.645 543.567V543.567ZM370.534 513.539C362.329 506.648 354.664 500.644 353.577 500.241C351.041 499.3 349.897 502.631 351.607 505.922C352.335 507.291 358.225 514.376 364.788 521.62C371.352 528.864 375.888 534.164 374.911 533.344C373.933 532.523 369.321 528.66 364.805 524.786C360.273 520.952 355.678 517.416 354.752 517.072C353.343 516.549 344.175 488.922 342.831 481.187C342.687 480.218 348.668 486.192 356.135 494.458C363.616 502.683 373.468 513.162 378.017 517.689C382.525 522.201 386.121 525.962 385.901 526.063C385.67 526.069 378.74 520.43 370.534 513.539V513.539ZM381.521 501.083C376.415 496.578 364.741 486.568 355.386 478.701C341.036 466.645 338.237 463.821 337.144 460.347C336.418 458.108 336.159 456.089 336.546 455.912C336.932 455.734 344.984 463.164 354.338 472.267C378.977 496.337 391.504 508.862 391.117 509.039C390.897 509.14 386.562 505.517 381.521 501.083V501.083ZM389.749 427.06C388.943 426.761 388.383 426.049 388.577 425.526C388.771 425.003 389.571 425.07 390.256 425.691C390.942 426.312 391.502 427.023 391.428 427.225C391.353 427.426 390.554 427.358 389.749 427.06ZM397.461 406.519C397.259 406.444 396.763 405.436 396.378 404.377C395.834 402.756 396.019 402.504 397.348 402.997C398.274 403.34 398.744 404.293 398.431 405.139C398.132 405.944 397.702 406.609 397.461 406.519ZM396.253 386.196C393.648 381.245 391.49 376.322 391.486 375.222C391.467 374.161 393.17 376.854 395.291 381.259C397.412 385.664 399.814 389.806 400.701 390.502C401.613 391.252 402.02 392.502 401.661 393.468C401.188 394.621 399.345 392.059 396.253 386.196V386.196ZM401.121 374.308C398.017 368.852 395.451 361.076 394.793 355.199C394.591 353.521 396.447 356.912 398.91 362.863C401.373 368.815 404.004 373.821 404.809 374.12C405.655 374.433 405.855 375.744 405.288 377.274L404.317 379.89L401.121 374.308ZM405.507 355.327C403.147 351.566 400.907 346.247 400.449 343.284C399.4 336.483 401.247 338.542 404.743 348.128C406.21 352.199 408.079 356.419 408.933 357.697C409.761 358.92 410.294 360.446 410.085 361.01C409.916 361.588 407.867 359.088 405.507 355.327V355.327ZM411.239 341.975C410.08 339.667 408.457 335.401 407.603 332.52C406.565 329.021 406.965 329.672 408.856 334.45C410.408 338.415 412.33 341.875 413.135 342.174C413.9 342.458 414.285 343.517 413.927 344.483C413.449 345.771 412.829 345.22 411.239 341.975ZM415.178 322.965C413.432 319.524 411.539 314.379 411.022 311.577L410.105 306.519L413.176 313.795C414.888 317.82 417.011 321.355 417.897 321.684C419.668 322.341 420.016 324.119 419.002 327.223C418.555 328.797 417.718 327.846 415.178 322.965V322.965ZM375.351 422.909C374.224 422.491 373.744 421.809 374.261 421.405C374.832 420.976 375.777 421.144 376.463 421.764C378.313 423.321 377.807 423.82 375.351 422.909V422.909ZM440.865 243.604C440.258 241.043 441.139 238.668 442.209 239.981C442.653 240.512 442.643 242.02 442.18 243.268C441.453 245.104 441.192 245.191 440.865 243.604ZM380.601 396.784C379.877 396.515 379.666 389.43 380.359 387.809C380.593 387.301 381.337 388.63 382.053 390.773C383.241 394.237 382.453 397.471 380.601 396.784V396.784ZM328.899 512.198C326.666 508.713 324.896 505.584 325 505.302C325.478 504.014 331.463 511.088 332.686 514.335C334.827 520.167 333.467 519.388 328.899 512.198ZM415.66 292.781C414.693 292.422 412.756 284.559 413.294 283.11C413.563 282.385 416.853 292.033 416.675 292.883C416.615 293.044 416.223 292.99 415.66 292.781ZM387.635 364.863C386.897 365.001 386.708 364.153 387.156 362.945C387.619 361.697 388.301 361.217 388.77 361.803C389.24 362.39 389.458 363.158 389.249 363.721C389.055 364.245 388.414 364.74 387.635 364.863ZM324.852 494.714C320.775 489.904 320.278 488.528 323.696 491.537C327.391 494.785 329.228 497.116 328.855 498.122C328.675 498.605 326.891 497.119 324.852 494.714V494.714ZM320.194 510.48C318.958 510.479 317.762 507.654 316.212 501.217C313.1 488.247 313.1 488.247 316.595 493.024C318.791 495.991 319.522 498.094 318.94 499.664C318.477 500.912 318.939 503.74 319.937 505.988C320.935 508.236 321.821 510.167 321.872 510.278C321.882 510.373 321.104 510.497 320.194 510.48V510.48ZM309.769 474.143C309.3 473.556 309.09 472.517 309.299 471.953C309.538 471.309 310.112 471.614 310.754 472.722C311.937 474.718 311.137 475.887 309.769 474.143ZM319.635 428.663C319.18 428.037 318.956 427.037 319.165 426.474C319.404 425.83 319.978 426.134 320.62 427.243C321.803 429.239 320.963 430.392 319.635 428.663Z" fill="black"/>
</svg>
