<svg width="20" height="21" viewBox="0 0 20 21" fill="none" xmlns="http://www.w3.org/2000/svg">
<g clip-path="url(#clip0_1_14375)">
<path d="M4 0.5C1.79446 0.5 0 2.29446 0 4.5V16.5C0 18.7055 1.79446 20.5 4 20.5H16C18.2055 20.5 20 18.7055 20 16.5V4.5C20 2.29415 18.2058 0.5 16 0.5H4ZM4 1.11538H16C17.8662 1.11538 19.3846 2.63385 19.3846 4.5V16.5C19.3846 18.3662 17.8662 19.8846 16 19.8846H4C2.13385 19.8846 0.615385 18.3662 0.615385 16.5V4.5C0.615385 2.63385 2.13385 1.11538 4 1.11538ZM4.8732 2.03786C3.03443 2.03786 1.53846 3.53383 1.53846 5.3726V15.6268C1.53846 17.4656 3.03443 18.9609 4.8732 18.9609H15.1274C16.9662 18.9609 18.4615 17.4656 18.4615 15.6268V9.88462C18.4615 9.79938 18.3926 9.73077 18.3077 9.73077C18.2228 9.73077 18.1538 9.79969 18.1538 9.88462V15.6268C18.1538 17.2957 16.7963 18.6538 15.1274 18.6538H4.8732C3.20427 18.6538 1.84615 17.2957 1.84615 15.6268V5.3726C1.84615 3.70367 3.20427 2.34555 4.8732 2.34555H15.2308C15.3157 2.34555 15.3846 2.27663 15.3846 2.19171C15.3846 2.10678 15.3157 2.03786 15.2308 2.03786H4.8732ZM18.3077 6.65385C18.2228 6.65385 18.1538 6.72246 18.1538 6.80769V7.42308C18.1538 7.508 18.2228 7.57692 18.3077 7.57692C18.3926 7.57692 18.4615 7.508 18.4615 7.42308V6.80769C18.4615 6.72277 18.3926 6.65385 18.3077 6.65385ZM18.3077 7.88462C18.2228 7.88462 18.1538 7.95354 18.1538 8.03846V9.26923C18.1538 9.35415 18.2228 9.42308 18.3077 9.42308C18.3926 9.42308 18.4615 9.35415 18.4615 9.26923V8.03846C18.4615 7.95323 18.3926 7.88462 18.3077 7.88462Z" fill="black"/>
<path d="M4.71699 5.54004C3.74148 5.54004 2.94699 6.33453 2.94699 7.31004V15.098C2.94699 15.6824 3.4246 16.16 4.00899 16.16H6.30999C6.35693 16.16 6.40195 16.1414 6.43514 16.1082C6.46834 16.075 6.48699 16.03 6.48699 15.983V10.8663L9.74386 13.2928C9.77572 13.3158 9.81282 13.328 9.84999 13.328C9.88716 13.328 9.92253 13.3175 9.95439 13.2945L13.213 10.9413V15.983C13.213 16.03 13.2316 16.075 13.2648 16.1082C13.298 16.1414 13.3431 16.16 13.39 16.16H15.691C16.2754 16.16 16.753 15.6824 16.753 15.098V7.31004C16.753 6.33453 15.9585 5.54004 14.983 5.54004H14.9813C14.6115 5.54004 14.2354 5.65645 13.9172 5.89611L9.84999 8.96112L5.78279 5.89611C5.46455 5.65645 5.08851 5.54004 4.71872 5.54004H4.71699ZM4.71699 5.89404H4.71872C5.01445 5.89404 5.3146 5.98668 5.56984 6.1789L6.13299 6.60342V10.2703L3.30099 8.15943V7.31004C3.30099 6.52581 3.93276 5.89404 4.71699 5.89404ZM14.9813 5.89404H14.983C15.7672 5.89404 16.399 6.52581 16.399 7.31004V8.15943L13.567 10.2703V6.60342L14.1301 6.1789C14.3854 5.98668 14.6855 5.89404 14.9813 5.89404ZM6.30999 6.73652L9.71966 9.30613C9.75155 9.33951 9.79522 9.35911 9.84135 9.36075C9.84434 9.36094 9.84734 9.36106 9.85034 9.3611C9.87431 9.36128 9.89807 9.3566 9.92017 9.34733C9.94228 9.33806 9.96227 9.32439 9.97894 9.30717L13.39 6.73652V10.3761L9.85172 12.9315L6.30999 10.3757V6.73652ZM12.7722 7.88978C12.7523 7.88965 12.733 7.89623 12.7173 7.90845L11.6694 8.69769C11.6601 8.7047 11.6523 8.71348 11.6464 8.72351C11.6405 8.73355 11.6367 8.74464 11.6351 8.75617C11.6335 8.76769 11.6341 8.77942 11.6371 8.79068C11.64 8.80195 11.6451 8.81252 11.6521 8.82181C11.6591 8.83109 11.6679 8.8389 11.678 8.8448C11.688 8.85069 11.6991 8.85455 11.7106 8.85615C11.7221 8.85776 11.7339 8.85708 11.7451 8.85415C11.7564 8.85122 11.767 8.8461 11.7762 8.83908L12.8237 8.04984C12.8388 8.03888 12.85 8.02343 12.8558 8.00572C12.8616 7.988 12.8616 7.96891 12.8559 7.95118C12.8502 7.93344 12.839 7.91795 12.824 7.90693C12.809 7.89591 12.7909 7.88991 12.7722 7.88978V7.88978ZM3.30099 8.38034L6.13299 10.4912V10.6367V10.673V15.806H4.00899C3.61598 15.806 3.30099 15.491 3.30099 15.098V8.38034ZM16.399 8.38034V15.098C16.399 15.491 16.084 15.806 15.691 15.806H13.567V10.6855V10.5908C13.5671 10.5887 13.5671 10.5866 13.567 10.5845V10.4912L16.399 8.38034ZM11.4416 8.89232C11.4217 8.89219 11.4023 8.89877 11.3866 8.91099L11.0721 9.1478C11.0626 9.15472 11.0546 9.16345 11.0485 9.17349C11.0425 9.18353 11.0385 9.19468 11.0367 9.20628C11.035 9.21788 11.0356 9.22971 11.0385 9.24107C11.0414 9.25244 11.0465 9.26311 11.0536 9.27248C11.0607 9.28185 11.0695 9.28972 11.0796 9.29564C11.0897 9.30156 11.1009 9.30541 11.1126 9.30696C11.1242 9.30852 11.136 9.30775 11.1473 9.3047C11.1587 9.30165 11.1693 9.29637 11.1785 9.28919L11.4931 9.05238C11.5082 9.04142 11.5194 9.02597 11.5252 9.00826C11.531 8.99054 11.531 8.97145 11.5253 8.95371C11.5196 8.93598 11.5084 8.92049 11.4934 8.90947C11.4784 8.89845 11.4602 8.89245 11.4416 8.89232V8.89232ZM8.518 9.09006C8.49969 9.09083 8.48207 9.09727 8.46757 9.10848C8.45307 9.11969 8.44241 9.13513 8.43706 9.15266C8.43171 9.17019 8.43194 9.18895 8.4377 9.20634C8.44347 9.22374 8.45449 9.23892 8.46925 9.24978L8.83155 9.52288C8.84082 9.53007 8.85142 9.53534 8.86275 9.53839C8.87407 9.54145 8.88589 9.54222 8.89751 9.54066C8.90914 9.53911 8.92034 9.53526 8.93046 9.52934C8.94058 9.52342 8.94943 9.51555 8.95648 9.50618C8.96354 9.49681 8.96866 9.48613 8.97155 9.47477C8.97445 9.4634 8.97505 9.45158 8.97334 9.43997C8.97162 9.42837 8.96761 9.41723 8.96155 9.40719C8.95549 9.39715 8.94749 9.38841 8.93803 9.38149L8.57573 9.10839C8.55924 9.09568 8.5388 9.08919 8.518 9.09006V9.09006ZM10.8442 9.34243C10.8244 9.3422 10.805 9.34865 10.7893 9.36075L10.1985 9.80602C10.1884 9.81271 10.1799 9.82138 10.1733 9.8315C10.1668 9.84162 10.1624 9.85296 10.1604 9.86485C10.1584 9.87673 10.1588 9.8889 10.1617 9.90061C10.1645 9.91231 10.1697 9.92331 10.177 9.93293C10.1843 9.94255 10.1934 9.95059 10.2039 9.95655C10.2144 9.9625 10.2259 9.96626 10.2379 9.96758C10.2499 9.9689 10.262 9.96777 10.2735 9.96424C10.2851 9.96071 10.2958 9.95487 10.3049 9.94706L10.8957 9.50214C10.9107 9.49113 10.9217 9.47571 10.9274 9.45806C10.9331 9.4404 10.9331 9.42141 10.9274 9.40376C10.9217 9.38611 10.9106 9.3707 10.8957 9.35969C10.8808 9.34869 10.8628 9.34265 10.8442 9.34243V9.34243ZM9.16308 9.57578C9.14468 9.57646 9.12695 9.58286 9.11236 9.59409C9.09777 9.60532 9.08704 9.62083 9.08168 9.63844C9.07632 9.65606 9.07658 9.6749 9.08243 9.69236C9.08829 9.70982 9.09944 9.72502 9.11434 9.73584L9.63012 10.1241C9.63931 10.1319 9.64999 10.1377 9.66152 10.1412C9.67304 10.1448 9.68516 10.1459 9.69714 10.1446C9.70912 10.1433 9.7207 10.1395 9.73118 10.1335C9.74166 10.1276 9.75081 10.1196 9.75807 10.1099C9.76533 10.1003 9.77055 10.0893 9.77341 10.0776C9.77627 10.0659 9.77671 10.0537 9.7747 10.0418C9.77269 10.03 9.76827 10.0186 9.76172 10.0085C9.75517 9.99838 9.74662 9.98971 9.7366 9.98302L9.22081 9.59445C9.20437 9.58161 9.18392 9.575 9.16308 9.57578V9.57578ZM3.91911 9.78666C3.90749 9.78684 3.89601 9.78931 3.88535 9.79392C3.87468 9.79854 3.86502 9.80521 3.85693 9.81355C3.84884 9.8219 3.84248 9.83176 3.8382 9.84257C3.83392 9.85337 3.83181 9.86492 3.83199 9.87654V11.1155C3.83183 11.1273 3.83399 11.1389 3.83836 11.1498C3.84274 11.1607 3.84923 11.1706 3.85747 11.1789C3.8657 11.1873 3.87551 11.1939 3.88633 11.1984C3.89715 11.203 3.90876 11.2053 3.92049 11.2053C3.93222 11.2053 3.94383 11.203 3.95465 11.1984C3.96547 11.1939 3.97528 11.1873 3.98352 11.1789C3.99175 11.1706 3.99824 11.1607 4.00262 11.1498C4.00699 11.1389 4.00916 11.1273 4.00899 11.1155V9.87654C4.00918 9.86468 4.00698 9.85291 4.00253 9.84192C3.99808 9.83094 3.99146 9.82095 3.98308 9.81257C3.97469 9.80419 3.96471 9.79757 3.95372 9.79312C3.94273 9.78867 3.93096 9.78647 3.91911 9.78666ZM3.91911 11.5567C3.90749 11.5568 3.89601 11.5593 3.88535 11.5639C3.87468 11.5685 3.86502 11.5752 3.85693 11.5836C3.84884 11.5919 3.84248 11.6018 3.8382 11.6126C3.83392 11.6234 3.83181 11.6349 3.83199 11.6465V11.8235C3.83183 11.8353 3.83399 11.8469 3.83836 11.8578C3.84274 11.8687 3.84923 11.8786 3.85747 11.8869C3.8657 11.8953 3.87551 11.9019 3.88633 11.9064C3.89715 11.911 3.90876 11.9133 3.92049 11.9133C3.93222 11.9133 3.94383 11.911 3.95465 11.9064C3.96547 11.9019 3.97528 11.8953 3.98352 11.8869C3.99175 11.8786 3.99824 11.8687 4.00262 11.8578C4.00699 11.8469 4.00916 11.8353 4.00899 11.8235V11.6465C4.00918 11.6347 4.00698 11.6229 4.00253 11.6119C3.99808 11.6009 3.99146 11.591 3.98308 11.5826C3.97469 11.5742 3.96471 11.5676 3.95372 11.5631C3.94273 11.5587 3.93096 11.5565 3.91911 11.5567ZM3.91911 12.2647C3.90749 12.2648 3.89601 12.2673 3.88535 12.2719C3.87468 12.2765 3.86502 12.2832 3.85693 12.2916C3.84884 12.2999 3.84248 12.3098 3.8382 12.3206C3.83392 12.3314 3.83181 12.3429 3.83199 12.3545V12.7085C3.83183 12.7203 3.83399 12.7319 3.83836 12.7428C3.84274 12.7537 3.84923 12.7636 3.85747 12.7719C3.8657 12.7803 3.87551 12.7869 3.88633 12.7914C3.89715 12.796 3.90876 12.7983 3.92049 12.7983C3.93222 12.7983 3.94383 12.796 3.95465 12.7914C3.96547 12.7869 3.97528 12.7803 3.98352 12.7719C3.99175 12.7636 3.99824 12.7537 4.00262 12.7428C4.00699 12.7319 4.00916 12.7203 4.00899 12.7085V12.3545C4.00918 12.3427 4.00698 12.3309 4.00253 12.3199C3.99808 12.3089 3.99146 12.299 3.98308 12.2906C3.97469 12.2822 3.96471 12.2756 3.95372 12.2711C3.94273 12.2667 3.93096 12.2645 3.91911 12.2647V12.2647ZM3.91911 13.1497C3.90749 13.1498 3.89601 13.1523 3.88535 13.1569C3.87468 13.1615 3.86502 13.1682 3.85693 13.1766C3.84884 13.1849 3.84248 13.1948 3.8382 13.2056C3.83392 13.2164 3.83181 13.2279 3.83199 13.2395V15.0095C3.83199 15.1551 3.9519 15.275 4.09749 15.275H5.33649C5.34822 15.2752 5.35986 15.273 5.37074 15.2687C5.38163 15.2643 5.39153 15.2578 5.39988 15.2496C5.40824 15.2413 5.41487 15.2315 5.41939 15.2207C5.42392 15.2099 5.42625 15.1983 5.42625 15.1865C5.42625 15.1748 5.42392 15.1632 5.41939 15.1524C5.41487 15.1416 5.40824 15.1317 5.39988 15.1235C5.39153 15.1153 5.38163 15.1088 5.37074 15.1044C5.35986 15.1 5.34822 15.0979 5.33649 15.098H4.09749C4.04767 15.098 4.00899 15.0594 4.00899 15.0095V13.2395C4.00918 13.2277 4.00698 13.2159 4.00253 13.2049C3.99808 13.1939 3.99146 13.184 3.98308 13.1756C3.97469 13.1672 3.96471 13.1606 3.95372 13.1561C3.94273 13.1517 3.93096 13.1495 3.91911 13.1497Z" fill="black"/>
</g>
<defs>
<clipPath id="clip0_1_14375">
<rect width="20" height="20" fill="white" transform="translate(0 0.5)"/>
</clipPath>
</defs>
</svg>
