<svg width="30" height="30" viewBox="0 0 30 30" fill="none" xmlns="http://www.w3.org/2000/svg">
<g clip-path="url(#clip0_59_151)">
<path d="M6 0C2.69169 0 0 2.69169 0 6V24C0 27.3083 2.69169 30 6 30H24C27.3083 30 30 27.3083 30 24V6C30 2.69169 27.3083 0 24 0H6ZM6 0.923077H24C26.7992 0.923077 29.0769 3.20077 29.0769 6V24C29.0769 26.7992 26.7992 29.0769 24 29.0769H6C3.20077 29.0769 0.923077 26.7992 0.923077 24V6C0.923077 3.20077 3.20077 0.923077 6 0.923077ZM7.3098 2.30769C4.55164 2.30769 2.30769 4.55164 2.30769 7.3098V22.6902C2.30769 25.4484 4.55164 27.6923 7.3098 27.6923H22.6911C25.4493 27.6923 27.6923 25.4484 27.6923 22.6902V14.0769C27.6923 13.9495 27.5889 13.8462 27.4615 13.8462C27.3342 13.8462 27.2308 13.9495 27.2308 14.0769V22.6902C27.2308 25.1936 25.1945 27.2308 22.6911 27.2308H7.3098C4.80641 27.2308 2.76923 25.1936 2.76923 22.6902V7.3098C2.76923 4.80641 4.80641 2.76923 7.3098 2.76923H22.8462C22.9735 2.76923 23.0769 2.66585 23.0769 2.53846C23.0769 2.41108 22.9735 2.30769 22.8462 2.30769H7.3098ZM15.9069 7.38462C14.7793 7.38554 13.906 7.68885 13.3125 8.28516C12.7448 8.85562 12.4578 9.65219 12.4615 10.6523L12.6923 10.6785H12.4615V12.4615H11.3077C11.1803 12.4615 11.0769 12.5649 11.0769 12.6923V15C11.0769 15.1274 11.1803 15.2308 11.3077 15.2308H12.4615V22.3846C12.4615 22.512 12.5649 22.6154 12.6923 22.6154H15.9231C16.0505 22.6154 16.1538 22.512 16.1538 22.3846V15.2308H17.8215C17.9346 15.2308 18.0307 15.1487 18.0487 15.037C18.0505 15.0259 18.2301 13.9108 18.3155 12.7085C18.3201 12.6444 18.2967 12.5821 18.2533 12.5355C18.2099 12.4884 18.1489 12.4615 18.0847 12.4615H15.6923V10.985C15.6928 10.8691 15.9108 10.6154 16.1277 10.6154H18.2308C18.3582 10.6154 18.4615 10.512 18.4615 10.3846V7.61538C18.4615 7.488 18.3582 7.38462 18.2308 7.38462H15.9069ZM15.9069 7.84615H18V10.1538H16.1277C15.692 10.1538 15.2308 10.5811 15.2308 10.985V12.6923C15.2308 12.8197 15.3337 12.9231 15.4615 12.9231H17.8359C17.7709 13.716 17.6726 14.4365 17.6232 14.7692H15.9231C15.7957 14.7692 15.6923 14.8726 15.6923 15V22.1538H12.9231V15C12.9231 14.8726 12.8197 14.7692 12.6923 14.7692H11.5385V12.9231H12.6923C12.8197 12.9231 12.9231 12.8197 12.9231 12.6923V10.6785V10.6505C12.9198 9.77731 13.1616 9.09194 13.6397 8.61148C14.1442 8.10471 14.9062 7.84754 15.9069 7.84615ZM27.4615 9.23077C27.3342 9.23077 27.2308 9.33415 27.2308 9.46154V10.3846C27.2308 10.512 27.3342 10.6154 27.4615 10.6154C27.5889 10.6154 27.6923 10.512 27.6923 10.3846V9.46154C27.6923 9.33415 27.5889 9.23077 27.4615 9.23077ZM27.4615 11.0769C27.3342 11.0769 27.2308 11.1803 27.2308 11.3077V13.1538C27.2308 13.2812 27.3342 13.3846 27.4615 13.3846C27.5889 13.3846 27.6923 13.2812 27.6923 13.1538V11.3077C27.6923 11.1803 27.5889 11.0769 27.4615 11.0769Z" fill="black"/>
</g>
<defs>
<clipPath id="clip0_59_151">
<rect width="30" height="30" fill="white"/>
</clipPath>
</defs>
</svg>
