<svg width="30" height="30" viewBox="0 0 30 30" fill="none" xmlns="http://www.w3.org/2000/svg">
<g clip-path="url(#clip0_59_153)">
<path d="M6 0C2.69169 0 0 2.69169 0 6V24C0 27.3083 2.69169 30 6 30H24C27.3083 30 30 27.3083 30 24V6C30 2.69123 27.3083 0 24 0H6ZM6 0.923077H24C26.7992 0.923077 29.0769 3.20077 29.0769 6V24C29.0769 26.7992 26.7992 29.0769 24 29.0769H6C3.20077 29.0769 0.923077 26.7992 0.923077 24V6C0.923077 3.20077 3.20077 0.923077 6 0.923077ZM7.3098 2.30679C4.55164 2.30679 2.30769 4.55074 2.30769 7.30889V22.6902C2.30769 25.4484 4.55164 27.6914 7.3098 27.6914H22.6902C25.4484 27.6914 27.6923 25.4484 27.6923 22.6902V14.0769C27.6923 13.9491 27.5889 13.8462 27.4615 13.8462C27.3342 13.8462 27.2308 13.9495 27.2308 14.0769V22.6902C27.2308 25.1936 25.1936 27.2308 22.6902 27.2308H7.3098C4.80641 27.2308 2.76923 25.1936 2.76923 22.6902V7.30889C2.76923 4.80551 4.80641 2.76833 7.3098 2.76833H22.8462C22.9735 2.76833 23.0769 2.66494 23.0769 2.53756C23.0769 2.41018 22.9735 2.30679 22.8462 2.30679H7.3098ZM14.7873 7.86508C12.9508 7.86508 12.7268 7.87009 12.0072 7.90655C11.3338 7.93563 10.8079 8.03538 10.3044 8.23107C9.80362 8.42399 9.41355 8.67754 9.03786 9.05138C8.66171 9.42523 8.40645 9.81362 8.21214 10.3107C8.01552 10.811 7.91445 11.3327 7.88492 12.0153C7.85399 12.7196 7.84345 12.9569 7.84345 14.7656C7.84345 16.591 7.84936 16.8141 7.88582 17.5285C7.91489 18.1982 8.01552 18.7207 8.21214 19.2215C8.40645 19.719 8.66171 20.1069 9.03786 20.4808C9.41355 20.8546 9.80362 21.1077 10.3044 21.3011C10.8075 21.4963 11.3335 21.5965 12.0216 21.6265C12.7301 21.657 12.9683 21.6671 14.7873 21.6671C16.6237 21.6671 16.8482 21.6621 17.5673 21.6256C18.2407 21.5965 18.7657 21.4968 19.2692 21.3011C19.7695 21.1082 20.1605 20.8546 20.5367 20.4808C20.9128 20.1069 21.1672 19.7185 21.3615 19.2215C21.5581 18.7211 21.6592 18.1989 21.6887 17.5186C21.7196 16.8143 21.7311 16.5771 21.7311 14.7665C21.7311 12.9407 21.7256 12.7176 21.6887 12.0036C21.6596 11.3335 21.5581 10.8115 21.3615 10.3107C21.1672 9.81316 20.9128 9.42433 20.5367 9.05048C20.1605 8.67663 19.7704 8.42445 19.2701 8.23107C18.7671 8.03584 18.241 7.93565 17.5529 7.90565C16.8444 7.87519 16.6062 7.86508 14.7873 7.86508ZM14.7882 8.32662C16.5969 8.32662 16.8335 8.33626 17.5484 8.36719C18.1701 8.39442 18.6497 8.48565 19.1043 8.66196C19.5423 8.83088 19.884 9.0514 20.2121 9.3777C20.5408 9.70447 20.7634 10.0436 20.9333 10.4784V10.4793C21.1105 10.9307 21.2013 11.4059 21.2281 12.0243C21.2645 12.7296 21.2704 12.9513 21.2704 14.7656C21.27 16.567 21.259 16.8016 21.2281 17.5087C21.2008 18.1258 21.1101 18.6024 20.9324 19.0538C20.7625 19.4881 20.5403 19.8277 20.2112 20.1544C19.8831 20.4808 19.5409 20.7013 19.1025 20.8702C18.6474 21.0465 18.1683 21.1382 17.5457 21.165C16.8354 21.201 16.6126 21.2055 14.7873 21.2055C12.978 21.2055 12.7415 21.1959 12.027 21.165C11.4054 21.1377 10.9258 21.0465 10.4712 20.8702C10.0327 20.7008 9.69143 20.4808 9.36328 20.1544C9.03467 19.8277 8.81244 19.4881 8.64213 19.0529C8.4649 18.601 8.37413 18.1254 8.34736 17.5069C8.31136 16.8012 8.30589 16.5799 8.30589 14.7656C8.30589 12.9665 8.31643 12.7324 8.34736 12.0234C8.37459 11.4064 8.46534 10.9293 8.64303 10.4784C8.81287 10.0436 9.03467 9.70401 9.36328 9.3777C9.69143 9.0514 10.0336 8.83088 10.4721 8.66196C10.9271 8.48565 11.4071 8.39396 12.0297 8.36719C12.7405 8.33119 12.9628 8.32662 14.7882 8.32662ZM27.4615 9.23077C27.3342 9.23077 27.2308 9.33369 27.2308 9.46154V10.3846C27.2308 10.512 27.3342 10.6154 27.4615 10.6154C27.5889 10.6154 27.6923 10.512 27.6923 10.3846V9.46154C27.6923 9.33415 27.5889 9.23077 27.4615 9.23077ZM18.4931 9.94201C17.9226 9.94201 17.4582 10.4038 17.4582 10.9715C17.4582 11.5391 17.9226 12.0009 18.4931 12.0009C19.0636 12.0009 19.5279 11.5391 19.5279 10.9715C19.5284 10.4038 19.064 9.94201 18.4931 9.94201ZM18.4931 10.4035C18.8092 10.4035 19.0664 10.6581 19.0664 10.9715C19.0669 11.2848 18.8097 11.5394 18.4931 11.5394C18.1769 11.5394 17.9198 11.2848 17.9198 10.9715C17.9198 10.6581 18.1769 10.4035 18.4931 10.4035ZM27.4615 11.0769C27.3342 11.0769 27.2308 11.1803 27.2308 11.3077V13.1538C27.2308 13.2812 27.3342 13.3846 27.4615 13.3846C27.5889 13.3846 27.6923 13.2812 27.6923 13.1538V11.3077C27.6923 11.1798 27.5889 11.0769 27.4615 11.0769ZM14.7819 11.1076C12.7525 11.1076 11.1013 12.7482 11.1013 14.7656C11.1013 16.783 12.7525 18.4246 14.7819 18.4246C16.8112 18.4246 18.4624 16.783 18.4624 14.7656C18.4624 12.7487 16.8112 11.1076 14.7819 11.1076ZM14.7819 11.5691C16.5569 11.5691 18.0009 13.0025 18.0009 14.7656C18.0009 16.5287 16.5569 17.963 14.7819 17.963C13.0068 17.963 11.5628 16.5287 11.5628 14.7656C11.5628 13.003 13.0068 11.5691 14.7819 11.5691Z" fill="black"/>
</g>
<defs>
<clipPath id="clip0_59_153">
<rect width="30" height="30" fill="white"/>
</clipPath>
</defs>
</svg>
