<svg width="30" height="30" viewBox="0 0 30 30" fill="none" xmlns="http://www.w3.org/2000/svg">
<g clip-path="url(#clip0_59_159)">
<path d="M6 0C2.69169 0 0 2.69169 0 6V24C0 27.3083 2.69169 30 6 30H24C27.3083 30 30 27.3083 30 24V6C30 2.69123 27.3088 0 24 0H6ZM6 0.923077H24C26.7992 0.923077 29.0769 3.20077 29.0769 6V24C29.0769 26.7992 26.7992 29.0769 24 29.0769H6C3.20077 29.0769 0.923077 26.7992 0.923077 24V6C0.923077 3.20077 3.20077 0.923077 6 0.923077ZM7.3098 2.30679C4.55164 2.30679 2.30769 4.55074 2.30769 7.30889V22.6902C2.30769 25.4484 4.55164 27.6914 7.3098 27.6914H22.6911C25.4493 27.6914 27.6923 25.4484 27.6923 22.6902V14.0769C27.6923 13.9491 27.5889 13.8462 27.4615 13.8462C27.3342 13.8462 27.2308 13.9495 27.2308 14.0769V22.6902C27.2308 25.1936 25.1945 27.2308 22.6911 27.2308H7.3098C4.80641 27.2308 2.76923 25.1936 2.76923 22.6902V7.30889C2.76923 4.80551 4.80641 2.76833 7.3098 2.76833H22.8462C22.9735 2.76833 23.0769 2.66494 23.0769 2.53756C23.0769 2.41018 22.9735 2.30679 22.8462 2.30679H7.3098ZM9.93119 8.32662C8.96796 8.32662 8.26893 9.00163 8.26893 9.93209C8.26893 10.8626 8.9536 11.5376 9.91406 11.5376C10.8773 11.5376 11.5772 10.8627 11.5772 9.92668C11.5541 8.98468 10.8764 8.32662 9.93119 8.32662ZM9.93119 8.78816C10.6332 8.78816 11.0986 9.24022 11.1157 9.93299C11.1161 10.6064 10.6224 11.0769 9.89874 11.0769C9.21151 11.0769 8.73047 10.6064 8.73047 9.93299C8.73047 9.25915 9.22411 8.78816 9.93119 8.78816ZM27.4615 9.23077C27.3342 9.23077 27.2308 9.33369 27.2308 9.46154V10.3846C27.2308 10.512 27.3342 10.6154 27.4615 10.6154C27.5889 10.6154 27.6923 10.512 27.6923 10.3846V9.46154C27.6923 9.33415 27.5889 9.23077 27.4615 9.23077ZM27.4615 11.0769C27.3342 11.0769 27.2308 11.1803 27.2308 11.3077V13.1538C27.2308 13.2812 27.3342 13.3846 27.4615 13.3846C27.5889 13.3846 27.6923 13.2812 27.6923 13.1538V11.3077C27.6923 11.1798 27.5889 11.0769 27.4615 11.0769ZM18.5859 12.4047C17.5706 12.4107 16.7474 12.7139 16.1529 13.3513V12.6914C16.1529 12.564 16.0496 12.4606 15.9222 12.4606H13.1187C13.0555 12.4606 12.9949 12.4862 12.951 12.5319C12.9076 12.5775 12.8852 12.6395 12.8879 12.7022C12.9253 13.5095 12.8879 21.3804 12.8879 21.4597C12.8875 21.5216 12.9117 21.5804 12.9546 21.6238C12.998 21.6672 13.0569 21.6914 13.1178 21.6914H15.9231C16.0505 21.6914 16.1538 21.588 16.1538 21.4606V16.5622C16.1538 16.2797 16.181 16.07 16.235 15.9375C16.3471 15.6606 16.6961 15.0162 17.5195 15.0162C18.7509 15.0162 18.8843 16.2656 18.8843 16.8047L18.9222 21.4624C18.9231 21.5894 19.0265 21.6914 19.1529 21.6914H21.9222C22.0496 21.6914 22.1529 21.588 22.1529 21.4606V16.7632C22.1529 15.2263 21.7738 14.0683 21.0261 13.3215C20.4169 12.7132 19.5962 12.4047 18.5859 12.4047ZM8.53846 12.4615C8.41108 12.4615 8.30769 12.5649 8.30769 12.6923V21.4615C8.30769 21.5889 8.41108 21.6923 8.53846 21.6923H11.3077C11.4351 21.6923 11.5385 21.5889 11.5385 21.4615V12.6923C11.5385 12.5649 11.4351 12.4615 11.3077 12.4615H8.53846ZM18.5787 12.8672H18.5859C19.4698 12.8672 20.1815 13.1304 20.7007 13.6487C21.3584 14.3055 21.6923 15.3532 21.6923 16.7632V21.2308H19.3828L19.3459 16.8038C19.3459 15.4169 18.6466 14.5547 17.5204 14.5547C16.7543 14.5547 16.1137 15.0066 15.8077 15.7635C15.7302 15.9537 15.6923 16.2147 15.6923 16.5622V21.2299H13.3504C13.3564 19.9856 13.3793 14.3202 13.3549 12.9231H15.6923V13.9859C15.6665 14.051 15.6771 14.1264 15.7121 14.1896C15.7532 14.2621 15.8395 14.3077 15.9231 14.3077C16.0191 14.3077 16.1012 14.231 16.1358 14.1391C16.4727 13.5853 17.0949 12.8672 18.5787 12.8672ZM8.76923 12.9231H11.0769V21.2308H8.76923V12.9231Z" fill="black"/>
</g>
<defs>
<clipPath id="clip0_59_159">
<rect width="30" height="30" fill="white"/>
</clipPath>
</defs>
</svg>
