<svg width="30" height="30" viewBox="0 0 30 30" fill="none" xmlns="http://www.w3.org/2000/svg">
<g clip-path="url(#clip0_59_138)">
<path d="M6 0C2.69169 0 0 2.69169 0 6V24C0 27.3083 2.69169 30 6 30H24C27.3083 30 30 27.3083 30 24V6C30 2.69123 27.3088 0 24 0H6ZM6 0.923077H24C26.7992 0.923077 29.0769 3.20077 29.0769 6V24C29.0769 26.7992 26.7992 29.0769 24 29.0769H6C3.20077 29.0769 0.923077 26.7992 0.923077 24V6C0.923077 3.20077 3.20077 0.923077 6 0.923077ZM7.3098 2.30679C4.55164 2.30679 2.30769 4.55074 2.30769 7.30889V22.6902C2.30769 25.4484 4.55164 27.6914 7.3098 27.6914H22.6911C25.4493 27.6914 27.6923 25.4484 27.6923 22.6902V14.0769C27.6923 13.9491 27.5889 13.8462 27.4615 13.8462C27.3342 13.8462 27.2308 13.9495 27.2308 14.0769V22.6902C27.2308 25.1936 25.1945 27.2308 22.6911 27.2308H7.3098C4.80641 27.2308 2.76923 25.1936 2.76923 22.6902V7.30889C2.76923 4.80551 4.80641 2.76833 7.3098 2.76833H22.8462C22.9735 2.76833 23.0769 2.66494 23.0769 2.53756C23.0769 2.41018 22.9735 2.30679 22.8462 2.30679H7.3098ZM27.4615 9.23077C27.3342 9.23077 27.2308 9.33369 27.2308 9.46154V10.3846C27.2308 10.512 27.3342 10.6154 27.4615 10.6154C27.5889 10.6154 27.6923 10.512 27.6923 10.3846V9.46154C27.6923 9.33415 27.5889 9.23077 27.4615 9.23077ZM27.4615 11.0769C27.3342 11.0769 27.2308 11.1803 27.2308 11.3077V13.1538C27.2308 13.2812 27.3342 13.3846 27.4615 13.3846C27.5889 13.3846 27.6923 13.2812 27.6923 13.1538V11.3077C27.6923 11.1798 27.5889 11.0769 27.4615 11.0769Z" fill="black"/>
<path d="M6.88008 6.6001C5.3369 6.6001 4.08008 7.85692 4.08008 9.4001V21.7201C4.08008 22.6446 4.83562 23.4001 5.76008 23.4001H9.40008C9.47434 23.4001 9.54555 23.3706 9.59806 23.3181C9.65057 23.2656 9.68007 23.1944 9.68008 23.1201V15.0258L14.8322 18.8643C14.8826 18.9007 14.9413 18.9201 15.0001 18.9201C15.0589 18.9201 15.1148 18.9035 15.1652 18.8671L20.3201 15.1445V23.1201C20.3201 23.1944 20.3496 23.2656 20.4021 23.3181C20.4546 23.3706 20.5258 23.4001 20.6001 23.4001H24.2401C25.1645 23.4001 25.9201 22.6446 25.9201 21.7201V9.4001C25.9201 7.85692 24.6633 6.6001 23.1201 6.6001H23.1173C22.5324 6.6001 21.9375 6.78425 21.4341 7.16338L15.0001 12.012L8.56609 7.16338C8.06266 6.78425 7.46779 6.6001 6.88281 6.6001H6.88008ZM6.88008 7.1601H6.88281C7.35063 7.1601 7.82545 7.30665 8.22922 7.61072L9.12008 8.28229V14.083L4.64008 10.7438V9.4001C4.64008 8.15951 5.63949 7.1601 6.88008 7.1601ZM23.1173 7.1601H23.1201C24.3607 7.1601 25.3601 8.15951 25.3601 9.4001V10.7438L20.8801 14.083V8.28229L21.7709 7.61072C22.1747 7.30665 22.6495 7.1601 23.1173 7.1601ZM9.40008 8.49283L14.7939 12.5578C14.8444 12.6106 14.9134 12.6416 14.9864 12.6442C14.9911 12.6445 14.9959 12.6446 15.0006 12.6447C15.0385 12.645 15.0761 12.6376 15.1111 12.6229C15.1461 12.6083 15.1777 12.5866 15.2041 12.5594L20.6001 8.49283V14.2503L15.0028 18.2928L9.40008 14.2498V8.49283ZM19.6228 10.3172C19.5913 10.317 19.5607 10.3274 19.5359 10.3467L17.8783 11.5953C17.8636 11.6063 17.8512 11.6202 17.8419 11.6361C17.8326 11.652 17.8265 11.6695 17.8239 11.6878C17.8214 11.706 17.8225 11.7245 17.8271 11.7424C17.8317 11.7602 17.8398 11.7769 17.8509 11.7916C17.862 11.8063 17.8759 11.8186 17.8918 11.828C17.9076 11.8373 17.9252 11.8434 17.9434 11.8459C17.9617 11.8485 17.9802 11.8474 17.998 11.8428C18.0159 11.8381 18.0326 11.83 18.0473 11.8189L19.7043 10.5704C19.7281 10.5531 19.7459 10.5286 19.755 10.5006C19.7641 10.4726 19.7642 10.4424 19.7552 10.4143C19.7461 10.3863 19.7285 10.3618 19.7047 10.3443C19.681 10.3269 19.6523 10.3174 19.6228 10.3172ZM4.64008 11.0932L9.12008 14.4324V14.6627V14.7201V22.8401H5.76008C5.13837 22.8401 4.64008 22.3418 4.64008 21.7201V11.0932ZM25.3601 11.0932V21.7201C25.3601 22.3418 24.8618 22.8401 24.2401 22.8401H20.8801V14.7398V14.5899C20.8802 14.5867 20.8802 14.5834 20.8801 14.5801V14.4324L25.3601 11.0932ZM17.5179 11.9031C17.4864 11.9029 17.4558 11.9133 17.4309 11.9327L16.9333 12.3073C16.9183 12.3182 16.9057 12.3321 16.8961 12.3479C16.8865 12.3638 16.8801 12.3814 16.8774 12.3998C16.8747 12.4182 16.8757 12.4369 16.8802 12.4548C16.8848 12.4728 16.8929 12.4897 16.9041 12.5045C16.9152 12.5193 16.9292 12.5318 16.9453 12.5412C16.9613 12.5505 16.979 12.5566 16.9974 12.5591C17.0158 12.5615 17.0345 12.5603 17.0524 12.5555C17.0703 12.5507 17.0871 12.5423 17.1017 12.531L17.5994 12.1563C17.6232 12.139 17.641 12.1146 17.6501 12.0865C17.6592 12.0585 17.6593 12.0283 17.6502 12.0003C17.6412 11.9722 17.6236 11.9477 17.5998 11.9303C17.576 11.9128 17.5474 11.9033 17.5179 11.9031ZM12.893 12.216C12.864 12.2172 12.8361 12.2274 12.8132 12.2451C12.7903 12.2628 12.7734 12.2872 12.7649 12.315C12.7565 12.3427 12.7568 12.3724 12.7659 12.3999C12.7751 12.4274 12.7925 12.4514 12.8159 12.4686L13.389 12.9006C13.4036 12.912 13.4204 12.9204 13.4383 12.9252C13.4562 12.93 13.4749 12.9312 13.4933 12.9288C13.5117 12.9263 13.5294 12.9202 13.5455 12.9109C13.5615 12.9015 13.5755 12.889 13.5866 12.8742C13.5978 12.8594 13.6059 12.8425 13.6105 12.8245C13.615 12.8065 13.616 12.7878 13.6133 12.7695C13.6106 12.7511 13.6042 12.7335 13.5946 12.7176C13.585 12.7017 13.5724 12.6879 13.5574 12.677L12.9843 12.2449C12.9582 12.2248 12.9259 12.2146 12.893 12.216ZM16.5729 12.6152C16.5415 12.6148 16.5108 12.625 16.4859 12.6442L15.5513 13.3485C15.5355 13.3591 15.522 13.3728 15.5116 13.3888C15.5012 13.4049 15.4942 13.4228 15.4911 13.4416C15.4879 13.4604 15.4886 13.4796 15.4931 13.4982C15.4976 13.5167 15.5059 13.5341 15.5174 13.5493C15.5289 13.5645 15.5433 13.5772 15.5599 13.5867C15.5765 13.5961 15.5948 13.602 15.6137 13.6041C15.6327 13.6062 15.6519 13.6044 15.6701 13.5988C15.6883 13.5932 15.7052 13.584 15.7198 13.5717L16.6544 12.8678C16.678 12.8504 16.6955 12.826 16.7045 12.7981C16.7135 12.7702 16.7135 12.7401 16.7045 12.7122C16.6955 12.6843 16.6779 12.6599 16.6543 12.6425C16.6307 12.6251 16.6022 12.6155 16.5729 12.6152ZM13.9134 12.9843C13.8843 12.9854 13.8563 12.9955 13.8332 13.0133C13.8101 13.0311 13.7932 13.0556 13.7847 13.0834C13.7762 13.1113 13.7766 13.1411 13.7859 13.1687C13.7951 13.1964 13.8128 13.2204 13.8363 13.2375L14.6523 13.8517C14.6668 13.864 14.6837 13.8732 14.7019 13.8788C14.7202 13.8844 14.7393 13.8862 14.7583 13.8841C14.7772 13.882 14.7956 13.8761 14.8121 13.8667C14.8287 13.8572 14.8432 13.8445 14.8547 13.8293C14.8661 13.8141 14.8744 13.7967 14.8789 13.7782C14.8835 13.7596 14.8841 13.7404 14.881 13.7216C14.8778 13.7028 14.8708 13.6849 14.8604 13.6688C14.8501 13.6528 14.8366 13.6391 14.8207 13.6285L14.0048 13.0138C13.9788 12.9936 13.9464 12.9831 13.9134 12.9843ZM5.61789 13.3179C5.59951 13.3182 5.58136 13.3221 5.56448 13.3294C5.54761 13.3367 5.53233 13.3473 5.51954 13.3605C5.50674 13.3737 5.49667 13.3893 5.4899 13.4064C5.48313 13.4235 5.47979 13.4417 5.48008 13.4601V15.4201C5.47982 15.4386 5.48324 15.4571 5.49016 15.4743C5.49708 15.4915 5.50735 15.5072 5.52038 15.5204C5.5334 15.5336 5.54892 15.5441 5.56604 15.5512C5.58316 15.5584 5.60152 15.5621 5.62008 15.5621C5.63863 15.5621 5.657 15.5584 5.67412 15.5512C5.69123 15.5441 5.70675 15.5336 5.71978 15.5204C5.73281 15.5072 5.74308 15.4915 5.75 15.4743C5.75691 15.4571 5.76034 15.4386 5.76008 15.4201V13.4601C5.76037 13.4413 5.75689 13.4227 5.74985 13.4053C5.74281 13.388 5.73235 13.3722 5.71909 13.3589C5.70582 13.3456 5.69003 13.3352 5.67265 13.3281C5.65527 13.3211 5.63664 13.3176 5.61789 13.3179ZM5.61789 16.1179C5.59951 16.1182 5.58136 16.1221 5.56448 16.1294C5.54761 16.1367 5.53233 16.1473 5.51954 16.1605C5.50674 16.1737 5.49667 16.1893 5.4899 16.2064C5.48313 16.2235 5.47979 16.2417 5.48008 16.2601V16.5401C5.47982 16.5586 5.48324 16.5771 5.49016 16.5943C5.49708 16.6115 5.50735 16.6272 5.52038 16.6404C5.5334 16.6536 5.54892 16.6641 5.56604 16.6712C5.58316 16.6784 5.60152 16.6821 5.62008 16.6821C5.63863 16.6821 5.657 16.6784 5.67412 16.6712C5.69123 16.6641 5.70675 16.6536 5.71978 16.6404C5.73281 16.6272 5.74308 16.6115 5.75 16.5943C5.75691 16.5771 5.76034 16.5586 5.76008 16.5401V16.2601C5.76037 16.2413 5.75689 16.2227 5.74985 16.2053C5.74281 16.188 5.73235 16.1722 5.71909 16.1589C5.70582 16.1456 5.69003 16.1352 5.67265 16.1281C5.65527 16.1211 5.63664 16.1176 5.61789 16.1179ZM5.61789 17.2379C5.59951 17.2382 5.58136 17.2421 5.56448 17.2494C5.54761 17.2567 5.53233 17.2673 5.51954 17.2805C5.50674 17.2937 5.49667 17.3093 5.4899 17.3264C5.48313 17.3435 5.47979 17.3617 5.48008 17.3801V17.9401C5.47982 17.9586 5.48324 17.9771 5.49016 17.9943C5.49708 18.0115 5.50735 18.0272 5.52038 18.0404C5.5334 18.0536 5.54892 18.0641 5.56604 18.0712C5.58316 18.0784 5.60152 18.0821 5.62008 18.0821C5.63863 18.0821 5.657 18.0784 5.67412 18.0712C5.69123 18.0641 5.70675 18.0536 5.71978 18.0404C5.73281 18.0272 5.74308 18.0115 5.75 17.9943C5.75691 17.9771 5.76034 17.9586 5.76008 17.9401V17.3801C5.76037 17.3613 5.75689 17.3427 5.74985 17.3253C5.74281 17.308 5.73235 17.2922 5.71909 17.2789C5.70582 17.2656 5.69003 17.2552 5.67265 17.2481C5.65527 17.2411 5.63664 17.2376 5.61789 17.2379ZM5.61789 18.6379C5.59951 18.6382 5.58136 18.6421 5.56448 18.6494C5.54761 18.6567 5.53233 18.6673 5.51954 18.6805C5.50674 18.6937 5.49667 18.7093 5.4899 18.7264C5.48313 18.7435 5.47979 18.7617 5.48008 18.7801V21.5801C5.48008 21.8104 5.66977 22.0001 5.90008 22.0001H7.86008C7.87863 22.0004 7.89705 21.9969 7.91426 21.99C7.93148 21.9831 7.94715 21.9728 7.96036 21.9598C7.97357 21.9468 7.98406 21.9313 7.99122 21.9141C7.99838 21.897 8.00207 21.8787 8.00207 21.8601C8.00207 21.8415 7.99838 21.8232 7.99122 21.8061C7.98406 21.7889 7.97357 21.7734 7.96036 21.7604C7.94715 21.7474 7.93148 21.7371 7.91426 21.7302C7.89705 21.7233 7.87863 21.7198 7.86008 21.7201H5.90008C5.82127 21.7201 5.76008 21.6589 5.76008 21.5801V18.7801C5.76037 18.7613 5.75689 18.7427 5.74985 18.7253C5.74281 18.708 5.73235 18.6922 5.71909 18.6789C5.70582 18.6656 5.69003 18.6552 5.67265 18.6481C5.65527 18.6411 5.63664 18.6376 5.61789 18.6379Z" fill="black"/>
</g>
<defs>
<clipPath id="clip0_59_138">
<rect width="30" height="30" fill="white"/>
</clipPath>
</defs>
</svg>
