<svg width="30" height="30" viewBox="0 0 30 30" fill="none" xmlns="http://www.w3.org/2000/svg">
<g clip-path="url(#clip0_59_155)">
<path d="M6 0C2.69169 0 0 2.69169 0 6V24C0 27.3083 2.69169 30 6 30H24C27.3083 30 30 27.3083 30 24V6C30 2.69123 27.3088 0 24 0H6ZM6 0.923077H24C26.7992 0.923077 29.0769 3.20077 29.0769 6V24C29.0769 26.7992 26.7992 29.0769 24 29.0769H6C3.20077 29.0769 0.923077 26.7992 0.923077 24V6C0.923077 3.20077 3.20077 0.923077 6 0.923077ZM7.3098 2.30679C4.55164 2.30679 2.30769 4.55074 2.30769 7.30889V22.6902C2.30769 25.4484 4.55164 27.6914 7.3098 27.6914H22.6911C25.4493 27.6914 27.6923 25.4484 27.6923 22.6902V14.0769C27.6923 13.9491 27.5889 13.8462 27.4615 13.8462C27.3342 13.8462 27.2308 13.9495 27.2308 14.0769V22.6902C27.2308 25.1936 25.1945 27.2308 22.6911 27.2308H7.3098C4.80641 27.2308 2.76923 25.1936 2.76923 22.6902V7.30889C2.76923 4.80551 4.80641 2.76833 7.3098 2.76833H22.8462C22.9735 2.76833 23.0769 2.66494 23.0769 2.53756C23.0769 2.41018 22.9735 2.30679 22.8462 2.30679H7.3098ZM27.4615 9.23077C27.3342 9.23077 27.2308 9.33369 27.2308 9.46154V10.3846C27.2308 10.512 27.3342 10.6154 27.4615 10.6154C27.5889 10.6154 27.6923 10.512 27.6923 10.3846V9.46154C27.6923 9.33415 27.5889 9.23077 27.4615 9.23077ZM27.4615 11.0769C27.3342 11.0769 27.2308 11.1803 27.2308 11.3077V13.1538C27.2308 13.2812 27.3342 13.3846 27.4615 13.3846C27.5889 13.3846 27.6923 13.2812 27.6923 13.1538V11.3077C27.6923 11.1798 27.5889 11.0769 27.4615 11.0769Z" fill="black"/>
<path d="M18.4799 6.83984C16.1631 6.83984 14.2799 8.72303 14.2799 11.0398C14.2799 11.307 14.3373 11.5557 14.3858 11.8072C9.21143 11.3502 6.70798 8.13674 6.36037 7.65875C6.33686 7.62636 6.30562 7.60036 6.2695 7.58312C6.23338 7.56588 6.19352 7.55795 6.15355 7.56004C6.11358 7.56214 6.07477 7.5742 6.04064 7.59512C6.00652 7.61605 5.97818 7.64517 5.95818 7.67984C5.59913 8.30297 5.3999 9.07841 5.3999 9.83984C5.3999 11.0844 5.99183 12.2488 6.91209 13.0095C6.64804 12.9664 6.42777 12.9093 6.25584 12.852C5.91861 12.7396 5.77303 12.6402 5.77303 12.6402C5.73688 12.6161 5.69488 12.6022 5.65149 12.6001C5.60811 12.5981 5.56497 12.6078 5.52667 12.6283C5.48837 12.6488 5.45636 12.6793 5.43403 12.7165C5.41171 12.7538 5.39991 12.7964 5.3999 12.8398C5.3999 14.577 6.49595 16.0525 8.02865 16.6419C7.94925 16.6461 7.88089 16.6798 7.7999 16.6798C7.59528 16.6798 7.28271 16.6617 7.0949 16.6339C7.05293 16.6277 7.01007 16.6328 6.97068 16.6485C6.93129 16.6643 6.89679 16.6902 6.87068 16.7237C6.84457 16.7571 6.8278 16.7969 6.82206 16.8389C6.81633 16.8809 6.82184 16.9238 6.83803 16.963L6.85818 17.0117C6.85834 17.0122 6.85849 17.0127 6.85865 17.0131C7.46793 18.4538 8.95194 19.4523 10.5641 19.6995C9.31121 20.6491 7.68198 21.2398 5.9999 21.2398H5.6399C5.5884 21.2399 5.53827 21.2564 5.49692 21.2871C5.45557 21.3178 5.42519 21.361 5.41027 21.4103C5.39534 21.4596 5.39667 21.5124 5.41405 21.5609C5.43143 21.6093 5.46394 21.6509 5.50678 21.6795C6.99912 22.6744 8.9884 23.1598 11.0399 23.1598C17.4658 23.1598 22.6799 17.9457 22.6799 11.5198C22.6799 11.5191 22.6799 11.5183 22.6799 11.5175C22.6799 11.5175 22.6785 11.3708 22.6766 11.2175C22.6755 11.1242 22.6743 11.0734 22.6733 11.0066C23.8473 10.3054 24.5521 9.38375 24.5521 9.38375C24.5822 9.34341 24.5989 9.29461 24.5998 9.24425C24.6007 9.19389 24.5857 9.14453 24.557 9.10316C24.5283 9.06179 24.4873 9.0305 24.4398 9.01373C24.3923 8.99695 24.3407 8.99554 24.2924 9.00969C24.2924 9.00969 23.5167 9.19697 22.6972 9.28953C23.6529 8.49054 23.9877 7.63578 23.9877 7.63578C24.003 7.59004 24.0042 7.54073 23.9911 7.49431C23.978 7.44788 23.9512 7.40648 23.9142 7.37552C23.8772 7.34455 23.8317 7.32544 23.7837 7.3207C23.7357 7.31595 23.6874 7.32578 23.6451 7.34891C23.6451 7.34891 22.4579 7.9718 21.3871 8.02625C20.6321 7.29779 19.6112 6.83984 18.4799 6.83984ZM18.4799 7.31984C19.5254 7.31984 20.4662 7.75128 21.1424 8.44484C21.1654 8.46838 21.193 8.48694 21.2235 8.49936C21.254 8.51177 21.2867 8.51779 21.3196 8.51703C22.0716 8.49898 22.729 8.27351 23.2218 8.06562C22.9886 8.41095 22.6028 8.85525 21.9796 9.25812C21.9319 9.28904 21.8967 9.33588 21.8803 9.3903C21.8639 9.44472 21.8674 9.5032 21.8901 9.55531C21.9026 9.5841 21.9165 9.62874 21.9388 9.68562C21.9568 9.7313 21.9884 9.77035 22.0293 9.7975C22.0702 9.82466 22.1185 9.83862 22.1676 9.8375C22.7001 9.82571 23.2395 9.73712 23.6619 9.65094C23.3437 9.96143 22.8869 10.3488 22.3138 10.6719C22.2753 10.6936 22.2435 10.7255 22.222 10.7642C22.2005 10.8028 22.1901 10.8466 22.1919 10.8908C22.1919 10.8908 22.1948 11.0702 22.1966 11.2231C22.1985 11.376 22.1999 11.5222 22.1999 11.5222C22.1986 17.6875 17.2056 22.6798 11.0399 22.6798C9.38381 22.6798 7.79742 22.3265 6.50381 21.6734C8.31647 21.5592 10.053 20.8713 11.3197 19.7389C11.3556 19.7069 11.3811 19.6649 11.3928 19.6182C11.4045 19.5716 11.4019 19.5225 11.3854 19.4773C11.3689 19.4322 11.3392 19.393 11.3001 19.3649C11.2611 19.3368 11.2145 19.3211 11.1665 19.3198C9.65211 19.2775 8.19581 18.3799 7.50131 17.1402C7.60539 17.1452 7.71104 17.1598 7.7999 17.1598C8.33171 17.1598 8.84131 17.0762 9.32006 16.9062C9.3723 16.8878 9.41656 16.8519 9.44532 16.8045C9.47408 16.7571 9.48557 16.7013 9.47784 16.6464C9.47012 16.5916 9.44365 16.5411 9.40293 16.5035C9.36221 16.4659 9.30974 16.4436 9.25443 16.4403C7.49911 16.3326 6.10248 14.959 5.91693 13.2237C6.00237 13.2615 5.9841 13.2677 6.10396 13.3077C6.48673 13.4352 7.05324 13.5598 7.7999 13.5598C7.85444 13.5599 7.90735 13.5413 7.94993 13.5072C7.99252 13.4732 8.02223 13.4256 8.03418 13.3724C8.04613 13.3192 8.03961 13.2635 8.01569 13.2145C7.99176 13.1655 7.95186 13.1261 7.90256 13.1028C6.71211 12.541 5.8799 11.2239 5.8799 9.83984C5.8799 9.28805 6.02659 8.73836 6.24037 8.25406C6.98435 9.18568 9.58077 11.9963 14.6488 12.327C14.687 12.3295 14.7253 12.3228 14.7603 12.3075C14.7954 12.2923 14.8264 12.2688 14.8505 12.2391C14.8747 12.2094 14.8914 12.1744 14.8993 12.1369C14.9072 12.0995 14.906 12.0607 14.8958 12.0237C14.8092 11.7082 14.7599 11.3798 14.7599 11.0398C14.7599 8.98242 16.4225 7.31984 18.4799 7.31984ZM18.4799 8.03984C17.5948 8.03984 16.7992 8.42813 16.2501 9.03969C16.2392 9.05136 16.2308 9.06508 16.2253 9.08003C16.2199 9.09499 16.2174 9.11088 16.2181 9.12679C16.2189 9.1427 16.2228 9.15831 16.2296 9.1727C16.2364 9.1871 16.246 9.19999 16.2579 9.21063C16.2697 9.22127 16.2836 9.22944 16.2986 9.23467C16.3137 9.2399 16.3296 9.24209 16.3455 9.2411C16.3614 9.24011 16.3769 9.23597 16.3912 9.22891C16.4055 9.22185 16.4182 9.21203 16.4287 9.2C16.9346 8.63652 17.6649 8.27984 18.4799 8.27984C19.1672 8.27984 19.8113 8.53134 20.3197 8.98906C20.3312 9.00065 20.345 9.00977 20.3601 9.01587C20.3753 9.02196 20.3915 9.0249 20.4079 9.0245C20.4242 9.0241 20.4403 9.02038 20.4551 9.01355C20.4699 9.00673 20.4832 8.99695 20.4941 8.98481C20.5051 8.97267 20.5134 8.95843 20.5186 8.94296C20.5239 8.92749 20.5259 8.91112 20.5246 8.89484C20.5232 8.87856 20.5186 8.86273 20.511 8.8483C20.5033 8.83387 20.4928 8.82116 20.4801 8.81094C19.9291 8.3149 19.2259 8.03984 18.4799 8.03984ZM15.868 9.71844C15.8444 9.71797 15.8212 9.72449 15.8013 9.73716C15.7813 9.74983 15.7656 9.76811 15.756 9.78969C15.6474 10.0253 15.5694 10.2765 15.5249 10.5397C15.5223 10.5552 15.5227 10.5711 15.5262 10.5865C15.5297 10.6019 15.5362 10.6164 15.5453 10.6293C15.5544 10.6421 15.566 10.6531 15.5793 10.6615C15.5927 10.6699 15.6076 10.6756 15.6231 10.6782C15.6386 10.6809 15.6546 10.6804 15.6699 10.6769C15.6853 10.6734 15.6998 10.6669 15.7127 10.6578C15.7387 10.6394 15.7563 10.6114 15.7616 10.58C15.8026 10.3377 15.8742 10.1065 15.974 9.89C15.9826 9.87189 15.9865 9.85191 15.9854 9.83189C15.9843 9.81187 15.9783 9.79243 15.9677 9.77537C15.9572 9.75831 15.9425 9.74416 15.9251 9.73421C15.9077 9.72427 15.8881 9.71884 15.868 9.71844ZM15.598 10.918C15.5823 10.9182 15.5667 10.9216 15.5522 10.9278C15.5378 10.9341 15.5247 10.9431 15.5137 10.9544C15.5028 10.9658 15.4941 10.9791 15.4883 10.9938C15.4825 11.0084 15.4797 11.0241 15.4799 11.0398C15.4799 11.1288 15.4905 11.2128 15.4972 11.2902C15.4982 11.3061 15.5024 11.3218 15.5095 11.3361C15.5166 11.3504 15.5265 11.3632 15.5386 11.3737C15.5508 11.3841 15.5649 11.3921 15.5801 11.397C15.5953 11.4019 15.6114 11.4037 15.6273 11.4024C15.6433 11.401 15.6588 11.3964 15.673 11.389C15.6871 11.3815 15.6997 11.3713 15.7098 11.3589C15.72 11.3465 15.7276 11.3323 15.7321 11.3169C15.7366 11.3015 15.7381 11.2854 15.7363 11.2695C15.7291 11.1866 15.7199 11.1088 15.7199 11.0398C15.7202 11.0238 15.7172 11.0078 15.7111 10.9929C15.7051 10.978 15.6961 10.9645 15.6848 10.9531C15.6734 10.9417 15.6599 10.9328 15.645 10.9267C15.6301 10.9207 15.6141 10.9177 15.598 10.918ZM20.4116 15.7184C20.3881 15.718 20.3651 15.7245 20.3452 15.7371C20.3254 15.7497 20.3097 15.7678 20.3001 15.7892C19.1399 18.2948 16.9928 20.2524 14.3605 21.1616C14.3456 21.1667 14.3319 21.1748 14.3201 21.1853C14.3083 21.1957 14.2987 21.2084 14.2918 21.2226C14.285 21.2368 14.281 21.2522 14.28 21.268C14.2791 21.2837 14.2813 21.2995 14.2865 21.3144C14.2916 21.3293 14.2997 21.343 14.3102 21.3548C14.3206 21.3666 14.3333 21.3762 14.3475 21.3831C14.3617 21.3899 14.3771 21.3939 14.3929 21.3949C14.4086 21.3958 14.4244 21.3936 14.4393 21.3884C17.134 20.4577 19.33 18.4552 20.5176 15.8905C20.5263 15.8723 20.5303 15.8523 20.5293 15.8322C20.5282 15.8121 20.5222 15.7926 20.5116 15.7755C20.5011 15.7584 20.4864 15.7442 20.4689 15.7342C20.4514 15.7242 20.4317 15.7188 20.4116 15.7184ZM12.9576 21.5375C12.9508 21.5377 12.944 21.5385 12.9374 21.5398C12.5495 21.6133 12.1537 21.6642 11.7515 21.6922C11.7357 21.6933 11.7204 21.6975 11.7063 21.7045C11.6922 21.7116 11.6796 21.7213 11.6693 21.7332C11.6589 21.7451 11.651 21.759 11.646 21.7739C11.641 21.7889 11.639 21.8047 11.6401 21.8204C11.6412 21.8361 11.6454 21.8515 11.6525 21.8656C11.6595 21.8797 11.6693 21.8923 11.6812 21.9026C11.6931 21.9129 11.7069 21.9208 11.7219 21.9258C11.7368 21.9308 11.7526 21.9328 11.7683 21.9317C12.1797 21.9031 12.585 21.8509 12.9824 21.7756C13.0123 21.7703 13.0391 21.7539 13.0573 21.7297C13.0756 21.7054 13.084 21.6752 13.0809 21.645C13.0777 21.6148 13.0632 21.5869 13.0404 21.567C13.0175 21.547 12.9879 21.5365 12.9576 21.5375ZM10.8022 21.7128C10.7865 21.7125 10.7708 21.7153 10.7561 21.721C10.7415 21.7268 10.7281 21.7354 10.7167 21.7463C10.7053 21.7572 10.6962 21.7703 10.6899 21.7847C10.6836 21.7992 10.6802 21.8147 10.6799 21.8305C10.6796 21.8462 10.6824 21.8619 10.6881 21.8766C10.6939 21.8913 10.7025 21.9047 10.7134 21.916C10.7243 21.9274 10.7374 21.9365 10.7518 21.9428C10.7663 21.9491 10.7818 21.9525 10.7976 21.9528C10.8743 21.9544 10.9538 21.9598 11.0399 21.9598C11.0558 21.9601 11.0716 21.9571 11.0863 21.9512C11.1011 21.9453 11.1145 21.9365 11.1259 21.9253C11.1372 21.9141 11.1462 21.9008 11.1523 21.8862C11.1585 21.8715 11.1616 21.8557 11.1616 21.8398C11.1616 21.8239 11.1585 21.8082 11.1523 21.7935C11.1462 21.7789 11.1372 21.7655 11.1259 21.7544C11.1145 21.7432 11.1011 21.7344 11.0863 21.7285C11.0716 21.7226 11.0558 21.7196 11.0399 21.7198C10.9642 21.7198 10.8863 21.7146 10.8022 21.7128Z" fill="black"/>
</g>
<defs>
<clipPath id="clip0_59_155">
<rect width="30" height="30" fill="white"/>
</clipPath>
</defs>
</svg>
