<svg width="20" height="20" viewBox="0 0 20 20" fill="none" xmlns="http://www.w3.org/2000/svg">
<g clip-path="url(#clip0_1_14381)">
<path d="M4 0C1.79446 0 0 1.79446 0 4V16C0 18.2055 1.79446 20 4 20H16C18.2055 20 20 18.2055 20 16V4C20 1.79446 18.2055 0 16 0H4ZM4 0.615385H16C17.8662 0.615385 19.3846 2.13385 19.3846 4V16C19.3846 17.8662 17.8662 19.3846 16 19.3846H4C2.13385 19.3846 0.615385 17.8662 0.615385 16V4C0.615385 2.13385 2.13385 0.615385 4 0.615385ZM4.8732 1.53846C3.03443 1.53846 1.53846 3.03443 1.53846 4.8732V15.1268C1.53846 16.9656 3.03443 18.4615 4.8732 18.4615H15.1274C16.9662 18.4615 18.4615 16.9656 18.4615 15.1268V9.38462C18.4615 9.29969 18.3926 9.23077 18.3077 9.23077C18.2228 9.23077 18.1538 9.29969 18.1538 9.38462V15.1268C18.1538 16.7957 16.7963 18.1538 15.1274 18.1538H4.8732C3.20427 18.1538 1.84615 16.7957 1.84615 15.1268V4.8732C1.84615 3.20427 3.20427 1.84615 4.8732 1.84615H15.2308C15.3157 1.84615 15.3846 1.77723 15.3846 1.69231C15.3846 1.60738 15.3157 1.53846 15.2308 1.53846H4.8732ZM10.6046 4.92308C9.85288 4.92369 9.27069 5.1259 8.875 5.52344C8.49654 5.90375 8.30523 6.43479 8.30769 7.10156L8.46154 7.11899H8.30769V8.30769H7.53846C7.45354 8.30769 7.38462 8.37662 7.38462 8.46154V10C7.38462 10.0849 7.45354 10.1538 7.53846 10.1538H8.30769V14.9231C8.30769 15.008 8.37662 15.0769 8.46154 15.0769H10.6154C10.7003 15.0769 10.7692 15.008 10.7692 14.9231V10.1538H11.881C11.9564 10.1538 12.0205 10.0991 12.0325 10.0246C12.0337 10.0173 12.1534 9.27389 12.2103 8.47236C12.2134 8.42959 12.1978 8.38805 12.1689 8.35697C12.1399 8.32559 12.0993 8.30769 12.0565 8.30769H10.4615V7.32332C10.4618 7.24609 10.6072 7.07692 10.7518 7.07692H12.1538C12.2388 7.07692 12.3077 7.008 12.3077 6.92308V5.07692C12.3077 4.992 12.2388 4.92308 12.1538 4.92308H10.6046ZM10.6046 5.23077H12V6.76923H10.7518C10.4613 6.76923 10.1538 7.05409 10.1538 7.32332V8.46154C10.1538 8.54646 10.2225 8.61538 10.3077 8.61538H11.8906C11.8472 9.144 11.7817 9.62431 11.7488 9.84615H10.6154C10.5305 9.84615 10.4615 9.91508 10.4615 10V14.7692H8.61538V10C8.61538 9.91508 8.54646 9.84615 8.46154 9.84615H7.69231V8.61538H8.46154C8.54646 8.61538 8.61538 8.54646 8.61538 8.46154V7.11899V7.10036C8.61323 6.51821 8.77438 6.06129 9.09315 5.74099C9.42946 5.40314 9.93749 5.23169 10.6046 5.23077ZM18.3077 6.15385C18.2228 6.15385 18.1538 6.22277 18.1538 6.30769V6.92308C18.1538 7.008 18.2228 7.07692 18.3077 7.07692C18.3926 7.07692 18.4615 7.008 18.4615 6.92308V6.30769C18.4615 6.22277 18.3926 6.15385 18.3077 6.15385ZM18.3077 7.38462C18.2228 7.38462 18.1538 7.45354 18.1538 7.53846V8.76923C18.1538 8.85415 18.2228 8.92308 18.3077 8.92308C18.3926 8.92308 18.4615 8.85415 18.4615 8.76923V7.53846C18.4615 7.45354 18.3926 7.38462 18.3077 7.38462Z" fill="black"/>
</g>
<defs>
<clipPath id="clip0_1_14381">
<rect width="20" height="20" fill="white"/>
</clipPath>
</defs>
</svg>
