<svg width="511" height="427" viewBox="0 0 511 427" fill="none" xmlns="http://www.w3.org/2000/svg">
<path d="M334.913 128.235C336.248 129.252 337.074 129.761 337.901 130.333L340.507 132.049C342.223 133.193 343.94 134.338 345.592 135.482C348.898 137.707 352.14 139.868 355.255 141.966C356.844 142.983 358.115 144 360.468 145.272C363.137 146.797 367.206 147.56 370.384 146.289C372.037 145.717 373.436 144.827 374.77 143.682C375.788 142.729 376.55 141.902 377.186 141.076C378.203 139.677 379.22 138.343 380.174 137.008C382.081 134.338 383.924 131.795 385.704 129.316C389.264 124.357 392.506 119.844 395.557 115.585C401.597 107.321 406.746 99.502 410.56 94.1622C411.577 92.8273 412.53 91.6195 413.484 90.5388C414.501 89.4581 415.455 88.5046 415.899 88.1868C416.472 87.8054 416.662 87.6782 417.107 87.6146C417.552 87.5511 418.379 87.7418 419.205 88.0596C420.921 88.6953 422.892 89.7124 424.608 90.4753C426.388 91.2381 427.85 91.8738 429.503 92.3823C431.156 92.8909 433 93.018 434.525 92.6366C435.987 92.3187 437.068 91.6195 437.704 90.9838C440.183 88.2503 438.975 87.424 438.403 86.979C437.704 86.4068 436.877 86.4704 435.161 86.7883C434.207 86.7883 433.762 86.7883 432.046 85.7712C431.029 85.0719 429.821 84.3091 428.423 83.4191C426.96 82.4656 425.308 81.1942 422.765 79.8593C421.494 79.2236 419.841 78.5243 417.679 78.27C415.518 78.0158 412.848 78.5879 410.878 79.7321C408.78 80.9399 407.508 82.1477 406.173 83.4191C404.839 84.6905 403.567 86.089 402.296 87.6146C397.337 93.7808 392.633 100.328 386.213 108.529C383.098 112.661 379.729 117.047 376.105 121.878C374.325 124.294 372.418 126.773 370.448 129.379C369.494 130.651 368.477 131.922 367.524 133.257C367.079 133.766 366.697 134.211 366.443 134.401C366.507 134.338 366.443 134.401 366.443 134.401C366.316 134.338 366.57 134.528 366.125 134.274C365.299 133.829 363.646 132.621 362.12 131.604C359.005 129.506 355.827 127.345 352.521 125.057C349.343 122.895 346.101 120.67 342.668 118.382C340.761 116.92 339.744 114.441 340.125 112.851C340.189 112.406 340.316 112.089 340.57 111.644C341.27 110.563 341.969 109.482 342.732 108.338C344.194 106.113 345.656 103.825 347.182 101.473C350.169 96.8321 353.475 91.4923 356.653 86.8518C360.15 81.8935 363.9 76.6173 367.587 71.1503C369.431 68.4169 371.274 65.5563 373.118 62.5686C374.008 61.0429 374.898 59.5173 375.788 57.8645C376.868 55.7031 378.648 52.0797 378.203 49.3462C362.438 31.4198 353.411 33.4541 367.587 28.75C381.191 26.2072 394.731 23.728 407.572 21.376C414.12 20.1682 420.349 18.579 424.736 19.7232C426.897 20.2317 428.359 21.376 429.567 23.283C430.711 25.063 431.665 27.9236 432.427 30.4663C435.479 40.828 435.606 51.1262 436.623 59.7715C437.831 68.544 439.166 75.1552 439.039 79.8593C439.102 84.5634 437.958 86.8518 438.339 87.1697C438.657 87.4875 440.818 85.1355 441.581 80.1135C442.598 75.1552 441.899 67.8448 441.518 59.4537C441.2 50.999 441.899 40.4466 439.229 28.6228C438.466 25.6351 437.831 22.8381 436.051 19.4053C434.334 16.0998 430.838 13.0485 426.96 11.9678C419.141 9.80646 412.467 11.8407 406.11 12.5399C393.015 14.447 379.347 16.4812 365.553 18.4518C361.802 19.2782 357.607 19.8503 353.221 23.9187C351.059 25.9529 349.661 29.4492 349.788 32.5641C349.915 35.8061 351.123 38.2853 352.458 40.3195C355.064 44.2607 358.751 46.8671 361.675 48.7741C363.074 49.6641 364.727 50.8083 365.489 51.3804C365.553 51.5076 365.744 51.5712 365.744 51.6983L365.68 51.889C365.553 52.0797 365.807 51.6347 365.362 52.3975C364.663 53.6689 363.837 55.0674 363.01 56.4024C361.294 59.0723 359.514 61.8057 357.67 64.412C353.856 69.6883 350.169 74.8373 346.61 79.7957C342.795 85.2626 339.871 89.9667 336.693 94.7344C335.167 97.0864 333.641 99.3749 332.179 101.6C331.48 102.744 330.717 103.825 330.018 104.905C328.874 106.622 328.047 108.719 327.73 110.69C326.522 118.064 330.272 124.485 334.913 128.235Z" fill="black"/>
<path d="M84.3883 112.152C85.5325 110.881 86.7403 109.482 87.5031 108.656C87.6303 108.592 87.6938 108.465 87.8845 108.465L88.0753 108.592L88.7109 109.037C89.9188 109.864 91.1901 110.817 92.4615 111.834C94.9407 113.805 97.4199 115.903 99.899 118.001C104.73 122.323 109.498 126.519 114.075 130.587C119.097 134.91 123.483 138.343 127.933 142.03C130.094 143.81 132.256 145.526 134.29 147.242C135.307 148.069 136.324 148.895 137.341 149.721C138.676 150.802 140.71 152.073 142.554 152.646C149.673 154.934 156.539 152.455 161.052 148.386C161.624 147.878 162.133 147.306 162.641 146.797L163.722 145.589L165.82 143.237C167.218 141.712 168.553 140.186 169.888 138.66C172.558 135.673 175.101 132.749 177.644 129.952C178.915 128.489 179.996 127.409 181.585 125.311C183.556 122.832 184.954 119.018 184.191 115.712C183.683 112.343 181.013 109.165 179.741 108.02C178.343 106.685 177.199 105.732 175.991 104.588C173.575 102.426 171.223 100.328 168.935 98.2943C164.358 94.2259 160.162 90.5389 156.285 87.0426C148.656 80.1772 141.473 74.2653 136.451 69.879C135.18 68.7348 134.099 67.6541 133.082 66.5735C132.128 65.5564 131.175 64.3486 130.857 63.84C130.476 63.2043 130.412 63.0136 130.412 62.6322C130.412 62.2508 130.603 61.5515 130.984 60.7251C131.811 59.1359 133.018 57.356 134.035 55.7668C135.053 54.114 135.879 52.779 136.578 51.1262C137.277 49.537 137.722 47.6935 137.532 46.1679C137.405 44.6422 136.769 43.498 136.26 42.7352C133.781 40.0017 132.828 41.0824 132.383 41.6545C131.747 42.2902 131.747 43.1166 131.811 44.8329C131.747 45.7865 131.62 46.1679 130.412 47.6935C129.586 48.6471 128.632 49.7277 127.551 50.9991C126.407 52.3341 124.945 53.7961 123.292 56.2117C122.466 57.4196 121.576 59.0088 121.131 61.2973C120.686 63.5222 121.131 66.2556 122.085 68.2262C123.102 70.324 124.182 71.659 125.263 73.121C126.407 74.5831 127.679 75.9816 129.014 77.3802C134.608 82.9106 140.647 88.2504 148.211 95.5608C151.962 99.0571 156.03 102.871 160.48 107.003C162.705 109.037 164.993 111.199 167.346 113.36C168.49 114.441 169.698 115.521 170.905 116.666C172.05 117.873 171.605 117.556 171.732 117.619C171.668 117.746 171.795 117.492 171.541 117.873C170.969 118.7 169.443 120.226 168.235 121.56C165.756 124.357 163.15 127.218 160.48 130.206C159.145 131.668 157.81 133.194 156.412 134.719L154.314 137.071L153.233 138.215C152.979 138.406 152.852 138.66 152.598 138.851C150.881 140.504 148.148 141.14 146.559 140.504C146.05 140.313 145.923 140.25 145.224 139.741C144.206 138.915 143.189 138.088 142.172 137.262C140.075 135.609 137.977 133.893 135.752 132.113C131.493 128.617 126.471 124.802 122.148 121.179C117.571 117.174 112.74 112.915 107.591 108.656C105.048 106.558 102.378 104.397 99.5812 102.299C98.2463 101.409 96.7842 100.392 95.2585 99.3114C94.75 98.9935 92.9065 97.7857 91.5715 97.2136C90.1095 96.4508 88.6474 96.0694 87.1853 96.0058C84.0704 95.7515 81.7184 98.1671 79.4299 100.456C77.8407 102.172 76.8871 103.38 75.7429 104.715C73.6451 107.321 71.8016 109.165 69.7674 110.182C67.6061 111.199 67.2247 110.881 66.7161 110.499C65.8898 109.8 64.9998 106.876 64.8091 103.888C63.8555 90.0939 62.9656 76.363 62.0756 63.2679C61.6306 56.6567 60.8678 50.3634 62.7749 46.4857C63.7284 44.7058 65.1905 43.3709 67.4154 42.5445C69.5132 41.7816 72.628 41.1459 75.1708 40.7645C85.9139 39.2389 96.1485 40.256 104.921 40.256C113.757 40.1288 120.495 39.5567 125.136 40.256C129.84 40.7645 132.001 42.0995 132.319 41.7816C132.637 41.5274 130.539 39.1117 125.644 37.7768C120.813 36.1876 113.503 35.9333 105.112 35.3612C96.7206 34.6619 86.4225 32.7549 74.3444 33.772C71.2295 34.0898 68.5596 34.3441 64.9362 35.4248C61.5035 36.3783 57.7529 38.9846 55.7187 42.6716C51.9046 50.1727 53.2396 57.4196 53.176 63.7129C53.5574 76.9352 54.0024 90.7932 54.3838 104.715C54.7652 108.529 54.8924 112.915 58.6429 117.683C60.55 120.035 63.8555 121.624 66.9069 121.815C70.0217 122.069 72.628 121.179 74.7894 120.162C78.9849 118.128 82.0998 114.822 84.3883 112.152Z" fill="black"/>
<path d="M178.025 301.206C176.69 300.125 175.928 299.616 175.101 299.044L172.558 297.201C170.906 295.993 169.253 294.849 167.6 293.641C164.358 291.289 161.18 289.064 158.128 286.903C156.539 285.822 155.331 284.805 152.979 283.406C150.309 281.817 146.305 280.991 143.062 282.135C141.41 282.644 139.948 283.533 138.613 284.678C137.532 285.568 136.769 286.458 136.134 287.22C135.053 288.555 134.036 289.89 133.019 291.225C131.048 293.832 129.077 296.311 127.234 298.726C123.547 303.558 120.114 308.007 116.999 312.139C110.706 320.213 105.366 327.905 101.361 333.181C100.344 334.516 99.3272 335.66 98.3101 336.741C97.293 337.821 96.2759 338.711 95.8309 339.029C95.2588 339.41 95.0681 339.474 94.5595 339.538C94.1145 339.601 93.3517 339.41 92.4618 339.093C90.7454 338.393 88.8383 337.376 87.122 336.55C85.3421 335.723 83.9435 335.088 82.2272 334.516C80.5744 334.007 78.7309 333.753 77.2053 334.071C75.8067 334.325 74.7896 335.024 74.0904 335.596C71.5476 338.266 72.7554 339.093 73.264 339.538C73.9632 340.173 74.7896 340.046 76.506 339.855C77.4595 339.855 77.9045 339.919 79.5573 340.936C80.5744 341.635 81.7822 342.462 83.1172 343.415C84.5792 344.432 86.1685 345.704 88.7112 347.102C89.9826 347.802 91.5718 348.564 93.7967 348.819C95.958 349.136 98.6279 348.628 100.599 347.547C102.696 346.403 104.031 345.195 105.43 343.987C106.828 342.716 108.163 341.381 109.435 339.919C114.584 333.88 119.478 327.523 126.153 319.45C129.395 315.445 132.892 311.059 136.642 306.418C138.549 304.066 140.456 301.651 142.49 299.108C143.507 297.836 144.525 296.565 145.542 295.294C145.987 294.785 146.368 294.404 146.622 294.149C146.559 294.149 146.622 294.149 146.622 294.149C146.749 294.213 146.495 294.022 146.94 294.277C147.703 294.722 149.419 295.993 150.881 297.074C153.933 299.235 157.048 301.523 160.29 303.875C163.405 306.1 166.583 308.452 169.952 310.868C171.796 312.394 172.749 314.873 172.368 316.462C172.241 316.907 172.113 317.225 171.859 317.67C171.16 318.751 170.397 319.831 169.634 320.912C168.109 323.073 166.583 325.362 164.994 327.65C161.879 332.164 158.383 337.44 155.077 342.017C151.454 346.848 147.512 351.997 143.698 357.4C141.791 360.134 139.82 362.867 137.977 365.855C137.023 367.317 136.07 368.843 135.18 370.496C134.036 372.593 132.129 376.153 132.51 378.95C147.703 397.385 156.857 395.542 142.554 399.928C128.887 402.089 115.283 404.187 102.378 406.221C95.8309 407.238 89.474 408.637 85.1514 407.429C82.99 406.857 81.5279 405.649 80.3837 403.742C79.303 401.962 78.4131 399.038 77.7138 396.495C74.9803 386.07 75.1075 375.772 74.3447 367.063C73.3911 358.227 72.2469 351.616 72.5012 346.912C72.5647 342.207 73.7725 339.919 73.3911 339.665C73.0733 339.347 70.8484 341.635 69.9584 346.594C68.8142 351.552 69.2592 358.863 69.4499 367.254C69.5134 375.772 68.4963 386.197 70.8484 398.084C71.5476 401.072 72.0562 403.869 73.7725 407.365C75.4253 410.735 78.858 413.849 82.6722 415.057C90.4276 417.409 97.1659 415.566 103.523 415.057C116.618 413.532 130.412 411.879 144.27 410.226C148.021 409.527 152.28 409.018 156.73 405.077C158.955 403.043 160.48 399.61 160.417 396.495C160.417 393.253 159.209 390.71 158.001 388.676C155.458 384.608 151.835 381.938 148.974 379.967C147.639 379.014 145.923 377.87 145.287 377.297C145.224 377.17 145.033 377.107 145.097 376.98L145.224 376.789C145.351 376.598 145.097 377.043 145.542 376.28C146.305 375.009 147.131 373.674 148.021 372.339C149.801 369.669 151.708 367.063 153.615 364.52C157.556 359.371 161.434 354.349 165.121 349.454C169.062 344.115 172.177 339.474 175.483 334.834C177.072 332.545 178.661 330.257 180.187 328.095C180.95 327.015 181.712 325.934 182.412 324.853C183.619 323.137 184.446 321.103 184.891 319.132C186.162 311.631 182.666 305.083 178.025 301.206Z" fill="black"/>
<path d="M458.236 364.33C457.854 351.107 457.409 337.249 457.028 323.328C456.647 319.514 456.519 315.127 452.769 310.36C450.862 308.008 447.556 306.418 444.505 306.228C441.39 305.973 438.784 306.863 436.622 307.88C432.363 309.915 429.312 313.284 427.023 315.89C425.879 317.161 424.671 318.56 423.909 319.386C423.781 319.45 423.718 319.577 423.527 319.577L423.336 319.45L422.701 319.005C421.493 318.179 420.222 317.225 418.95 316.208C416.471 314.237 413.992 312.14 411.513 310.042C406.681 305.719 401.914 301.524 397.337 297.455C392.315 293.133 387.929 289.7 383.479 286.013C381.318 284.233 379.156 282.517 377.122 280.8C376.105 279.974 375.088 279.147 374.071 278.321C372.736 277.24 370.702 275.969 368.858 275.397C361.738 273.108 354.873 275.588 350.36 279.656C349.787 280.164 349.279 280.737 348.707 281.245L347.626 282.453L345.528 284.805C344.13 286.331 342.795 287.856 341.46 289.382C338.79 292.37 336.247 295.294 333.705 298.091C332.433 299.553 331.352 300.634 329.763 302.731C327.793 305.211 326.394 309.025 327.157 312.33C327.666 315.699 330.335 318.878 331.607 320.022C333.005 321.357 334.149 322.311 335.357 323.455C337.773 325.616 340.125 327.714 342.413 329.748C346.99 333.817 351.186 337.504 355.064 341C362.692 347.865 369.875 353.777 374.897 358.163C376.168 359.308 377.249 360.388 378.266 361.469C379.22 362.486 380.173 363.694 380.491 364.202C380.873 364.838 380.936 365.029 380.936 365.41C380.936 365.792 380.745 366.491 380.364 367.317C379.538 368.906 378.33 370.686 377.313 372.276C376.296 373.928 375.469 375.263 374.77 376.916C374.071 378.505 373.626 380.349 373.816 381.875C373.944 383.4 374.579 384.544 375.088 385.307C377.567 388.041 378.521 386.96 378.965 386.388C379.601 385.752 379.601 384.926 379.538 383.209C379.601 382.256 379.728 381.875 380.936 380.349C381.763 379.395 382.716 378.315 383.797 377.043C384.941 375.708 386.403 374.246 388.056 371.831C388.882 370.623 389.772 369.034 390.217 366.745C390.662 364.52 390.217 361.787 389.264 359.816C388.247 357.718 387.166 356.383 386.085 354.921C384.941 353.459 383.67 352.061 382.335 350.662C376.741 345.132 370.702 339.792 363.137 332.482C359.386 328.985 355.318 325.171 350.868 321.039C348.643 319.005 346.355 316.844 344.003 314.682C342.858 313.602 341.651 312.521 340.443 311.377C339.299 310.169 339.744 310.487 339.616 310.423C339.68 310.296 339.553 310.55 339.807 310.169C340.379 309.343 341.905 307.817 343.113 306.482C345.592 303.685 348.198 300.824 350.868 297.837C352.203 296.374 353.538 294.849 354.937 293.323L357.034 290.971L358.115 289.827C358.369 289.636 358.496 289.382 358.751 289.191C360.467 287.538 363.2 286.903 364.79 287.538C365.298 287.729 365.425 287.793 366.125 288.301C367.142 289.128 368.159 289.954 369.176 290.78C371.274 292.433 373.371 294.15 375.596 295.93C379.855 299.426 384.877 303.24 389.2 306.863C393.777 310.868 398.608 315.127 403.757 319.386C406.3 321.484 408.97 323.646 411.767 325.743C413.165 326.824 414.628 327.841 416.153 328.858C416.662 329.176 418.505 330.384 419.84 330.956C421.302 331.719 422.764 332.1 424.226 332.164C427.341 332.418 429.693 330.002 431.982 327.65C433.571 325.934 434.525 324.726 435.669 323.391C437.767 320.785 439.61 318.941 441.644 317.924C443.806 316.907 444.187 317.225 444.696 317.606C445.522 318.306 446.412 321.23 446.603 324.218C447.556 338.012 448.446 351.743 449.336 364.838C449.781 371.513 450.544 377.806 448.637 381.684C447.683 383.464 446.285 384.799 443.996 385.625C441.899 386.388 438.784 387.024 436.241 387.405C425.498 388.931 415.263 387.914 406.491 387.914C397.655 388.041 390.916 388.613 386.276 387.914C381.572 387.405 379.41 386.07 379.093 386.388C378.775 386.642 380.873 389.058 385.767 390.393C390.599 391.982 397.909 392.236 406.3 392.808C414.755 393.508 425.053 395.415 437.131 394.398C440.246 394.08 442.979 393.825 446.539 392.745C450.035 391.791 453.722 389.121 455.757 385.434C459.507 377.806 458.172 370.623 458.236 364.33Z" fill="black"/>
<path d="M245.599 376.662C249.222 376.535 252.401 375.581 255.198 374.564C258.312 373.483 261.173 371.449 263.207 369.351C266.259 366.237 268.229 362.74 269.501 359.244C269.628 359.625 269.691 359.88 269.818 360.261C270.963 363.185 272.615 366.745 275.603 370.178C278.464 373.674 283.486 376.853 289.398 377.298C292.258 377.425 295.246 377.107 297.916 376.28C300.522 375.708 303.701 374.119 306.053 372.148C310.884 368.144 313.744 362.55 315.079 357.083C316.414 351.679 316.478 346.594 316.541 342.271C316.541 338.012 316.541 334.071 316.478 330.638C316.033 299.807 314.762 287.538 313.045 282.644C314.762 282.453 316.478 282.072 318.067 281.372C322.708 279.529 326.395 275.588 328.62 271.138C330.781 266.688 331.607 261.92 332.179 257.407C333.133 248.507 333.959 239.48 334.468 230.009C335.421 211.192 334.214 190.469 326.395 171.144C322.517 161.545 317.177 152.137 309.04 144.636C304.972 140.949 300.331 137.707 295.055 135.673C289.97 133.638 283.931 132.558 279.163 132.431C259.52 131.159 239.941 131.35 221.888 137.898C212.988 141.14 204.66 146.734 198.876 153.853C193.154 160.909 189.785 168.792 187.688 176.039C183.873 189.452 183.428 202.038 182.983 213.481C182.666 224.987 182.856 235.73 183.238 245.647C183.428 250.605 183.619 255.373 183.81 260.013C184.001 264.463 184.255 269.612 185.208 274.253C186.225 278.957 187.751 283.724 190.93 287.983C194.044 292.306 199.257 295.485 204.47 295.993C208.22 296.438 211.717 295.675 214.704 294.404C213.687 302.096 213.115 314.873 214.386 329.494C215.721 341.318 217.374 354.794 225.829 366.745C229.834 372.784 238.225 377.425 245.599 376.662ZM223.159 328.413C220.362 313.411 219.281 299.998 218.264 292.688C221.888 290.335 224.685 287.284 226.655 283.915C230.469 277.113 231.041 270.566 231.423 265.226C231.804 254.61 231.868 246.537 231.931 239.798C232.059 212.972 230.533 211.828 228.817 211.764C227.1 211.701 225.447 212.654 223.032 239.353C222.523 246.028 221.824 254.228 220.998 264.399C220.489 269.231 219.599 274.253 217.12 278.257C214.895 282.072 209.873 285.314 205.868 284.678C203.77 284.296 201.927 283.279 200.401 281.118C198.812 278.957 197.668 275.715 196.969 272.091C195.634 264.972 195.952 255.245 195.507 245.519C195.252 235.666 195.125 225.177 195.443 214.116C195.888 202.992 196.46 191.168 199.702 179.789C201.482 173.56 204.215 167.33 208.538 161.927C212.734 156.714 218.773 152.391 226.147 149.658C240.895 144 259.584 143.301 278.21 144.254C283.104 144.318 286.728 145.081 290.733 146.479C294.61 147.878 298.17 150.293 301.412 153.09C307.96 158.812 312.918 166.821 316.541 175.34C323.979 192.503 325.759 211.637 325.378 229.945C325.187 239.099 324.678 248.189 324.043 256.835C323.534 265.226 321.055 272.536 315.143 275.143C312.346 276.541 309.104 276.605 306.434 275.524C303.764 274.38 301.539 272.218 300.141 269.485C297.28 263.573 296.072 257.089 295.437 251.177C294.165 239.29 294.61 229.373 294.547 222.571C294.61 215.706 294.356 211.892 293.975 211.892C293.53 211.892 292.894 215.579 292.004 222.38C291.241 229.182 290.033 239.099 290.542 251.559C290.86 257.788 291.623 264.781 294.737 272.028C296.39 275.778 299.505 279.465 303.828 281.436C304.527 281.754 305.29 281.944 305.989 282.135C304.273 286.521 303.256 298.472 303.764 330.956C303.637 337.758 304.781 347.166 303.637 354.731C303.001 358.481 301.412 361.977 298.996 364.457C296.899 366.745 292.767 368.207 289.525 368.525C282.85 369.097 277.256 362.74 274.141 358.163C272.806 356.256 271.853 354.731 270.963 353.396C271.471 350.599 271.725 347.992 271.789 345.64C271.853 338.902 271.471 333.88 271.344 329.24C270.899 320.086 270.327 313.856 269.691 309.66C268.42 301.269 266.831 300.951 265.114 301.015C263.398 301.015 261.809 301.396 260.792 309.788C260.283 313.983 259.902 320.213 259.711 329.367C259.584 333.88 259.647 339.538 259.457 345.195C259.202 350.853 258.122 356.638 254.244 360.579C253.163 361.596 252.146 362.422 250.557 362.995C248.714 363.694 246.743 364.33 244.963 364.457C241.34 364.838 238.098 363.44 234.919 359.753C228.626 351.997 225.32 339.347 223.159 328.413Z" fill="black"/>
<path d="M228.371 115.013C233.393 118.573 236.635 119.272 238.352 119.272C240.068 119.272 240.513 118.509 240.831 117.746C241.149 116.92 241.403 116.093 240.449 114.822C239.559 113.551 237.525 111.834 234.283 108.338C231.168 104.842 226.655 98.9299 225.129 88.8225C224.557 83.8641 224.621 77.6344 227.418 71.786C230.088 65.9377 235.618 60.2801 244.073 57.1652C248.586 55.5124 254.435 54.3682 260.283 54.8132C266.131 55.3217 272.107 57.6102 276.747 62.1236C286.155 70.8961 288.952 88.3775 283.867 100.328C281.451 106.495 276.747 111.199 271.725 114.186C266.64 117.238 261.173 118.446 256.532 118.7C247.124 119.272 241.212 116.729 240.831 117.81C240.513 118.255 245.789 122.578 256.405 123.595C261.618 124.103 268.292 123.531 274.904 120.48C281.451 117.492 288.126 111.962 291.877 104.143C295.818 96.5143 297.216 87.2333 296.008 78.5243C295.055 69.6883 291.368 60.6615 284.948 53.9232C278.591 47.1214 269.627 43.3708 261.427 42.5444C253.163 41.7816 245.789 43.1801 239.623 45.405C228.308 49.537 219.917 57.9281 216.103 66.8277C212.161 75.7909 212.479 84.182 213.623 90.8567C216.484 104.27 223.54 111.453 228.371 115.013Z" fill="black"/>
<path d="M301.539 46.8671C312.028 58.4366 313.807 71.6589 315.142 71.4047C315.651 71.3411 316.032 67.9719 314.825 62.6322C313.617 57.356 310.438 50.2362 304.908 43.9429C299.314 37.6496 292.639 33.6448 287.554 31.8013C282.405 29.9578 278.972 29.8942 278.908 30.4028C278.4 31.6742 291.304 35.0433 301.539 46.8671Z" fill="black"/>
<path d="M319.91 48.0749C321.054 47.9477 320.864 41.5273 316.477 35.3611C312.155 29.1314 306.243 26.7793 305.671 27.7964C305.035 28.8771 309.167 32.5005 312.854 37.9039C316.668 43.2437 318.702 48.3292 319.91 48.0749Z" fill="black"/>
<path d="M403.63 336.55C412.594 343.352 421.557 345.64 421.875 344.56C422.32 343.352 414.628 339.411 406.3 332.99C397.909 326.697 391.934 320.34 390.917 321.166C390.027 321.802 394.667 329.812 403.63 336.55Z" fill="black"/>
<path d="M292.576 382.065C278.527 383.336 265.877 384.735 256.723 385.943C247.633 387.151 241.975 387.405 241.912 387.977C241.848 388.613 247.633 389.503 256.977 389.058C266.259 388.676 278.909 387.723 292.957 386.451C320.991 383.909 343.685 380.857 343.558 379.649C343.495 378.505 320.673 379.522 292.576 382.065Z" fill="black"/>
</svg>
