<svg width="20" height="20" viewBox="0 0 20 20" fill="none" xmlns="http://www.w3.org/2000/svg">
<g clip-path="url(#clip0_1_14383)">
<path d="M4 0C1.79446 0 0 1.79446 0 4V16C0 18.2055 1.79446 20 4 20H16C18.2055 20 20 18.2055 20 16V4C20 1.79415 18.2055 0 16 0H4ZM4 0.615385H16C17.8662 0.615385 19.3846 2.13385 19.3846 4V16C19.3846 17.8662 17.8662 19.3846 16 19.3846H4C2.13385 19.3846 0.615385 17.8662 0.615385 16V4C0.615385 2.13385 2.13385 0.615385 4 0.615385ZM4.8732 1.53786C3.03443 1.53786 1.53846 3.03383 1.53846 4.8726V15.1268C1.53846 16.9656 3.03443 18.4609 4.8732 18.4609H15.1268C16.9656 18.4609 18.4615 16.9656 18.4615 15.1268V9.38462C18.4615 9.29938 18.3926 9.23077 18.3077 9.23077C18.2228 9.23077 18.1538 9.29969 18.1538 9.38462V15.1268C18.1538 16.7957 16.7957 18.1538 15.1268 18.1538H4.8732C3.20427 18.1538 1.84615 16.7957 1.84615 15.1268V4.8726C1.84615 3.20367 3.20427 1.84555 4.8732 1.84555H15.2308C15.3157 1.84555 15.3846 1.77663 15.3846 1.69171C15.3846 1.60678 15.3157 1.53786 15.2308 1.53786H4.8732ZM9.85817 5.24339C8.63387 5.24339 8.4845 5.24673 8.00481 5.27103C7.55588 5.29042 7.20528 5.35692 6.86959 5.48738C6.53575 5.616 6.2757 5.78502 6.02524 6.03426C5.77447 6.28349 5.6043 6.54241 5.47476 6.8738C5.34368 7.20734 5.2763 7.55514 5.25661 8.01022C5.236 8.47976 5.22897 8.6379 5.22897 9.84375C5.22897 11.0607 5.2329 11.2094 5.25721 11.6857C5.2766 12.1322 5.34368 12.4805 5.47476 12.8143C5.6043 13.146 5.77447 13.4046 6.02524 13.6538C6.2757 13.9031 6.53575 14.0718 6.86959 14.2007C7.20498 14.3309 7.55565 14.3977 8.01442 14.4177C8.48673 14.438 8.64556 14.4447 9.85817 14.4447C11.0825 14.4447 11.2322 14.4414 11.7115 14.4171C12.1605 14.3977 12.5105 14.3312 12.8462 14.2007C13.1797 14.0721 13.4403 13.9031 13.6911 13.6538C13.9419 13.4046 14.1114 13.1457 14.241 12.8143C14.3721 12.4808 14.4394 12.1326 14.4591 11.6791C14.4798 11.2095 14.4874 11.0514 14.4874 9.84435C14.4874 8.62712 14.4838 8.4784 14.4591 8.0024C14.4398 7.55563 14.3721 7.20764 14.241 6.8738C14.1114 6.54211 13.9419 6.28288 13.6911 6.03365C13.4403 5.78442 13.1803 5.6163 12.8468 5.48738C12.5114 5.35723 12.1607 5.29043 11.7019 5.27043C11.2296 5.25013 11.0708 5.24339 9.85817 5.24339ZM9.85877 5.55108C11.0646 5.55108 11.2223 5.55751 11.6989 5.57813C12.1134 5.59628 12.4331 5.6571 12.7362 5.77464C13.0282 5.88726 13.256 6.03426 13.4748 6.2518C13.6938 6.46965 13.8423 6.69573 13.9555 6.98558V6.98618C14.0737 7.2871 14.1342 7.60392 14.152 8.01623C14.1764 8.48638 14.1803 8.63421 14.1803 9.84375C14.18 11.0447 14.1727 11.2011 14.152 11.6725C14.1339 12.0839 14.0734 12.4016 13.9549 12.7025C13.8417 12.9921 13.6935 13.2185 13.4742 13.4363C13.2554 13.6538 13.0273 13.8008 12.735 13.9135C12.4316 14.031 12.1122 14.0921 11.6971 14.11C11.2236 14.134 11.0751 14.137 9.85817 14.137C8.65202 14.137 8.49434 14.1306 8.01803 14.11C7.60357 14.0918 7.28385 14.031 6.98077 13.9135C6.68846 13.8005 6.46096 13.6538 6.24219 13.4363C6.02311 13.2185 5.87496 12.9921 5.76142 12.7019C5.64326 12.4007 5.58275 12.0836 5.5649 11.6713C5.5409 11.2008 5.53726 11.0533 5.53726 9.84375C5.53726 8.64437 5.54429 8.48824 5.5649 8.01563C5.58306 7.60424 5.64356 7.28619 5.76202 6.98558C5.87525 6.69573 6.02311 6.46934 6.24219 6.2518C6.46096 6.03426 6.68906 5.88726 6.98137 5.77464C7.28476 5.6571 7.60476 5.59597 8.01983 5.57813C8.49368 5.55413 8.64185 5.55108 9.85877 5.55108ZM18.3077 6.15385C18.2228 6.15385 18.1538 6.22246 18.1538 6.30769V6.92308C18.1538 7.008 18.2228 7.07692 18.3077 7.07692C18.3926 7.07692 18.4615 7.008 18.4615 6.92308V6.30769C18.4615 6.22277 18.3926 6.15385 18.3077 6.15385ZM12.3287 6.62801C11.9484 6.62801 11.6388 6.93584 11.6388 7.3143C11.6388 7.69276 11.9484 8.0006 12.3287 8.0006C12.709 8.0006 13.0186 7.69276 13.0186 7.3143C13.0189 6.93584 12.7093 6.62801 12.3287 6.62801ZM12.3287 6.9357C12.5395 6.9357 12.7109 7.10538 12.7109 7.3143C12.7112 7.52323 12.5398 7.69291 12.3287 7.69291C12.118 7.69291 11.9465 7.52323 11.9465 7.3143C11.9465 7.10538 12.118 6.9357 12.3287 6.9357ZM18.3077 7.38462C18.2228 7.38462 18.1538 7.45354 18.1538 7.53846V8.76923C18.1538 8.85415 18.2228 8.92308 18.3077 8.92308C18.3926 8.92308 18.4615 8.85415 18.4615 8.76923V7.53846C18.4615 7.45323 18.3926 7.38462 18.3077 7.38462ZM9.85457 7.40505C8.50164 7.40505 7.40084 8.49883 7.40084 9.84375C7.40084 11.1887 8.50164 12.2831 9.85457 12.2831C11.2075 12.2831 12.3083 11.1887 12.3083 9.84375C12.3083 8.49913 11.2075 7.40505 9.85457 7.40505ZM9.85457 7.71274C11.038 7.71274 12.0006 8.66837 12.0006 9.84375C12.0006 11.0191 11.038 11.9754 9.85457 11.9754C8.67118 11.9754 7.70853 11.0191 7.70853 9.84375C7.70853 8.66867 8.67118 7.71274 9.85457 7.71274Z" fill="black"/>
</g>
<defs>
<clipPath id="clip0_1_14383">
<rect width="20" height="20" fill="white"/>
</clipPath>
</defs>
</svg>
