<svg width="104" height="73" viewBox="0 0 104 73" fill="none" xmlns="http://www.w3.org/2000/svg">
<g clip-path="url(#clip0_49_282)">
<path d="M0.381165 35.0132C15.0559 21.6122 31.0079 9.99341 48.5443 0.560539C49.485 0.0583713 50.7029 0.58023 51.099 1.46641C51.1584 1.49595 51.2178 1.51564 51.2772 1.56487C53.4953 3.39631 55.3668 5.91699 57.8224 7.4235C58.5255 7.85674 58.6146 8.67399 58.2779 9.35339C57.357 11.2242 56.3272 13.4397 55.0895 15.4188C67.0907 13.1935 79.4978 12.6323 91.4594 10.3971C92.5882 10.1903 93.4101 10.8107 93.7567 11.6181C104.58 14.1388 104.045 27.9927 104.045 37.0908C104.045 44.0325 104.441 52.5398 101.916 59.0975C100.223 63.4989 92.509 65.9014 88.4294 66.9254C88.0531 67.0239 87.7165 66.9451 87.4293 66.7777C87.3699 66.7679 87.3105 66.7679 87.2511 66.7482C76.5669 63.5087 65.9123 60.1609 55.2578 56.8131C56.8521 60.4563 57.6244 64.8872 58.0106 68.491C58.07 69.0227 57.6442 69.4953 57.2382 69.7612C54.8618 71.2972 51.9704 73.0007 49.0691 72.4296C48.9503 72.4099 48.8513 72.341 48.782 72.2622C48.1878 72.6757 47.3561 72.784 46.7322 72.3902C30.2158 61.8545 15.0163 49.96 0.34156 37.0317C-0.242653 36.5197 -0.153542 35.5055 0.381165 35.0132ZM100.629 27.8745C98.6284 26.0431 96.6381 24.3692 94.0834 23.1187C93.1526 22.6658 93.8656 21.1888 94.8162 21.5039C96.5886 22.075 98.4007 22.9513 99.9751 24.1132C98.9354 19.9974 96.7669 16.4724 92.4496 14.3357H92.4397C91.9941 14.4341 91.5485 14.5228 91.1029 14.6212C91.3802 18.8355 91.4792 23.0498 91.4792 27.264C93.0437 28.3373 94.5983 29.3909 96.0836 30.5724C97.6481 31.8032 99.5097 32.9454 100.817 34.4716C100.876 32.2463 100.856 30.021 100.629 27.8745ZM100.678 35.2692C98.668 34.639 96.9154 33.1719 95.1924 31.9903C93.8656 31.0844 92.6476 30.0604 91.4495 28.997C91.4297 30.8481 91.3703 32.6894 91.3109 34.5405C94.5488 36.8446 97.4798 39.5721 100.44 42.2207C100.44 42.201 100.44 42.1814 100.44 42.1617C100.54 39.9561 100.698 37.6126 100.787 35.2593C100.757 35.2692 100.728 35.2889 100.678 35.2692ZM100.431 44.446C100.381 44.4263 100.332 44.4165 100.282 44.3771C97.262 42.0041 94.1131 39.7001 91.2515 37.1105C91.1623 39.5524 91.0435 41.9943 90.9049 44.4263C91.0435 44.387 91.202 44.4067 91.3802 44.4953C94.7171 46.3759 97.46 48.8671 99.9949 51.7225C100.589 52.3921 99.6087 53.3374 98.975 52.6776C96.4896 50.088 93.6774 47.8135 90.8356 45.6178C90.7069 47.9514 90.5583 50.285 90.3999 52.6186H90.4098C93.1031 54.2235 96.0044 56.0451 98.3611 58.2113C100.609 55.7497 100.46 48.7489 100.431 44.446ZM96.8263 59.4323C94.5191 58.1523 92.3209 56.5178 90.2811 54.8636C90.0929 57.6895 89.9048 60.5154 89.7266 63.3315C92.1921 62.209 94.5686 60.9979 96.8263 59.4323ZM46.6233 13.164C45.9005 14.7788 45.1578 16.3837 44.3954 17.9789C46.4748 17.3487 48.574 16.817 50.6831 16.3345C50.7227 16.2163 50.7821 16.108 50.8218 15.9899C49.4751 15.1923 48.1779 14.3455 46.8808 13.4397C46.762 13.3609 46.6827 13.2624 46.6233 13.164ZM49.0889 7.81735C49.0592 7.77796 49.0394 7.73858 49.0196 7.69919C48.4057 9.14662 47.772 10.594 47.1283 12.0316C47.3066 11.9824 47.5145 11.9922 47.7224 12.0907C49.079 12.7307 50.3861 13.4101 51.6832 14.1289C52.2377 13.0852 52.8814 12.0612 53.5547 11.0765C51.8219 10.466 50.3168 9.11708 49.0889 7.81735ZM55.3569 8.58537C54.0597 6.78348 52.2575 5.26713 50.7326 3.62278C50.2771 4.76496 49.782 5.88745 49.2969 7.01979C49.4157 6.97056 49.5543 6.9804 49.6929 7.07887C51.1287 8.14228 52.7526 9.11708 54.0696 10.3479C54.5053 9.7374 54.941 9.14662 55.3569 8.58537ZM46.861 62.1401C47.0491 62.0908 47.2669 62.1105 47.465 62.2681C49.1681 63.6564 51.0792 64.9167 53.0398 65.9211C53.9805 66.4036 53.119 67.7624 52.1783 67.2996C50.3465 66.4036 48.782 65.3106 47.366 63.9124C47.97 66.0983 48.6433 68.2645 49.4454 70.4209C49.4949 70.5587 49.5048 70.6868 49.5147 70.8148C51.1485 69.6726 53.0794 68.9735 54.7825 67.8608C54.2775 66.1672 53.8518 64.4441 53.3963 62.7407C52.4259 61.6182 51.3565 60.6336 50.1385 59.7769C48.9305 58.9301 47.2769 58.5363 46.2471 57.5122C45.8807 57.1479 46.2074 56.6162 46.6629 56.5867C48.1482 56.5079 49.7523 57.719 50.9208 58.5166C51.4951 58.9104 52.0298 59.3437 52.5447 59.8065C52.109 58.4083 51.6634 57.0396 51.406 55.6119C49.3365 54.962 47.267 54.3122 45.1875 53.6623C45.5935 56.5276 46.148 59.3437 46.861 62.1401ZM44.3162 66.5316C42.821 61.628 41.7912 56.6556 41.2268 51.4862C41.0782 50.1767 42.0684 48.8474 43.5339 49.3102C57.7927 53.7411 72.0813 58.103 86.3005 62.6422C88.667 46.9076 88.5383 30.9958 88.677 15.1332C73.0021 18.1561 56.8719 17.8312 41.4743 22.587C39.89 23.0793 38.9295 21.238 39.5731 19.9875C41.9001 15.4779 43.9696 10.8599 45.8906 6.173C30.8297 14.7394 16.6006 24.635 3.5597 36.0569C16.3233 47.1833 30.0969 57.2858 44.3162 66.5316Z" fill="black"/>
</g>
<defs>
<clipPath id="clip0_49_282">
<rect width="104" height="73" fill="white" transform="matrix(-1 0 0 1 104 0)"/>
</clipPath>
</defs>
</svg>
