<svg width="32" height="32" viewBox="0 0 32 32" fill="none" xmlns="http://www.w3.org/2000/svg">
<path d="M20.7341 6.74613C16.3391 2.96243 9.39703 5.68613 8.79711 11.4768C8.41915 15.1042 10.9023 19.4703 13.3749 22.173C12.5087 22.6245 11.7411 23.266 11.0587 23.8391C10.5536 24.2621 10.6168 24.626 11.1453 24.996C12.5179 25.8914 14.217 26.9999 16.0872 26.9999C17.8066 26.9999 19.3191 26.0598 20.6808 25.1922C21.2402 24.8411 21.3261 24.6236 21.3924 24.3573C21.4845 23.7185 20.9079 23.366 20.3345 23.132C20.3338 23.1317 20.3018 23.1186 20.3011 23.1186C19.5919 22.8389 18.9157 22.5139 18.0554 22.1868C21.178 17.7846 22.5479 16.1209 23.0661 13.8803C23.6571 11.328 22.7197 8.46103 20.7341 6.74613ZM15.1788 26.5649L15.4478 26.2955L15.7966 26.6443C15.5894 26.6312 15.3829 26.6047 15.1788 26.5649ZM15.9268 26.6525C15.9601 26.6188 15.9601 26.5649 15.9268 26.5316L15.5694 26.1742L15.9058 25.8378L16.4295 26.3611L16.2006 26.59C16.1831 26.6075 16.1759 26.6305 16.1766 26.6535C16.0931 26.6556 16.0099 26.6556 15.9268 26.6525ZM16.6446 26.5762C16.6775 26.6092 16.7322 26.6102 16.7662 26.5762C16.7999 26.5426 16.7999 26.4883 16.7662 26.4546L16.6727 26.3611L17.1493 25.8846L17.5324 26.268L17.4341 26.3663C17.408 26.3921 17.4084 26.4285 17.4225 26.4601C17.0854 26.5563 16.7404 26.6199 16.3896 26.6439L16.5504 26.4831L16.6446 26.5762ZM17.6726 25.3613L18.0561 25.7447L17.654 26.1467L17.2709 25.7633L17.6726 25.3613ZM19.2057 25.5107L18.869 25.1743L19.2243 24.8191L19.5607 25.1558L19.2057 25.5107ZM19.1222 25.6702C19.1264 25.6812 19.1267 25.6935 19.1356 25.7021C19.1425 25.709 19.1521 25.7083 19.1604 25.7124C18.9484 25.8296 18.7316 25.9426 18.5093 26.0467C18.5278 26.0141 18.5285 25.9739 18.5007 25.9461L18.2993 25.7447L18.7481 25.296L19.1222 25.6702ZM18.379 26.0674C18.3911 26.0794 18.4072 26.0821 18.4227 26.0856C18.1722 26.1996 17.9162 26.3027 17.6551 26.3883L18.1777 25.8657L18.379 26.0674ZM20.2046 23.4502C20.3808 23.5223 20.5605 23.5983 20.7138 23.7034L20.4953 23.9216L20.3221 23.7484C20.2884 23.7147 20.2341 23.7147 20.2005 23.7484C20.1668 23.7821 20.1668 23.8364 20.2005 23.87L20.3733 24.0432L20.2939 24.1226C20.2602 24.1563 20.2602 24.2106 20.2939 24.2442C20.3279 24.2782 20.3822 24.2772 20.4155 24.2442L20.4949 24.1649L20.6526 24.3226C20.686 24.3559 20.7402 24.3562 20.7743 24.3226C20.8079 24.2889 20.8079 24.2346 20.7743 24.2009L20.6165 24.0432L20.8474 23.8127C21.2876 24.2439 20.9904 24.5919 20.497 24.9019C20.1417 25.1283 19.76 25.3712 19.3576 25.6018L20.2056 24.7538L20.3132 24.8613C20.3465 24.8947 20.4008 24.895 20.4348 24.8613C20.4685 24.8277 20.4685 24.7734 20.4348 24.7397L19.8555 24.16C19.8218 24.1264 19.7675 24.1264 19.7338 24.16C19.7002 24.1937 19.7002 24.248 19.7338 24.2817L20.0843 24.6321L19.6823 25.0342L19.3459 24.6974L19.3827 24.6607C19.4164 24.627 19.4164 24.5727 19.3827 24.539C19.349 24.5054 19.2947 24.5054 19.2611 24.539L19.2243 24.5758L19.182 24.5335C19.1487 24.5002 19.0944 24.4995 19.0607 24.5335C19.0271 24.5672 19.0271 24.6215 19.0607 24.6552L19.1027 24.6974L18.7474 25.0527L18.5649 24.8703C18.5313 24.8366 18.477 24.8366 18.4433 24.8703C18.4096 24.9039 18.4096 24.9582 18.4433 24.9919L18.6257 25.1743L18.177 25.6231L17.7935 25.2396L17.998 25.0352C18.0317 25.0015 18.0317 24.9472 17.998 24.9136C17.9643 24.8799 17.91 24.8799 17.8764 24.9136L17.6585 25.1314C17.6317 25.1266 17.6042 25.13 17.5836 25.1506C17.563 25.1713 17.5596 25.1987 17.5644 25.2255L17.149 25.641L16.7332 25.2249C16.6995 25.1915 16.6452 25.1908 16.6116 25.2249C16.5779 25.2585 16.5779 25.3128 16.6116 25.3465L17.0273 25.7626L16.5504 26.2395L16.0268 25.7162L16.6878 25.0551C16.7215 25.0214 16.7215 24.9672 16.6878 24.9335C16.6542 24.8998 16.5999 24.8998 16.5662 24.9335L15.4475 26.0522L15.1812 25.786C15.1475 25.7523 15.0932 25.7523 15.0599 25.786C15.0262 25.8196 15.0262 25.8739 15.0599 25.9076L15.3262 26.1739L15.0224 26.4776C15.009 26.491 15.0052 26.5085 15.0025 26.5257C13.6494 26.2151 12.3898 25.397 11.3377 24.7108C10.9869 24.4652 10.9686 24.3621 11.2793 24.1016C11.9689 23.5223 12.7461 22.8691 13.6109 22.4338C13.9081 22.7558 14.7946 23.6295 15.1069 23.934C15.0781 23.9676 15.0777 24.0175 15.1094 24.0494C15.1396 24.0796 15.1891 24.0858 15.2276 24.0508C15.4495 24.2597 15.8924 24.6662 16.1927 24.6208C16.7006 24.5394 17.2672 23.3017 17.8523 22.473C18.6436 22.7688 19.3779 23.1231 20.2046 23.4502ZM16.0147 23.8532L15.7216 23.5598L16.1371 23.1444L16.2766 23.2839L16.092 23.4684C16.0584 23.5021 16.0584 23.5563 16.092 23.59C16.1254 23.6233 16.1797 23.6237 16.2137 23.59L16.3982 23.4055L16.6765 23.6838C16.4728 23.9896 16.2608 24.2631 16.1401 24.2824C16.0553 24.2889 15.8261 24.1308 15.4753 23.8068L15.6004 23.6818L15.8934 23.9752C15.9275 24.0092 15.9818 24.0082 16.0151 23.9752C16.0481 23.9412 16.0481 23.8869 16.0147 23.8532ZM22.7314 13.8026C22.3497 15.4546 21.391 16.8885 20.4179 18.266C20.4289 18.2354 20.4286 18.202 20.4042 18.1777L20.0943 17.8677L20.3719 17.5901L20.5568 17.775C20.5901 17.8083 20.6444 17.8086 20.6784 17.775C20.7121 17.7413 20.7121 17.687 20.6784 17.6533L20.4935 17.4685L20.5798 17.3822C20.6135 17.3485 20.6135 17.2943 20.5798 17.2606C20.5461 17.2269 20.4918 17.2269 20.4581 17.2606L20.3719 17.3468L20.141 17.1159C20.1073 17.0823 20.053 17.0823 20.0194 17.1159C19.9857 17.1496 19.9857 17.2039 20.0194 17.2376L20.2503 17.4685L19.9726 17.7461L19.9565 17.7299C19.9232 17.6966 19.8689 17.6959 19.8349 17.7299C19.8012 17.7636 19.8012 17.8179 19.8349 17.8516L19.851 17.8677L19.6201 18.0986C19.5864 18.1323 19.5864 18.1866 19.6201 18.2203C19.6534 18.2536 19.7077 18.2539 19.7417 18.2203L19.9726 17.9894L20.2822 18.2993C20.3114 18.3285 20.3479 18.334 20.3901 18.3051C20.2221 18.5426 19.2483 19.9145 19.137 20.0712L18.7903 19.7245L19.528 18.9868L19.6205 19.0793C19.6538 19.1126 19.7081 19.1129 19.7421 19.0793C19.7758 19.0456 19.7758 18.9913 19.7421 18.9576L19.3126 18.5281C19.2789 18.4944 19.2246 18.4944 19.191 18.5281C19.1573 18.5618 19.1573 18.6161 19.191 18.6498L19.4064 18.8652L18.6687 19.6026L18.6068 19.5407C18.5732 19.507 18.5189 19.507 18.4852 19.5407C18.4515 19.5744 18.4515 19.6287 18.4852 19.6623L18.5471 19.7242L18.5158 19.7555C18.4821 19.7891 18.4821 19.8434 18.5158 19.8771C18.5491 19.9104 18.6034 19.9108 18.6374 19.8771L18.6687 19.8458L19.0243 20.2014C19.0288 20.2059 19.035 20.2049 19.0401 20.208C16.4752 23.8199 17.5764 22.283 16.7727 23.5371L16.5198 23.2842L17.2895 22.5146C17.3695 22.4348 17.2486 22.3125 17.1679 22.3929L16.3982 23.1626L16.2587 23.0231L17.1191 22.1627L17.3084 22.352C17.3417 22.3854 17.396 22.3857 17.43 22.352C17.4637 22.3184 17.4637 22.2641 17.43 22.2304L16.8267 21.627L17.6719 20.7818L17.9495 21.0594L17.6266 21.3824C17.5929 21.4161 17.5929 21.4704 17.6266 21.504C17.6599 21.5374 17.7142 21.5377 17.7478 21.504L18.0822 21.1697C18.1121 21.178 18.1316 21.1862 18.1646 21.1536C18.1873 21.1309 18.189 21.1003 18.1808 21.0711L18.69 20.5619C18.7237 20.5282 18.7237 20.4739 18.69 20.4402C18.6563 20.4066 18.602 20.4066 18.5684 20.4402L18.0705 20.9381L17.7929 20.6605L18.0224 20.431C18.0561 20.3973 18.0561 20.343 18.0224 20.3093C17.9887 20.2757 17.9344 20.2757 17.9011 20.3093L17.6475 20.5629C17.6286 20.565 17.6097 20.5701 17.5953 20.5846C17.5809 20.599 17.5757 20.6179 17.5736 20.6368L16.0608 22.1496C16.0271 22.1833 16.0271 22.2376 16.0608 22.2713C16.0941 22.3046 16.1484 22.305 16.1824 22.2713L16.7047 21.749L16.9974 22.0418L16.1371 22.9021L15.6608 22.4252C15.6272 22.3915 15.5729 22.3915 15.5392 22.4252C15.5055 22.4589 15.5055 22.5132 15.5392 22.5469L16.0154 23.0231L15.6 23.4385L15.0166 22.8547C14.9829 22.821 14.9286 22.821 14.8949 22.8547C14.8613 22.8884 14.8613 22.9427 14.8949 22.9763L15.4784 23.5601L15.3499 23.6886C15.0801 23.4306 14.1256 22.4919 13.7765 22.1067C11.2865 19.4445 8.76824 15.0722 9.13864 11.5129C9.71039 5.99571 16.3247 3.40258 20.5097 7.00624C22.4015 8.64039 23.2942 11.3713 22.7314 13.8026Z" fill="black"/>
<path d="M17.8659 7.89437C16.9777 7.54355 15.9421 7.46556 14.8704 7.66828C13.8781 7.85623 13.0318 8.25927 12.4229 8.83445C11.2623 9.9295 10.8688 11.8382 11.4657 13.4758C12.034 15.0347 13.7626 16.8176 15.3542 16.8176H15.3569C16.1431 16.819 17.792 16.9499 19.2764 15.5432C21.7523 13.1978 20.9322 9.10418 17.8659 7.89437ZM16.6949 8.29397C16.6935 8.29535 16.6942 8.29706 16.6932 8.29844L16.5094 8.11461L16.5784 8.04555C16.609 8.01497 16.608 7.96893 16.5832 7.93525C16.7214 7.95072 16.8578 7.97099 16.9914 7.99779L16.6949 8.29397ZM16.3881 7.99332L16.3063 7.91155C16.3585 7.91429 16.4107 7.91739 16.4623 7.92185C16.4609 7.92323 16.4585 7.92254 16.4571 7.92392L16.3881 7.99332ZM16.0953 7.9033C16.0943 7.92632 16.1015 7.94969 16.119 7.96755L16.2664 8.11496L15.8634 8.518C15.8582 8.5235 15.8589 8.53105 15.8555 8.53724C15.8514 8.52521 15.8507 8.51181 15.8411 8.50219L15.582 8.24312L15.5868 8.23831C15.6205 8.20464 15.6205 8.15035 15.5868 8.11667C15.5531 8.083 15.4988 8.083 15.4652 8.11667L15.4603 8.12114L15.2889 7.94969C15.5621 7.91429 15.8314 7.89952 16.0953 7.9033ZM14.9343 8.00569C15.0054 7.99229 15.0762 7.98301 15.147 7.97202C15.1343 8.00294 15.1343 8.03799 15.1594 8.06342L15.3387 8.24277L14.9645 8.61695L14.4814 8.13385C14.4732 8.12561 14.4615 8.12561 14.4512 8.12114C14.6079 8.07716 14.768 8.0373 14.9343 8.00569ZM13.3936 8.54961C13.6839 8.38674 14.0062 8.25343 14.3536 8.14897C14.3316 8.1823 14.3306 8.22594 14.3598 8.25514L14.4271 8.32249L13.7966 8.95265L13.3936 8.54961ZM13.2428 8.64169L13.2758 8.67468L12.6775 9.27288L12.5748 9.17015C12.603 9.14128 12.6294 9.11139 12.6586 9.08356C12.8318 8.92035 13.029 8.77398 13.2428 8.64169ZM12.134 13.0349C12.1487 13.0497 12.1683 13.0556 12.1879 13.0573L11.8179 13.4273C11.8089 13.404 11.7976 13.3813 11.789 13.3579C11.6938 13.0971 11.6279 12.8288 11.5859 12.5587C11.5931 12.5608 11.599 12.5673 11.6062 12.5673C11.6217 12.5673 11.6351 12.558 11.6488 12.5498L12.134 13.0349ZM11.6017 11.1273L11.6602 11.1857L11.578 11.2678C11.5849 11.2207 11.5935 11.174 11.6017 11.1273ZM11.643 10.9256C11.7 10.6789 11.7766 10.4387 11.8763 10.2116C11.9299 10.2508 11.9622 10.2312 12.0055 10.1875L12.3319 10.514L11.7814 11.0644L11.643 10.9256ZM12.0086 9.94153C12.1343 9.70788 12.2838 9.49038 12.4563 9.29453L12.5559 9.39417L12.0086 9.94153ZM19.0403 15.2931C17.6673 16.5943 16.1513 16.4747 15.3566 16.4737C15.3556 16.4737 15.3549 16.4737 15.3542 16.4737C13.9667 16.4737 12.4473 14.8942 11.889 13.5988L13.0947 12.3931C13.1283 12.3594 13.1283 12.3051 13.0947 12.2715C13.061 12.2378 13.0067 12.2378 12.9734 12.2715L12.2776 12.9673C12.2759 12.9477 12.27 12.9284 12.2553 12.9133L11.7749 12.4333L12.7837 11.4245C12.8174 11.3908 12.8174 11.3365 12.7837 11.3029C12.75 11.2692 12.6958 11.2692 12.6621 11.3029L11.6533 12.3117L11.543 12.2014C11.5268 11.9753 11.5299 11.7499 11.5485 11.5269C11.5557 11.5231 11.5639 11.5238 11.5701 11.518L11.7811 11.307L12.1281 11.654C12.1621 11.688 12.2164 11.687 12.2498 11.654C12.2834 11.6203 12.2834 11.5661 12.2498 11.5324L11.9027 11.1854L12.4532 10.6349L12.5573 10.739C12.5906 10.7723 12.6449 10.7727 12.6789 10.739C12.7126 10.7053 12.7126 10.6511 12.6789 10.6174L12.5748 10.5133L12.8827 10.2054C12.9163 10.1717 12.9163 10.1174 12.8827 10.0841C12.849 10.0504 12.7947 10.0504 12.761 10.0841L12.4532 10.3916L12.1268 10.0652L12.6769 9.51478L13.1685 10.0065C13.2019 10.0398 13.2562 10.0401 13.2902 10.0065C13.3239 9.97279 13.3239 9.9185 13.2902 9.88483L12.7985 9.39314L13.3967 8.79494L13.675 9.07325L13.272 9.47629C13.2383 9.50997 13.2383 9.56425 13.272 9.59758C13.3053 9.63091 13.3596 9.63126 13.3933 9.59758L13.7963 9.19454L14.0275 9.42578C14.0609 9.45911 14.1152 9.45946 14.1492 9.42578C14.1829 9.39211 14.1829 9.33782 14.1492 9.30449L13.9179 9.07325L14.5481 8.44275L14.8426 8.73721L14.7433 8.83651C14.7096 8.87019 14.7096 8.92447 14.7433 8.95815C14.7766 8.99148 14.8309 8.99182 14.8649 8.95815L14.9642 8.85885L14.9748 8.8695C15.0082 8.90283 15.0625 8.90317 15.0965 8.8695C15.1302 8.83583 15.1302 8.78154 15.0965 8.74786L15.0858 8.73721L15.46 8.36303L15.7191 8.62211C15.7524 8.65544 15.8067 8.65578 15.8407 8.62211C15.8459 8.61661 15.8452 8.60905 15.8486 8.60287C15.8527 8.61489 15.8534 8.62829 15.863 8.63791C15.8964 8.67124 15.9507 8.67159 15.9847 8.63791L16.3877 8.23487L16.6629 8.51009C16.6963 8.54342 16.7506 8.54377 16.7846 8.51009C16.809 8.4857 16.8093 8.45203 16.7983 8.42179C16.8042 8.41835 16.8114 8.41938 16.8165 8.41423L17.19 8.04074C17.3787 8.08713 17.5632 8.14279 17.7401 8.21254C20.6033 9.34435 21.3153 13.1391 19.0403 15.2931Z" fill="black"/>
<path d="M17.3285 8.10191C17.2949 8.06824 17.2406 8.06824 17.2069 8.10191C17.1732 8.13559 17.1732 8.18988 17.2069 8.22355L17.5409 8.55753C17.5742 8.59086 17.6285 8.5912 17.6625 8.55753C17.6962 8.52385 17.6962 8.46957 17.6625 8.43589L17.3285 8.10191Z" fill="black"/>
<path d="M7 1C3.69169 1 1 3.69169 1 7V25C1 28.3083 3.69169 31 7 31H25C28.3083 31 31 28.3083 31 25V7C31 3.69123 28.3088 1 25 1H7ZM7 1.92308H25C27.7992 1.92308 30.0769 4.20077 30.0769 7V25C30.0769 27.7992 27.7992 30.0769 25 30.0769H7C4.20077 30.0769 1.92308 27.7992 1.92308 25V7C1.92308 4.20077 4.20077 1.92308 7 1.92308ZM8.3098 3.30679C5.55164 3.30679 3.30769 5.55074 3.30769 8.30889V23.6902C3.30769 26.4484 5.55164 28.6914 8.3098 28.6914H23.6911C26.4493 28.6914 28.6923 26.4484 28.6923 23.6902V15.0769C28.6923 14.9491 28.5889 14.8462 28.4615 14.8462C28.3342 14.8462 28.2308 14.9495 28.2308 15.0769V23.6902C28.2308 26.1936 26.1945 28.2308 23.6911 28.2308H8.3098C5.80641 28.2308 3.76923 26.1936 3.76923 23.6902V8.30889C3.76923 5.80551 5.80641 3.76833 8.3098 3.76833H23.8462C23.9735 3.76833 24.0769 3.66494 24.0769 3.53756C24.0769 3.41018 23.9735 3.30679 23.8462 3.30679H8.3098ZM28.4615 10.2308C28.3342 10.2308 28.2308 10.3337 28.2308 10.4615V11.3846C28.2308 11.512 28.3342 11.6154 28.4615 11.6154C28.5889 11.6154 28.6923 11.512 28.6923 11.3846V10.4615C28.6923 10.3342 28.5889 10.2308 28.4615 10.2308ZM28.4615 12.0769C28.3342 12.0769 28.2308 12.1803 28.2308 12.3077V14.1538C28.2308 14.2812 28.3342 14.3846 28.4615 14.3846C28.5889 14.3846 28.6923 14.2812 28.6923 14.1538V12.3077C28.6923 12.1798 28.5889 12.0769 28.4615 12.0769Z" fill="black"/>
</svg>
