<svg width="104" height="73" viewBox="0 0 104 73" fill="none" xmlns="http://www.w3.org/2000/svg">
<g clip-path="url(#clip0_49_277)">
<path d="M103.619 35.0132C88.9441 21.6122 72.9921 9.99341 55.4557 0.560539C54.515 0.0583713 53.2971 0.58023 52.901 1.46641C52.8416 1.49595 52.7822 1.51564 52.7228 1.56487C50.5047 3.39631 48.6332 5.91699 46.1776 7.4235C45.4745 7.85674 45.3854 8.67399 45.7221 9.35339C46.643 11.2242 47.6728 13.4397 48.9105 15.4188C36.9093 13.1935 24.5022 12.6323 12.5406 10.3971C11.4118 10.1903 10.5899 10.8107 10.2433 11.6181C-0.5795 14.1388 -0.0447951 27.9927 -0.0447951 37.0908C-0.0447951 44.0325 -0.440874 52.5398 2.08413 59.0975C3.77736 63.4989 11.491 65.9014 15.5706 66.9254C15.9469 67.0239 16.2835 66.9451 16.5707 66.7777C16.6301 66.7679 16.6895 66.7679 16.7489 66.7482C27.4331 63.5087 38.0877 60.1609 48.7422 56.8131C47.1479 60.4563 46.3756 64.8872 45.9894 68.491C45.93 69.0227 46.3558 69.4953 46.7618 69.7612C49.1382 71.2972 52.0296 73.0007 54.9309 72.4296C55.0497 72.4099 55.1487 72.341 55.218 72.2622C55.8122 72.6757 56.6439 72.784 57.2678 72.3902C73.7842 61.8545 88.9837 49.96 103.658 37.0317C104.243 36.5197 104.154 35.5055 103.619 35.0132ZM3.37138 27.8745C5.37158 26.0431 7.36187 24.3692 9.91658 23.1187C10.8474 22.6658 10.1344 21.1888 9.18383 21.5039C7.41138 22.075 5.59932 22.9513 4.02491 24.1132C5.06462 19.9974 7.23315 16.4724 11.5504 14.3357H11.5603C12.0059 14.4341 12.4515 14.5228 12.8971 14.6212C12.6198 18.8355 12.5208 23.0498 12.5208 27.264C10.9563 28.3373 9.40167 29.3909 7.91638 30.5724C6.35187 31.8032 4.4903 32.9454 3.18324 34.4716C3.12383 32.2463 3.14364 30.021 3.37138 27.8745ZM3.32187 35.2692C5.33197 34.639 7.08462 33.1719 8.80756 31.9903C10.1344 31.0844 11.3524 30.0604 12.5505 28.997C12.5703 30.8481 12.6297 32.6894 12.6891 34.5405C9.45118 36.8446 6.5202 39.5721 3.55952 42.2207C3.55952 42.201 3.55952 42.1814 3.55952 42.1617C3.4605 39.9561 3.30207 37.6126 3.21295 35.2593C3.24266 35.2692 3.27236 35.2889 3.32187 35.2692ZM3.56942 44.446C3.61893 44.4263 3.66844 44.4165 3.71795 44.3771C6.73805 42.0041 9.88687 39.7001 12.7485 37.1105C12.8377 39.5524 12.9565 41.9943 13.0951 44.4263C12.9565 44.387 12.798 44.4067 12.6198 44.4953C9.28285 46.3759 6.54001 48.8671 4.00511 51.7225C3.41099 52.3921 4.39128 53.3374 5.02501 52.6776C7.5104 50.088 10.3226 47.8135 13.1644 45.6178C13.2931 47.9514 13.4417 50.285 13.6001 52.6186H13.5902C10.8969 54.2235 7.9956 56.0451 5.63893 58.2113C3.39119 55.7497 3.53971 48.7489 3.56942 44.446ZM7.17373 59.4323C9.48089 58.1523 11.6791 56.5178 13.7189 54.8636C13.9071 57.6895 14.0952 60.5154 14.2734 63.3315C11.8079 62.209 9.43138 60.9979 7.17373 59.4323ZM57.3767 13.164C58.0995 14.7788 58.8422 16.3837 59.6046 17.9789C57.5252 17.3487 55.426 16.817 53.3169 16.3345C53.2773 16.2163 53.2179 16.108 53.1782 15.9899C54.5249 15.1923 55.8221 14.3455 57.1192 13.4397C57.238 13.3609 57.3173 13.2624 57.3767 13.164ZM54.9111 7.81735C54.9408 7.77796 54.9606 7.73858 54.9804 7.69919C55.5943 9.14662 56.228 10.594 56.8717 12.0316C56.6934 11.9824 56.4855 11.9922 56.2776 12.0907C54.921 12.7307 53.6139 13.4101 52.3168 14.1289C51.7623 13.0852 51.1186 12.0612 50.4453 11.0765C52.1781 10.466 53.6832 9.11708 54.9111 7.81735ZM48.6431 8.58537C49.9403 6.78348 51.7425 5.26713 53.2674 3.62278C53.7229 4.76496 54.218 5.88745 54.7031 7.01979C54.5843 6.97056 54.4457 6.9804 54.3071 7.07887C52.8713 8.14228 51.2474 9.11708 49.9304 10.3479C49.4947 9.7374 49.059 9.14662 48.6431 8.58537ZM57.139 62.1401C56.9509 62.0908 56.7331 62.1105 56.535 62.2681C54.8319 63.6564 52.9208 64.9167 50.9602 65.9211C50.0195 66.4036 50.881 67.7624 51.8217 67.2996C53.6535 66.4036 55.218 65.3106 56.634 63.9124C56.03 66.0983 55.3567 68.2645 54.5546 70.4209C54.5051 70.5587 54.4952 70.6868 54.4853 70.8148C52.8515 69.6726 50.9206 68.9735 49.2175 67.8608C49.7225 66.1672 50.1482 64.4441 50.6037 62.7407C51.5741 61.6182 52.6435 60.6336 53.8615 59.7769C55.0695 58.9301 56.7231 58.5363 57.7529 57.5122C58.1193 57.1479 57.7926 56.6162 57.3371 56.5867C55.8518 56.5079 54.2477 57.719 53.0792 58.5166C52.5049 58.9104 51.9702 59.3437 51.4553 59.8065C51.891 58.4083 52.3366 57.0396 52.594 55.6119C54.6635 54.962 56.733 54.3122 58.8125 53.6623C58.4065 56.5276 57.852 59.3437 57.139 62.1401ZM59.6838 66.5316C61.179 61.628 62.2088 56.6556 62.7732 51.4862C62.9218 50.1767 61.9316 48.8474 60.4661 49.3102C46.2073 53.7411 31.9187 58.103 17.6995 62.6422C15.333 46.9076 15.4617 30.9958 15.323 15.1332C30.9979 18.1561 47.1281 17.8312 62.5257 22.587C64.11 23.0793 65.0705 21.238 64.4269 19.9875C62.0999 15.4779 60.0304 10.8599 58.1094 6.173C73.1703 14.7394 87.3994 24.635 100.44 36.0569C87.6767 47.1833 73.9031 57.2858 59.6838 66.5316Z" fill="black"/>
</g>
<defs>
<clipPath id="clip0_49_277">
<rect width="104" height="73" fill="white"/>
</clipPath>
</defs>
</svg>
