<svg width="719" height="389" viewBox="0 0 719 389" fill="none" xmlns="http://www.w3.org/2000/svg">
<g opacity="0.2" clip-path="url(#clip0_43_168)">
<path d="M320.455 213.408C334.144 194.889 347.07 177.391 347.5 146.07C347.896 127.504 345.638 108.978 340.794 91.0538C334.676 69.9851 321.829 51.508 304.222 38.4555C259.203 2.98008 219.802 -11.2184 129.356 9.72506C107.291 14.8237 84.6426 21.9091 68.4368 39.0876C57.4932 50.8241 49.0489 64.6692 43.6184 79.7798C41.255 86.6676 39.3257 93.6974 37.8421 100.827L37.2804 103.252C35.5705 109.731 33.2486 116.032 30.3459 122.07C28.1183 126.212 26.5552 130.68 25.7137 135.31C26.0119 137.449 28.647 139.88 31.4485 142.45C37.1759 146.497 40.8714 152.832 41.5797 159.817C41.4463 163.223 40.4718 166.543 38.7435 169.479C38.3362 170.228 37.9839 171.006 37.6895 171.806C36.3263 182.823 31.7039 193.18 24.417 201.544C16.2135 210.4 0.957729 226.884 0.839844 230.899C2.26581 232.274 3.79852 233.533 5.42351 234.664C7.09682 235.779 8.84893 236.77 10.666 237.63C16.581 240.666 24.6874 244.813 26.3031 253.336C27.3015 258.58 26.6497 264.005 24.4378 268.862C23.2658 271.348 22.0454 273.53 20.9705 275.412C20.603 276.058 20.2078 276.801 19.8541 277.427C22.6972 279.705 26.6499 282.685 28.3141 283.921C29.8134 285.037 30.8001 286.712 31.0507 288.566C31.3013 290.42 30.7947 292.297 29.6455 293.771C28.6175 295.119 27.7277 296.566 26.9896 298.092C27.482 298.384 27.9813 298.662 28.4805 298.947C34.5921 301.605 39.2469 306.795 41.233 313.166C42.3154 317.93 42.1313 322.895 40.699 327.566C38.9824 333.154 39.2271 339.162 41.3925 344.592C42.849 351.045 49.1588 355.172 55.6428 353.914C75.7528 348.985 95.5819 342.969 115.043 335.895H115.099C121.832 333.581 127.983 331.414 132.955 329.643C138.267 327.774 142.275 326.364 144.3 325.725C173.05 316.695 178.875 306.226 178.708 299.065C178.619 295.23 181.649 292.049 185.476 291.958C187.33 291.861 189.142 292.533 190.485 293.815C191.829 295.098 192.586 296.879 192.577 298.738C192.986 316.104 178.147 329.622 148.481 338.972C146.54 339.583 142.677 340.945 137.552 342.751L132.504 344.554C142.971 355.867 150.621 369.419 155.138 384.165C156.089 387.015 158.74 388.946 161.74 388.972H301.587C303.971 388.97 306.187 387.741 307.454 385.719C308.721 383.696 308.862 381.163 307.828 379.011C298.43 358.277 292.57 336.112 290.492 313.437C287.746 290.204 291.231 266.658 300.588 245.223C305.977 233.893 312.642 223.219 320.455 213.408ZM284.736 215.339C274.35 215.37 264.823 209.568 260.069 200.318C255.314 191.069 256.135 179.931 262.192 171.48C257.195 166.345 249.864 164.232 242.907 165.922C240.3 172.098 237.221 178.426 234.128 184.608C221.404 210.067 214.019 227.516 226.667 237.679C263.752 267.438 257.276 364.535 256.998 368.654C256.739 372.297 253.709 375.116 250.064 375.107H249.565C247.725 374.979 246.012 374.122 244.804 372.726C243.597 371.33 242.994 369.51 243.129 367.668C244.974 341.618 244.052 269.452 217.971 248.55C195.622 230.601 209.477 202.877 221.709 178.391C225.294 171.223 228.643 164.45 231.251 157.948C235.959 146.139 236.66 138.178 233.47 132.795C232.87 131.745 232.133 130.78 231.278 129.926C226.632 125.777 221.241 122.55 215.392 120.416L215.281 120.361L215.163 120.305C214.938 120.208 214.718 120.099 214.504 119.979C205.159 116.29 195.542 113.336 185.74 111.143C183.976 111.768 182.263 112.528 180.615 113.414C172.079 118.502 164.693 125.313 158.924 133.413C168.126 142.868 169.4 157.51 161.97 168.417C154.54 179.325 140.466 183.475 128.322 178.34C116.177 173.205 109.329 160.207 111.949 147.266C114.569 134.325 125.931 125.026 139.113 125.036C141.768 125.074 144.403 125.5 146.935 126.3C152.173 119.046 158.376 112.544 165.373 106.975L164.264 106.767C144.397 103.155 124.502 100.821 109.731 99.4035C105.128 112.557 91.482 120.232 77.8746 117.321C64.2673 114.41 54.9412 101.821 56.103 87.9313C57.2649 74.0417 68.5524 63.1825 82.4536 62.5806C96.3548 61.9788 108.536 71.8219 110.89 85.5592C121.291 86.5595 134.238 88.0113 147.954 90.0258C145.432 85.6206 143.453 80.9253 142.06 76.0426C128.307 73.9909 118.213 62.0287 118.484 48.1026C118.755 34.1764 129.306 22.6173 143.129 21.1041C156.951 19.5908 169.746 28.594 173.014 42.1327C176.281 55.6715 169.005 69.5353 156.019 74.5144C158.53 81.8423 162.918 88.3814 168.744 93.4781C174.451 94.5132 180.532 95.7357 186.898 97.1737C193.953 98.7899 200.425 100.522 206.314 102.37C204.239 90.0146 204.711 77.3646 207.701 65.1992C196.056 57.842 191.598 43.0164 197.249 30.4399C202.901 17.8633 216.936 11.3769 230.155 15.2322C243.375 19.0875 251.741 32.1069 249.77 45.757C247.8 59.4071 236.094 69.5187 222.326 69.4643C221.855 69.4643 221.411 69.3463 220.939 69.3254C218.249 82.1207 217.188 97.4376 223.061 108.635C228.168 110.796 232.993 113.572 237.429 116.902C242.432 106.733 249.413 97.6686 257.962 90.2411C257.351 87.9966 257.028 85.6834 256.998 83.3572C256.94 69.9904 266.35 58.4585 279.438 55.8572C292.527 53.2559 305.619 60.3156 310.659 72.6924C315.699 85.0692 311.272 99.2879 300.101 106.599C288.93 113.911 274.153 112.263 264.862 102.668C257.097 110.138 251.018 119.185 247.033 129.204C249.668 136.315 249.991 144.078 247.956 151.384C257.357 151.97 266.236 155.913 272.982 162.498C276.649 160.724 280.664 159.791 284.736 159.768C300.055 159.768 312.474 172.208 312.474 187.554C312.474 202.899 300.055 215.339 284.736 215.339Z" fill="black"/>
<path d="M116.576 328.599C123.25 332.55 129.975 340.882 132.504 344.554C156.521 355.191 206.377 376.844 213.658 378.363C222.76 380.263 238.687 381.402 245.134 382.162C250.292 382.77 261.694 379.883 266.75 378.363L269.026 331.258V307.705C269.026 305.806 270.543 277.694 270.543 276.175C270.543 274.959 281.667 246.038 287.229 231.729C292.285 227.93 302.701 220.028 303.915 218.813C305.431 217.293 314.912 200.198 315.291 199.439C315.595 198.831 322.244 186.776 325.531 180.824L328.564 121.563L316.808 72.1779L301.26 50.5245C287.734 40.7742 260.531 21.1976 259.924 20.8937C259.317 20.5898 238.94 12.9161 228.827 9.11731L170.806 12.9161L121.506 22.7931C119.989 23.097 91.5472 45.4594 77.5157 56.6027C70.6896 62.1743 56.8858 73.4695 56.279 74.0773C55.5205 74.837 46.0396 110.546 45.2812 111.686C44.6744 112.597 65.2538 188.295 75.6194 226.03C86.4906 258.574 109.902 324.648 116.576 328.599Z" fill="black"/>
<path d="M191.395 199.066H181.972V134.561L186.684 144.001L191.395 134.561V199.066Z" fill="#00A8FF"/>
<path d="M214.954 200.953C213.341 200.953 211.772 201.141 210.263 201.485L226.733 222.192H233.653C235.075 222.192 236.168 220.94 235.991 219.526C234.682 209.055 225.762 200.953 214.954 200.953Z" fill="#00A8FF"/>
<path d="M210.262 201.485C209.138 201.741 208.045 202.08 206.995 202.506C201.856 197.186 194.658 193.874 186.684 193.874C178.71 193.874 171.512 197.186 166.372 202.506C163.914 201.508 161.229 200.954 158.414 200.954C147.606 200.954 138.686 209.055 137.377 219.526C137.2 220.94 138.293 222.193 139.715 222.193H226.733C226.733 212.092 219.694 203.638 210.262 201.485Z" fill="#00A8FF"/>
<path d="M177.261 215.113C178.562 215.113 179.616 214.056 179.616 212.753C179.616 211.45 178.562 210.393 177.261 210.393C175.96 210.393 174.905 211.45 174.905 212.753C174.905 214.056 175.96 215.113 177.261 215.113Z" fill="#00A8FF"/>
<path d="M186.684 205.673C187.985 205.673 189.04 204.617 189.04 203.313C189.04 202.01 187.985 200.953 186.684 200.953C185.383 200.953 184.328 202.01 184.328 203.313C184.328 204.617 185.383 205.673 186.684 205.673Z" fill="#00A8FF"/>
<path d="M113.623 65.8207C112.214 65.7285 110.922 66.2713 110.005 67.1897L186.684 144.001C186.684 102.533 154.358 68.4867 113.623 65.8207Z" fill="#00A8FF"/>
<path d="M112.083 67.3634C111.081 66.8637 110.355 66.8389 110.005 67.1897C109.088 68.1082 108.547 69.4027 108.639 70.8136C111.3 111.619 145.288 144.001 186.684 144.001C173.892 115.347 141.052 81.8147 112.083 67.3634Z" fill="#00A8FF"/>
<path d="M259.745 65.8207C261.154 65.7285 262.446 66.2713 263.363 67.1897L186.684 144.001C186.684 102.533 219.011 68.4867 259.745 65.8207Z" fill="#00A8FF"/>
<path d="M264.729 70.8135C264.822 69.4026 264.28 68.1082 263.363 67.1897L186.684 144.001C228.08 144.001 262.068 111.619 264.729 70.8135Z" fill="#00A8FF"/>
<path d="M263.703 69.785C264.066 68.6456 263.902 67.73 263.363 67.1897C263.013 66.8389 262.287 66.8637 261.285 67.3634C232.316 81.8147 199.476 115.347 186.684 144.001C219.552 135.458 253.198 102.733 263.703 69.785Z" fill="#00A8FF"/>
</g>
<g opacity="0.2" clip-path="url(#clip1_43_168)">
<path d="M398.545 213.408C384.856 194.889 371.93 177.391 371.5 146.07C371.104 127.504 373.362 108.978 378.206 91.0538C384.324 69.9851 397.171 51.508 414.778 38.4555C459.797 2.98008 499.198 -11.2184 589.644 9.72506C611.709 14.8237 634.357 21.9091 650.563 39.0876C661.507 50.8241 669.951 64.6692 675.382 79.7798C677.745 86.6676 679.674 93.6974 681.158 100.827L681.72 103.252C683.429 109.731 685.751 116.032 688.654 122.07C690.882 126.212 692.445 130.68 693.286 135.31C692.988 137.449 690.353 139.88 687.552 142.45C681.824 146.497 678.129 152.832 677.42 159.817C677.554 163.223 678.528 166.543 680.256 169.479C680.664 170.228 681.016 171.006 681.311 171.806C682.674 182.823 687.296 193.18 694.583 201.544C702.786 210.4 718.042 226.884 718.16 230.899C716.734 232.274 715.201 233.533 713.576 234.664C711.903 235.779 710.151 236.77 708.334 237.63C702.419 240.666 694.313 244.813 692.697 253.336C691.698 258.58 692.35 264.005 694.562 268.862C695.734 271.348 696.955 273.53 698.029 275.412C698.397 276.058 698.792 276.801 699.146 277.427C696.303 279.705 692.35 282.685 690.686 283.921C689.187 285.037 688.2 286.712 687.949 288.566C687.699 290.42 688.205 292.297 689.354 293.771C690.382 295.119 691.272 296.566 692.01 298.092C691.518 298.384 691.019 298.662 690.519 298.947C684.408 301.605 679.753 306.795 677.767 313.166C676.685 317.93 676.869 322.895 678.301 327.566C680.018 333.154 679.773 339.162 677.608 344.592C676.151 351.045 669.841 355.172 663.357 353.914C643.247 348.985 623.418 342.969 603.957 335.895H603.901C597.168 333.581 591.017 331.414 586.045 329.643C580.733 327.774 576.725 326.364 574.7 325.725C545.95 316.695 540.125 306.226 540.292 299.065C540.381 295.23 537.351 292.049 533.524 291.958C531.67 291.861 529.858 292.533 528.515 293.815C527.171 295.098 526.414 296.879 526.423 298.738C526.014 316.104 540.853 329.622 570.519 338.972C572.46 339.583 576.323 340.945 581.448 342.751L586.496 344.554C576.029 355.867 568.379 369.419 563.862 384.165C562.911 387.015 560.26 388.946 557.26 388.972H417.413C415.029 388.97 412.813 387.741 411.546 385.719C410.279 383.696 410.138 381.163 411.172 379.011C420.57 358.277 426.43 336.112 428.508 313.437C431.254 290.204 427.769 266.658 418.412 245.223C413.023 233.893 406.358 223.219 398.545 213.408ZM434.264 215.339C444.65 215.37 454.177 209.568 458.931 200.318C463.686 191.069 462.865 179.931 456.808 171.48C461.805 166.345 469.136 164.232 476.093 165.922C478.7 172.098 481.779 178.426 484.872 184.608C497.596 210.067 504.981 227.516 492.333 237.679C455.248 267.438 461.724 364.535 462.002 368.654C462.261 372.297 465.291 375.116 468.936 375.107H469.435C471.275 374.979 472.988 374.122 474.196 372.726C475.403 371.33 476.006 369.51 475.871 367.668C474.026 341.618 474.948 269.452 501.029 248.55C523.378 230.601 509.523 202.877 497.291 178.391C493.706 171.223 490.357 164.45 487.749 157.948C483.041 146.139 482.34 138.178 485.53 132.795C486.13 131.745 486.867 130.78 487.722 129.926C492.368 125.777 497.759 122.55 503.608 120.416L503.719 120.361L503.837 120.305C504.062 120.208 504.282 120.099 504.496 119.979C513.841 116.29 523.458 113.336 533.26 111.143C535.024 111.768 536.737 112.528 538.385 113.414C546.921 118.502 554.307 125.313 560.076 133.413C550.874 142.868 549.6 157.51 557.03 168.417C564.46 179.325 578.534 183.475 590.678 178.34C602.823 173.205 609.671 160.207 607.051 147.266C604.431 134.325 593.069 125.026 579.887 125.036C577.232 125.074 574.597 125.5 572.065 126.3C566.827 119.046 560.624 112.544 553.627 106.975L554.736 106.767C574.603 103.155 594.498 100.821 609.269 99.4035C613.872 112.557 627.518 120.232 641.125 117.321C654.733 114.41 664.059 101.821 662.897 87.9313C661.735 74.0417 650.448 63.1825 636.546 62.5806C622.645 61.9788 610.464 71.8219 608.11 85.5592C597.709 86.5595 584.762 88.0113 571.046 90.0258C573.568 85.6206 575.547 80.9253 576.94 76.0426C590.693 73.9909 600.787 62.0287 600.516 48.1026C600.245 34.1764 589.694 22.6173 575.871 21.1041C562.049 19.5908 549.254 28.594 545.986 42.1327C542.719 55.6715 549.995 69.5353 562.981 74.5144C560.47 81.8423 556.082 88.3814 550.256 93.4781C544.549 94.5132 538.468 95.7357 532.102 97.1737C525.047 98.7899 518.575 100.522 512.686 102.37C514.761 90.0146 514.289 77.3646 511.299 65.1992C522.944 57.842 527.402 43.0164 521.751 30.4399C516.099 17.8633 502.064 11.3769 488.845 15.2322C475.625 19.0875 467.259 32.1069 469.23 45.757C471.2 59.4071 482.906 69.5187 496.674 69.4643C497.145 69.4643 497.589 69.3463 498.061 69.3254C500.751 82.1207 501.812 97.4376 495.939 108.635C490.832 110.796 486.007 113.572 481.571 116.902C476.568 106.733 469.587 97.6686 461.038 90.2411C461.649 87.9966 461.972 85.6834 462.002 83.3572C462.06 69.9904 452.65 58.4585 439.562 55.8572C426.473 53.2559 413.381 60.3156 408.341 72.6924C403.301 85.0692 407.728 99.2879 418.899 106.599C430.07 113.911 444.847 112.263 454.138 102.668C461.903 110.138 467.982 119.185 471.967 129.204C469.332 136.315 469.009 144.078 471.044 151.384C461.643 151.97 452.764 155.913 446.018 162.498C442.351 160.724 438.336 159.791 434.264 159.768C418.945 159.768 406.526 172.208 406.526 187.554C406.526 202.899 418.945 215.339 434.264 215.339Z" fill="black"/>
<path d="M602.424 328.599C595.75 332.55 589.025 340.882 586.496 344.554C562.479 355.191 512.623 376.844 505.342 378.363C496.24 380.263 480.313 381.402 473.866 382.162C468.708 382.77 457.306 379.883 452.25 378.363L449.974 331.258V307.705C449.974 305.806 448.457 277.694 448.457 276.175C448.457 274.959 437.333 246.038 431.771 231.729C426.715 227.93 416.299 220.028 415.085 218.813C413.569 217.293 404.088 200.198 403.709 199.439C403.405 198.831 396.756 186.776 393.469 180.824L390.436 121.563L402.192 72.1779L417.74 50.5245C431.266 40.7742 458.469 21.1976 459.076 20.8937C459.683 20.5898 480.06 12.9161 490.173 9.11731L548.194 12.9161L597.494 22.7931C599.011 23.097 627.453 45.4594 641.484 56.6027C648.31 62.1743 662.114 73.4695 662.721 74.0773C663.479 74.837 672.96 110.546 673.719 111.686C674.326 112.597 653.746 188.295 643.381 226.03C632.509 258.574 609.098 324.648 602.424 328.599Z" fill="black"/>
<g clip-path="url(#clip2_43_168)">
<path d="M577.909 118.02H572.807V97.5758C572.807 75.0265 554.501 56.6885 531.99 56.6885C509.48 56.6885 491.174 75.0265 491.174 97.5758V118.02H486.071C477.636 118.02 470.765 124.895 470.765 133.352V204.905C470.765 213.362 477.636 220.238 486.071 220.238H577.909C586.345 220.238 593.216 213.362 593.216 204.905V133.352C593.216 124.895 586.345 118.02 577.909 118.02ZM504.779 97.5758C504.779 82.5429 516.983 70.3176 531.99 70.3176C546.997 70.3176 559.202 82.5429 559.202 97.5758V118.02H504.779V97.5758ZM538.793 170.642V186.165C538.793 189.927 535.752 192.98 531.99 192.98C528.228 192.98 525.188 189.927 525.188 186.165V170.642C521.14 168.277 518.385 163.929 518.385 158.907C518.385 151.39 524.487 145.278 531.99 145.278C539.494 145.278 545.596 151.39 545.596 158.907C545.596 163.929 542.841 168.277 538.793 170.642Z" fill="#444444"/>
</g>
</g>
<defs>
<clipPath id="clip0_43_168">
<rect width="348" height="389" fill="white"/>
</clipPath>
<clipPath id="clip1_43_168">
<rect width="348" height="389" fill="white" transform="matrix(-1 0 0 1 719 0)"/>
</clipPath>
<clipPath id="clip2_43_168">
<rect width="163.267" height="163.549" fill="white" transform="translate(450.357 56.6885)"/>
</clipPath>
</defs>
</svg>
