<svg width="20" height="20" viewBox="0 0 20 20" fill="none" xmlns="http://www.w3.org/2000/svg">
<g clip-path="url(#clip0_1_14385)">
<path d="M4 0C1.79446 0 0 1.79446 0 4V16C0 18.2055 1.79446 20 4 20H16C18.2055 20 20 18.2055 20 16V4C20 1.79415 18.2058 0 16 0H4ZM4 0.615385H16C17.8662 0.615385 19.3846 2.13385 19.3846 4V16C19.3846 17.8662 17.8662 19.3846 16 19.3846H4C2.13385 19.3846 0.615385 17.8662 0.615385 16V4C0.615385 2.13385 2.13385 0.615385 4 0.615385ZM4.8732 1.53786C3.03443 1.53786 1.53846 3.03383 1.53846 4.8726V15.1268C1.53846 16.9656 3.03443 18.4609 4.8732 18.4609H15.1274C16.9662 18.4609 18.4615 16.9656 18.4615 15.1268V9.38462C18.4615 9.29938 18.3926 9.23077 18.3077 9.23077C18.2228 9.23077 18.1538 9.29969 18.1538 9.38462V15.1268C18.1538 16.7957 16.7963 18.1538 15.1274 18.1538H4.8732C3.20427 18.1538 1.84615 16.7957 1.84615 15.1268V4.8726C1.84615 3.20367 3.20427 1.84555 4.8732 1.84555H15.2308C15.3157 1.84555 15.3846 1.77663 15.3846 1.69171C15.3846 1.60678 15.3157 1.53786 15.2308 1.53786H4.8732ZM18.3077 6.15385C18.2228 6.15385 18.1538 6.22246 18.1538 6.30769V6.92308C18.1538 7.008 18.2228 7.07692 18.3077 7.07692C18.3926 7.07692 18.4615 7.008 18.4615 6.92308V6.30769C18.4615 6.22277 18.3926 6.15385 18.3077 6.15385ZM18.3077 7.38462C18.2228 7.38462 18.1538 7.45354 18.1538 7.53846V8.76923C18.1538 8.85415 18.2228 8.92308 18.3077 8.92308C18.3926 8.92308 18.4615 8.85415 18.4615 8.76923V7.53846C18.4615 7.45323 18.3926 7.38462 18.3077 7.38462Z" fill="black"/>
<path d="M12.32 4.56006C10.7754 4.56006 9.51998 5.81551 9.51998 7.36006C9.51998 7.53813 9.55822 7.70398 9.5906 7.87162C6.14099 7.56698 4.47203 5.42466 4.24029 5.106C4.22461 5.0844 4.20379 5.06707 4.17971 5.05558C4.15563 5.04408 4.12905 5.03879 4.10241 5.04019C4.07576 5.04159 4.04988 5.04963 4.02714 5.06358C4.00439 5.07753 3.98549 5.09694 3.97216 5.12006C3.7328 5.53548 3.59998 6.05244 3.59998 6.56006C3.59998 7.38977 3.9946 8.16604 4.6081 8.67318C4.43207 8.64442 4.28522 8.60639 4.1706 8.56818C3.94578 8.49324 3.84873 8.42693 3.84873 8.42693C3.82463 8.41088 3.79663 8.40166 3.7677 8.40026C3.73878 8.39887 3.71002 8.40535 3.68449 8.41901C3.65896 8.43267 3.63761 8.45301 3.62273 8.47785C3.60785 8.50269 3.59998 8.5311 3.59998 8.56006C3.59998 9.71817 4.33068 10.7018 5.35248 11.0947C5.29954 11.0976 5.25397 11.1201 5.19998 11.1201C5.06356 11.1201 4.85518 11.108 4.72998 11.0894C4.70199 11.0853 4.67342 11.0887 4.64716 11.0992C4.6209 11.1097 4.5979 11.127 4.58049 11.1493C4.56309 11.1716 4.55191 11.1981 4.54808 11.2261C4.54426 11.2541 4.54793 11.2827 4.55873 11.3088L4.57216 11.3413C4.57227 11.3416 4.57237 11.3419 4.57248 11.3422C4.97866 12.3027 5.968 12.9684 7.04279 13.1332C6.20751 13.7662 5.12136 14.1601 3.99998 14.1601H3.75998C3.72564 14.1601 3.69222 14.1711 3.66466 14.1916C3.63709 14.2121 3.61683 14.2408 3.60688 14.2737C3.59694 14.3066 3.59782 14.3418 3.60941 14.3741C3.62099 14.4064 3.64267 14.4341 3.67123 14.4532C4.66612 15.1164 5.99231 15.4401 7.35998 15.4401C11.6439 15.4401 15.12 11.964 15.12 7.68006C15.12 7.67954 15.12 7.67902 15.12 7.6785C15.12 7.6785 15.119 7.58069 15.1178 7.4785C15.1171 7.41627 15.1163 7.38242 15.1156 7.33787C15.8983 6.8704 16.3681 6.256 16.3681 6.256C16.3882 6.2291 16.3993 6.19657 16.3999 6.163C16.4005 6.12942 16.3905 6.09652 16.3714 6.06894C16.3522 6.04136 16.3249 6.0205 16.2932 6.00931C16.2616 5.99813 16.2272 5.99719 16.195 6.00662C16.195 6.00662 15.6779 6.13148 15.1315 6.19318C15.7687 5.66053 15.9919 5.09068 15.9919 5.09068C16.0021 5.06019 16.0029 5.02732 15.9941 4.99637C15.9854 4.96542 15.9675 4.93782 15.9428 4.91717C15.9182 4.89653 15.8879 4.88379 15.8559 4.88063C15.8239 4.87746 15.7916 4.88402 15.7634 4.89943C15.7634 4.89943 14.972 5.31469 14.2581 5.351C13.7548 4.86536 13.0742 4.56006 12.32 4.56006ZM12.32 4.88006C13.017 4.88006 13.6442 5.16768 14.095 5.63006C14.1103 5.64575 14.1287 5.65812 14.149 5.6664C14.1694 5.67468 14.1912 5.67869 14.2131 5.67818C14.7145 5.66615 15.1527 5.51584 15.4812 5.37725C15.3258 5.60746 15.0686 5.90366 14.6531 6.17225C14.6213 6.19286 14.5979 6.22408 14.5869 6.26036C14.576 6.29664 14.5783 6.33563 14.5934 6.37037C14.6018 6.38956 14.611 6.41932 14.6259 6.45725C14.6379 6.48769 14.659 6.51373 14.6863 6.53183C14.7135 6.54994 14.7457 6.55924 14.7784 6.5585C15.1335 6.55064 15.493 6.49158 15.7747 6.43412C15.5625 6.64112 15.258 6.89939 14.8759 7.11475C14.8502 7.12923 14.8291 7.15052 14.8147 7.17627C14.8004 7.20202 14.7935 7.23123 14.7947 7.26068C14.7947 7.26069 14.7966 7.38032 14.7978 7.48225C14.799 7.58417 14.8 7.68162 14.8 7.68162C14.7991 11.7919 11.4704 15.1201 7.35998 15.1201C6.25591 15.1201 5.19832 14.8845 4.33591 14.4491C5.54435 14.373 6.70202 13.9144 7.54654 13.1594C7.57046 13.1381 7.58743 13.1101 7.59523 13.079C7.60303 13.0479 7.60132 13.0152 7.59031 12.985C7.57929 12.9549 7.55949 12.9288 7.53347 12.9101C7.50744 12.8914 7.4764 12.8809 7.44435 12.8801C6.43478 12.8518 5.46391 12.2535 5.00091 11.4269C5.0703 11.4303 5.14073 11.4401 5.19998 11.4401C5.55451 11.4401 5.89425 11.3843 6.21341 11.271C6.24824 11.2587 6.27775 11.2347 6.29692 11.2032C6.31609 11.1716 6.32376 11.1344 6.3186 11.0978C6.31345 11.0612 6.29581 11.0275 6.26866 11.0025C6.24151 10.9775 6.20653 10.9626 6.16966 10.9604C4.99945 10.8885 4.06836 9.97284 3.94466 8.816C4.00162 8.84117 3.98944 8.8453 4.06935 8.87193C4.32453 8.95699 4.7022 9.04006 5.19998 9.04006C5.23633 9.04007 5.27161 9.02771 5.3 9.005C5.32839 8.98228 5.3482 8.95058 5.35616 8.91511C5.36413 8.87964 5.35978 8.84251 5.34383 8.80984C5.32788 8.77717 5.30128 8.75091 5.26841 8.73537C4.47478 8.36086 3.91998 7.48276 3.91998 6.56006C3.91998 6.1922 4.01777 5.82574 4.16029 5.50287C4.65627 6.12395 6.38722 7.99772 9.76591 8.21818C9.79138 8.21985 9.81688 8.21539 9.84027 8.20519C9.86367 8.195 9.88428 8.17935 9.9004 8.15956C9.91652 8.13978 9.92767 8.11642 9.93292 8.09144C9.93818 8.06647 9.93738 8.0406 9.9306 8.016C9.87286 7.8056 9.83998 7.58673 9.83998 7.36006C9.83998 5.98844 10.9484 4.88006 12.32 4.88006ZM12.32 5.36006C11.7299 5.36006 11.1995 5.61892 10.8334 6.02662C10.8262 6.0344 10.8206 6.04355 10.8169 6.05352C10.8133 6.06349 10.8117 6.07408 10.8121 6.08469C10.8126 6.0953 10.8152 6.1057 10.8198 6.1153C10.8243 6.12489 10.8307 6.13349 10.8386 6.14058C10.8465 6.14767 10.8558 6.15312 10.8658 6.15661C10.8758 6.1601 10.8864 6.16156 10.897 6.1609C10.9076 6.16024 10.918 6.15747 10.9275 6.15277C10.937 6.14807 10.9455 6.14151 10.9525 6.1335C11.2898 5.75784 11.7766 5.52006 12.32 5.52006C12.7781 5.52006 13.2076 5.68772 13.5465 5.99287C13.5542 6.0006 13.5634 6.00668 13.5735 6.01074C13.5836 6.0148 13.5944 6.01676 13.6053 6.0165C13.6162 6.01623 13.6269 6.01375 13.6368 6.0092C13.6467 6.00465 13.6555 5.99813 13.6628 5.99004C13.6701 5.98194 13.6756 5.97245 13.6791 5.96214C13.6826 5.95182 13.684 5.94091 13.6831 5.93006C13.6822 5.91921 13.6791 5.90865 13.674 5.89903C13.6689 5.88941 13.6619 5.88094 13.6534 5.87412C13.2861 5.54343 12.8173 5.36006 12.32 5.36006ZM10.5787 6.47912C10.563 6.47881 10.5475 6.48315 10.5342 6.4916C10.5209 6.50005 10.5104 6.51223 10.504 6.52662C10.4317 6.6837 10.3796 6.85119 10.35 7.02662C10.3482 7.03698 10.3485 7.04759 10.3508 7.05784C10.3532 7.06809 10.3575 7.07778 10.3636 7.08635C10.3697 7.09493 10.3774 7.10222 10.3863 7.10782C10.3952 7.11341 10.4051 7.1172 10.4154 7.11896C10.4258 7.12073 10.4364 7.12044 10.4467 7.1181C10.4569 7.11577 10.4666 7.11143 10.4752 7.10536C10.4925 7.09308 10.5042 7.07442 10.5078 7.0535C10.5351 6.89196 10.5828 6.73785 10.6494 6.5935C10.6551 6.58142 10.6577 6.56811 10.657 6.55476C10.6563 6.54141 10.6522 6.52845 10.6452 6.51708C10.6382 6.5057 10.6284 6.49627 10.6168 6.48964C10.6052 6.48301 10.5921 6.47939 10.5787 6.47912V6.47912ZM10.3987 7.27881C10.3882 7.27897 10.3778 7.2812 10.3682 7.28538C10.3586 7.28955 10.3498 7.29558 10.3425 7.30312C10.3352 7.31067 10.3295 7.31958 10.3256 7.32935C10.3217 7.33912 10.3198 7.34955 10.32 7.36006C10.32 7.41934 10.3271 7.47535 10.3315 7.52693C10.3322 7.53759 10.335 7.548 10.3397 7.55757C10.3445 7.56713 10.3511 7.57565 10.3591 7.58262C10.3672 7.58959 10.3766 7.59487 10.3868 7.59816C10.3969 7.60144 10.4076 7.60266 10.4183 7.60174C10.4289 7.60083 10.4393 7.59779 10.4487 7.59282C10.4581 7.58784 10.4665 7.58102 10.4733 7.57277C10.48 7.56452 10.4851 7.555 10.4881 7.54476C10.4911 7.53453 10.4921 7.52379 10.4909 7.51318C10.4861 7.45789 10.48 7.40605 10.48 7.36006C10.4801 7.34934 10.4782 7.3387 10.4741 7.32877C10.4701 7.31883 10.4641 7.30981 10.4566 7.30223C10.449 7.29465 10.4399 7.28868 10.43 7.28465C10.4201 7.28063 10.4094 7.27864 10.3987 7.27881V7.27881ZM13.6078 10.4791C13.5921 10.4788 13.5767 10.4832 13.5635 10.4916C13.5503 10.4999 13.5398 10.512 13.5334 10.5263C12.76 12.1967 11.3286 13.5018 9.57373 14.1079C9.56379 14.1113 9.55464 14.1167 9.54678 14.1237C9.53893 14.1307 9.53252 14.1391 9.52794 14.1486C9.52335 14.158 9.52068 14.1683 9.52006 14.1788C9.51945 14.1893 9.5209 14.1998 9.52435 14.2097C9.5278 14.2197 9.53317 14.2288 9.54015 14.2367C9.54714 14.2445 9.5556 14.2509 9.56506 14.2555C9.57452 14.2601 9.58479 14.2628 9.59529 14.2634C9.60578 14.264 9.61629 14.2626 9.62623 14.2591C11.4227 13.6387 12.8867 12.3036 13.6784 10.5938C13.6842 10.5817 13.6869 10.5684 13.6862 10.555C13.6855 10.5416 13.6815 10.5286 13.6744 10.5172C13.6674 10.5057 13.6576 10.4963 13.646 10.4896C13.6343 10.483 13.6212 10.4794 13.6078 10.4791V10.4791ZM8.63841 14.3585C8.6339 14.3586 8.6294 14.3592 8.62498 14.3601C8.36638 14.4091 8.1025 14.443 7.83435 14.4616C7.82387 14.4624 7.81363 14.4652 7.80422 14.4699C7.79482 14.4745 7.78643 14.481 7.77954 14.489C7.77265 14.4969 7.76739 14.5061 7.76406 14.5161C7.76073 14.5261 7.75939 14.5366 7.76013 14.5471C7.76087 14.5576 7.76367 14.5678 7.76836 14.5772C7.77306 14.5866 7.77956 14.595 7.7875 14.6019C7.79543 14.6088 7.80465 14.6141 7.81462 14.6174C7.82459 14.6207 7.83512 14.622 7.8456 14.6213C8.11986 14.6022 8.39005 14.5674 8.65498 14.5172C8.6749 14.5137 8.69275 14.5028 8.70493 14.4866C8.71711 14.4705 8.72272 14.4503 8.72062 14.4302C8.71852 14.41 8.70887 14.3914 8.69362 14.3782C8.67836 14.3649 8.65864 14.3578 8.63841 14.3585ZM7.20154 14.4754C7.19103 14.4752 7.18059 14.477 7.1708 14.4809C7.16102 14.4847 7.15208 14.4904 7.1445 14.4977C7.13693 14.505 7.13086 14.5137 7.12665 14.5233C7.12244 14.5329 7.12017 14.5433 7.11996 14.5538C7.11976 14.5643 7.12163 14.5748 7.12546 14.5845C7.12929 14.5943 7.13501 14.6033 7.1423 14.6108C7.14958 14.6184 7.15828 14.6245 7.16791 14.6287C7.17754 14.6329 7.18791 14.6352 7.19841 14.6354C7.2496 14.6364 7.30257 14.6401 7.35998 14.6401C7.37058 14.6402 7.3811 14.6382 7.39094 14.6343C7.40078 14.6303 7.40973 14.6245 7.41728 14.617C7.42483 14.6096 7.43082 14.6007 7.43492 14.5909C7.43901 14.5812 7.44112 14.5707 7.44112 14.5601C7.44112 14.5495 7.43901 14.539 7.43492 14.5292C7.43082 14.5194 7.42483 14.5105 7.41728 14.5031C7.40973 14.4956 7.40078 14.4898 7.39094 14.4858C7.3811 14.4819 7.37058 14.4799 7.35998 14.4801C7.30954 14.4801 7.25755 14.4765 7.20154 14.4754Z" fill="black"/>
</g>
<defs>
<clipPath id="clip0_1_14385">
<rect width="20" height="20" fill="white"/>
</clipPath>
</defs>
</svg>
