<svg width="31" height="30" viewBox="0 0 31 30" fill="none" xmlns="http://www.w3.org/2000/svg">
<path d="M6.3335 0C3.02519 0 0.333496 2.69169 0.333496 6V24C0.333496 27.3083 3.02519 30 6.3335 30H24.3335C27.6418 30 30.3335 27.3083 30.3335 24V6C30.3335 2.69123 27.6423 0 24.3335 0H6.3335ZM6.3335 0.923077H24.3335C27.1327 0.923077 29.4104 3.20077 29.4104 6V24C29.4104 26.7992 27.1327 29.0769 24.3335 29.0769H6.3335C3.53427 29.0769 1.25657 26.7992 1.25657 24V6C1.25657 3.20077 3.53427 0.923077 6.3335 0.923077ZM7.64329 2.30679C4.88514 2.30679 2.64119 4.55074 2.64119 7.30889V22.6902C2.64119 25.4484 4.88514 27.6914 7.64329 27.6914H23.0246C25.7828 27.6914 28.0258 25.4484 28.0258 22.6902V14.0769C28.0258 13.9491 27.9224 13.8462 27.795 13.8462C27.6677 13.8462 27.5643 13.9495 27.5643 14.0769V22.6902C27.5643 25.1936 25.528 27.2308 23.0246 27.2308H7.64329C5.13991 27.2308 3.10273 25.1936 3.10273 22.6902V7.30889C3.10273 4.80551 5.13991 2.76833 7.64329 2.76833H23.1796C23.307 2.76833 23.4104 2.66494 23.4104 2.53756C23.4104 2.41018 23.307 2.30679 23.1796 2.30679H7.64329ZM27.795 9.23077C27.6677 9.23077 27.5643 9.33369 27.5643 9.46154V10.3846C27.5643 10.512 27.6677 10.6154 27.795 10.6154C27.9224 10.6154 28.0258 10.512 28.0258 10.3846V9.46154C28.0258 9.33415 27.9224 9.23077 27.795 9.23077ZM27.795 11.0769C27.6677 11.0769 27.5643 11.1803 27.5643 11.3077V13.1538C27.5643 13.2812 27.6677 13.3846 27.795 13.3846C27.9224 13.3846 28.0258 13.2812 28.0258 13.1538V11.3077C28.0258 11.1798 27.9224 11.0769 27.795 11.0769Z" fill="black"/>
<g clip-path="url(#clip0_46_230)">
<path d="M21.6067 17.819C21.3807 16.6344 20.1288 15.7347 18.9345 15.7705C16.8056 15.96 15.9888 16.6091 14.7881 14.3322C14.6921 14.1606 14.5867 13.9454 14.5017 13.7667C14.4379 13.6389 14.3657 13.4796 14.4044 13.3287C14.8807 11.9934 15.3999 10.9098 14.356 9.61546C13.8802 9.01394 13.0363 8.61143 12.2562 8.80734C11.5581 9.15598 10.9703 9.75948 10.536 10.4105C9.71454 11.6609 9.74439 13.2839 10.2677 14.6386C11.5266 17.7586 14.8023 20.5415 18.3065 20.2571C19.6673 20.2579 21.6869 19.4279 21.6067 17.819ZM20.9049 18.111C20.5819 19.1365 19.2291 19.5736 18.2407 19.5567C14.013 20.0921 7.83079 13.0158 12.6043 9.94243C13.5158 9.98917 13.9378 11.1662 13.572 11.9252C13.317 12.5295 12.9546 13.2925 13.2242 13.9893C13.7065 15.0434 14.4008 16.2511 15.5356 16.7827C16.8141 17.4445 18.1266 16.47 19.4211 16.5913C20.1025 16.7229 20.9476 17.36 20.9049 18.111Z" fill="black"/>
<path d="M26.3303 14.9777C26.322 14.3303 26.2152 13.6761 26.1219 13.0373C26.007 12.2461 25.8137 11.4452 25.5422 10.6927C24.3486 7.24383 21.3949 4.75316 17.7897 4.17013C11.973 3.18785 6.28599 7.06628 5.75237 13.0745C5.68042 13.8589 5.68963 14.6764 5.77065 15.4612C5.61662 17.1504 5.64462 18.8439 5.44262 20.5241C5.0388 23.3921 5.65412 26.226 9.01809 23.9872C10.6528 22.9708 11.0352 24.0109 12.5515 24.4664C14.3395 25.083 16.3118 25.1244 18.1478 24.7083C18.8271 24.5929 22.3969 23.3975 22.0884 22.6427C22.0109 22.4558 21.7928 22.3708 21.6088 22.4544C20.4112 22.9575 19.1943 23.3377 17.9238 23.5477C15.8712 23.883 13.6889 23.7602 11.7806 22.8849C9.05732 21.1646 6.95852 25.7446 6.25213 23.0522C6.02712 21.9328 6.23106 20.7556 6.29878 19.6243C6.35849 18.242 6.37061 16.8571 6.48575 15.4793C6.4879 15.4571 6.48777 15.436 6.48651 15.4157C6.51239 14.4779 6.61022 13.5637 6.82024 12.6606C8.06465 6.78908 14.7327 3.5313 20.1772 5.90809C22.426 6.90249 24.1156 8.92174 24.8897 11.2377C25.2359 12.2225 25.3941 13.273 25.533 14.3035C25.7213 15.946 25.459 17.7211 24.4376 19.0608C24.2536 19.2433 24.0583 19.5714 24.3251 19.7765C24.9458 20.2892 25.856 17.9996 25.9935 17.5549C26.2502 16.7225 26.3537 15.8465 26.3303 14.9777Z" fill="black"/>
</g>
<defs>
<clipPath id="clip0_46_230">
<rect width="21" height="21" fill="white" transform="translate(5.3335 4)"/>
</clipPath>
</defs>
</svg>
